<?xml version="1.0" encoding="UTF-8" standalone="no"?><!DOCTYPE svg PUBLIC "-//W3C//DTD SVG 1.1//EN" "http://www.w3.org/Graphics/SVG/1.1/DTD/svg11.dtd"><svg width="100%" height="100%" viewBox="0 0 60 60" version="1.1" xmlns="http://www.w3.org/2000/svg" xmlns:xlink="http://www.w3.org/1999/xlink" xml:space="preserve" xmlns:serif="http://www.serif.com/" style="fill-rule:evenodd;clip-rule:evenodd;stroke-linejoin:round;stroke-miterlimit:2;"><g><path d="M53.569,60l-47.138,0c-1.969,0 -3.564,-1.596 -3.564,-3.564l-0,-48.23c-0,-1.968 1.595,-3.563 3.564,-3.563l47.138,-0c1.968,-0 3.563,1.595 3.563,3.563l0,48.23c0,1.968 -1.595,3.564 -3.563,3.564Z" style="fill:url(#_Linear1);fill-rule:nonzero;"/><path d="M57.132,8.206c0,-1.968 -1.595,-3.563 -3.563,-3.563l-47.138,-0c-0.011,-0 -0.022,0 -0.033,0l-0,7.961l47.389,47.389c1.866,-0.113 3.345,-1.662 3.345,-3.557l0,-48.23Z" style="fill:url(#_Linear2);fill-rule:nonzero;"/><path d="M53.569,4.643l-47.138,-0c-1.969,-0 -3.564,1.595 -3.564,3.563l-0,0.833c-0,1.968 1.595,3.564 3.564,3.564l47.138,0c1.968,0 3.563,-1.596 3.563,-3.564l0,-0.833c0,-1.968 -1.595,-3.563 -3.563,-3.563Z" style="fill:#07adb5;fill-rule:nonzero;"/><path d="M22.132,1.37l0,11.234l-15.735,-0l0,-11.234c0,-0.756 0.614,-1.37 1.37,-1.37l12.996,0c0.755,0 1.369,0.614 1.369,1.37Z" style="fill:url(#_Linear3);fill-rule:nonzero;"/><path d="M20.762,0l-12.994,0c-0.757,0 -1.371,0.613 -1.371,1.37l0,3.678c0,0.756 0.614,1.37 1.371,1.37l12.994,-0c0.757,-0 1.37,-0.614 1.37,-1.37l0,-3.678c0,-0.757 -0.613,-1.37 -1.37,-1.37Z" style="fill:url(#_Linear4);fill-rule:nonzero;"/><path d="M53.602,1.37l-0,11.234l-15.735,-0l0,-11.234c0,-0.756 0.614,-1.37 1.37,-1.37l12.995,0c0.756,0 1.37,0.614 1.37,1.37Z" style="fill:url(#_Linear5);fill-rule:nonzero;"/><path d="M52.232,0l-12.995,0c-0.756,0 -1.37,0.613 -1.37,1.37l0,3.678c0,0.756 0.614,1.37 1.37,1.37l12.995,-0c0.756,-0 1.37,-0.614 1.37,-1.37l-0,-3.678c-0,-0.757 -0.614,-1.37 -1.37,-1.37Z" style="fill:url(#_Linear6);fill-rule:nonzero;"/><path d="M37.867,4.369l-0,8.235l-15.735,-0l0,-8.235c0,-0.755 0.614,-1.369 1.37,-1.369l12.995,-0c0.756,-0 1.37,0.614 1.37,1.369Z" style="fill:url(#_Linear7);fill-rule:nonzero;"/><path d="M36.497,3l-12.995,-0c-0.756,-0 -1.37,0.613 -1.37,1.37l0,3.677c0,0.757 0.614,1.371 1.37,1.371l12.995,-0c0.757,-0 1.37,-0.614 1.37,-1.371l0,-3.677c0,-0.757 -0.613,-1.37 -1.37,-1.37Z" style="fill:url(#_Linear8);fill-rule:nonzero;"/><circle cx="13.42" cy="20.995" r="2.789" style="fill:url(#_Linear9);"/><circle cx="46.579" cy="20.995" r="2.789" style="fill:url(#_Linear10);"/><path d="M57.133,29.103l0,27.333c0,1.968 -1.596,3.564 -3.564,3.564l-16.834,-0l-19.486,-19.487c-3.575,-3.432 -5.803,-8.277 -5.803,-13.617l-0,-5.629c-0,-1.071 0.866,-1.937 1.937,-1.937c0.678,0 1.276,0.35 1.622,0.88c-0,0 20.491,20.458 20.54,20.499c5.354,-2.193 9.135,-7.46 9.135,-13.594l-0,-5.848c-0,-1.071 0.867,-1.937 1.937,-1.937c0.68,0 1.276,0.35 1.622,0.88l8.894,8.893Z" style="fill:url(#_Linear11);fill-rule:nonzero;"/><path d="M30.332,45.667c-10.41,0.184 -18.887,-8.358 -18.887,-18.77l-0,-5.631c-0,-1.07 0.867,-1.937 1.937,-1.937c1.07,0 1.937,0.867 1.937,1.937l-0,5.647c-0,8.243 6.702,15.027 14.944,14.881c7.974,-0.141 14.417,-6.672 14.417,-14.679l0,-5.849c0,-1.07 0.867,-1.937 1.937,-1.937c1.07,0 1.937,0.867 1.937,1.937l0,5.849c0,10.12 -8.144,18.374 -18.222,18.552Z" style="fill:url(#_Linear12);fill-rule:nonzero;"/><path d="M57.132,56.436l0,-27.334l-8.888,-8.887c0.196,0.304 0.309,0.663 0.309,1.051l0,5.849c0,10.12 -8.142,18.374 -18.22,18.553c-5.059,0.088 -9.662,-1.883 -13.057,-5.128l19.459,19.46l16.834,0c1.968,0 3.563,-1.596 3.563,-3.564Z" style="fill:url(#_Linear13);fill-rule:nonzero;"/><path d="M2.867,46.56l-0,9.721c-0,1.968 1.595,3.564 3.564,3.564l47.138,-0c1.968,-0 3.563,-1.596 3.563,-3.564l0,-9.721l-54.265,0Z" style="fill:url(#_Linear14);fill-rule:nonzero;"/></g><defs><linearGradient id="_Linear1" x1="0" y1="0" x2="1" y2="0" gradientUnits="userSpaceOnUse" gradientTransform="matrix(3.08513e-15,50.3841,-50.3841,3.08513e-15,30.0006,10.532)"><stop offset="0" style="stop-color:#1aceb8;stop-opacity:1"/><stop offset="1" style="stop-color:#0bbfba;stop-opacity:1"/></linearGradient><linearGradient id="_Linear2" x1="0" y1="0" x2="1" y2="0" gradientUnits="userSpaceOnUse" gradientTransform="matrix(-35.2586,-35.2586,35.2586,-35.2586,45.9354,23.8347)"><stop offset="0" style="stop-color:#1aceb8;stop-opacity:0"/><stop offset="0" style="stop-color:#1aceb8;stop-opacity:0"/><stop offset="1" style="stop-color:#04959c;stop-opacity:1"/></linearGradient><linearGradient id="_Linear3" x1="0" y1="0" x2="1" y2="0" gradientUnits="userSpaceOnUse" gradientTransform="matrix(3.22253e-16,5.26279,-5.26279,3.22253e-16,14.2653,6.21804)"><stop offset="0" style="stop-color:#ffcf95;stop-opacity:1"/><stop offset="0.43" style="stop-color:#ffc954;stop-opacity:1"/><stop offset="1" style="stop-color:#ffc200;stop-opacity:1"/></linearGradient><linearGradient id="_Linear4" x1="0" y1="0" x2="1" y2="0" gradientUnits="userSpaceOnUse" gradientTransform="matrix(3.94249e-16,6.43858,-6.43858,3.94249e-16,14.2653,-1.38333)"><stop offset="0" style="stop-color:#ffcf95;stop-opacity:1"/><stop offset="0.43" style="stop-color:#ffc954;stop-opacity:1"/><stop offset="1" style="stop-color:#ffc200;stop-opacity:1"/></linearGradient><linearGradient id="_Linear5" x1="0" y1="0" x2="1" y2="0" gradientUnits="userSpaceOnUse" gradientTransform="matrix(3.22253e-16,5.26279,-5.26279,3.22253e-16,45.7359,6.21804)"><stop offset="0" style="stop-color:#c2d600;stop-opacity:1"/><stop offset="1" style="stop-color:#7bd101;stop-opacity:1"/></linearGradient><linearGradient id="_Linear6" x1="0" y1="0" x2="1" y2="0" gradientUnits="userSpaceOnUse" gradientTransform="matrix(3.94249e-16,6.43858,-6.43858,3.94249e-16,45.7359,-1.38333)"><stop offset="0" style="stop-color:#c2d600;stop-opacity:1"/><stop offset="1" style="stop-color:#7bd101;stop-opacity:1"/></linearGradient><linearGradient id="_Linear7" x1="0" y1="0" x2="1" y2="0" gradientUnits="userSpaceOnUse" gradientTransform="matrix(2.45526e-16,4.00975,-4.00975,2.45526e-16,30.0005,7.73733)"><stop offset="0" style="stop-color:#b761c6;stop-opacity:1"/><stop offset="1" style="stop-color:#9c44b3;stop-opacity:1"/></linearGradient><linearGradient id="_Linear8" x1="0" y1="0" x2="1" y2="0" gradientUnits="userSpaceOnUse" gradientTransform="matrix(3.94234e-16,6.43833,-6.43833,3.94234e-16,30.0005,1.61614)"><stop offset="0" style="stop-color:#b761c6;stop-opacity:1"/><stop offset="1" style="stop-color:#9c44b3;stop-opacity:1"/></linearGradient><linearGradient id="_Linear9" x1="0" y1="0" x2="1" y2="0" gradientUnits="userSpaceOnUse" gradientTransform="matrix(-16.658,-16.658,16.658,-16.658,24.0345,31.6077)"><stop offset="0" style="stop-color:#1aceb8;stop-opacity:0"/><stop offset="0" style="stop-color:#1aceb8;stop-opacity:0"/><stop offset="1" style="stop-color:#04959c;stop-opacity:1"/></linearGradient><linearGradient id="_Linear10" x1="0" y1="0" x2="1" y2="0" gradientUnits="userSpaceOnUse" gradientTransform="matrix(-16.658,-16.658,16.658,-16.658,57.1949,31.6083)"><stop offset="0" style="stop-color:#1aceb8;stop-opacity:0"/><stop offset="0" style="stop-color:#1aceb8;stop-opacity:0"/><stop offset="1" style="stop-color:#04959c;stop-opacity:1"/></linearGradient><linearGradient id="_Linear11" x1="0" y1="0" x2="1" y2="0" gradientUnits="userSpaceOnUse" gradientTransform="matrix(-21.2907,-21.2907,21.2907,-21.2907,38.7838,36.3728)"><stop offset="0" style="stop-color:#1aceb8;stop-opacity:0"/><stop offset="0" style="stop-color:#1aceb8;stop-opacity:0"/><stop offset="1" style="stop-color:#04959c;stop-opacity:1"/></linearGradient><linearGradient id="_Linear12" x1="0" y1="0" x2="1" y2="0" gradientUnits="userSpaceOnUse" gradientTransform="matrix(2.25855e-15,36.8849,-36.8849,2.25855e-15,30.0005,18.3585)"><stop offset="0" style="stop-color:#fff;stop-opacity:1"/><stop offset="1" style="stop-color:#e8efee;stop-opacity:1"/></linearGradient><linearGradient id="_Linear13" x1="0" y1="0" x2="1" y2="0" gradientUnits="userSpaceOnUse" gradientTransform="matrix(-23.7082,-23.7082,23.7082,-23.7082,56.3805,53.9959)"><stop offset="0" style="stop-color:#1aceb8;stop-opacity:0"/><stop offset="0" style="stop-color:#1aceb8;stop-opacity:0"/><stop offset="1" style="stop-color:#04959c;stop-opacity:1"/></linearGradient><linearGradient id="_Linear14" x1="0" y1="0" x2="1" y2="0" gradientUnits="userSpaceOnUse" gradientTransform="matrix(7.42312e-16,12.1229,-12.1229,7.42312e-16,30.0006,49.3483)"><stop offset="0" style="stop-color:#1aceb8;stop-opacity:0"/><stop offset="0" style="stop-color:#1aceb8;stop-opacity:0"/><stop offset="0.77" style="stop-color:#04959c;stop-opacity:1"/><stop offset="1" style="stop-color:#04959c;stop-opacity:1"/></linearGradient></defs></svg>