<?xml version="1.0" encoding="UTF-8" standalone="no"?><!DOCTYPE svg PUBLIC "-//W3C//DTD SVG 1.1//EN" "http://www.w3.org/Graphics/SVG/1.1/DTD/svg11.dtd"><svg width="100%" height="100%" viewBox="0 0 60 60" version="1.1" xmlns="http://www.w3.org/2000/svg" xmlns:xlink="http://www.w3.org/1999/xlink" xml:space="preserve" xmlns:serif="http://www.serif.com/" style="fill-rule:evenodd;clip-rule:evenodd;stroke-linejoin:round;stroke-miterlimit:2;"><clipPath id="_clip1"><rect id="svgexport-6--1-.svg" serif:id="svgexport-6 (1).svg" x="0" y="0" width="60" height="60"/></clipPath><g clip-path="url(#_clip1)"><g><path d="M50.462,4.551l-9.985,-3.007c-6.833,-2.059 -14.121,-2.059 -20.953,-0l-9.986,3.007c-1.506,0.453 -2.716,1.578 -3.278,3.047l-4.776,12.472c-3.538,9.236 -0.601,19.7 7.225,25.747l13.059,10.09c4.848,3.746 11.616,3.746 16.464,-0l13.059,-10.09c7.826,-6.047 10.763,-16.511 7.225,-25.747l-4.775,-12.472c-0.563,-1.469 -1.773,-2.594 -3.279,-3.047Z" style="fill:url(#_Linear2);fill-rule:nonzero;"/><path d="M38.232,55.907l13.059,-10.09c7.826,-6.047 10.763,-16.511 7.226,-25.747l-4.776,-12.472c-0.563,-1.469 -1.773,-2.594 -3.279,-3.047l-9.985,-3.007c-3.417,-1.029 -6.947,-1.544 -10.477,-1.544l-0,58.716c2.904,0 5.808,-0.936 8.232,-2.809Z" style="fill:url(#_Linear3);fill-rule:nonzero;"/><path d="M7.526,44.835c0.381,0.338 0.775,0.667 1.183,0.982l13.059,10.09c4.849,3.746 11.616,3.746 16.464,-0l13.059,-10.09c0.408,-0.316 0.802,-0.644 1.184,-0.982l-44.949,-0Z" style="fill:url(#_Linear4);fill-rule:nonzero;"/><path d="M36.315,11.295c-1.589,-1.673 -3.831,-2.72 -6.315,-2.72c-4.803,-0 -8.71,3.907 -8.71,8.71l0,7.143c-0.583,0.132 -1.165,0.276 -1.747,0.435c-0.765,0.209 -1.295,0.906 -1.295,1.7l0,18.264c0,0.559 0.264,1.07 0.688,1.397l12.422,12.421c2.115,-0.214 4.19,-0.927 6.038,-2.143c2.298,-1.84 4.604,-3.67 6.928,-5.474c0.818,-0.635 1.674,-1.229 2.55,-1.798l4.417,-3.413c3.912,-3.023 6.602,-7.148 7.873,-11.673l-22.849,-22.849Z" style="fill:url(#_Linear5);fill-rule:nonzero;"/><path d="M47.413,8.248l-8.498,-2.559c-5.814,-1.752 -12.015,-1.752 -17.83,-0l-8.498,2.559c-1.281,0.385 -2.311,1.343 -2.789,2.592l-4.065,10.614c-3.01,7.86 -0.511,16.764 6.149,21.91l11.112,8.586c4.127,3.189 9.885,3.189 14.012,0l11.112,-8.586c6.66,-5.146 9.159,-14.05 6.149,-21.91l-4.065,-10.614c-0.478,-1.249 -1.508,-2.207 -2.789,-2.592Z" style="fill:url(#_Radial6);fill-rule:nonzero;"/><path d="M37.006,51.95l11.112,-8.586c6.66,-5.146 9.159,-14.05 6.149,-21.91l-4.065,-10.614c-0.478,-1.249 -1.508,-2.207 -2.789,-2.592l-8.498,-2.559c-2.907,-0.876 -5.911,-1.314 -8.915,-1.314l-0,49.967c2.471,-0 4.942,-0.797 7.006,-2.392Z" style="fill:url(#_Linear7);fill-rule:nonzero;"/><path d="M55.512,29.064c0.106,-2.54 -0.294,-5.127 -1.245,-7.61l-4.065,-10.614c-0.478,-1.249 -1.508,-2.207 -2.789,-2.592l-8.498,-2.56c-2.907,-0.875 -5.911,-1.313 -8.915,-1.313l-0,24.162l25.527,0c-0.003,0.176 -0.008,0.352 -0.015,0.527Z" style="fill:url(#_Radial8);fill-rule:nonzero;"/><path d="M4.473,28.537c0.08,5.689 2.708,11.195 7.409,14.827l11.112,8.586c2.064,1.595 4.535,2.392 7.006,2.392l0,-25.805l-25.527,0Z" style="fill:url(#_Radial9);fill-rule:nonzero;"/><path d="M55.512,29.064c0.106,-2.54 -0.294,-5.127 -1.245,-7.61l-4.065,-10.614c-0.478,-1.249 -1.508,-2.207 -2.789,-2.592l-8.498,-2.56c-2.907,-0.875 -5.911,-1.313 -8.915,-1.313l-0,24.162l25.527,0c-0.003,0.176 -0.008,0.352 -0.015,0.527Z" style="fill:url(#_Linear10);fill-rule:nonzero;"/></g></g><defs><linearGradient id="_Linear2" x1="0" y1="0" x2="1" y2="0" gradientUnits="userSpaceOnUse" gradientTransform="matrix(24.421,24.421,-24.421,24.421,17.1701,12.4702)"><stop offset="0" style="stop-color:#ecf7ff;stop-opacity:1"/><stop offset="1" style="stop-color:#c2e0ff;stop-opacity:1"/></linearGradient><linearGradient id="_Linear3" x1="0" y1="0" x2="1" y2="0" gradientUnits="userSpaceOnUse" gradientTransform="matrix(-36.8778,4.51623e-15,-4.51623e-15,-36.8778,56.1177,29.3583)"><stop offset="0" style="stop-color:#c2e0ff;stop-opacity:0"/><stop offset="0" style="stop-color:#c2e0ff;stop-opacity:0"/><stop offset="0.08" style="stop-color:#bfdcfd;stop-opacity:0.07"/><stop offset="1" style="stop-color:#9eb2e7;stop-opacity:1"/></linearGradient><linearGradient id="_Linear4" x1="0" y1="0" x2="1" y2="0" gradientUnits="userSpaceOnUse" gradientTransform="matrix(6.59171e-16,10.7651,-10.7651,6.59171e-16,30.0001,47.0059)"><stop offset="0" style="stop-color:#c2e0ff;stop-opacity:0"/><stop offset="0" style="stop-color:#c2e0ff;stop-opacity:0"/><stop offset="0.08" style="stop-color:#bfdcfd;stop-opacity:0.07"/><stop offset="1" style="stop-color:#9eb2e7;stop-opacity:1"/></linearGradient><linearGradient id="_Linear5" x1="0" y1="0" x2="1" y2="0" gradientUnits="userSpaceOnUse" gradientTransform="matrix(-57.2406,-19.6474,19.6474,-57.2406,50.4409,40.1439)"><stop offset="0" style="stop-color:#54498b;stop-opacity:0"/><stop offset="0.03" style="stop-color:#534889;stop-opacity:0.03"/><stop offset="1" style="stop-color:#3b395f;stop-opacity:1"/></linearGradient><radialGradient id="_Radial6" cx="0" cy="0" r="1" gradientUnits="userSpaceOnUse" gradientTransform="matrix(53.6612,0,0,53.6612,9.1882,4.71527)"><stop offset="0" style="stop-color:#ffd459;stop-opacity:1"/><stop offset="0.23" style="stop-color:#ffd355;stop-opacity:1"/><stop offset="0.44" style="stop-color:#ffcf4a;stop-opacity:1"/><stop offset="0.63" style="stop-color:#ffc838;stop-opacity:1"/><stop offset="0.83" style="stop-color:#ffbf1f;stop-opacity:1"/><stop offset="1" style="stop-color:#ffb400;stop-opacity:1"/></radialGradient><linearGradient id="_Linear7" x1="0" y1="0" x2="1" y2="0" gradientUnits="userSpaceOnUse" gradientTransform="matrix(-35.1373,-7.60784,7.60784,-35.1373,38.6145,30.8653)"><stop offset="0" style="stop-color:#ff0084;stop-opacity:0"/><stop offset="0.07" style="stop-color:#f4087e;stop-opacity:0.07"/><stop offset="0.33" style="stop-color:#d2216b;stop-opacity:0.33"/><stop offset="0.58" style="stop-color:#ba335e;stop-opacity:0.58"/><stop offset="0.81" style="stop-color:#ab3d56;stop-opacity:0.81"/><stop offset="1" style="stop-color:#a64153;stop-opacity:1"/></linearGradient><radialGradient id="_Radial8" cx="0" cy="0" r="1" gradientUnits="userSpaceOnUse" gradientTransform="matrix(63.7191,0,0,63.7191,0.365103,-4.99013)"><stop offset="0" style="stop-color:#45425a;stop-opacity:1"/><stop offset="0.6" style="stop-color:#434159;stop-opacity:1"/><stop offset="0.81" style="stop-color:#3c3c57;stop-opacity:1"/><stop offset="0.97" style="stop-color:#313452;stop-opacity:1"/><stop offset="1" style="stop-color:#2d3251;stop-opacity:1"/></radialGradient><radialGradient id="_Radial9" cx="0" cy="0" r="1" gradientUnits="userSpaceOnUse" gradientTransform="matrix(63.7191,0,0,63.7191,0.365103,-4.99013)"><stop offset="0" style="stop-color:#45425a;stop-opacity:1"/><stop offset="0.6" style="stop-color:#434159;stop-opacity:1"/><stop offset="0.81" style="stop-color:#3c3c57;stop-opacity:1"/><stop offset="0.97" style="stop-color:#313452;stop-opacity:1"/><stop offset="1" style="stop-color:#2d3251;stop-opacity:1"/></radialGradient><linearGradient id="_Linear10" x1="0" y1="0" x2="1" y2="0" gradientUnits="userSpaceOnUse" gradientTransform="matrix(-17.7647,-1.64706,1.64706,-17.7647,45.7828,17.8533)"><stop offset="0" style="stop-color:#2d3251;stop-opacity:0"/><stop offset="1" style="stop-color:#131830;stop-opacity:1"/></linearGradient></defs></svg>