<?xml version="1.0" encoding="UTF-8" standalone="no"?><!DOCTYPE svg PUBLIC "-//W3C//DTD SVG 1.1//EN" "http://www.w3.org/Graphics/SVG/1.1/DTD/svg11.dtd"><svg width="100%" height="100%" viewBox="0 0 60 60" version="1.1" xmlns="http://www.w3.org/2000/svg" xmlns:xlink="http://www.w3.org/1999/xlink" xml:space="preserve" xmlns:serif="http://www.serif.com/" style="fill-rule:evenodd;clip-rule:evenodd;stroke-linejoin:round;stroke-miterlimit:2;"><clipPath id="_clip1"><rect id="svgexport-6--2-.svg" serif:id="svgexport-6 (2).svg" x="0" y="0" width="60" height="60"/></clipPath><g clip-path="url(#_clip1)"><g><g><g><g><path d="M57.743,60l-55.486,0c-1.247,0 -2.257,-1.01 -2.257,-2.257l-0,-46.214c-0,-1.246 1.01,-2.257 2.257,-2.257l55.486,0c1.247,0 2.257,1.011 2.257,2.257l-0,46.214c-0,1.247 -1.01,2.257 -2.257,2.257Z" style="fill:url(#_Linear2);fill-rule:nonzero;"/><path d="M60,11.529l0,46.214c0,1.246 -1.011,2.257 -2.256,2.257l-7.365,-0l-36.35,-36.35l0,-14.377l43.715,-0c1.245,-0 2.256,1.01 2.256,2.256Z" style="fill:url(#_Linear3);fill-rule:nonzero;"/><path d="M57.743,9.272l-15.765,0c1.247,0 2.257,1.011 2.257,2.257l0,46.214c0,1.247 -1.01,2.257 -2.257,2.257l15.765,0c1.247,0 2.257,-1.01 2.257,-2.257l0,-46.214c0,-1.246 -1.01,-2.257 -2.257,-2.257Z" style="fill:url(#_Linear4);fill-rule:nonzero;"/><path d="M0,47.765l0,9.978c0,1.247 1.01,2.257 2.257,2.257l55.486,0c1.247,0 2.257,-1.01 2.257,-2.257l0,-9.978l-60,-0Z" style="fill:url(#_Linear5);fill-rule:nonzero;"/></g><path d="M16.346,24.037l0.044,0.027c1.015,0.616 2.29,0.605 3.294,-0.027c1.027,-0.62 2.312,-0.62 3.338,0c1.027,0.62 2.312,0.62 3.338,0l0.001,-0c0.475,-0.275 1.002,-0.281 1.532,-0.182c0.604,0.113 1.166,-0.34 1.166,-0.955l-0,-13.169c-0,-0.438 -0.356,-0.794 -0.794,-0.794l-13.824,0c-0.438,0 -0.794,0.356 -0.794,0.794l0,13.15c0,0.612 0.556,1.07 1.157,0.957c0.536,-0.1 1.067,-0.09 1.542,0.199Z" style="fill:url(#_Linear6);fill-rule:nonzero;"/><g><g><path d="M6.443,46.585l1.445,-0l-0,4.826c-0,0.192 0.156,0.348 0.348,0.348l2.597,0c0.193,0 0.349,-0.156 0.349,-0.348l-0,-4.826l1.444,-0c0.442,-0 0.707,-0.492 0.463,-0.86l-3.091,-4.684c-0.219,-0.333 -0.707,-0.333 -0.926,-0l-3.092,4.684c-0.243,0.368 0.022,0.86 0.463,0.86Z" style="fill-rule:nonzero;"/><path d="M14.016,53.406l-8.963,0c-0.124,0 -0.224,0.101 -0.224,0.225l-0,1.316c-0,0.124 0.1,0.224 0.224,0.224l8.963,0c0.124,0 0.225,-0.1 0.225,-0.224l-0,-1.316c-0,-0.124 -0.101,-0.225 -0.225,-0.225Z" style="fill-rule:nonzero;"/></g><g><path d="M51.882,48.348l-4.442,-0c-0.124,-0 -0.224,-0.101 -0.224,-0.225l-0,-1.316c-0,-0.124 0.1,-0.224 0.224,-0.224l4.442,-0c0.124,-0 0.225,0.1 0.225,0.224l-0,1.316c-0,0.124 -0.101,0.225 -0.225,0.225Z" style="fill-rule:nonzero;"/><path d="M57.529,51.759l-10.089,0c-0.124,0 -0.224,-0.1 -0.224,-0.224l-0,-1.316c-0,-0.124 0.1,-0.225 0.224,-0.225l10.089,0c0.124,0 0.225,0.101 0.225,0.225l-0,1.316c-0,0.124 -0.101,0.224 -0.225,0.224Z" style="fill-rule:nonzero;"/><path d="M54.471,55.171l-7.031,0c-0.124,0 -0.224,-0.1 -0.224,-0.224l-0,-1.316c-0,-0.124 0.1,-0.225 0.224,-0.225l7.031,0c0.124,0 0.224,0.101 0.224,0.225l0,1.316c0,0.124 -0.1,0.224 -0.224,0.224Z" style="fill-rule:nonzero;"/></g></g></g><path d="M60,11.529l0,29.829l-16.545,-16.544l0,-15.541l14.289,-0c1.245,-0 2.256,1.011 2.256,2.256Z" style="fill:url(#_Linear7);fill-rule:nonzero;"/><g><path d="M44.569,0.002c-0.071,-0.001 -0.143,-0.002 -0.215,-0.002c-0.072,0 -0.144,0.001 -0.215,0.002c-7.317,0.148 -11.549,8.384 -7.518,14.492l6.743,10.217c0.469,0.71 1.511,0.71 1.98,0l6.743,-10.217c4.031,-6.108 -0.201,-14.344 -7.518,-14.492Z" style="fill:url(#_Linear8);fill-rule:nonzero;"/><circle cx="44.354" cy="9.323" r="6.421" style="fill:url(#_Linear9);"/><circle cx="44.354" cy="9.323" r="4.666" style="fill:url(#_Linear10);"/></g></g></g></g><defs><linearGradient id="_Linear2" x1="0" y1="0" x2="1" y2="0" gradientUnits="userSpaceOnUse" gradientTransform="matrix(47.9026,47.9025,-47.9025,47.9026,10.0787,14.7151)"><stop offset="0" style="stop-color:#fee45a;stop-opacity:1"/><stop offset="1" style="stop-color:#fe860a;stop-opacity:1"/></linearGradient><linearGradient id="_Linear3" x1="0" y1="0" x2="1" y2="0" gradientUnits="userSpaceOnUse" gradientTransform="matrix(-61.7647,-43.8824,43.8824,-61.7647,55.9352,35.7119)"><stop offset="0" style="stop-color:#fe860a;stop-opacity:0"/><stop offset="1" style="stop-color:#fe7701;stop-opacity:1"/></linearGradient><linearGradient id="_Linear4" x1="0" y1="0" x2="1" y2="0" gradientUnits="userSpaceOnUse" gradientTransform="matrix(-37.7915,39.8567,-39.8567,-37.7915,61.9941,22.3514)"><stop offset="0" style="stop-color:#fe860a;stop-opacity:0"/><stop offset="1" style="stop-color:#fe7701;stop-opacity:1"/></linearGradient><linearGradient id="_Linear5" x1="0" y1="0" x2="1" y2="0" gradientUnits="userSpaceOnUse" gradientTransform="matrix(6.64155e-16,10.8465,-10.8465,6.64155e-16,30,51.5294)"><stop offset="0" style="stop-color:#fe860a;stop-opacity:0"/><stop offset="1" style="stop-color:#fe7701;stop-opacity:1"/></linearGradient><linearGradient id="_Linear6" x1="0" y1="0" x2="1" y2="0" gradientUnits="userSpaceOnUse" gradientTransform="matrix(17.0654,17.0653,-17.0653,17.0654,15.6214,10.612)"><stop offset="0" style="stop-color:#eaf6ff;stop-opacity:1"/><stop offset="0.26" style="stop-color:#dce8fa;stop-opacity:1"/><stop offset="0.74" style="stop-color:#b8c4ed;stop-opacity:1"/><stop offset="1" style="stop-color:#a2aee6;stop-opacity:1"/></linearGradient><linearGradient id="_Linear7" x1="0" y1="0" x2="1" y2="0" gradientUnits="userSpaceOnUse" gradientTransform="matrix(-18.5098,-11.2941,11.2941,-18.5098,64.6169,28.6273)"><stop offset="0" style="stop-color:#fe860a;stop-opacity:0"/><stop offset="1" style="stop-color:#fe7701;stop-opacity:1"/></linearGradient><linearGradient id="_Linear8" x1="0" y1="0" x2="1" y2="0" gradientUnits="userSpaceOnUse" gradientTransform="matrix(10.3728,10.3728,-10.3728,10.3728,43.0771,9.66588)"><stop offset="0" style="stop-color:#fd4755;stop-opacity:1"/><stop offset="0.19" style="stop-color:#f64452;stop-opacity:1"/><stop offset="0.47" style="stop-color:#e23c4b;stop-opacity:1"/><stop offset="0.81" style="stop-color:#c22e40;stop-opacity:1"/><stop offset="1" style="stop-color:#ac2538;stop-opacity:1"/></linearGradient><linearGradient id="_Linear9" x1="0" y1="0" x2="1" y2="0" gradientUnits="userSpaceOnUse" gradientTransform="matrix(-13.5825,-13.5825,13.5825,-13.5825,49.3912,14.36)"><stop offset="0" style="stop-color:#fd4755;stop-opacity:1"/><stop offset="0.19" style="stop-color:#f64452;stop-opacity:1"/><stop offset="0.47" style="stop-color:#e23c4b;stop-opacity:1"/><stop offset="0.81" style="stop-color:#c22e40;stop-opacity:1"/><stop offset="1" style="stop-color:#ac2538;stop-opacity:1"/></linearGradient><linearGradient id="_Linear10" x1="0" y1="0" x2="1" y2="0" gradientUnits="userSpaceOnUse" gradientTransform="matrix(4.11318,4.11318,-4.11318,4.11318,42.8045,7.77329)"><stop offset="0" style="stop-color:#eaf6ff;stop-opacity:1"/><stop offset="0.26" style="stop-color:#dce8fa;stop-opacity:1"/><stop offset="0.74" style="stop-color:#b8c4ed;stop-opacity:1"/><stop offset="1" style="stop-color:#a2aee6;stop-opacity:1"/></linearGradient></defs></svg>