<?xml version="1.0" encoding="UTF-8" standalone="no"?><!DOCTYPE svg PUBLIC "-//W3C//DTD SVG 1.1//EN" "http://www.w3.org/Graphics/SVG/1.1/DTD/svg11.dtd"><svg width="100%" height="100%" viewBox="0 0 60 60" version="1.1" xmlns="http://www.w3.org/2000/svg" xmlns:xlink="http://www.w3.org/1999/xlink" xml:space="preserve" xmlns:serif="http://www.serif.com/" style="fill-rule:evenodd;clip-rule:evenodd;stroke-linejoin:round;stroke-miterlimit:2;"><clipPath id="_clip1"><rect id="svgexport-6--3-.svg" serif:id="svgexport-6 (3).svg" x="0" y="0" width="60" height="60"/></clipPath><g clip-path="url(#_clip1)"><g><path d="M39.887,19.234c10.955,-0.167 19.897,8.456 20.109,19.411c0.031,1.608 -0.129,3.173 -0.461,4.675c-0.56,2.543 -0.894,5.13 -0.894,7.734l0,5.033c0,0.771 -0.625,1.396 -1.396,1.396l-5.033,0c-2.604,0 -5.191,0.333 -7.734,0.894c-1.501,0.331 -3.067,0.492 -4.675,0.461c-10.955,-0.212 -19.578,-9.154 -19.411,-20.109c0.164,-10.693 8.801,-19.331 19.495,-19.495Z" style="fill:url(#_Linear2);fill-rule:nonzero;"/><path d="M39.887,19.234c10.955,-0.167 19.897,8.456 20.109,19.411c0.031,1.608 -0.129,3.173 -0.461,4.675c-0.56,2.543 -0.894,5.13 -0.894,7.734l0,5.033c0,0.771 -0.625,1.396 -1.396,1.396l-5.033,0c-2.604,0 -5.191,0.333 -7.734,0.894c-1.501,0.331 -3.067,0.492 -4.675,0.461c-10.955,-0.212 -19.578,-9.154 -19.411,-20.109c0.164,-10.693 8.801,-19.331 19.495,-19.495Z" style="fill:url(#_Linear3);fill-rule:nonzero;"/><path d="M24.504,1.161c-13.347,-0.204 -24.241,10.301 -24.499,23.647c-0.038,1.959 0.158,3.867 0.561,5.696c0.683,3.098 1.09,6.25 1.09,9.422l-0,6.131c-0,0.94 0.761,1.701 1.7,1.701l6.132,0c3.172,0 6.324,0.407 9.422,1.09c1.829,0.403 3.736,0.599 5.696,0.561c13.346,-0.258 23.85,-11.151 23.647,-24.498c-0.199,-13.027 -10.722,-23.551 -23.749,-23.75Z" style="fill:url(#_Linear4);fill-rule:nonzero;"/><path d="M15.491,23.993c-0.681,-0.724 -1.646,-1.179 -2.719,-1.179c-2.064,-0 -3.737,1.673 -3.737,3.737c-0,1.073 0.454,2.038 1.179,2.72l8.062,8.061c0.681,0.725 1.646,1.179 2.719,1.179c2.064,0 3.737,-1.673 3.737,-3.737c0,-1.073 -0.455,-2.038 -1.179,-2.719l-8.062,-8.062Z" style="fill:url(#_Linear5);fill-rule:nonzero;"/><circle cx="12.772" cy="26.551" r="3.737" style="fill:#fff;"/><path d="M26.061,23.993c-0.682,-0.724 -1.647,-1.179 -2.72,-1.179c-2.064,-0 -3.737,1.673 -3.737,3.737c-0,1.073 0.455,2.038 1.179,2.72l8.062,8.061c0.681,0.725 1.646,1.179 2.719,1.179c2.064,0 3.737,-1.673 3.737,-3.737c0,-1.073 -0.454,-2.038 -1.179,-2.719l-8.061,-8.062Z" style="fill:url(#_Linear6);fill-rule:nonzero;"/><circle cx="23.341" cy="26.551" r="3.737" style="fill:#fff;"/><path d="M36.63,23.993c-0.682,-0.724 -1.647,-1.179 -2.72,-1.179c-2.064,-0 -3.737,1.673 -3.737,3.737c-0,1.073 0.455,2.038 1.179,2.72l8.062,8.061c0.681,0.725 1.646,1.179 2.719,1.179c2.064,0 3.737,-1.673 3.737,-3.737c0,-1.073 -0.454,-2.038 -1.179,-2.719l-8.061,-8.062Z" style="fill:url(#_Linear7);fill-rule:nonzero;"/><circle cx="33.911" cy="26.551" r="3.737" style="fill:#fff;"/></g></g><defs><linearGradient id="_Linear2" x1="0" y1="0" x2="1" y2="0" gradientUnits="userSpaceOnUse" gradientTransform="matrix(29.077,29.077,-29.077,29.077,36.1972,35.0403)"><stop offset="0" style="stop-color:#a7f3ce;stop-opacity:1"/><stop offset="1" style="stop-color:#61db99;stop-opacity:1"/></linearGradient><linearGradient id="_Linear3" x1="0" y1="0" x2="1" y2="0" gradientUnits="userSpaceOnUse" gradientTransform="matrix(-12.3503,-12.3491,12.3491,-12.3503,45.7155,44.558)"><stop offset="0" style="stop-color:#61db99;stop-opacity:0"/><stop offset="1" style="stop-color:#009e74;stop-opacity:1"/></linearGradient><linearGradient id="_Linear4" x1="0" y1="0" x2="1" y2="0" gradientUnits="userSpaceOnUse" gradientTransform="matrix(30.6993,30.6993,-30.6993,30.6993,15.3128,21.3854)"><stop offset="0" style="stop-color:#62e1fb;stop-opacity:1"/><stop offset="1" style="stop-color:#00a2f3;stop-opacity:1"/></linearGradient><linearGradient id="_Linear5" x1="0" y1="0" x2="1" y2="0" gradientUnits="userSpaceOnUse" gradientTransform="matrix(-16.1637,-16.1632,16.1632,-16.1637,21.0854,34.8653)"><stop offset="0" style="stop-color:#00a2f3;stop-opacity:0"/><stop offset="1" style="stop-color:#0075cd;stop-opacity:1"/></linearGradient><linearGradient id="_Linear6" x1="0" y1="0" x2="1" y2="0" gradientUnits="userSpaceOnUse" gradientTransform="matrix(-16.1632,-16.1632,16.1632,-16.1632,31.6538,34.8649)"><stop offset="0" style="stop-color:#00a2f3;stop-opacity:0"/><stop offset="1" style="stop-color:#0075cd;stop-opacity:1"/></linearGradient><linearGradient id="_Linear7" x1="0" y1="0" x2="1" y2="0" gradientUnits="userSpaceOnUse" gradientTransform="matrix(-16.1632,-16.1632,16.1632,-16.1632,42.2228,34.8651)"><stop offset="0" style="stop-color:#00a2f3;stop-opacity:0"/><stop offset="1" style="stop-color:#0075cd;stop-opacity:1"/></linearGradient></defs></svg>