<?xml version="1.0" encoding="UTF-8" standalone="no"?><!DOCTYPE svg PUBLIC "-//W3C//DTD SVG 1.1//EN" "http://www.w3.org/Graphics/SVG/1.1/DTD/svg11.dtd"><svg width="100%" height="100%" viewBox="0 0 60 60" version="1.1" xmlns="http://www.w3.org/2000/svg" xmlns:xlink="http://www.w3.org/1999/xlink" xml:space="preserve" xmlns:serif="http://www.serif.com/" style="fill-rule:evenodd;clip-rule:evenodd;stroke-linejoin:round;stroke-miterlimit:2;"><g><g><g><circle cx="30" cy="15.98" r="14.274" style="fill:url(#_Linear1);"/><path d="M30,30.255c7.884,-0 14.274,-6.391 14.274,-14.275l-28.548,0c-0,7.884 6.39,14.275 14.274,14.275Z" style="fill:url(#_Linear2);fill-rule:nonzero;"/><g><path d="M24.209,14.332c-1.4,-0 -2.536,-1.136 -2.536,-2.536l0,-1.301c0,-1.401 1.136,-2.536 2.536,-2.536c1.401,-0 2.537,1.135 2.537,2.536l-0,1.301c-0,1.4 -1.136,2.536 -2.537,2.536Z" style="fill:url(#_Linear3);fill-rule:nonzero;"/><path d="M35.791,14.332c-1.401,-0 -2.537,-1.136 -2.537,-2.536l0,-1.301c0,-1.401 1.136,-2.536 2.537,-2.536c1.4,-0 2.536,1.135 2.536,2.536l-0,1.301c-0,1.4 -1.136,2.536 -2.536,2.536Z" style="fill:url(#_Linear4);fill-rule:nonzero;"/></g><path d="M35.762,17.372l-11.524,-0c-1.046,-0 -1.819,0.992 -1.543,2.002c0.878,3.211 3.816,5.571 7.305,5.571c3.489,-0 6.427,-2.36 7.305,-5.571c0.276,-1.01 -0.497,-2.002 -1.543,-2.002Z" style="fill:url(#_Linear5);fill-rule:nonzero;"/></g><g><circle cx="14.274" cy="44.02" r="14.274" style="fill:url(#_Linear6);"/><path d="M14.274,58.294c7.884,0 14.275,-6.391 14.275,-14.274l-28.549,-0c0,7.883 6.391,14.274 14.274,14.274Z" style="fill:url(#_Linear7);fill-rule:nonzero;"/><path d="M16.235,46.28l-3.921,-0c-1.042,-0 -1.886,0.844 -1.886,1.885c0,1.042 0.844,1.886 1.886,1.886l3.921,-0c1.041,-0 1.885,-0.844 1.885,-1.886c0,-1.041 -0.844,-1.885 -1.885,-1.885Z" style="fill:url(#_Linear8);fill-rule:nonzero;"/><g><path d="M8.484,42.371c-1.401,0 -2.536,-1.135 -2.536,-2.536l-0,-1.301c-0,-1.4 1.135,-2.536 2.536,-2.536c1.4,0 2.536,1.136 2.536,2.536l-0,1.301c-0,1.401 -1.136,2.536 -2.536,2.536Z" style="fill:url(#_Linear9);fill-rule:nonzero;"/><path d="M20.065,42.371c-1.401,0 -2.536,-1.135 -2.536,-2.536l-0,-1.301c-0,-1.4 1.135,-2.536 2.536,-2.536c1.401,0 2.536,1.136 2.536,2.536l0,1.301c0,1.401 -1.135,2.536 -2.536,2.536Z" style="fill:url(#_Linear10);fill-rule:nonzero;"/></g></g><g><circle cx="45.726" cy="44.02" r="14.274" style="fill:url(#_Linear11);"/><path d="M45.726,58.294c7.883,0 14.274,-6.391 14.274,-14.274l-28.549,-0c0,7.883 6.391,14.274 14.275,14.274Z" style="fill:url(#_Linear12);fill-rule:nonzero;"/><g><path d="M39.935,42.371c-1.401,0 -2.536,-1.135 -2.536,-2.536l-0,-1.301c-0,-1.4 1.135,-2.536 2.536,-2.536c1.401,0 2.536,1.136 2.536,2.536l0,1.301c0,1.401 -1.135,2.536 -2.536,2.536Z" style="fill:url(#_Linear13);fill-rule:nonzero;"/><path d="M51.516,42.371c-1.4,0 -2.536,-1.135 -2.536,-2.536l0,-1.301c0,-1.4 1.136,-2.536 2.536,-2.536c1.401,0 2.536,1.136 2.536,2.536l0,1.301c0,1.401 -1.135,2.536 -2.536,2.536Z" style="fill:url(#_Linear14);fill-rule:nonzero;"/></g><path d="M51.488,52.984l-11.524,-0c-1.047,-0 -1.82,-0.993 -1.544,-2.002c0.878,-3.211 3.816,-5.571 7.306,-5.571c3.489,0 6.427,2.36 7.305,5.571c0.276,1.009 -0.497,2.002 -1.543,2.002Z" style="fill:url(#_Linear15);fill-rule:nonzero;"/></g></g></g><defs><linearGradient id="_Linear1" x1="0" y1="0" x2="1" y2="0" gradientUnits="userSpaceOnUse" gradientTransform="matrix(21.8112,21.8112,-21.8112,21.8112,14.9999,0.980118)"><stop offset="0" style="stop-color:#b3dafe;stop-opacity:1"/><stop offset="1" style="stop-color:#4fc123;stop-opacity:1"/></linearGradient><linearGradient id="_Linear2" x1="0" y1="0" x2="1" y2="0" gradientUnits="userSpaceOnUse" gradientTransform="matrix(7.4349e-16,12.1421,-12.1421,7.4349e-16,30,19.6189)"><stop offset="0" style="stop-color:#4fc123;stop-opacity:0"/><stop offset="1" style="stop-color:#017b4e;stop-opacity:1"/></linearGradient><linearGradient id="_Linear3" x1="0" y1="0" x2="1" y2="0" gradientUnits="userSpaceOnUse" gradientTransform="matrix(3.52106,2.592,-2.592,3.52106,22.5554,9.92776)"><stop offset="0" style="stop-color:#5a5a5a;stop-opacity:1"/><stop offset="1" style="stop-color:#444;stop-opacity:1"/></linearGradient><linearGradient id="_Linear4" x1="0" y1="0" x2="1" y2="0" gradientUnits="userSpaceOnUse" gradientTransform="matrix(3.12988,2.34741,-2.34741,3.12988,33.9648,9.776)"><stop offset="0" style="stop-color:#5a5a5a;stop-opacity:1"/><stop offset="1" style="stop-color:#444;stop-opacity:1"/></linearGradient><linearGradient id="_Linear5" x1="0" y1="0" x2="1" y2="0" gradientUnits="userSpaceOnUse" gradientTransform="matrix(5.03835,15.3014,-15.3014,5.03835,26.8052,9.26882)"><stop offset="0" style="stop-color:#5a5a5a;stop-opacity:1"/><stop offset="1" style="stop-color:#444;stop-opacity:1"/></linearGradient><linearGradient id="_Linear6" x1="0" y1="0" x2="1" y2="0" gradientUnits="userSpaceOnUse" gradientTransform="matrix(21.8112,21.8112,-21.8112,21.8112,-0.725765,29.0196)"><stop offset="0" style="stop-color:#fee45a;stop-opacity:1"/><stop offset="1" style="stop-color:#fea613;stop-opacity:1"/></linearGradient><linearGradient id="_Linear7" x1="0" y1="0" x2="1" y2="0" gradientUnits="userSpaceOnUse" gradientTransform="matrix(7.4349e-16,12.1421,-12.1421,7.4349e-16,14.2744,47.6585)"><stop offset="0" style="stop-color:#fea613;stop-opacity:0"/><stop offset="1" style="stop-color:#e94444;stop-opacity:1"/></linearGradient><linearGradient id="_Linear8" x1="0" y1="0" x2="1" y2="0" gradientUnits="userSpaceOnUse" gradientTransform="matrix(10.6822,0,0,10.6822,10.828,48.1652)"><stop offset="0" style="stop-color:#5a5a5a;stop-opacity:1"/><stop offset="1" style="stop-color:#444;stop-opacity:1"/></linearGradient><linearGradient id="_Linear9" x1="0" y1="0" x2="1" y2="0" gradientUnits="userSpaceOnUse" gradientTransform="matrix(3.52106,2.59188,-2.59188,3.52106,6.82976,37.9673)"><stop offset="0" style="stop-color:#5a5a5a;stop-opacity:1"/><stop offset="1" style="stop-color:#444;stop-opacity:1"/></linearGradient><linearGradient id="_Linear10" x1="0" y1="0" x2="1" y2="0" gradientUnits="userSpaceOnUse" gradientTransform="matrix(3.12988,2.34741,-2.34741,3.12988,18.2392,37.8155)"><stop offset="0" style="stop-color:#5a5a5a;stop-opacity:1"/><stop offset="1" style="stop-color:#444;stop-opacity:1"/></linearGradient><linearGradient id="_Linear11" x1="0" y1="0" x2="1" y2="0" gradientUnits="userSpaceOnUse" gradientTransform="matrix(21.8113,21.8112,-21.8112,21.8113,30.7254,29.0196)"><stop offset="0" style="stop-color:#fedbbd;stop-opacity:1"/><stop offset="1" style="stop-color:#fd3581;stop-opacity:1"/></linearGradient><linearGradient id="_Linear12" x1="0" y1="0" x2="1" y2="0" gradientUnits="userSpaceOnUse" gradientTransform="matrix(7.4349e-16,12.1421,-12.1421,7.4349e-16,45.7256,47.6585)"><stop offset="0" style="stop-color:#fe646f;stop-opacity:0"/><stop offset="0.3" style="stop-color:#fc616a;stop-opacity:0.29"/><stop offset="0.62" style="stop-color:#f5575d;stop-opacity:0.62"/><stop offset="0.96" style="stop-color:#eb4747;stop-opacity:0.96"/><stop offset="1" style="stop-color:#e94444;stop-opacity:1"/></linearGradient><linearGradient id="_Linear13" x1="0" y1="0" x2="1" y2="0" gradientUnits="userSpaceOnUse" gradientTransform="matrix(3.52106,2.59188,-2.59188,3.52106,38.2811,37.9673)"><stop offset="0" style="stop-color:#5a5a5a;stop-opacity:1"/><stop offset="1" style="stop-color:#444;stop-opacity:1"/></linearGradient><linearGradient id="_Linear14" x1="0" y1="0" x2="1" y2="0" gradientUnits="userSpaceOnUse" gradientTransform="matrix(3.13,2.34741,-2.34741,3.13,49.6904,37.8155)"><stop offset="0" style="stop-color:#5a5a5a;stop-opacity:1"/><stop offset="1" style="stop-color:#444;stop-opacity:1"/></linearGradient><linearGradient id="_Linear15" x1="0" y1="0" x2="1" y2="0" gradientUnits="userSpaceOnUse" gradientTransform="matrix(5.03835,-15.3014,15.3014,5.03835,42.5308,61.0871)"><stop offset="0" style="stop-color:#5a5a5a;stop-opacity:1"/><stop offset="1" style="stop-color:#444;stop-opacity:1"/></linearGradient></defs></svg>