<?xml version="1.0" encoding="UTF-8" standalone="no"?><!DOCTYPE svg PUBLIC "-//W3C//DTD SVG 1.1//EN" "http://www.w3.org/Graphics/SVG/1.1/DTD/svg11.dtd"><svg width="100%" height="100%" viewBox="0 0 60 60" version="1.1" xmlns="http://www.w3.org/2000/svg" xmlns:xlink="http://www.w3.org/1999/xlink" xml:space="preserve" xmlns:serif="http://www.serif.com/" style="fill-rule:evenodd;clip-rule:evenodd;stroke-linejoin:round;stroke-miterlimit:2;"><clipPath id="_clip1"><rect id="svgexport-6--5-.svg" serif:id="svgexport-6 (5).svg" x="0" y="0" width="60" height="60"/></clipPath><g clip-path="url(#_clip1)"><g><path d="M47.42,8.523c-7.554,-0.368 -13.811,5.565 -13.972,13c0,0.016 -0.006,0.016 -0.006,-0c-0.16,-7.435 -6.417,-13.368 -13.972,-13c-8.296,0.404 -13.803,8.519 -12.346,16.697c2.45,13.753 19.377,23.223 24.714,25.893c1.012,0.507 2.202,0.507 3.215,0c5.336,-2.67 22.263,-12.14 24.713,-25.893c1.457,-8.178 -4.049,-16.293 -12.346,-16.697Z" style="fill:url(#_Radial2);fill-rule:nonzero;"/><path d="M7.281,26c0.03,0.135 0.06,0.269 0.093,0.402c0.017,0.072 0.035,0.144 0.053,0.215c0.032,0.127 0.066,0.253 0.1,0.379c0.019,0.07 0.039,0.141 0.059,0.211c0.038,0.136 0.079,0.272 0.121,0.408c0.017,0.056 0.034,0.112 0.051,0.168c0.06,0.189 0.122,0.376 0.187,0.563c0.015,0.042 0.03,0.083 0.045,0.125c0.052,0.146 0.104,0.292 0.159,0.437c0.027,0.069 0.054,0.138 0.081,0.208c0.046,0.117 0.092,0.234 0.14,0.35c0.03,0.075 0.061,0.15 0.093,0.224c0.047,0.112 0.096,0.224 0.145,0.336c0.032,0.073 0.064,0.146 0.096,0.219c0.056,0.123 0.113,0.245 0.171,0.367c0.028,0.059 0.055,0.118 0.083,0.177c0.083,0.172 0.168,0.343 0.255,0.513c0.036,0.072 0.074,0.143 0.112,0.214c0.054,0.105 0.109,0.209 0.165,0.313c0.044,0.082 0.09,0.164 0.135,0.246c0.051,0.092 0.103,0.183 0.155,0.275c0.048,0.085 0.097,0.17 0.146,0.254c0.051,0.088 0.103,0.174 0.155,0.261c0.051,0.086 0.102,0.172 0.155,0.257c0.051,0.084 0.104,0.167 0.156,0.25c0.108,0.171 0.217,0.341 0.328,0.51c0.043,0.066 0.086,0.132 0.129,0.198c0.067,0.099 0.134,0.197 0.201,0.295c0.044,0.064 0.088,0.129 0.132,0.192c0.07,0.1 0.14,0.2 0.211,0.299c0.042,0.059 0.084,0.117 0.127,0.176c0.075,0.103 0.15,0.206 0.226,0.309c0.034,0.046 0.069,0.092 0.104,0.138c0.299,0.399 0.607,0.792 0.923,1.178c0.002,0.002 0.003,0.003 0.004,0.005c0.102,0.124 0.205,0.247 0.308,0.37l0.062,0.073c0.102,0.121 0.205,0.241 0.309,0.361l0.051,0.058c0.704,0.807 1.441,1.585 2.2,2.331l0.019,0.019c5.848,5.748 12.978,9.661 16.111,11.229c1.013,0.507 2.203,0.507 3.215,0c2.207,-1.104 6.394,-3.371 10.721,-6.622l-18.891,-18.891c-1.201,-1.323 -2.866,-2.2 -4.814,-2.295c-3.264,-0.159 -6.081,1.843 -7.15,4.699l-2.33,-2.318c-1.389,-1.536 -3.426,-2.475 -5.68,-2.383c0.007,0.147 0.017,0.294 0.028,0.44c0.003,0.043 0.008,0.085 0.011,0.128c0.009,0.105 0.019,0.21 0.031,0.315c0.005,0.05 0.01,0.099 0.016,0.149c0.012,0.103 0.026,0.206 0.04,0.31c0.006,0.045 0.012,0.09 0.019,0.135c0.022,0.146 0.045,0.293 0.071,0.439c0.035,0.199 0.074,0.396 0.116,0.593c0.013,0.063 0.028,0.125 0.041,0.188Z" style="fill:url(#_Linear3);fill-rule:nonzero;"/><path d="M22.068,23.305c-4.113,-0.201 -7.52,3.03 -7.608,7.078c0,0.009 -0.003,0.009 -0.003,0c-0.087,-4.048 -3.494,-7.279 -7.608,-7.078c-4.517,0.22 -7.515,4.638 -6.722,9.091c1.334,7.488 10.551,12.644 13.456,14.098c0.552,0.276 1.199,0.276 1.751,0c2.905,-1.454 12.122,-6.61 13.456,-14.098c0.793,-4.453 -2.205,-8.871 -6.722,-9.091Z" style="fill:url(#_Linear4);fill-rule:nonzero;"/></g></g><defs><radialGradient id="_Radial2" cx="0" cy="0" r="1" gradientUnits="userSpaceOnUse" gradientTransform="matrix(29.2033,0,0,29.2033,28.3788,20.2962)"><stop offset="0" style="stop-color:#ff4974;stop-opacity:1"/><stop offset="0.45" style="stop-color:#fe4773;stop-opacity:1"/><stop offset="0.63" style="stop-color:#fc406d;stop-opacity:1"/><stop offset="0.76" style="stop-color:#f73464;stop-opacity:1"/><stop offset="0.87" style="stop-color:#f12257;stop-opacity:1"/><stop offset="0.96" style="stop-color:#e80c46;stop-opacity:1"/><stop offset="1" style="stop-color:#e4003d;stop-opacity:1"/></radialGradient><linearGradient id="_Linear3" x1="0" y1="0" x2="1" y2="0" gradientUnits="userSpaceOnUse" gradientTransform="matrix(-14.2418,-15.5582,15.5582,-14.2418,34.9755,46.8494)"><stop offset="0" style="stop-color:#e4003d;stop-opacity:0"/><stop offset="1" style="stop-color:#e4003d;stop-opacity:1"/></linearGradient><linearGradient id="_Linear4" x1="0" y1="0" x2="1" y2="0" gradientUnits="userSpaceOnUse" gradientTransform="matrix(13.404,15.9173,-15.9173,13.404,8.13329,23.906)"><stop offset="0" style="stop-color:#ffe548;stop-opacity:1"/><stop offset="0.18" style="stop-color:#ffde50;stop-opacity:1"/><stop offset="0.44" style="stop-color:#ffca65;stop-opacity:1"/><stop offset="0.77" style="stop-color:#ffaa87;stop-opacity:1"/><stop offset="1" style="stop-color:#ff90a4;stop-opacity:1"/></linearGradient></defs></svg>