<?xml version="1.0" encoding="UTF-8" standalone="no"?><!DOCTYPE svg PUBLIC "-//W3C//DTD SVG 1.1//EN" "http://www.w3.org/Graphics/SVG/1.1/DTD/svg11.dtd"><svg width="100%" height="100%" viewBox="0 0 60 60" version="1.1" xmlns="http://www.w3.org/2000/svg" xmlns:xlink="http://www.w3.org/1999/xlink" xml:space="preserve" xmlns:serif="http://www.serif.com/" style="fill-rule:evenodd;clip-rule:evenodd;stroke-linejoin:round;stroke-miterlimit:2;"><g><path d="M36.89,14.538c-0,-7.606 -6.895,-13.772 -15.401,-13.772c-8.505,-0 -15.4,6.166 -15.4,13.772l0,3.256c0,7.607 6.895,13.773 15.401,13.773c8.505,-0 15.4,-6.166 15.4,-13.773c-0,-0.01 -0,-3.245 -0,-3.256Z" style="fill:url(#_Linear1);fill-rule:nonzero;"/><path d="M34.173,6.726c-2.778,-3.6 -7.422,-5.96 -12.683,-5.96c-5.262,-0 -9.906,2.36 -12.684,5.96l-0,18.88c2.778,3.601 7.422,5.961 12.683,5.961c5.262,-0 9.906,-2.361 12.684,-5.961l0,-18.88Z" style="fill:url(#_Linear2);fill-rule:nonzero;"/><path d="M31.919,27.927c1.854,-1.527 3.288,-3.457 4.129,-5.633l0,-3.256l-4.129,5.633l-0,3.256Z" style="fill:url(#_Linear3);fill-rule:nonzero;"/><path d="M12.457,28.949c2.537,1.646 5.658,2.618 9.033,2.618c3.374,-0 6.495,-0.972 9.032,-2.618l0,-25.565c-2.537,-1.647 -5.658,-2.618 -9.032,-2.618c-3.375,-0 -6.496,0.971 -9.033,2.618l-0,25.565Z" style="fill:url(#_Linear4);fill-rule:nonzero;"/><path d="M17.991,31.21c1.124,0.233 2.295,0.357 3.499,0.357c1.203,-0 2.374,-0.124 3.498,-0.357l0,-30.087c-1.124,-0.233 -2.295,-0.357 -3.498,-0.357c-1.204,-0 -2.375,0.124 -3.499,0.357l-0,30.087Z" style="fill:url(#_Linear5);fill-rule:nonzero;"/><ellipse cx="21.49" cy="14.538" rx="15.4" ry="13.772" style="fill:url(#_Linear6);"/><path d="M17.991,1.123l-0,6.805l-7.145,-3.343c-1.849,1.581 -3.257,3.57 -4.046,5.806l7.64,3.567l-7.509,5.08c0.841,2.176 2.275,4.106 4.129,5.633l6.931,-4.682l-0,7.965c1.124,0.233 2.295,0.357 3.499,0.357c1.203,-0 2.374,-0.124 3.498,-0.357l0,-7.965l6.931,4.682c1.855,-1.527 3.288,-3.456 4.129,-5.633l-7.509,-5.08l7.64,-3.567c-0.789,-2.235 -2.197,-4.225 -4.046,-5.806l-7.145,3.343l0,-6.805l0,0c-0.139,-0.029 -0.279,-0.056 -0.419,-0.082c-0.905,-0.164 -2.028,-0.294 -3.318,-0.276c-1.269,0.017 -2.371,0.173 -3.26,0.358Z" style="fill:url(#_Linear7);fill-rule:nonzero;"/><ellipse cx="21.49" cy="14.538" rx="11.175" ry="9.994" style="fill:url(#_Linear8);"/><path d="M30.938,5.144l-5.95,2.784l0,-5.635c-1.119,-0.255 -2.291,-0.39 -3.499,-0.39c-1.207,-0 -2.379,0.135 -3.499,0.39l0,5.635l-5.949,-2.784c-1.906,1.534 -3.343,3.526 -4.094,5.782l6.493,3.032l-6.438,4.355c0.772,2.209 2.205,4.157 4.091,5.66l5.898,-3.984l-0,6.794c1.119,0.255 2.291,0.391 3.499,0.391c1.207,0 2.38,-0.136 3.499,-0.391l-0,-6.794l5.898,3.984c1.885,-1.503 3.318,-3.451 4.09,-5.66l-6.438,-4.355l6.493,-3.032c-0.751,-2.256 -2.188,-4.248 -4.094,-5.782Z" style="fill:url(#_Linear9);fill-rule:nonzero;"/><ellipse cx="21.49" cy="14.538" rx="9.919" ry="8.871" style="fill:url(#_Linear10);"/><path d="M6.931,22.294c0.841,2.176 2.275,4.105 4.129,5.633l-0,-3.256l-4.129,-5.633l-0,3.256Z" style="fill:url(#_Linear11);fill-rule:nonzero;"/><path d="M14.942,18.665l0,-1.282c0,-0.378 0.141,-0.757 0.422,-1.136c0.281,-0.379 0.621,-0.718 1.019,-1.018l1.206,-0.903c0.417,-0.3 0.769,-0.615 1.058,-0.942c0.288,-0.328 0.432,-0.647 0.432,-0.956c0,-0.248 -0.084,-0.467 -0.252,-0.658c-0.169,-0.19 -0.422,-0.285 -0.759,-0.285c-0.293,-0 -0.532,0.082 -0.719,0.245c-0.186,0.164 -0.279,0.423 -0.279,0.777c-0,0.209 -0.097,0.391 -0.292,0.545c-0.194,0.155 -0.451,0.232 -0.771,0.232c-0.605,0 -0.907,-0.354 -0.907,-1.064c-0,-0.762 0.294,-1.372 0.882,-1.832c0.589,-0.46 1.279,-0.69 2.073,-0.69c0.818,0 1.534,0.241 2.15,0.721c0.616,0.48 0.923,1.127 0.923,1.942c0,0.531 -0.14,1.032 -0.422,1.501c-0.281,0.469 -0.62,0.863 -1.016,1.182c-0.396,0.318 -0.794,0.61 -1.194,0.876c-0.401,0.266 -0.743,0.524 -1.027,0.777c-0.283,0.252 -0.425,0.484 -0.425,0.697l-0,0.119l3.463,0c0.168,0 0.313,0.088 0.436,0.263c0.124,0.175 0.185,0.381 0.185,0.617c0,0.237 -0.061,0.447 -0.183,0.631c-0.123,0.184 -0.268,0.276 -0.434,0.276l-4.676,-0c-0.201,-0 -0.4,-0.062 -0.597,-0.185c-0.197,-0.124 -0.296,-0.274 -0.296,-0.45Z" style="fill:url(#_Linear12);fill-rule:nonzero;"/><path d="M21.601,16.935c0,-0.341 0.085,-0.578 0.256,-0.709c0.171,-0.131 0.427,-0.197 0.769,-0.197c0.411,-0 0.685,0.066 0.82,0.197c0.136,0.131 0.204,0.32 0.204,0.565c0,0.254 0.107,0.451 0.322,0.591c0.214,0.14 0.488,0.21 0.821,0.21c0.796,-0 1.195,-0.412 1.195,-1.235l-0,-0.249c-0,-0.429 -0.103,-0.751 -0.309,-0.966c-0.206,-0.214 -0.492,-0.321 -0.86,-0.321l-1.996,-0c-0.289,-0 -0.493,-0.068 -0.611,-0.204c-0.118,-0.136 -0.177,-0.335 -0.177,-0.598c-0,-0.061 0.008,-0.188 0.026,-0.381l0.354,-3.309c0.044,-0.421 0.167,-0.631 0.368,-0.631l4.19,0c0.184,0 0.328,0.088 0.433,0.263c0.105,0.175 0.158,0.385 0.158,0.63c-0,0.246 -0.053,0.456 -0.158,0.631c-0.105,0.175 -0.249,0.262 -0.433,0.262l-2.876,0l-0.132,1.76l0.854,0c0.981,0 1.762,0.228 2.345,0.683c0.582,0.456 0.873,1.183 0.873,2.181l-0,0.249c-0,1.033 -0.293,1.795 -0.88,2.285c-0.587,0.491 -1.357,0.736 -2.312,0.736c-1.007,0 -1.799,-0.241 -2.377,-0.722c-0.578,-0.482 -0.867,-1.055 -0.867,-1.721Z" style="fill:url(#_Linear13);fill-rule:nonzero;"/><ellipse cx="21.49" cy="14.538" rx="14.129" ry="12.636" style="fill:url(#_Linear14);"/><path d="M60,33.403c0,-7.606 -6.895,-13.772 -15.4,-13.772c-8.506,-0 -15.401,6.166 -15.401,13.772l0,3.256c0,7.607 6.895,13.773 15.401,13.773c8.505,-0 15.4,-6.166 15.4,-13.773l0,-3.256Z" style="fill:url(#_Linear15);fill-rule:nonzero;"/><path d="M57.283,25.591c-2.778,-3.6 -7.422,-5.96 -12.683,-5.96c-5.262,-0 -9.906,2.36 -12.684,5.96l-0,18.88c2.778,3.601 7.422,5.961 12.684,5.961c5.261,-0 9.905,-2.36 12.683,-5.961l0,-18.88Z" style="fill:url(#_Linear16);fill-rule:nonzero;"/><path d="M55.029,46.792c1.854,-1.527 3.288,-3.456 4.129,-5.633l0,-3.256l-4.129,5.633l-0,3.256Z" style="fill:url(#_Linear17);fill-rule:nonzero;"/><path d="M35.567,47.814c2.537,1.646 5.658,2.618 9.033,2.618c3.374,-0 6.495,-0.972 9.033,-2.618l-0,-25.565c-2.538,-1.647 -5.659,-2.618 -9.033,-2.618c-3.375,-0 -6.496,0.971 -9.033,2.618l-0,25.565Z" style="fill:url(#_Linear18);fill-rule:nonzero;"/><path d="M41.101,50.075c1.124,0.233 2.295,0.357 3.499,0.357c1.203,-0 2.374,-0.124 3.499,-0.357l-0,-30.087c-1.125,-0.233 -2.296,-0.357 -3.499,-0.357c-1.204,-0 -2.375,0.124 -3.499,0.357l-0,30.087Z" style="fill:url(#_Linear19);fill-rule:nonzero;"/><ellipse cx="44.6" cy="33.403" rx="15.4" ry="13.772" style="fill:url(#_Linear20);"/><path d="M41.101,19.988l-0,0l-0,6.805l-7.145,-3.343c-1.849,1.582 -3.257,3.571 -4.046,5.806l7.64,3.568l-7.509,5.079c0.841,2.177 2.275,4.106 4.129,5.633l6.931,-4.682l-0,7.965c1.124,0.233 2.295,0.357 3.499,0.357c1.203,0 2.374,-0.124 3.498,-0.357l0,-7.965l6.931,4.682c1.855,-1.527 3.288,-3.456 4.129,-5.633l-7.509,-5.079l7.64,-3.568c-0.789,-2.235 -2.197,-4.224 -4.046,-5.806l-7.145,3.343l0,-6.805l0,0c-0.992,-0.204 -2.253,-0.374 -3.714,-0.356c-1.272,0.016 -2.381,0.17 -3.283,0.356Z" style="fill:url(#_Linear21);fill-rule:nonzero;"/><ellipse cx="44.6" cy="33.403" rx="11.175" ry="9.994" style="fill:url(#_Linear22);"/><path d="M54.048,24.009l-5.95,2.784l0,-5.634c-1.118,-0.255 -2.291,-0.391 -3.498,-0.391c-1.208,-0 -2.38,0.136 -3.499,0.391l-0,5.634l-5.95,-2.784c-1.906,1.535 -3.343,3.526 -4.094,5.783l6.493,3.031l-6.438,4.355c0.772,2.21 2.205,4.158 4.09,5.661l5.899,-3.985l-0,6.794c1.119,0.255 2.291,0.391 3.499,0.391c1.207,0 2.379,-0.136 3.498,-0.391l0,-6.794l5.899,3.985c1.885,-1.503 3.318,-3.451 4.09,-5.661l-6.438,-4.355l6.493,-3.031c-0.751,-2.257 -2.188,-4.248 -4.094,-5.783Z" style="fill:url(#_Linear23);fill-rule:nonzero;"/><ellipse cx="44.6" cy="33.403" rx="9.919" ry="8.871" style="fill:url(#_Linear24);"/><path d="M30.041,41.159c0.841,2.177 2.275,4.106 4.129,5.633l0,-3.256l-4.129,-5.633l-0,3.256Z" style="fill:url(#_Linear25);fill-rule:nonzero;"/><path d="M41.382,35.8c-0,-0.341 0.085,-0.578 0.256,-0.709c0.17,-0.131 0.427,-0.197 0.768,-0.197c0.412,0 0.685,0.066 0.821,0.197c0.136,0.131 0.203,0.32 0.203,0.565c0,0.254 0.108,0.451 0.322,0.591c0.215,0.14 0.488,0.21 0.821,0.21c0.797,-0 1.195,-0.411 1.195,-1.235l0,-0.249c0,-0.429 -0.103,-0.751 -0.308,-0.966c-0.206,-0.214 -0.493,-0.321 -0.861,-0.321l-1.996,-0c-0.289,-0 -0.493,-0.068 -0.611,-0.204c-0.118,-0.136 -0.177,-0.335 -0.177,-0.598c-0,-0.061 0.009,-0.188 0.026,-0.38l0.355,-3.31c0.044,-0.421 0.166,-0.631 0.368,-0.631l4.189,0c0.184,0 0.329,0.088 0.434,0.263c0.105,0.175 0.157,0.385 0.157,0.63c0,0.246 -0.052,0.456 -0.157,0.631c-0.105,0.175 -0.25,0.263 -0.434,0.263l-2.876,-0l-0.131,1.76l0.854,-0c0.98,-0 1.762,0.227 2.344,0.682c0.582,0.456 0.873,1.183 0.873,2.181l0,0.249c0,1.034 -0.293,1.795 -0.88,2.286c-0.586,0.49 -1.357,0.735 -2.311,0.735c-1.007,0 -1.8,-0.241 -2.378,-0.722c-0.577,-0.481 -0.866,-1.055 -0.866,-1.721Z" style="fill:url(#_Linear26);fill-rule:nonzero;"/><ellipse cx="44.6" cy="33.403" rx="14.129" ry="12.636" style="fill:url(#_Linear27);"/><path d="M30.801,42.206c-0,-7.607 -6.895,-13.773 -15.401,-13.773c-8.505,0 -15.4,6.166 -15.4,13.773l0,3.256c0,7.606 6.895,13.772 15.4,13.772c8.506,0 15.401,-6.166 15.401,-13.772c-0,-0.011 -0,-3.246 -0,-3.256Z" style="fill:url(#_Linear28);fill-rule:nonzero;"/><path d="M28.084,34.394c-2.778,-3.601 -7.422,-5.961 -12.684,-5.961c-5.261,0 -9.905,2.36 -12.683,5.961l-0,18.88c2.778,3.6 7.422,5.96 12.683,5.96c5.262,0 9.906,-2.36 12.684,-5.96l0,-18.88Z" style="fill:url(#_Linear29);fill-rule:nonzero;"/><path d="M25.83,55.594c1.854,-1.527 3.288,-3.456 4.129,-5.633l0,-3.256l-4.129,5.633l-0,3.256Z" style="fill:url(#_Linear30);fill-rule:nonzero;"/><path d="M6.368,56.616c2.537,1.647 5.658,2.618 9.032,2.618c3.375,0 6.496,-0.971 9.033,-2.618l0,-25.565c-2.537,-1.646 -5.658,-2.618 -9.033,-2.618c-3.374,0 -6.495,0.972 -9.032,2.618l-0,25.565Z" style="fill:url(#_Linear31);fill-rule:nonzero;"/><path d="M11.902,58.877c1.124,0.233 2.295,0.357 3.498,0.357c1.204,0 2.375,-0.124 3.499,-0.357l0,-30.086c-1.124,-0.234 -2.295,-0.358 -3.499,-0.358c-1.203,0 -2.374,0.124 -3.498,0.358l-0,30.086Z" style="fill:url(#_Linear32);fill-rule:nonzero;"/><ellipse cx="15.4" cy="42.206" rx="15.4" ry="13.772" style="fill:url(#_Linear33);"/><path d="M11.902,28.791l-0,6.804l-7.145,-3.343c-1.849,1.582 -3.257,3.571 -4.046,5.807l7.64,3.567l-7.509,5.079c0.841,2.177 2.275,4.106 4.129,5.633l6.931,-4.682l-0,7.965c1.124,0.234 2.295,0.357 3.499,0.357c1.203,0 2.374,-0.123 3.499,-0.357l-0,-7.965l6.93,4.682c1.855,-1.527 3.288,-3.456 4.13,-5.633l-7.51,-5.079l7.64,-3.568c-0.789,-2.235 -2.197,-4.224 -4.046,-5.806l-7.144,3.343l-0,-6.804l-0.001,-0c-0.94,-0.195 -2.126,-0.358 -3.499,-0.358c-1.372,0 -2.558,0.164 -3.498,0.358Z" style="fill:url(#_Linear34);fill-rule:nonzero;"/><ellipse cx="15.4" cy="42.206" rx="11.175" ry="9.994" style="fill:url(#_Linear35);"/><path d="M24.849,32.812l-5.95,2.783l0,-5.634c-1.119,-0.255 -2.291,-0.391 -3.499,-0.391c-1.207,0 -2.38,0.136 -3.499,0.391l0,5.634l-5.949,-2.783c-1.907,1.534 -3.343,3.526 -4.094,5.782l6.493,3.032l-6.438,4.355c0.772,2.209 2.205,4.157 4.09,5.66l5.898,-3.985l0,6.795c1.119,0.255 2.292,0.391 3.499,0.391c1.208,-0 2.38,-0.136 3.499,-0.391l0,-6.795l5.898,3.985c1.886,-1.503 3.319,-3.451 4.091,-5.66l-6.438,-4.355l6.493,-3.032c-0.751,-2.256 -2.188,-4.248 -4.094,-5.782Z" style="fill:url(#_Linear36);fill-rule:nonzero;"/><ellipse cx="15.4" cy="42.206" rx="9.919" ry="8.871" style="fill:url(#_Linear37);"/><path d="M0.842,49.961c0.841,2.177 2.275,4.106 4.129,5.633l0,-3.256l-4.129,-5.633l-0,3.256Z" style="fill:url(#_Linear38);fill-rule:nonzero;"/><path d="M9.838,39.192c0,-0.316 0.127,-0.548 0.381,-0.697l1.734,-1.05c0.096,-0.061 0.223,-0.092 0.381,-0.092c0.227,-0 0.435,0.061 0.623,0.184c0.189,0.122 0.283,0.276 0.283,0.459l-0,8.354c-0,0.201 -0.101,0.357 -0.302,0.466c-0.202,0.11 -0.443,0.164 -0.723,0.164c-0.28,0 -0.521,-0.054 -0.722,-0.164c-0.202,-0.109 -0.302,-0.265 -0.302,-0.466l-0,-6.685l-0.381,0.236c-0.105,0.07 -0.215,0.105 -0.328,0.105c-0.184,0 -0.338,-0.083 -0.46,-0.249c-0.123,-0.167 -0.184,-0.355 -0.184,-0.565Z" style="fill:url(#_Linear39);fill-rule:nonzero;"/><path d="M14.514,43.959l-0,-3.48c-0,-1.069 0.293,-1.852 0.88,-2.351c0.586,-0.5 1.366,-0.749 2.338,-0.749c0.98,-0 1.764,0.249 2.351,0.749c0.586,0.499 0.88,1.282 0.88,2.351l-0,3.48c-0,1.069 -0.294,1.852 -0.88,2.351c-0.587,0.499 -1.371,0.749 -2.351,0.749c-0.972,-0 -1.752,-0.25 -2.338,-0.749c-0.587,-0.499 -0.88,-1.282 -0.88,-2.351Zm2.049,0c-0,0.876 0.389,1.314 1.169,1.314c0.788,-0 1.182,-0.438 1.182,-1.314l-0,-3.48c-0,-0.876 -0.394,-1.314 -1.182,-1.314c-0.78,0 -1.169,0.438 -1.169,1.314l-0,3.48Z" style="fill:url(#_Linear40);fill-rule:nonzero;"/><ellipse cx="15.4" cy="42.206" rx="14.129" ry="12.636" style="fill:url(#_Linear41);"/></g><defs><linearGradient id="_Linear1" x1="0" y1="0" x2="1" y2="0" gradientUnits="userSpaceOnUse" gradientTransform="matrix(30.8009,0,0,30.8009,6.08906,16.1662)"><stop offset="0" style="stop-color:#e4f2ff;stop-opacity:1"/><stop offset="1" style="stop-color:#b2cbff;stop-opacity:1"/></linearGradient><linearGradient id="_Linear2" x1="0" y1="0" x2="1" y2="0" gradientUnits="userSpaceOnUse" gradientTransform="matrix(7.0755e-16,11.5552,-11.5552,7.0755e-16,21.4895,24.6874)"><stop offset="0" style="stop-color:#3f3ced;stop-opacity:0"/><stop offset="0.28" style="stop-color:#3c3de4;stop-opacity:0.28"/><stop offset="0.73" style="stop-color:#3541cc;stop-opacity:0.73"/><stop offset="1" style="stop-color:#2f43bb;stop-opacity:1"/></linearGradient><linearGradient id="_Linear3" x1="0" y1="0" x2="1" y2="0" gradientUnits="userSpaceOnUse" gradientTransform="matrix(2.78882,2.394,-2.394,2.78882,32.6141,22.3067)"><stop offset="0" style="stop-color:#00adfb;stop-opacity:1"/><stop offset="1" style="stop-color:#3f3ced;stop-opacity:1"/></linearGradient><linearGradient id="_Linear4" x1="0" y1="0" x2="1" y2="0" gradientUnits="userSpaceOnUse" gradientTransform="matrix(5.52885e-16,9.02929,-9.02929,5.52885e-16,21.4895,26.1919)"><stop offset="0" style="stop-color:#3f3ced;stop-opacity:0"/><stop offset="0.28" style="stop-color:#3c3de4;stop-opacity:0.28"/><stop offset="0.73" style="stop-color:#3541cc;stop-opacity:0.73"/><stop offset="1" style="stop-color:#2f43bb;stop-opacity:1"/></linearGradient><linearGradient id="_Linear5" x1="0" y1="0" x2="1" y2="0" gradientUnits="userSpaceOnUse" gradientTransform="matrix(1.02365,4.81129,-4.81129,1.02365,23.6438,26.2908)"><stop offset="0" style="stop-color:#00adfb;stop-opacity:1"/><stop offset="1" style="stop-color:#3f3ced;stop-opacity:1"/></linearGradient><linearGradient id="_Linear6" x1="0" y1="0" x2="1" y2="0" gradientUnits="userSpaceOnUse" gradientTransform="matrix(23.0812,24.0676,-24.0676,23.0812,14.6028,7.35729)"><stop offset="0" style="stop-color:#e4f2ff;stop-opacity:1"/><stop offset="1" style="stop-color:#b2cbff;stop-opacity:1"/></linearGradient><linearGradient id="_Linear7" x1="0" y1="0" x2="1" y2="0" gradientUnits="userSpaceOnUse" gradientTransform="matrix(9.50741,18.6559,-18.6559,9.50741,17.9028,7.5)"><stop offset="0" style="stop-color:#00adfb;stop-opacity:1"/><stop offset="1" style="stop-color:#3f3ced;stop-opacity:1"/></linearGradient><linearGradient id="_Linear8" x1="0" y1="0" x2="1" y2="0" gradientUnits="userSpaceOnUse" gradientTransform="matrix(13.0045,16.7547,-16.7547,13.0045,15.7349,7.12424)"><stop offset="0" style="stop-color:#00adfb;stop-opacity:1"/><stop offset="1" style="stop-color:#3f3ced;stop-opacity:1"/></linearGradient><linearGradient id="_Linear9" x1="0" y1="0" x2="1" y2="0" gradientUnits="userSpaceOnUse" gradientTransform="matrix(-17.8696,-18.366,18.366,-17.8696,25.7546,18.9218)"><stop offset="0" style="stop-color:#00adfb;stop-opacity:0"/><stop offset="1" style="stop-color:#18cefb;stop-opacity:1"/></linearGradient><linearGradient id="_Linear10" x1="0" y1="0" x2="1" y2="0" gradientUnits="userSpaceOnUse" gradientTransform="matrix(11.4884,12.8846,-12.8846,11.4884,16.3254,8.74659)"><stop offset="0" style="stop-color:#e4f2ff;stop-opacity:1"/><stop offset="1" style="stop-color:#b2cbff;stop-opacity:1"/></linearGradient><linearGradient id="_Linear11" x1="0" y1="0" x2="1" y2="0" gradientUnits="userSpaceOnUse" gradientTransform="matrix(3.47412,5.42835,-5.42835,3.47412,7.43624,21.2868)"><stop offset="0" style="stop-color:#00adfb;stop-opacity:1"/><stop offset="1" style="stop-color:#3f3ced;stop-opacity:1"/></linearGradient><linearGradient id="_Linear12" x1="0" y1="0" x2="1" y2="0" gradientUnits="userSpaceOnUse" gradientTransform="matrix(4.13494,9.566,-9.566,4.13494,16.8361,12.5018)"><stop offset="0" style="stop-color:#00adfb;stop-opacity:1"/><stop offset="1" style="stop-color:#3f3ced;stop-opacity:1"/></linearGradient><linearGradient id="_Linear13" x1="0" y1="0" x2="1" y2="0" gradientUnits="userSpaceOnUse" gradientTransform="matrix(4.13506,9.56624,-9.56624,4.13506,22.8764,9.89071)"><stop offset="0" style="stop-color:#00adfb;stop-opacity:1"/><stop offset="1" style="stop-color:#3f3ced;stop-opacity:1"/></linearGradient><linearGradient id="_Linear14" x1="0" y1="0" x2="1" y2="0" gradientUnits="userSpaceOnUse" gradientTransform="matrix(-12.6627,-18.4185,18.4185,-12.6627,21.4495,14.4801)"><stop offset="0" style="stop-color:#fff;stop-opacity:0"/><stop offset="1" style="stop-color:#fff;stop-opacity:1"/></linearGradient><linearGradient id="_Linear15" x1="0" y1="0" x2="1" y2="0" gradientUnits="userSpaceOnUse" gradientTransform="matrix(30.8009,0,0,30.8009,29.1991,35.0313)"><stop offset="0" style="stop-color:#e4f2ff;stop-opacity:1"/><stop offset="1" style="stop-color:#b2cbff;stop-opacity:1"/></linearGradient><linearGradient id="_Linear16" x1="0" y1="0" x2="1" y2="0" gradientUnits="userSpaceOnUse" gradientTransform="matrix(7.0755e-16,11.5552,-11.5552,7.0755e-16,44.5995,43.5525)"><stop offset="0" style="stop-color:#3f3ced;stop-opacity:0"/><stop offset="0.28" style="stop-color:#3c3de4;stop-opacity:0.28"/><stop offset="0.73" style="stop-color:#3541cc;stop-opacity:0.73"/><stop offset="1" style="stop-color:#2f43bb;stop-opacity:1"/></linearGradient><linearGradient id="_Linear17" x1="0" y1="0" x2="1" y2="0" gradientUnits="userSpaceOnUse" gradientTransform="matrix(2.78882,2.39388,-2.39388,2.78882,55.7242,41.1719)"><stop offset="0" style="stop-color:#ffd945;stop-opacity:1"/><stop offset="0.3" style="stop-color:#ffcd3e;stop-opacity:1"/><stop offset="0.86" style="stop-color:#ffad2b;stop-opacity:1"/><stop offset="1" style="stop-color:#ffa325;stop-opacity:1"/></linearGradient><linearGradient id="_Linear18" x1="0" y1="0" x2="1" y2="0" gradientUnits="userSpaceOnUse" gradientTransform="matrix(5.52885e-16,9.02929,-9.02929,5.52885e-16,44.5996,46.0653)"><stop offset="0" style="stop-color:#3f3ced;stop-opacity:0"/><stop offset="0.28" style="stop-color:#3c3de4;stop-opacity:0.28"/><stop offset="0.73" style="stop-color:#3541cc;stop-opacity:0.73"/><stop offset="1" style="stop-color:#2f43bb;stop-opacity:1"/></linearGradient><linearGradient id="_Linear19" x1="0" y1="0" x2="1" y2="0" gradientUnits="userSpaceOnUse" gradientTransform="matrix(1.02376,4.81129,-4.81129,1.02376,46.7538,45.1559)"><stop offset="0" style="stop-color:#ffd945;stop-opacity:1"/><stop offset="0.3" style="stop-color:#ffcd3e;stop-opacity:1"/><stop offset="0.86" style="stop-color:#ffad2b;stop-opacity:1"/><stop offset="1" style="stop-color:#ffa325;stop-opacity:1"/></linearGradient><linearGradient id="_Linear20" x1="0" y1="0" x2="1" y2="0" gradientUnits="userSpaceOnUse" gradientTransform="matrix(23.0813,24.0675,-24.0675,23.0813,37.7128,26.2225)"><stop offset="0" style="stop-color:#e4f2ff;stop-opacity:1"/><stop offset="1" style="stop-color:#b2cbff;stop-opacity:1"/></linearGradient><linearGradient id="_Linear21" x1="0" y1="0" x2="1" y2="0" gradientUnits="userSpaceOnUse" gradientTransform="matrix(9.50729,18.6559,-18.6559,9.50729,41.0128,26.3652)"><stop offset="0" style="stop-color:#ffd945;stop-opacity:1"/><stop offset="0.3" style="stop-color:#ffcd3e;stop-opacity:1"/><stop offset="0.86" style="stop-color:#ffad2b;stop-opacity:1"/><stop offset="1" style="stop-color:#ffa325;stop-opacity:1"/></linearGradient><linearGradient id="_Linear22" x1="0" y1="0" x2="1" y2="0" gradientUnits="userSpaceOnUse" gradientTransform="matrix(13.0046,16.7546,-16.7546,13.0046,38.8449,25.9894)"><stop offset="0" style="stop-color:#ffd945;stop-opacity:1"/><stop offset="0.3" style="stop-color:#ffcd3e;stop-opacity:1"/><stop offset="0.86" style="stop-color:#ffad2b;stop-opacity:1"/><stop offset="1" style="stop-color:#ffa325;stop-opacity:1"/></linearGradient><linearGradient id="_Linear23" x1="0" y1="0" x2="1" y2="0" gradientUnits="userSpaceOnUse" gradientTransform="matrix(-17.8696,-18.366,18.366,-17.8696,48.8646,37.7869)"><stop offset="0" style="stop-color:#ffd945;stop-opacity:0"/><stop offset="1" style="stop-color:#fbed21;stop-opacity:1"/></linearGradient><linearGradient id="_Linear24" x1="0" y1="0" x2="1" y2="0" gradientUnits="userSpaceOnUse" gradientTransform="matrix(11.4884,12.8847,-12.8847,11.4884,39.4354,27.6116)"><stop offset="0" style="stop-color:#e4f2ff;stop-opacity:1"/><stop offset="1" style="stop-color:#b2cbff;stop-opacity:1"/></linearGradient><linearGradient id="_Linear25" x1="0" y1="0" x2="1" y2="0" gradientUnits="userSpaceOnUse" gradientTransform="matrix(3.474,5.42824,-5.42824,3.474,30.5464,40.152)"><stop offset="0" style="stop-color:#ffd945;stop-opacity:1"/><stop offset="0.3" style="stop-color:#ffcd3e;stop-opacity:1"/><stop offset="0.86" style="stop-color:#ffad2b;stop-opacity:1"/><stop offset="1" style="stop-color:#ffa325;stop-opacity:1"/></linearGradient><linearGradient id="_Linear26" x1="0" y1="0" x2="1" y2="0" gradientUnits="userSpaceOnUse" gradientTransform="matrix(4.13506,9.56612,-9.56612,4.13506,42.6569,28.7559)"><stop offset="0" style="stop-color:#ffd945;stop-opacity:1"/><stop offset="0.3" style="stop-color:#ffcd3e;stop-opacity:1"/><stop offset="0.86" style="stop-color:#ffad2b;stop-opacity:1"/><stop offset="1" style="stop-color:#ffa325;stop-opacity:1"/></linearGradient><linearGradient id="_Linear27" x1="0" y1="0" x2="1" y2="0" gradientUnits="userSpaceOnUse" gradientTransform="matrix(-12.6626,-18.4184,18.4184,-12.6626,44.5595,33.3452)"><stop offset="0" style="stop-color:#fff;stop-opacity:0"/><stop offset="1" style="stop-color:#fff;stop-opacity:1"/></linearGradient><linearGradient id="_Linear28" x1="0" y1="0" x2="1" y2="0" gradientUnits="userSpaceOnUse" gradientTransform="matrix(30.8009,0,0,30.8009,0,43.8336)"><stop offset="0" style="stop-color:#e4f2ff;stop-opacity:1"/><stop offset="1" style="stop-color:#b2cbff;stop-opacity:1"/></linearGradient><linearGradient id="_Linear29" x1="0" y1="0" x2="1" y2="0" gradientUnits="userSpaceOnUse" gradientTransform="matrix(7.0755e-16,11.5552,-11.5552,7.0755e-16,15.4005,52.3548)"><stop offset="0" style="stop-color:#3f3ced;stop-opacity:0"/><stop offset="0.28" style="stop-color:#3c3de4;stop-opacity:0.28"/><stop offset="0.73" style="stop-color:#3541cc;stop-opacity:0.73"/><stop offset="1" style="stop-color:#2f43bb;stop-opacity:1"/></linearGradient><linearGradient id="_Linear30" x1="0" y1="0" x2="1" y2="0" gradientUnits="userSpaceOnUse" gradientTransform="matrix(2.78882,2.394,-2.394,2.78882,26.5251,49.9741)"><stop offset="0" style="stop-color:#ff7044;stop-opacity:1"/><stop offset="1" style="stop-color:#f82814;stop-opacity:1"/></linearGradient><linearGradient id="_Linear31" x1="0" y1="0" x2="1" y2="0" gradientUnits="userSpaceOnUse" gradientTransform="matrix(5.52885e-16,9.02929,-9.02929,5.52885e-16,15.4005,53.8594)"><stop offset="0" style="stop-color:#3f3ced;stop-opacity:0"/><stop offset="0.28" style="stop-color:#3c3de4;stop-opacity:0.28"/><stop offset="0.73" style="stop-color:#3541cc;stop-opacity:0.73"/><stop offset="1" style="stop-color:#2f43bb;stop-opacity:1"/></linearGradient><linearGradient id="_Linear32" x1="0" y1="0" x2="1" y2="0" gradientUnits="userSpaceOnUse" gradientTransform="matrix(1.02376,4.81118,-4.81118,1.02376,17.5546,53.9584)"><stop offset="0" style="stop-color:#ff7044;stop-opacity:1"/><stop offset="1" style="stop-color:#f82814;stop-opacity:1"/></linearGradient><linearGradient id="_Linear33" x1="0" y1="0" x2="1" y2="0" gradientUnits="userSpaceOnUse" gradientTransform="matrix(23.0812,24.0676,-24.0676,23.0812,8.51376,35.0247)"><stop offset="0" style="stop-color:#e4f2ff;stop-opacity:1"/><stop offset="1" style="stop-color:#b2cbff;stop-opacity:1"/></linearGradient><linearGradient id="_Linear34" x1="0" y1="0" x2="1" y2="0" gradientUnits="userSpaceOnUse" gradientTransform="matrix(9.50729,18.656,-18.656,9.50729,11.8139,35.1674)"><stop offset="0" style="stop-color:#ff7044;stop-opacity:1"/><stop offset="1" style="stop-color:#f82814;stop-opacity:1"/></linearGradient><linearGradient id="_Linear35" x1="0" y1="0" x2="1" y2="0" gradientUnits="userSpaceOnUse" gradientTransform="matrix(13.0045,16.7546,-16.7546,13.0045,9.64588,34.7918)"><stop offset="0" style="stop-color:#ff7044;stop-opacity:1"/><stop offset="1" style="stop-color:#f82814;stop-opacity:1"/></linearGradient><linearGradient id="_Linear36" x1="0" y1="0" x2="1" y2="0" gradientUnits="userSpaceOnUse" gradientTransform="matrix(-17.8696,-18.366,18.366,-17.8696,19.6655,46.5893)"><stop offset="0" style="stop-color:#ff7044;stop-opacity:0"/><stop offset="1" style="stop-color:#ffa325;stop-opacity:1"/></linearGradient><linearGradient id="_Linear37" x1="0" y1="0" x2="1" y2="0" gradientUnits="userSpaceOnUse" gradientTransform="matrix(11.4884,12.8847,-12.8847,11.4884,10.2364,36.414)"><stop offset="0" style="stop-color:#e4f2ff;stop-opacity:1"/><stop offset="1" style="stop-color:#b2cbff;stop-opacity:1"/></linearGradient><linearGradient id="_Linear38" x1="0" y1="0" x2="1" y2="0" gradientUnits="userSpaceOnUse" gradientTransform="matrix(3.474,5.42824,-5.42824,3.474,1.34729,48.9544)"><stop offset="0" style="stop-color:#ff7044;stop-opacity:1"/><stop offset="1" style="stop-color:#f82814;stop-opacity:1"/></linearGradient><linearGradient id="_Linear39" x1="0" y1="0" x2="1" y2="0" gradientUnits="userSpaceOnUse" gradientTransform="matrix(5.62529,12.3393,-12.3393,5.62529,10.886,39.2609)"><stop offset="0" style="stop-color:#ff7044;stop-opacity:1"/><stop offset="1" style="stop-color:#f82814;stop-opacity:1"/></linearGradient><linearGradient id="_Linear40" x1="0" y1="0" x2="1" y2="0" gradientUnits="userSpaceOnUse" gradientTransform="matrix(5.62518,12.3392,-12.3392,5.62518,15.4428,37.1836)"><stop offset="0" style="stop-color:#ff7044;stop-opacity:1"/><stop offset="1" style="stop-color:#f82814;stop-opacity:1"/></linearGradient><linearGradient id="_Linear41" x1="0" y1="0" x2="1" y2="0" gradientUnits="userSpaceOnUse" gradientTransform="matrix(-12.6626,-18.4184,18.4184,-12.6626,15.3605,42.1475)"><stop offset="0" style="stop-color:#fff;stop-opacity:0"/><stop offset="1" style="stop-color:#fff;stop-opacity:1"/></linearGradient></defs></svg>