<?xml version="1.0" encoding="UTF-8" standalone="no"?>
<!DOCTYPE svg PUBLIC "-//W3C//DTD SVG 1.1//EN" "http://www.w3.org/Graphics/SVG/1.1/DTD/svg11.dtd">
<svg width="100%" height="100%" viewBox="0 0 65 30" version="1.1" xmlns="http://www.w3.org/2000/svg" xmlns:xlink="http://www.w3.org/1999/xlink" xml:space="preserve" xmlns:serif="http://www.serif.com/" style="fill-rule:evenodd;clip-rule:evenodd;stroke-linejoin:round;stroke-miterlimit:2;">
    <g transform="matrix(1,0,0,1,-45,-105)">
        <g transform="matrix(1,0,0,1,30,-382)">
            <g transform="matrix(1,0,0,1,-66.8252,487)">
                <g transform="matrix(0.249767,0,0,0.249767,-43.6524,-154.394)">
                    <path d="M514.445,715.446L502.379,708.48L502.379,659.708C502.379,651.085 506.979,643.117 514.447,638.806C523.427,633.621 535.635,626.573 544.617,621.388C552.084,617.076 561.285,617.076 568.753,621.388L608.288,644.213L567.196,668.405C559.166,673.154 554.028,682.146 553.97,691.431C553.938,707.042 553.968,722.654 553.969,738.266L538.885,729.556L538.885,679.604C538.9,672.068 543.068,664.872 549.517,661.095C564.499,652.404 581.473,642.645 581.473,642.645L576.042,639.51L546.877,656.348C538.739,661.07 533.512,670.165 533.454,679.488C533.415,698.285 533.446,709.202 533.453,726.42L519.878,718.583L519.878,668.414C519.893,660.879 524.146,653.633 530.51,649.906C545.43,641.25 562.279,631.564 562.279,631.564C562.279,631.564 560.921,630.78 559.564,629.996C557.883,629.026 555.813,629.026 554.133,629.996C546.928,634.156 527.87,645.159 527.87,645.159C519.719,649.887 514.505,658.977 514.447,668.299C514.411,685.475 514.438,699.159 514.445,715.446Z" style="fill:rgb(255,0,64);"/>
                </g>
                <path d="M99.835,27.825L96.067,30L96.067,18.331C96.071,16.468 97.1,14.676 98.684,13.731C102.103,11.709 105.53,9.7 108.953,7.685L108.953,22.56L105.938,24.301L105.938,13.805L104.582,14.628L104.582,25.084L101.191,27.042L101.191,16.61C101.191,16.61 100.765,16.862 100.39,17.083C100.046,17.286 99.835,17.656 99.835,18.056L99.835,27.825ZM139.732,20.244C139.643,20.399 139.478,20.494 139.299,20.494C139.121,20.494 138.956,20.399 138.867,20.244C137.763,18.332 134.929,13.423 134.929,13.423L134.929,21.001C134.929,21.139 134.817,21.251 134.679,21.251C134.2,21.251 133.159,21.251 132.681,21.251C132.543,21.251 132.431,21.139 132.431,21.001C132.431,19.402 132.431,10.612 132.431,9.012C132.431,8.946 132.457,8.882 132.504,8.836C132.551,8.789 132.614,8.762 132.681,8.762C133.069,8.762 133.831,8.762 134.401,8.762C134.847,8.762 135.259,9 135.482,9.387C136.496,11.143 139.299,15.998 139.299,15.998C139.299,15.998 142.103,11.143 143.117,9.387C143.34,9 143.752,8.762 144.198,8.762C144.768,8.762 145.53,8.762 145.918,8.762C145.985,8.762 146.048,8.789 146.095,8.836C146.142,8.882 146.168,8.946 146.168,9.012C146.168,10.612 146.168,19.402 146.168,21.001C146.168,21.139 146.056,21.251 145.918,21.251C145.44,21.251 144.399,21.251 143.92,21.251C143.782,21.251 143.67,21.139 143.67,21.001C143.67,19.665 143.67,13.423 143.67,13.423C143.67,13.423 140.836,18.332 139.732,20.244ZM123.747,20.244C123.658,20.399 123.493,20.494 123.314,20.494C123.136,20.494 122.971,20.399 122.882,20.244C121.778,18.332 118.943,13.423 118.943,13.423L118.943,21.001C118.943,21.139 118.832,21.251 118.694,21.251C118.215,21.251 117.174,21.251 116.695,21.251C116.557,21.251 116.446,21.139 116.446,21.001C116.446,19.402 116.446,10.612 116.446,9.012C116.446,8.946 116.472,8.882 116.519,8.836C116.566,8.789 116.629,8.762 116.695,8.762C117.083,8.762 117.846,8.762 118.416,8.762C118.862,8.762 119.274,9 119.497,9.387C120.511,11.143 123.314,15.998 123.314,15.998C123.314,15.998 126.117,11.143 127.131,9.387C127.354,9 127.767,8.762 128.213,8.762C128.783,8.762 129.545,8.762 129.933,8.762C129.999,8.762 130.063,8.789 130.11,8.836C130.157,8.882 130.183,8.946 130.183,9.012C130.183,10.612 130.183,19.402 130.183,21.001C130.183,21.139 130.071,21.251 129.933,21.251C129.455,21.251 128.413,21.251 127.935,21.251C127.797,21.251 127.685,21.139 127.685,21.001C127.685,19.665 127.685,13.423 127.685,13.423C127.685,13.423 124.851,18.332 123.747,20.244Z" style="fill:rgb(15,31,61);"/>
            </g>
        </g>
    </g>
</svg>
