<?xml version="1.0" encoding="UTF-8" standalone="no"?>
<!DOCTYPE svg PUBLIC "-//W3C//DTD SVG 1.1//EN" "http://www.w3.org/Graphics/SVG/1.1/DTD/svg11.dtd">
<svg width="100%" height="100%" viewBox="0 0 48 30" version="1.1" xmlns="http://www.w3.org/2000/svg" xmlns:xlink="http://www.w3.org/1999/xlink" xml:space="preserve" xmlns:serif="http://www.serif.com/" style="fill-rule:evenodd;clip-rule:evenodd;stroke-linejoin:round;stroke-miterlimit:2;">
    <g transform="matrix(1,0,0,1,-365,-104.5)">
        <g transform="matrix(1,0,0,1,350,-382)">
            <g transform="matrix(0.113708,0,0,0.113708,15,464.014)">
                <path d="M386.671,461.582L31.64,461.582C14.165,461.582 0,447.416 0,429.941L0,229.388C0,211.914 14.165,197.748 31.64,197.748L386.67,197.748C404.145,197.748 418.31,211.914 418.31,229.388L418.31,429.942C418.311,447.416 404.146,461.582 386.671,461.582Z" style="fill:url(#_Linear1);fill-rule:nonzero;"/>
                <path d="M0,400.726L0,429.942C0,447.417 14.165,461.582 31.64,461.582L386.67,461.582C404.145,461.582 418.31,447.417 418.31,429.942L418.31,400.726L0,400.726Z" style="fill:url(#_Linear2);fill-rule:nonzero;"/>
                <rect x="0" y="241.761" width="418.311" height="74.106" style="fill:url(#_Linear3);fill-rule:nonzero;"/>
                <g>
                    <g>
                        <circle cx="61.92" cy="400.726" r="30.862" style="fill:url(#_Linear4);"/>
                        <circle cx="108.249" cy="400.726" r="30.862" style="fill:url(#_Linear5);"/>
                    </g>
                    <g>
                        <path d="M381.468,393.157L249.096,393.157C245.902,393.157 243.311,390.567 243.311,387.372L243.311,377.35C243.311,374.156 245.902,371.565 249.096,371.565L381.468,371.565C384.663,371.565 387.253,374.156 387.253,377.35L387.253,387.372C387.253,390.567 384.664,393.157 381.468,393.157Z" style="fill:rgb(4,105,187);fill-rule:nonzero;"/>
                        <path d="M319.449,429.887L249.096,429.887C245.902,429.887 243.311,427.297 243.311,424.103L243.311,414.081C243.311,410.886 245.902,408.296 249.096,408.296L319.449,408.296C322.643,408.296 325.233,410.886 325.233,414.081L325.233,424.103C325.233,427.297 322.643,429.887 319.449,429.887Z" style="fill:rgb(4,105,187);fill-rule:nonzero;"/>
                    </g>
                </g>
            </g>
        </g>
    </g>
    <defs>
        <linearGradient id="_Linear1" x1="0" y1="0" x2="1" y2="0" gradientUnits="userSpaceOnUse" gradientTransform="matrix(147.861,380.852,-380.852,147.861,149.586,176.229)"><stop offset="0" style="stop-color:rgb(24,206,251);stop-opacity:1"/><stop offset="0.3" style="stop-color:rgb(43,185,249);stop-opacity:1"/><stop offset="0.73" style="stop-color:rgb(66,160,247);stop-opacity:1"/><stop offset="1" style="stop-color:rgb(74,151,246);stop-opacity:1"/></linearGradient>
        <linearGradient id="_Linear2" x1="0" y1="0" x2="1" y2="0" gradientUnits="userSpaceOnUse" gradientTransform="matrix(2.63932e-15,43.1034,-43.1034,2.63932e-15,209.155,422.323)"><stop offset="0" style="stop-color:rgb(74,151,246);stop-opacity:0"/><stop offset="1" style="stop-color:rgb(4,105,187);stop-opacity:1"/></linearGradient>
        <linearGradient id="_Linear3" x1="0" y1="0" x2="1" y2="0" gradientUnits="userSpaceOnUse" gradientTransform="matrix(66.7738,120.431,-120.431,66.7738,174.891,217.017)"><stop offset="0" style="stop-color:rgb(138,120,137);stop-opacity:1"/><stop offset="1" style="stop-color:rgb(110,86,110);stop-opacity:1"/></linearGradient>
        <linearGradient id="_Linear4" x1="0" y1="0" x2="1" y2="0" gradientUnits="userSpaceOnUse" gradientTransform="matrix(15.4012,27.7775,-27.7775,15.4012,54.017,386.473)"><stop offset="0" style="stop-color:rgb(255,169,54);stop-opacity:1"/><stop offset="0.41" style="stop-color:rgb(255,133,72);stop-opacity:1"/><stop offset="0.78" style="stop-color:rgb(255,108,84);stop-opacity:1"/><stop offset="1" style="stop-color:rgb(255,99,89);stop-opacity:1"/></linearGradient>
        <linearGradient id="_Linear5" x1="0" y1="0" x2="1" y2="0" gradientUnits="userSpaceOnUse" gradientTransform="matrix(15.4022,27.7775,-27.7775,15.4022,100.345,386.473)"><stop offset="0" style="stop-color:rgb(255,217,69);stop-opacity:1"/><stop offset="0.3" style="stop-color:rgb(255,205,62);stop-opacity:1"/><stop offset="0.86" style="stop-color:rgb(255,173,43);stop-opacity:1"/><stop offset="1" style="stop-color:rgb(255,163,37);stop-opacity:1"/></linearGradient>
    </defs>
</svg>
