<?xml version="1.0" encoding="UTF-8" standalone="no"?>
<!DOCTYPE svg PUBLIC "-//W3C//DTD SVG 1.1//EN" "http://www.w3.org/Graphics/SVG/1.1/DTD/svg11.dtd">
<svg width="100%" height="100%" viewBox="0 0 45 30" version="1.1" xmlns="http://www.w3.org/2000/svg" xmlns:xlink="http://www.w3.org/1999/xlink" xml:space="preserve" xmlns:serif="http://www.serif.com/" style="fill-rule:evenodd;clip-rule:evenodd;stroke-linejoin:round;stroke-miterlimit:2;">
    <g transform="matrix(1,0,0,1,-685,-105)">
        <g transform="matrix(1,0,0,1,670,-382)">
            <g transform="matrix(1,0,0,1,-331.019,54.5811)">
                <g transform="matrix(0.101813,0,0,0.101813,338.601,427.286)">
                    <path d="M493.993,283.474L133.852,283.474C123.907,283.474 115.845,275.412 115.845,265.467L115.845,68.426C115.845,58.481 123.907,50.419 133.852,50.419L493.993,50.419C503.938,50.419 512,58.481 512,68.426L512,265.467C512,275.412 503.938,283.474 493.993,283.474Z" style="fill:url(#_Linear1);fill-rule:nonzero;"/>
                    <path d="M137.336,123.586L137.336,210.308C137.336,215.333 140.911,219.567 145.825,220.622C160.579,223.791 172.326,235.056 176.196,249.54C177.431,254.16 181.578,257.396 186.361,257.396L441.484,257.396C446.266,257.396 450.413,254.16 451.648,249.54C455.518,235.056 467.264,223.792 482.02,220.622C486.933,219.567 490.508,215.332 490.508,210.308L490.508,123.586C490.508,118.56 486.933,114.327 482.02,113.271C467.265,110.102 455.518,98.837 451.648,84.354C450.413,79.733 446.266,76.497 441.484,76.497L186.361,76.497C181.578,76.497 177.431,79.733 176.196,84.354C172.326,98.837 160.58,110.101 145.825,113.271C140.911,114.327 137.336,118.56 137.336,123.586Z" style="fill:url(#_Linear2);fill-rule:nonzero;"/>
                    <circle cx="313.922" cy="166.946" r="58.297" style="fill:url(#_Linear3);"/>
                    <path d="M115.845,225.243L115.845,265.467C115.845,275.412 123.907,283.474 133.852,283.474L493.993,283.474C503.938,283.474 512,275.412 512,265.467L512,225.243L115.845,225.243Z" style="fill:url(#_Linear4);fill-rule:nonzero;"/>
                </g>
                <g transform="matrix(0.101813,0,0,0.101813,338.601,427.286)">
                    <path d="M472.5,314.276L112.359,314.276C102.414,314.276 94.352,306.213 94.352,296.268L94.352,99.228C94.352,89.283 102.414,81.22 112.359,81.22L472.5,81.22C482.445,81.22 490.507,89.283 490.507,99.228L490.507,296.268C490.507,306.214 482.445,314.276 472.5,314.276Z" style="fill:url(#_Linear5);fill-rule:nonzero;"/>
                    <path d="M115.845,154.387L115.845,241.109C115.845,246.134 119.419,250.368 124.333,251.423C139.087,254.593 150.834,265.858 154.704,280.341C155.939,284.961 160.086,288.198 164.869,288.198L419.991,288.198C424.773,288.198 428.92,284.961 430.155,280.341C434.025,265.858 445.771,254.594 460.527,251.423C465.44,250.368 469.015,246.133 469.015,241.109L469.015,154.387C469.015,149.361 465.44,145.128 460.527,144.073C445.772,140.903 434.025,129.638 430.155,115.155C428.92,110.535 424.773,107.298 419.991,107.298L164.868,107.298C160.085,107.298 155.938,110.535 154.703,115.155C150.833,129.638 139.087,140.902 124.332,144.073C119.418,145.128 115.845,149.362 115.845,154.387Z" style="fill:url(#_Linear6);fill-rule:nonzero;"/>
                    <circle cx="292.429" cy="197.748" r="58.297" style="fill:url(#_Linear7);"/>
                    <path d="M94.352,256.045L94.352,296.269C94.352,306.214 102.414,314.277 112.359,314.277L472.5,314.277C482.445,314.277 490.507,306.214 490.507,296.269L490.507,256.045L94.352,256.045Z" style="fill:url(#_Linear8);fill-rule:nonzero;"/>
                </g>
                <g transform="matrix(0.101813,0,0,0.101813,338.601,427.286)">
                    <path d="M451.007,345.078L90.866,345.078C80.921,345.078 72.859,337.015 72.859,327.071L72.859,130.029C72.859,120.084 80.921,112.022 90.866,112.022L451.007,112.022C460.952,112.022 469.014,120.084 469.014,130.029L469.014,327.07C469.015,337.015 460.953,345.078 451.007,345.078Z" style="fill:url(#_Linear9);fill-rule:nonzero;"/>
                    <path d="M94.352,185.188L94.352,271.91C94.352,276.936 97.927,281.169 102.84,282.224C117.594,285.394 129.341,296.659 133.211,311.142C134.446,315.762 138.593,318.999 143.376,318.999L398.499,318.999C403.281,318.999 407.429,315.762 408.663,311.142C412.533,296.659 424.279,285.395 439.035,282.224C443.948,281.169 447.523,276.935 447.523,271.91L447.523,185.188C447.523,180.163 443.948,175.929 439.035,174.874C424.28,171.705 412.533,160.44 408.663,145.956C407.429,141.336 403.281,138.099 398.499,138.099L143.375,138.099C138.592,138.099 134.445,141.336 133.21,145.956C129.34,160.44 117.594,171.704 102.839,174.874C97.927,175.93 94.352,180.164 94.352,185.188Z" style="fill:url(#_Linear10);fill-rule:nonzero;"/>
                    <circle cx="270.936" cy="228.55" r="58.297" style="fill:url(#_Linear11);"/>
                    <path d="M72.859,286.846L72.859,327.071C72.859,337.015 80.921,345.078 90.866,345.078L451.007,345.078C460.952,345.078 469.014,337.015 469.014,327.071L469.014,286.846L72.859,286.846Z" style="fill:url(#_Linear12);fill-rule:nonzero;"/>
                </g>
            </g>
        </g>
    </g>
    <defs>
        <linearGradient id="_Linear1" x1="0" y1="0" x2="1" y2="0" gradientUnits="userSpaceOnUse" gradientTransform="matrix(126.825,162.729,-162.729,126.825,285.411,130.364)"><stop offset="0" style="stop-color:rgb(205,236,122);stop-opacity:1"/><stop offset="0.22" style="stop-color:rgb(176,233,149);stop-opacity:1"/><stop offset="0.56" style="stop-color:rgb(135,228,187);stop-opacity:1"/><stop offset="0.83" style="stop-color:rgb(110,225,210);stop-opacity:1"/><stop offset="1" style="stop-color:rgb(101,224,219);stop-opacity:1"/></linearGradient>
        <linearGradient id="_Linear2" x1="0" y1="0" x2="1" y2="0" gradientUnits="userSpaceOnUse" gradientTransform="matrix(-70.6098,-603.55,603.55,-70.6098,350.594,480.402)"><stop offset="0" style="stop-color:rgb(205,236,122);stop-opacity:0"/><stop offset="0.24" style="stop-color:rgb(154,213,125);stop-opacity:0.23"/><stop offset="0.6" style="stop-color:rgb(81,180,130);stop-opacity:0.6"/><stop offset="0.87" style="stop-color:rgb(35,159,133);stop-opacity:0.87"/><stop offset="1" style="stop-color:rgb(17,151,134);stop-opacity:1"/></linearGradient>
        <linearGradient id="_Linear3" x1="0" y1="0" x2="1" y2="0" gradientUnits="userSpaceOnUse" gradientTransform="matrix(117.59,117.591,-117.591,117.59,257.942,110.965)"><stop offset="0" style="stop-color:rgb(205,236,122);stop-opacity:1"/><stop offset="0.22" style="stop-color:rgb(176,233,149);stop-opacity:1"/><stop offset="0.56" style="stop-color:rgb(135,228,187);stop-opacity:1"/><stop offset="0.83" style="stop-color:rgb(110,225,210);stop-opacity:1"/><stop offset="1" style="stop-color:rgb(101,224,219);stop-opacity:1"/></linearGradient>
        <linearGradient id="_Linear4" x1="0" y1="0" x2="1" y2="0" gradientUnits="userSpaceOnUse" gradientTransform="matrix(3.56565e-15,58.2315,-58.2315,3.56565e-15,313.922,248.407)"><stop offset="0" style="stop-color:rgb(205,236,122);stop-opacity:0"/><stop offset="0.24" style="stop-color:rgb(154,213,125);stop-opacity:0.23"/><stop offset="0.6" style="stop-color:rgb(81,180,130);stop-opacity:0.6"/><stop offset="0.87" style="stop-color:rgb(35,159,133);stop-opacity:0.87"/><stop offset="1" style="stop-color:rgb(17,151,134);stop-opacity:1"/></linearGradient>
        <linearGradient id="_Linear5" x1="0" y1="0" x2="1" y2="0" gradientUnits="userSpaceOnUse" gradientTransform="matrix(123.929,152.306,-152.306,123.929,199.24,83.2211)"><stop offset="0" style="stop-color:rgb(205,236,122);stop-opacity:1"/><stop offset="0.22" style="stop-color:rgb(176,233,149);stop-opacity:1"/><stop offset="0.56" style="stop-color:rgb(135,228,187);stop-opacity:1"/><stop offset="0.83" style="stop-color:rgb(110,225,210);stop-opacity:1"/><stop offset="1" style="stop-color:rgb(101,224,219);stop-opacity:1"/></linearGradient>
        <linearGradient id="_Linear6" x1="0" y1="0" x2="1" y2="0" gradientUnits="userSpaceOnUse" gradientTransform="matrix(-70.6108,-603.55,603.55,-70.6108,329.102,511.203)"><stop offset="0" style="stop-color:rgb(205,236,122);stop-opacity:0"/><stop offset="0.24" style="stop-color:rgb(154,213,125);stop-opacity:0.23"/><stop offset="0.6" style="stop-color:rgb(81,180,130);stop-opacity:0.6"/><stop offset="0.87" style="stop-color:rgb(35,159,133);stop-opacity:0.87"/><stop offset="1" style="stop-color:rgb(17,151,134);stop-opacity:1"/></linearGradient>
        <linearGradient id="_Linear7" x1="0" y1="0" x2="1" y2="0" gradientUnits="userSpaceOnUse" gradientTransform="matrix(117.591,117.59,-117.59,117.591,236.449,141.768)"><stop offset="0" style="stop-color:rgb(205,236,122);stop-opacity:1"/><stop offset="0.22" style="stop-color:rgb(176,233,149);stop-opacity:1"/><stop offset="0.56" style="stop-color:rgb(135,228,187);stop-opacity:1"/><stop offset="0.83" style="stop-color:rgb(110,225,210);stop-opacity:1"/><stop offset="1" style="stop-color:rgb(101,224,219);stop-opacity:1"/></linearGradient>
        <linearGradient id="_Linear8" x1="0" y1="0" x2="1" y2="0" gradientUnits="userSpaceOnUse" gradientTransform="matrix(3.56559e-15,58.2305,-58.2305,3.56559e-15,292.429,279.21)"><stop offset="0" style="stop-color:rgb(205,236,122);stop-opacity:0"/><stop offset="0.24" style="stop-color:rgb(154,213,125);stop-opacity:0.23"/><stop offset="0.6" style="stop-color:rgb(81,180,130);stop-opacity:0.6"/><stop offset="0.87" style="stop-color:rgb(35,159,133);stop-opacity:0.87"/><stop offset="1" style="stop-color:rgb(17,151,134);stop-opacity:1"/></linearGradient>
        <linearGradient id="_Linear9" x1="0" y1="0" x2="1" y2="0" gradientUnits="userSpaceOnUse" gradientTransform="matrix(66.0129,431.36,-431.36,66.0129,242.913,45.4264)"><stop offset="0" style="stop-color:rgb(205,236,122);stop-opacity:1"/><stop offset="0.22" style="stop-color:rgb(176,233,149);stop-opacity:1"/><stop offset="0.56" style="stop-color:rgb(135,228,187);stop-opacity:1"/><stop offset="0.83" style="stop-color:rgb(110,225,210);stop-opacity:1"/><stop offset="1" style="stop-color:rgb(101,224,219);stop-opacity:1"/></linearGradient>
        <linearGradient id="_Linear10" x1="0" y1="0" x2="1" y2="0" gradientUnits="userSpaceOnUse" gradientTransform="matrix(-70.6108,-603.55,603.55,-70.6108,307.609,542.005)"><stop offset="0" style="stop-color:rgb(205,236,122);stop-opacity:0"/><stop offset="0.24" style="stop-color:rgb(154,213,125);stop-opacity:0.23"/><stop offset="0.6" style="stop-color:rgb(81,180,130);stop-opacity:0.6"/><stop offset="0.87" style="stop-color:rgb(35,159,133);stop-opacity:0.87"/><stop offset="1" style="stop-color:rgb(17,151,134);stop-opacity:1"/></linearGradient>
        <linearGradient id="_Linear11" x1="0" y1="0" x2="1" y2="0" gradientUnits="userSpaceOnUse" gradientTransform="matrix(117.59,117.59,-117.59,117.59,214.957,172.569)"><stop offset="0" style="stop-color:rgb(205,236,122);stop-opacity:1"/><stop offset="0.22" style="stop-color:rgb(176,233,149);stop-opacity:1"/><stop offset="0.56" style="stop-color:rgb(135,228,187);stop-opacity:1"/><stop offset="0.83" style="stop-color:rgb(110,225,210);stop-opacity:1"/><stop offset="1" style="stop-color:rgb(101,224,219);stop-opacity:1"/></linearGradient>
        <linearGradient id="_Linear12" x1="0" y1="0" x2="1" y2="0" gradientUnits="userSpaceOnUse" gradientTransform="matrix(3.56565e-15,58.2315,-58.2315,3.56565e-15,270.936,310.011)"><stop offset="0" style="stop-color:rgb(205,236,122);stop-opacity:0"/><stop offset="0.24" style="stop-color:rgb(154,213,125);stop-opacity:0.23"/><stop offset="0.6" style="stop-color:rgb(81,180,130);stop-opacity:0.6"/><stop offset="0.87" style="stop-color:rgb(35,159,133);stop-opacity:0.87"/><stop offset="1" style="stop-color:rgb(17,151,134);stop-opacity:1"/></linearGradient>
    </defs>
</svg>
