<?xml version="1.0" encoding="UTF-8" standalone="no"?>
<!DOCTYPE svg PUBLIC "-//W3C//DTD SVG 1.1//EN" "http://www.w3.org/Graphics/SVG/1.1/DTD/svg11.dtd">
<svg width="100%" height="100%" viewBox="0 0 58 40" version="1.1" xmlns="http://www.w3.org/2000/svg" xmlns:xlink="http://www.w3.org/1999/xlink" xml:space="preserve" xmlns:serif="http://www.serif.com/" style="fill-rule:evenodd;clip-rule:evenodd;stroke-linejoin:round;stroke-miterlimit:2;">
    <g transform="matrix(1,0,0,1,-117.143,-638)">
        <g id="SVG_mastercard.svg" transform="matrix(0.285714,0,0,0.285714,145.714,658)">
            <g transform="matrix(1,0,0,1,-100,-70)">
                <path d="M55.71,123.56L55.71,116.39C55.716,116.295 55.72,116.199 55.72,116.103C55.72,113.766 53.797,111.843 51.46,111.843C51.38,111.843 51.3,111.846 51.22,111.85C49.625,111.743 48.092,112.51 47.22,113.85C46.42,112.546 44.968,111.777 43.44,111.85C42.102,111.782 40.825,112.431 40.09,113.55L40.09,112.14L37.59,112.14L37.59,123.57L40.1,123.57L40.1,117.28C40.087,117.173 40.08,117.065 40.08,116.956C40.08,115.486 41.29,114.276 42.76,114.276C42.807,114.276 42.854,114.278 42.9,114.28C44.55,114.28 45.39,115.36 45.39,117.28L45.39,123.64L47.9,123.64L47.9,117.31C47.888,117.206 47.882,117.102 47.882,116.997C47.882,115.521 49.096,114.307 50.572,114.307C50.614,114.307 50.657,114.308 50.7,114.31C52.4,114.31 53.21,115.39 53.21,117.31L53.21,123.67L55.71,123.56ZM92.85,112.13L88.76,112.13L88.76,108.66L86.25,108.66L86.25,112.13L84,112.13L84,114.4L86.3,114.4L86.3,119.66C86.3,122.31 87.3,123.89 90.3,123.89C91.399,123.896 92.477,123.591 93.41,123.01L92.69,120.88C92.024,121.279 91.266,121.503 90.49,121.53C89.29,121.53 88.84,120.77 88.84,119.62L88.84,114.4L92.9,114.4L92.85,112.13ZM114.05,111.84C112.822,111.807 111.669,112.449 111.05,113.51L111.05,112.12L108.59,112.12L108.59,123.55L111.08,123.55L111.08,117.14C111.08,115.25 111.89,114.2 113.47,114.2C114.001,114.194 114.527,114.293 115.02,114.49L115.78,112.1C115.212,111.897 114.613,111.792 114.01,111.79L114.05,111.84ZM82,113C80.594,112.162 78.976,111.746 77.34,111.8C74.45,111.8 72.56,113.19 72.56,115.46C72.56,117.32 73.95,118.46 76.5,118.83L77.7,119C79.06,119.19 79.7,119.55 79.7,120.2C79.7,121.08 78.79,121.59 77.09,121.59C75.725,121.628 74.386,121.205 73.29,120.39L72.09,122.33C73.524,123.343 75.245,123.872 77,123.84C80.3,123.84 82.21,122.29 82.21,120.11C82.21,117.93 80.7,117.05 78.21,116.69L77.01,116.52C75.93,116.38 75.07,116.16 75.07,115.4C75.07,114.64 75.88,114.06 77.25,114.06C78.513,114.08 79.749,114.424 80.84,115.06L82,113ZM148.59,111.8C147.362,111.767 146.209,112.409 145.59,113.47L145.59,112.08L143.13,112.08L143.13,123.51L145.62,123.51L145.62,117.1C145.62,115.21 146.43,114.16 148.01,114.16C148.541,114.154 149.067,114.253 149.56,114.45L150.32,112.06C149.752,111.857 149.153,111.752 148.55,111.75L148.59,111.8ZM116.59,117.8C116.587,117.878 116.585,117.956 116.585,118.034C116.585,121.122 119.064,123.69 122.15,123.8L122.69,123.8C124.181,123.874 125.647,123.389 126.8,122.44L125.6,120.44C124.735,121.089 123.682,121.44 122.6,121.44C120.694,121.299 119.201,119.691 119.201,117.78C119.201,115.869 120.694,114.261 122.6,114.12C123.682,114.12 124.735,114.471 125.6,115.12L126.8,113.12C125.647,112.171 124.181,111.686 122.69,111.76C122.58,111.754 122.471,111.751 122.361,111.751C119.317,111.751 116.769,114.16 116.6,117.2L116.6,117.74L116.59,117.8ZM139.87,123.55L139.87,112.11L137.38,112.11L137.38,113.5C136.522,112.399 135.185,111.777 133.79,111.83C130.498,111.83 127.79,114.538 127.79,117.83C127.79,121.122 130.498,123.83 133.79,123.83C135.185,123.883 136.522,123.261 137.38,122.16L137.38,123.55L139.87,123.55ZM130.62,117.8C130.692,115.971 132.217,114.505 134.047,114.505C135.929,114.505 137.477,116.053 137.477,117.935C137.477,119.817 135.929,121.365 134.047,121.365C132.217,121.365 130.692,119.899 130.62,118.07C130.593,118.023 130.583,117.94 130.59,117.82L130.62,117.8ZM100.62,111.8C97.361,111.846 94.704,114.54 94.704,117.8C94.704,121.092 97.413,123.801 100.705,123.801C100.733,123.801 100.762,123.8 100.79,123.8C102.51,123.891 104.204,123.338 105.54,122.25L104.34,120.41C103.398,121.168 102.229,121.59 101.02,121.61C99.321,121.755 97.793,120.505 97.6,118.81L106,118.81L106,117.81C106,114.22 103.78,111.81 100.57,111.81L100.62,111.8ZM100.62,114.02C100.64,114.02 100.66,114.019 100.681,114.019C102.211,114.019 103.478,115.26 103.51,116.79L97.51,116.79C97.601,115.219 98.937,113.985 100.51,114.02L100.62,114.02ZM162.91,123.55L162.91,107.5L160.52,107.5L160.52,113.5C159.662,112.399 158.325,111.777 156.93,111.83C153.638,111.83 150.93,114.538 150.93,117.83C150.93,121.122 153.638,123.83 156.93,123.83C158.325,123.883 159.662,123.261 160.52,122.16L160.52,123.55L162.91,123.55ZM167.06,121.85C167.523,121.838 167.951,122.107 168.14,122.53C168.261,122.811 168.261,123.129 168.14,123.41C168.02,123.683 167.797,123.899 167.52,124.01C167.379,124.074 167.225,124.108 167.07,124.11C166.608,124.108 166.186,123.838 165.99,123.42C165.87,123.139 165.87,122.821 165.99,122.54C166.186,122.108 166.627,121.838 167.1,121.86L167.06,121.85ZM167.06,123.85C167.18,123.852 167.3,123.828 167.41,123.78C167.511,123.734 167.602,123.669 167.68,123.59C167.837,123.429 167.926,123.213 167.926,122.988C167.926,122.647 167.723,122.337 167.41,122.2C167.3,122.152 167.18,122.129 167.06,122.13C166.94,122.13 166.821,122.154 166.71,122.2C166.602,122.243 166.503,122.308 166.42,122.39C166.271,122.551 166.189,122.762 166.189,122.981C166.189,123.458 166.582,123.851 167.059,123.851C167.069,123.851 167.08,123.85 167.09,123.85L167.06,123.85ZM167.13,122.43C167.242,122.426 167.352,122.462 167.44,122.53C167.515,122.591 167.556,122.684 167.55,122.78C167.555,122.861 167.526,122.941 167.47,123C167.401,123.063 167.313,123.102 167.22,123.11L167.57,123.5L167.3,123.5L166.98,123.11L166.87,123.11L166.87,123.5L166.64,123.5L166.64,122.5L167.13,122.43ZM166.87,122.63L166.87,123L167.13,123C167.176,123.013 167.224,123.013 167.27,123C167.288,122.966 167.288,122.924 167.27,122.89C167.288,122.856 167.288,122.814 167.27,122.78C167.224,122.767 167.176,122.767 167.13,122.78L166.87,122.63ZM153.72,117.78C153.792,115.951 155.317,114.485 157.147,114.485C159.029,114.485 160.577,116.033 160.577,117.915C160.577,119.797 159.029,121.345 157.147,121.345C155.317,121.345 153.792,119.879 153.72,118.05C153.687,118.017 153.673,117.947 153.68,117.84L153.72,117.78ZM69.78,117.78L69.78,112.07L67.25,112.07L67.25,113.46C66.392,112.359 65.055,111.737 63.66,111.79C60.368,111.79 57.66,114.498 57.66,117.79C57.66,121.082 60.368,123.79 63.66,123.79C65.055,123.843 66.392,123.221 67.25,122.12L67.25,123.51L69.74,123.51L69.78,117.78ZM60.53,117.78C60.61,116.088 62.023,114.74 63.716,114.74C65.466,114.74 66.906,116.18 66.906,117.93C66.906,119.68 65.466,121.12 63.716,121.12C62.023,121.12 60.61,119.772 60.53,118.08L60.53,117.78Z" style="fill:rgb(35,31,32);fill-rule:nonzero;"/>
                <g id="_Group_">
                    <rect x="81.17" y="25.05" width="37.65" height="67.66" style="fill:rgb(255,95,0);"/>
                    <path id="_Path_" d="M83.56,58.89C83.553,45.693 89.621,33.201 100,25.05C92.429,19.11 83.08,15.88 73.457,15.88C49.868,15.88 30.457,35.291 30.457,58.88C30.457,82.469 49.868,101.88 73.457,101.88C83.08,101.88 92.429,98.65 100,92.71C89.627,84.563 83.559,72.08 83.56,58.89Z" style="fill:rgb(235,0,27);fill-rule:nonzero;"/>
                    <path d="M169.62,58.89C169.62,58.91 169.62,58.93 169.62,58.951C169.62,82.54 150.209,101.951 126.62,101.951C116.964,101.951 107.583,98.698 100,92.72C110.382,84.574 116.457,72.086 116.457,58.89C116.457,45.694 110.382,33.206 100,25.06C107.585,19.077 116.969,15.822 126.63,15.822C150.219,15.822 169.63,35.232 169.63,58.822C169.63,58.844 169.63,58.867 169.63,58.89L169.62,58.89Z" style="fill:rgb(247,158,27);fill-rule:nonzero;"/>
                    <path d="M165.51,85.55L165.51,84.16L166.07,84.16L166.07,83.87L164.65,83.87L164.65,84.16L165.26,84.16L165.26,85.55L165.51,85.55ZM168.27,85.55L168.27,83.87L167.84,83.87L167.34,85.07L166.84,83.87L166.46,83.87L166.46,85.54L166.77,85.54L166.77,84.29L167.24,85.38L167.56,85.38L168.03,84.29L168.03,85.56L168.27,85.55Z" style="fill:rgb(247,158,27);fill-rule:nonzero;"/>
                </g>
            </g>
        </g>
    </g>
</svg>
