<?xml version="1.0" encoding="UTF-8" standalone="no"?>
<!DOCTYPE svg PUBLIC "-//W3C//DTD SVG 1.1//EN" "http://www.w3.org/Graphics/SVG/1.1/DTD/svg11.dtd">
<svg width="100%" height="100%" viewBox="0 0 80 40" version="1.1" xmlns="http://www.w3.org/2000/svg" xmlns:xlink="http://www.w3.org/1999/xlink" xml:space="preserve" xmlns:serif="http://www.serif.com/" style="fill-rule:evenodd;clip-rule:evenodd;stroke-linejoin:round;stroke-miterlimit:2;">
    <g transform="matrix(1,0,0,1,-184.286,-638)">
        <g id="SVG_mastercard_secure.svg" transform="matrix(0.285714,0,0,0.285714,224.286,658)">
            <g transform="matrix(1,0,0,1,-140,-70)">
                <rect x="2" y="6.1" width="275.71" height="127.81" style="fill:none;"/>
                <path d="M51.35,82.19C50.218,81.468 48.998,80.894 47.72,80.48C46.427,80.067 45.077,79.861 43.72,79.87C42.888,79.862 42.059,79.956 41.25,80.15C40.568,80.308 39.919,80.582 39.33,80.96C38.827,81.285 38.403,81.719 38.09,82.23C37.793,82.736 37.64,83.314 37.65,83.9C37.635,84.411 37.771,84.915 38.04,85.35C38.324,85.768 38.705,86.111 39.15,86.35C39.707,86.657 40.302,86.89 40.92,87.04C41.695,87.235 42.479,87.389 43.27,87.5L45.14,87.75C46.224,87.901 47.294,88.138 48.34,88.46C49.336,88.758 50.278,89.214 51.13,89.81C51.952,90.378 52.635,91.123 53.13,91.99C53.649,92.968 53.904,94.064 53.87,95.17C53.899,96.448 53.6,97.711 53,98.84C52.426,99.891 51.623,100.801 50.65,101.5C49.609,102.245 48.444,102.8 47.21,103.14C45.856,103.521 44.456,103.709 43.05,103.7C42.095,103.698 41.143,103.621 40.2,103.47C39.214,103.317 38.242,103.089 37.29,102.79C36.343,102.492 35.423,102.114 34.54,101.66C33.696,101.23 32.907,100.699 32.19,100.08L34.56,96.61C35.068,97.068 35.629,97.464 36.23,97.79C37.61,98.547 39.102,99.077 40.65,99.36C41.435,99.506 42.232,99.579 43.03,99.58C43.864,99.586 44.697,99.496 45.51,99.31C46.214,99.155 46.89,98.888 47.51,98.52C48.044,98.203 48.501,97.773 48.85,97.26C49.175,96.764 49.345,96.183 49.34,95.59C49.347,94.552 48.737,93.604 47.79,93.18C46.361,92.516 44.829,92.1 43.26,91.95L41.16,91.66C40.161,91.521 39.177,91.29 38.22,90.97C37.292,90.667 36.423,90.207 35.65,89.61C34.893,89.018 34.275,88.267 33.84,87.41C33.355,86.411 33.118,85.31 33.15,84.2C33.126,82.949 33.415,81.711 33.99,80.6C34.545,79.559 35.328,78.656 36.28,77.96C37.303,77.217 38.451,76.665 39.67,76.33C41.017,75.949 42.411,75.761 43.81,75.77C45.617,75.746 47.416,76.01 49.14,76.55C50.705,77.059 52.195,77.775 53.57,78.68L51.35,82.19ZM66.07,84.25C67.286,84.235 68.491,84.474 69.61,84.95C70.664,85.408 71.606,86.091 72.37,86.95C73.156,87.843 73.764,88.878 74.16,90C74.611,91.284 74.831,92.639 74.81,94L74.81,94.77C74.81,95.03 74.81,95.27 74.75,95.5L61.07,95.5C61.169,96.252 61.41,96.978 61.78,97.64C62.095,98.185 62.508,98.667 63,99.06C63.489,99.44 64.046,99.725 64.64,99.9C65.253,100.082 65.89,100.173 66.53,100.17C67.483,100.166 68.427,99.994 69.32,99.66C70.246,99.323 71.111,98.837 71.88,98.22L73.88,101.1C72.832,102.009 71.606,102.69 70.28,103.1C68.983,103.491 67.635,103.686 66.28,103.68C64.988,103.694 63.706,103.464 62.5,103C61.371,102.551 60.349,101.87 59.5,101C58.657,100.142 57.997,99.121 57.56,98C57.08,96.722 56.843,95.365 56.86,94C56.84,92.636 57.07,91.28 57.54,90C57.955,88.856 58.598,87.808 59.43,86.92C60.245,86.056 61.233,85.375 62.33,84.92C63.52,84.45 64.791,84.222 66.07,84.25ZM66,87.84C65.345,87.829 64.694,87.941 64.08,88.17C63.536,88.379 63.042,88.699 62.63,89.11C62.213,89.53 61.874,90.021 61.63,90.56C61.365,91.145 61.183,91.764 61.09,92.4L70.68,92.4C70.558,91.128 70.016,89.931 69.14,89C68.294,88.204 67.16,87.786 66,87.84ZM87.44,84.25C88.77,84.236 90.089,84.488 91.32,84.99C92.484,85.474 93.513,86.232 94.32,87.2L91.75,90C91.163,89.424 90.488,88.944 89.75,88.58C88.999,88.244 88.183,88.077 87.36,88.09C86.618,88.083 85.883,88.229 85.2,88.52C84.542,88.801 83.949,89.217 83.46,89.74C82.957,90.282 82.566,90.917 82.31,91.61C81.755,93.165 81.755,94.865 82.31,96.42C82.566,97.113 82.957,97.748 83.46,98.29C83.949,98.813 84.542,99.228 85.2,99.51C85.883,99.801 86.618,99.947 87.36,99.94C88.221,99.946 89.072,99.758 89.85,99.39C90.583,99.035 91.257,98.569 91.85,98.01L94.34,100.79C93.524,101.748 92.497,102.504 91.34,103C90.116,103.502 88.803,103.754 87.48,103.74C86.111,103.761 84.751,103.509 83.48,103C81.174,102.065 79.36,100.208 78.48,97.88C77.553,95.391 77.553,92.649 78.48,90.16C79.36,87.832 81.174,85.975 83.48,85.04C84.732,84.52 86.074,84.252 87.43,84.25L87.44,84.25ZM115,95.38C115.034,96.678 114.785,97.968 114.27,99.16C113.827,100.156 113.167,101.04 112.34,101.75C111.536,102.424 110.604,102.927 109.6,103.23C107.537,103.861 105.333,103.861 103.27,103.23C102.263,102.926 101.328,102.423 100.52,101.75C99.689,101.044 99.029,100.158 98.59,99.16C98.08,97.967 97.835,96.677 97.87,95.38L97.87,84.73L101.92,84.73L101.92,95C101.902,95.771 102.02,96.54 102.27,97.27C102.482,97.847 102.824,98.367 103.27,98.79C103.679,99.178 104.172,99.465 104.71,99.63C105.868,99.977 107.102,99.977 108.26,99.63C108.798,99.465 109.291,99.178 109.7,98.79C110.147,98.368 110.49,97.848 110.7,97.27C110.933,96.537 111.034,95.768 111,95L111,84.73L115,84.73L115,95.38ZM129.72,84.25C130.279,84.247 130.838,84.29 131.39,84.38C131.882,84.46 132.365,84.591 132.83,84.77L131.83,88.77C131.359,88.536 130.857,88.368 130.34,88.27C129.82,88.16 129.291,88.103 128.76,88.1C128.151,88.093 127.546,88.205 126.98,88.43C126.446,88.652 125.97,88.994 125.59,89.43C125.185,89.884 124.876,90.414 124.68,90.99C124.451,91.666 124.34,92.376 124.35,93.09L124.35,103.26L120.35,103.26L120.35,84.73L124.35,84.73L124.35,86.81C124.922,85.961 125.718,85.286 126.65,84.86C127.627,84.436 128.685,84.227 129.75,84.25L129.72,84.25ZM143.27,84.25C144.486,84.235 145.691,84.474 146.81,84.95C147.864,85.408 148.806,86.091 149.57,86.95C150.367,87.84 150.985,88.876 151.39,90C151.827,91.287 152.034,92.641 152,94L152,94.77C152,95.03 152,95.27 151.94,95.5L138.3,95.5C138.401,96.237 138.638,96.949 139,97.6C139.319,98.162 139.744,98.658 140.25,99.06C140.739,99.44 141.296,99.725 141.89,99.9C142.503,100.082 143.14,100.173 143.78,100.17C144.733,100.166 145.677,99.994 146.57,99.66C147.496,99.323 148.361,98.837 149.13,98.22L151.13,101.1C150.082,102.009 148.856,102.69 147.53,103.1C146.233,103.491 144.885,103.686 143.53,103.68C142.224,103.696 140.928,103.462 139.71,102.99C138.581,102.541 137.559,101.86 136.71,100.99C135.872,100.134 135.215,99.117 134.78,98C134.3,96.722 134.063,95.365 134.08,94C134.06,92.636 134.29,91.28 134.76,90C135.175,88.856 135.818,87.808 136.65,86.92C137.465,86.056 138.453,85.375 139.55,84.92C140.74,84.45 142.011,84.222 143.29,84.25L143.27,84.25ZM143.19,87.84C142.535,87.829 141.884,87.941 141.27,88.17C140.726,88.379 140.232,88.699 139.82,89.11C139.403,89.53 139.064,90.021 138.82,90.56C138.555,91.145 138.373,91.764 138.28,92.4L147.87,92.4C147.756,91.131 147.225,89.935 146.36,89C145.514,88.204 144.38,87.786 143.22,87.84L143.19,87.84ZM169.44,75.7C170.608,75.698 171.772,75.829 172.91,76.09C173.981,76.337 175.019,76.713 176,77.21C176.962,77.687 177.856,78.288 178.66,79C179.442,79.681 180.116,80.477 180.66,81.36L177,83.79C176.189,82.591 175.098,81.609 173.82,80.93C172.47,80.237 170.967,79.893 169.45,79.93C168.143,79.916 166.845,80.157 165.63,80.64C164.504,81.096 163.484,81.776 162.63,82.64C161.761,83.532 161.081,84.589 160.63,85.75C159.662,88.328 159.662,91.172 160.63,93.75C161.081,94.911 161.761,95.968 162.63,96.86C163.483,97.724 164.504,98.405 165.63,98.86C166.845,99.343 168.143,99.584 169.45,99.57C172.465,99.636 175.314,98.161 177,95.66L180.55,98.27C179.985,99.114 179.313,99.88 178.55,100.55C177.76,101.227 176.891,101.805 175.96,102.27C175.007,102.751 174,103.116 172.96,103.36C169.92,104.034 166.747,103.797 163.84,102.68C160.459,101.366 157.777,98.696 156.45,95.32C155.063,91.72 155.063,87.73 156.45,84.13C157.777,80.754 160.459,78.084 163.84,76.77C165.622,76.061 167.522,75.698 169.44,75.7ZM193.27,84.25C194.639,84.231 195.998,84.482 197.27,84.99C198.443,85.445 199.517,86.124 200.43,86.99C201.322,87.868 202.029,88.915 202.51,90.07C203.513,92.545 203.513,95.315 202.51,97.79C202.029,98.945 201.322,99.992 200.43,100.87C199.517,101.736 198.443,102.415 197.27,102.87C194.72,103.86 191.89,103.86 189.34,102.87C188.169,102.417 187.098,101.737 186.19,100.87C185.303,99.99 184.599,98.943 184.12,97.79C183.117,95.315 183.117,92.545 184.12,90.07C184.592,88.923 185.285,87.879 186.16,87C187.068,86.133 188.139,85.453 189.31,85C190.569,84.494 191.914,84.24 193.27,84.25ZM193.27,88.05C192.483,88.041 191.701,88.187 190.97,88.48C190.283,88.757 189.66,89.173 189.14,89.7C188.614,90.236 188.199,90.872 187.92,91.57C187.328,93.118 187.328,94.832 187.92,96.38C188.199,97.078 188.614,97.714 189.14,98.25C189.669,98.78 190.303,99.196 191,99.47C192.475,100.048 194.115,100.048 195.59,99.47C196.995,98.908 198.107,97.789 198.66,96.38C199.252,94.832 199.252,93.118 198.66,91.57C198.38,90.87 197.962,90.234 197.43,89.7C196.905,89.174 196.279,88.759 195.59,88.48C194.853,88.185 194.064,88.038 193.27,88.05ZM215.36,84.25C217.629,84.167 219.803,85.194 221.18,87L221.18,75.43L225.18,75.43L225.18,103.22L221.18,103.22L221.18,101C220.541,101.835 219.724,102.518 218.79,103C217.725,103.513 216.552,103.763 215.37,103.73C212.901,103.756 210.527,102.764 208.81,100.99C207.945,100.106 207.265,99.059 206.81,97.91C205.857,95.391 205.857,92.609 206.81,90.09C207.266,88.941 207.946,87.894 208.81,87.01C210.527,85.236 212.901,84.244 215.37,84.27L215.36,84.25ZM215.84,88.05C215.035,88.036 214.237,88.196 213.5,88.52C212.835,88.817 212.238,89.249 211.75,89.79C211.265,90.339 210.891,90.978 210.65,91.67C210.134,93.156 210.134,94.774 210.65,96.26C210.891,96.952 211.265,97.591 211.75,98.14C212.238,98.681 212.835,99.113 213.5,99.41C214.978,100.026 216.642,100.026 218.12,99.41C218.786,99.122 219.385,98.7 219.88,98.17C220.369,97.635 220.749,97.01 221,96.33C221.544,94.807 221.544,93.143 221,91.62C220.746,90.928 220.359,90.293 219.86,89.75C219.365,89.217 218.766,88.792 218.1,88.5C217.389,88.196 216.623,88.043 215.85,88.05L215.84,88.05ZM238.63,84.25C239.846,84.235 241.051,84.473 242.17,84.95C243.224,85.408 244.166,86.091 244.93,86.95C245.72,87.842 246.331,88.877 246.73,90C247.176,91.269 247.396,92.606 247.38,93.95L247.38,94.72C247.38,94.98 247.38,95.22 247.32,95.45L233.64,95.45C233.739,96.202 233.98,96.928 234.35,97.59C234.668,98.153 235.093,98.649 235.6,99.05C236.089,99.431 236.645,99.716 237.24,99.89C237.854,100.071 238.49,100.162 239.13,100.16C240.083,100.156 241.027,99.984 241.92,99.65C242.846,99.313 243.711,98.827 244.48,98.21L246.48,101.09C245.431,101.998 244.205,102.679 242.88,103.09C241.583,103.481 240.235,103.676 238.88,103.67C237.574,103.686 236.278,103.452 235.06,102.98C233.931,102.531 232.909,101.85 232.06,100.98C231.223,100.126 230.567,99.113 230.13,98C229.654,96.721 229.42,95.365 229.44,94C229.416,92.637 229.644,91.281 230.11,90C230.529,88.864 231.172,87.823 232,86.94C232.815,86.076 233.803,85.395 234.9,84.94C236.088,84.464 237.36,84.229 238.64,84.25L238.63,84.25ZM249.3,103.25L249.3,102.32L249.67,102.32L249.67,102.13L248.67,102.13L248.67,102.32L249.05,102.32L249.05,103.25L249.3,103.25ZM251.15,103.25L251.15,102.1L250.86,102.1L250.52,102.87L250.18,102.1L249.89,102.1L249.89,103.22L250.1,103.22L250.1,102.37L250.42,103.1L250.63,103.1L250.95,102.37L250.95,103.22L251.15,103.25ZM238.55,87.87C237.895,87.859 237.244,87.971 236.63,88.2C236.086,88.409 235.592,88.729 235.18,89.14C234.763,89.56 234.425,90.051 234.18,90.59C233.915,91.175 233.733,91.795 233.64,92.43L243.23,92.43C243.12,91.149 242.585,89.941 241.71,89C240.861,88.202 239.723,87.783 238.56,87.84L238.55,87.87Z" style="fill:rgb(247,158,27);fill-rule:nonzero;"/>
                <path d="M64.62,65.1L60.1,65.1L60.1,42L51.91,62.36L47.15,62.36L39,42.26L39,65.1L34.44,65.1L34.44,37.1L41.39,37.1L49.54,57.1L57.69,37.1L64.64,37.1L64.62,65.1ZM88.44,65.1L84.26,65.1L84.26,62.8C83.589,63.639 82.742,64.322 81.78,64.8C80.678,65.333 79.464,65.593 78.24,65.56C75.678,65.588 73.213,64.56 71.43,62.72C70.561,61.798 69.881,60.714 69.43,59.53C68.442,56.918 68.442,54.032 69.43,51.42C69.882,50.236 70.561,49.152 71.43,48.23C73.213,46.39 75.678,45.362 78.24,45.39C79.465,45.357 80.68,45.621 81.78,46.16C82.745,46.656 83.591,47.355 84.26,48.21L84.26,45.93L88.44,45.93L88.44,65.1ZM78.73,49.37C77.894,49.356 77.065,49.523 76.3,49.86C75.611,50.169 74.995,50.619 74.49,51.18C73.981,51.765 73.594,52.444 73.35,53.18C72.818,54.722 72.818,56.398 73.35,57.94C73.594,58.676 73.981,59.356 74.49,59.94C74.995,60.501 75.611,60.951 76.3,61.26C77.832,61.899 79.558,61.899 81.09,61.26C81.779,60.959 82.398,60.52 82.91,59.97C83.433,59.399 83.838,58.729 84.1,58C84.659,56.422 84.659,54.698 84.1,53.12C83.837,52.402 83.436,51.743 82.92,51.18C82.408,50.63 81.788,50.191 81.1,49.89C80.356,49.55 79.548,49.373 78.73,49.37ZM107.65,50.73C107.3,50.528 106.939,50.344 106.57,50.18C106.108,49.974 105.634,49.797 105.15,49.65C104.608,49.486 104.057,49.352 103.5,49.25C102.916,49.143 102.324,49.09 101.73,49.09C100.798,49.036 99.87,49.255 99.06,49.72C98.454,50.048 98.071,50.681 98.06,51.37C98.05,51.67 98.138,51.965 98.31,52.21C98.487,52.446 98.717,52.637 98.98,52.77C99.297,52.93 99.633,53.047 99.98,53.12C100.367,53.207 100.78,53.283 101.22,53.35L103.22,53.65C104.983,53.83 106.671,54.46 108.12,55.48C109.293,56.394 109.95,57.824 109.88,59.31C109.889,60.188 109.687,61.056 109.29,61.84C108.886,62.629 108.304,63.314 107.59,63.84C106.763,64.434 105.835,64.871 104.85,65.13C103.647,65.451 102.405,65.606 101.16,65.59C100.667,65.59 100.093,65.56 99.44,65.5C98.739,65.431 98.044,65.311 97.36,65.14C96.595,64.949 95.846,64.698 95.12,64.39C94.365,64.053 93.653,63.627 93,63.12L94.91,60C95.269,60.275 95.647,60.526 96.04,60.75C96.48,60.999 96.942,61.206 97.42,61.37C97.974,61.561 98.542,61.704 99.12,61.8C99.818,61.912 100.523,61.966 101.23,61.96C102.352,62.026 103.473,61.81 104.49,61.33C105.154,61.019 105.582,60.353 105.59,59.62C105.581,59.061 105.276,58.546 104.79,58.27C104.014,57.839 103.155,57.576 102.27,57.5L100.27,57.24C98.508,57.095 96.823,56.446 95.42,55.37C94.33,54.436 93.722,53.055 93.77,51.62C93.747,50.716 93.936,49.819 94.32,49C94.691,48.252 95.232,47.601 95.9,47.1C96.648,46.544 97.492,46.13 98.39,45.88C99.464,45.58 100.575,45.435 101.69,45.45C103.145,45.443 104.594,45.628 106,46C107.237,46.312 108.418,46.814 109.5,47.49L107.65,50.73ZM127.51,49.73L120.16,49.73L120.16,58.08C120.148,58.636 120.229,59.19 120.4,59.72C120.536,60.132 120.757,60.51 121.05,60.83C121.327,61.118 121.671,61.334 122.05,61.46C122.432,61.596 122.835,61.663 123.24,61.66C123.924,61.657 124.602,61.528 125.24,61.28C125.893,61.037 126.519,60.728 127.11,60.36L128.77,63.7C127.938,64.232 127.049,64.668 126.12,65C125.074,65.388 123.965,65.578 122.85,65.56C120.985,65.673 119.152,65.018 117.78,63.75C116.593,62.583 116,60.72 116,58.16L116,49.73L112.18,49.73L112.18,45.93L116,45.93L116,40.12L120.2,40.12L120.2,45.93L127.55,45.93L127.51,49.73ZM140.38,45.43C141.641,45.416 142.891,45.664 144.05,46.16C145.141,46.631 146.117,47.334 146.91,48.22C147.728,49.151 148.36,50.231 148.77,51.4C149.229,52.714 149.456,54.098 149.44,55.49L149.44,56.29C149.44,56.56 149.44,56.81 149.38,57.05L135.2,57.05C135.304,57.83 135.555,58.583 135.94,59.27C136.273,59.852 136.714,60.364 137.24,60.78C137.747,61.174 138.324,61.469 138.94,61.65C139.589,61.842 140.263,61.937 140.94,61.93C141.927,61.925 142.905,61.746 143.83,61.4C144.789,61.052 145.684,60.548 146.48,59.91L148.56,62.91C147.475,63.86 146.205,64.575 144.83,65.01C143.484,65.415 142.085,65.617 140.68,65.61C139.313,65.631 137.954,65.386 136.68,64.89C135.52,64.445 134.464,63.764 133.58,62.89C132.702,61.979 132.021,60.896 131.58,59.71C131.085,58.387 130.841,56.983 130.86,55.57C130.844,54.172 131.081,52.783 131.56,51.47C132.005,50.283 132.685,49.198 133.56,48.28C134.404,47.39 135.426,46.688 136.56,46.22C137.769,45.708 139.067,45.44 140.38,45.43ZM140.3,49.15C139.618,49.137 138.939,49.252 138.3,49.49C137.735,49.714 137.224,50.055 136.8,50.49C136.381,50.927 136.042,51.435 135.8,51.99C135.525,52.597 135.337,53.24 135.24,53.9L145.19,53.9C145.051,52.597 144.489,51.374 143.59,50.42C142.715,49.562 141.524,49.102 140.3,49.15ZM163.94,45.43C164.519,45.425 165.098,45.469 165.67,45.56C166.179,45.646 166.678,45.783 167.16,45.97L166.16,50.11C165.673,49.868 165.155,49.693 164.62,49.59C164.081,49.476 163.531,49.415 162.98,49.41C162.35,49.403 161.726,49.519 161.14,49.75C160.59,49.969 160.098,50.311 159.7,50.75C159.281,51.222 158.962,51.773 158.76,52.37C158.523,53.072 158.408,53.809 158.42,54.55L158.42,65.1L154.24,65.1L154.24,45.93L158.38,45.93L158.38,48.09C158.975,47.218 159.798,46.526 160.76,46.09C161.761,45.645 162.845,45.42 163.94,45.43ZM178.25,45.43C179.621,45.421 180.98,45.682 182.25,46.2C183.467,46.697 184.545,47.483 185.39,48.49L182.71,51.35C182.088,50.749 181.372,50.252 180.59,49.88C179.811,49.531 178.964,49.357 178.11,49.37C177.34,49.364 176.578,49.517 175.87,49.82C175.189,50.11 174.576,50.539 174.07,51.08C173.559,51.638 173.161,52.29 172.9,53C172.322,54.616 172.322,56.384 172.9,58C173.165,58.719 173.57,59.378 174.09,59.94C174.596,60.48 175.209,60.909 175.89,61.2C176.598,61.503 177.36,61.656 178.13,61.65C179.022,61.654 179.903,61.459 180.71,61.08C181.486,60.716 182.202,60.233 182.83,59.65L185.41,62.53C184.55,63.529 183.468,64.314 182.25,64.82C180.981,65.341 179.621,65.603 178.25,65.59C176.833,65.609 175.426,65.348 174.11,64.82C171.704,63.86 169.809,61.932 168.89,59.51C167.93,56.93 167.93,54.09 168.89,51.51C169.81,49.089 171.705,47.161 174.11,46.2C175.426,45.672 176.833,45.411 178.25,45.43ZM207.71,65.1L203.53,65.1L203.53,62.8C202.858,63.639 202.012,64.321 201.05,64.8C199.948,65.333 198.734,65.593 197.51,65.56C194.951,65.585 192.491,64.558 190.71,62.72C189.841,61.798 189.161,60.714 188.71,59.53C187.722,56.918 187.722,54.032 188.71,51.42C189.162,50.236 189.841,49.152 190.71,48.23C192.491,46.392 194.951,45.365 197.51,45.39C198.735,45.357 199.95,45.621 201.05,46.16C202.015,46.656 202.861,47.356 203.53,48.21L203.53,45.93L207.71,45.93L207.71,65.1ZM198,49.37C197.164,49.356 196.335,49.523 195.57,49.86C194.882,50.17 194.265,50.619 193.76,51.18C193.252,51.765 192.865,52.445 192.62,53.18C192.087,54.722 192.087,56.398 192.62,57.94C192.864,58.675 193.252,59.355 193.76,59.94C194.265,60.501 194.881,60.951 195.57,61.26C197.102,61.898 198.828,61.898 200.36,61.26C201.049,60.959 201.668,60.52 202.18,59.97C202.704,59.399 203.108,58.729 203.37,58C203.93,56.422 203.93,54.698 203.37,53.12C203.108,52.402 202.707,51.743 202.19,51.18C201.678,50.63 201.058,50.191 200.37,49.89C199.626,49.551 198.818,49.373 198,49.37ZM223.58,45.43C224.159,45.425 224.738,45.469 225.31,45.56C225.819,45.646 226.318,45.783 226.8,45.97L225.8,50.11C225.313,49.868 224.795,49.693 224.26,49.59C223.721,49.476 223.171,49.415 222.62,49.41C221.99,49.403 221.366,49.519 220.78,49.75C220.23,49.969 219.738,50.311 219.34,50.75C218.921,51.221 218.601,51.772 218.4,52.37C218.163,53.072 218.048,53.809 218.06,54.55L218.06,65.1L213.88,65.1L213.88,45.93L218,45.93L218,48.09C218.595,47.218 219.418,46.525 220.38,46.09C221.39,45.641 222.485,45.416 223.59,45.43L223.58,45.43ZM237.31,45.43C238.535,45.397 239.75,45.661 240.85,46.2C241.815,46.696 242.661,47.396 243.33,48.25L243.33,36.25L247.51,36.25L247.51,65.1L243.33,65.1L243.33,62.8C242.658,63.639 241.812,64.321 240.85,64.8C239.748,65.333 238.534,65.593 237.31,65.56C234.751,65.585 232.291,64.558 230.51,62.72C229.641,61.798 228.962,60.714 228.51,59.53C227.522,56.918 227.522,54.032 228.51,51.42C228.962,50.236 229.641,49.152 230.51,48.23C232.291,46.392 234.751,45.365 237.31,45.39L237.31,45.43ZM252.4,63.33C252.565,63.331 252.728,63.365 252.88,63.43C253.025,63.492 253.157,63.58 253.27,63.69C253.384,63.801 253.476,63.934 253.54,64.08C253.671,64.383 253.671,64.727 253.54,65.03C253.476,65.176 253.384,65.309 253.27,65.42C253.157,65.53 253.025,65.618 252.88,65.68C252.729,65.746 252.565,65.78 252.4,65.78C251.902,65.784 251.447,65.488 251.25,65.03C251.119,64.727 251.119,64.383 251.25,64.08C251.376,63.785 251.613,63.551 251.91,63.43C252.068,63.363 252.238,63.329 252.41,63.33L252.4,63.33ZM252.4,65.5C252.527,65.503 252.653,65.479 252.77,65.43C252.881,65.382 252.983,65.314 253.07,65.23C253.412,64.851 253.412,64.269 253.07,63.89C252.983,63.806 252.881,63.738 252.77,63.69C252.653,63.641 252.527,63.618 252.4,63.62C252.27,63.618 252.141,63.642 252.02,63.69C251.685,63.86 251.473,64.206 251.473,64.582C251.473,64.824 251.561,65.058 251.72,65.24C251.807,65.324 251.909,65.392 252.02,65.44C252.145,65.486 252.277,65.506 252.41,65.5L252.4,65.5ZM252.47,63.98C252.592,63.972 252.712,64.008 252.81,64.08C252.889,64.143 252.933,64.239 252.93,64.34C252.933,64.426 252.901,64.509 252.84,64.57C252.765,64.636 252.67,64.674 252.57,64.68L252.94,65.11L252.65,65.11L252.31,64.69L252.2,64.69L252.2,65.11L252,65.11L252,64L252.47,63.98ZM252.19,64.19L252.19,64.49L252.47,64.49C252.519,64.504 252.571,64.504 252.62,64.49C252.657,64.466 252.68,64.424 252.68,64.38C252.68,64.336 252.657,64.294 252.62,64.27C252.571,64.256 252.519,64.256 252.47,64.27L252.19,64.19ZM237.82,49.37C236.984,49.356 236.155,49.523 235.39,49.86C234.701,50.169 234.085,50.619 233.58,51.18C233.072,51.765 232.685,52.445 232.44,53.18C231.907,54.722 231.907,56.398 232.44,57.94C232.684,58.675 233.072,59.355 233.58,59.94C234.085,60.501 234.701,60.951 235.39,61.26C236.922,61.898 238.648,61.898 240.18,61.26C240.875,60.939 241.495,60.475 242,59.9C242.512,59.349 242.913,58.704 243.18,58C243.74,56.422 243.74,54.698 243.18,53.12C242.924,52.385 242.522,51.708 242,51.13C241.488,50.58 240.868,50.141 240.18,49.84C239.435,49.519 238.631,49.359 237.82,49.37Z" style="fill:rgb(235,0,27);fill-rule:nonzero;"/>
            </g>
        </g>
    </g>
</svg>
