<?xml version="1.0" encoding="UTF-8" standalone="no"?>
<!DOCTYPE svg PUBLIC "-//W3C//DTD SVG 1.1//EN" "http://www.w3.org/Graphics/SVG/1.1/DTD/svg11.dtd">
<svg width="100%" height="100%" viewBox="0 0 63 40" version="1.1" xmlns="http://www.w3.org/2000/svg" xmlns:xlink="http://www.w3.org/1999/xlink" xml:space="preserve" xmlns:serif="http://www.serif.com/" style="fill-rule:evenodd;clip-rule:evenodd;stroke-linejoin:round;stroke-miterlimit:2;">
    <g transform="matrix(1,0,0,1,-274.286,-638)">
        <g id="SVG_Verified_by_visa_logo.svg" transform="matrix(0.285714,0,0,0.285714,305.714,658)">
            <g transform="matrix(1,0,0,1,-110,-70)">
                <g id="Personal">
                    <g id="Site_Personal">
                        <g id="vbyvisa_blu_std">
                            <g id="Layer_1-2">
                                <g id="Group">
                                    <g id="Shape">
                                        <path d="M38.7,58L30.17,31.76L33.82,31.76L37.9,44.69C39,48.23 40,51.43 40.68,54.5L40.76,54.5C41.5,51.5 42.58,48.15 43.76,44.72L48.18,31.72L51.79,31.72L42.43,58L38.7,58Z" style="fill:rgb(59,71,125);fill-rule:nonzero;"/>
                                        <path d="M53.56,49.21C53.64,53.84 56.56,55.75 60,55.75C61.785,55.798 63.56,55.457 65.2,54.75L65.78,57.2C63.802,58.025 61.672,58.424 59.53,58.37C53.75,58.37 50.29,54.56 50.29,48.87C50.29,43.18 53.63,38.71 59.1,38.71C65.23,38.71 66.86,44.12 66.86,47.59C66.853,48.125 66.817,48.659 66.75,49.19L53.56,49.21ZM63.56,46.76C63.56,44.58 62.67,41.19 58.83,41.19C55.37,41.19 53.83,44.38 53.59,46.76L63.56,46.76Z" style="fill:rgb(59,71,125);fill-rule:nonzero;"/>
                                        <path d="M69.54,45C69.54,42.78 69.54,40.87 69.39,39.12L72.39,39.12L72.5,42.82L72.65,42.82C73.302,40.467 75.411,38.792 77.85,38.69C78.187,38.684 78.524,38.725 78.85,38.81L78.85,42.04C78.453,41.977 78.05,41.964 77.65,42C75.25,42 73.54,43.83 73.08,46.4C72.981,46.928 72.927,47.463 72.92,48L72.92,58L69.54,58L69.54,45Z" style="fill:rgb(59,71,125);fill-rule:nonzero;"/>
                                        <path d="M84.64,33.86C84.64,35.02 83.685,35.975 82.525,35.975C81.365,35.975 80.41,35.02 80.41,33.86C80.409,33.84 80.409,33.82 80.409,33.799C80.409,32.658 81.348,31.719 82.489,31.719C82.506,31.719 82.523,31.72 82.54,31.72C82.575,31.718 82.61,31.717 82.645,31.717C83.742,31.717 84.645,32.62 84.645,33.717C84.645,33.765 84.643,33.812 84.64,33.86ZM80.84,39.16L84.26,39.16L84.26,58L80.83,58L80.84,39.16Z" style="fill:rgb(59,71,125);fill-rule:nonzero;"/>
                                        <path d="M88.71,58L88.71,41.77L86.07,41.77L86.07,39.16L88.71,39.16L88.71,38.26C88.71,35.61 89.29,33.2 90.88,31.68C92.12,30.523 93.764,29.894 95.46,29.93C96.456,29.927 97.444,30.114 98.37,30.48L97.9,33.13C97.217,32.828 96.476,32.682 95.73,32.7C92.82,32.7 92.08,35.27 92.08,38.15L92.08,39.15L96.61,39.15L96.61,41.76L92.08,41.76L92.08,58L88.71,58Z" style="fill:rgb(59,71,125);fill-rule:nonzero;"/>
                                        <path d="M103.79,33.86C103.79,35.02 102.835,35.975 101.675,35.975C100.515,35.975 99.56,35.02 99.56,33.86C99.56,33.843 99.559,33.826 99.559,33.81C99.559,32.663 100.503,31.72 101.649,31.72C101.663,31.72 101.676,31.72 101.69,31.72C101.725,31.718 101.76,31.717 101.795,31.717C102.892,31.717 103.795,32.62 103.795,33.717C103.795,33.765 103.793,33.812 103.79,33.86ZM99.99,39.16L103.4,39.16L103.4,58L100,58L99.99,39.16Z" style="fill:rgb(59,71,125);fill-rule:nonzero;"/>
                                        <path d="M109.42,49.21C109.5,53.84 112.42,55.75 115.86,55.75C117.645,55.798 119.42,55.457 121.06,54.75L121.64,57.2C119.662,58.025 117.532,58.423 115.39,58.37C109.61,58.37 106.15,54.56 106.15,48.87C106.15,43.18 109.49,38.71 114.96,38.71C121.09,38.71 122.72,44.12 122.72,47.59C122.716,48.125 122.679,48.659 122.61,49.19L109.42,49.21ZM119.42,46.76C119.42,44.58 118.53,41.19 114.69,41.19C111.23,41.19 109.69,44.38 109.45,46.76L119.42,46.76Z" style="fill:rgb(59,71,125);fill-rule:nonzero;"/>
                                        <path d="M141.62,30.36L141.62,53.14C141.62,54.82 141.62,56.72 141.77,58.01L138.7,58.01L138.54,54.74L138.46,54.74C137.215,57.094 134.721,58.532 132.06,58.43C127.53,58.43 124.06,54.58 124.06,48.85C124.06,42.58 127.9,38.72 132.48,38.72C134.746,38.583 136.917,39.687 138.14,41.6L138.22,41.6L138.22,30.36L141.64,30.36L141.62,30.36ZM138.2,46.83C138.206,46.346 138.156,45.862 138.05,45.39C137.574,43.06 135.498,41.375 133.12,41.39C129.59,41.39 127.5,44.5 127.5,48.67C127.5,52.48 129.36,55.67 133.05,55.67C135.463,55.655 137.557,53.942 138.05,51.58C138.161,51.095 138.211,50.598 138.2,50.1L138.2,46.83Z" style="fill:rgb(59,71,125);fill-rule:nonzero;"/>
                                        <path d="M154.26,58C154.34,56.71 154.41,54.8 154.41,53.13L154.41,30.36L157.78,30.36L157.78,42.2L157.86,42.2C159.177,39.945 161.652,38.607 164.26,38.74C168.92,38.74 172.26,42.64 172.17,48.36C172.17,55.1 167.94,58.44 163.75,58.44C161.149,58.59 158.688,57.203 157.47,54.9L157.36,54.9L157.21,58L154.26,58ZM157.79,50.44C157.803,50.861 157.857,51.279 157.95,51.69C158.532,54.034 160.655,55.692 163.07,55.69C166.64,55.69 168.77,52.77 168.77,48.45C168.77,44.67 166.83,41.45 163.19,41.45C160.706,41.499 158.555,43.241 157.99,45.66C157.873,46.118 157.806,46.587 157.79,47.06L157.79,50.45L157.79,50.44Z" style="fill:rgb(59,71,125);fill-rule:nonzero;"/>
                                        <path d="M175.9,39.16L180,50.3C180.43,51.55 180.9,53.03 181.2,54.16L181.28,54.16C181.63,53.03 182.02,51.59 182.48,50.23L186.2,39.17L189.81,39.17L184.71,52.6C182.27,59.06 180.6,62.38 178.27,64.4C177.091,65.493 175.646,66.258 174.08,66.62L173.23,63.74C174.328,63.377 175.347,62.807 176.23,62.06C177.467,61.028 178.449,59.724 179.1,58.25C179.235,57.997 179.326,57.723 179.37,57.44C179.34,57.13 179.262,56.827 179.14,56.54L172.19,39.17L175.91,39.17L175.9,39.16Z" style="fill:rgb(59,71,125);fill-rule:nonzero;"/>
                                    </g>
                                    <g id="Shape-2">
                                        <path d="M86.79,70.87L76.44,97.14L72.25,74.81C71.906,72.558 69.948,70.878 67.67,70.88L50.75,70.88L50.52,72C53.913,72.684 57.208,73.786 60.33,75.28C61.79,76.09 62.21,76.78 62.68,78.68L70.61,109.48L81.13,109.48L97.24,70.88L86.79,70.88L86.79,70.87Z" style="fill:rgb(59,71,125);fill-rule:nonzero;"/>
                                        <path d="M101.51,70.87L93.29,109.47L103.23,109.47L111.44,70.87L101.51,70.87Z" style="fill:rgb(59,71,125);fill-rule:nonzero;"/>
                                        <path d="M124.49,81.57C124.49,80.19 125.84,78.71 128.71,78.33C132.074,77.995 135.466,78.572 138.53,80L140.27,71.82C137.298,70.694 134.148,70.112 130.97,70.1C121.13,70.1 114.23,75.35 114.16,82.87C114.11,88.42 119.11,91.53 122.87,93.38C126.63,95.23 128,96.52 128,98.22C128,100.81 124.91,101.94 122.06,101.99C118.502,102.066 114.983,101.229 111.84,99.56L110.06,108C113.585,109.373 117.337,110.068 121.12,110.05C131.55,110.05 138.39,104.86 138.42,96.84C138.42,86.65 124.42,86.09 124.49,81.54" style="fill:rgb(59,71,125);fill-rule:nonzero;"/>
                                        <path d="M153.29,95.8L158.57,81.31L161.57,95.8L153.29,95.8ZM157.07,70.88C155.213,70.86 153.524,71.987 152.83,73.71L137.91,109.47L148.36,109.47L150.44,103.71L163.17,103.71L164.36,109.47L173.58,109.47L165.58,70.88L157.07,70.88Z" style="fill:rgb(59,71,125);fill-rule:nonzero;"/>
                                    </g>
                                </g>
                            </g>
                        </g>
                    </g>
                </g>
            </g>
        </g>
    </g>
</svg>
