<?xml version="1.0" encoding="UTF-8" standalone="no"?>
<!DOCTYPE svg PUBLIC "-//W3C//DTD SVG 1.1//EN" "http://www.w3.org/Graphics/SVG/1.1/DTD/svg11.dtd">
<svg width="100%" height="100%" viewBox="0 0 83 40" version="1.1" xmlns="http://www.w3.org/2000/svg" xmlns:xlink="http://www.w3.org/1999/xlink" xml:space="preserve" xmlns:serif="http://www.serif.com/" style="fill-rule:evenodd;clip-rule:evenodd;stroke-linejoin:round;stroke-miterlimit:2;">
    <g transform="matrix(1,0,0,1,-351,-638)">
        <g id="SVG_pci_dss.svg" transform="matrix(0.285714,0,0,0.285714,392.429,658)">
            <g transform="matrix(1,0,0,1,-145,-70)">
                <path d="M164.38,85.42L143.24,92.07L143.24,58.5C143.24,57.1 143.24,57.1 141.8,57.1L130.86,57.1C129.91,57.1 129.62,57.39 129.62,58.34L129.62,91.12C129.62,91.99 129.87,92.32 130.77,92.32C134.49,92.32 138.2,92.32 142,92.44L141.34,92.73L63,117.37C62.46,117.53 62,117.74 61.72,116.96C58.72,108.83 55.72,100.69 52.72,92.4C53.26,92.4 53.67,92.32 54.08,92.32L64.81,92.32C65.81,92.32 66.09,91.99 66.05,91.04L66.05,83.11C66.05,82.04 66.38,81.79 67.41,81.79C71.203,81.976 74.998,81.454 78.6,80.25C82.07,79 84.91,77 86.32,73.44C86.915,72.095 87.223,70.641 87.223,69.17C87.223,64.927 84.663,61.08 80.75,59.44C77.651,58.022 74.288,57.275 70.88,57.25C65.1,57.13 59.32,57.25 53.54,57.13C52.43,57.13 52.54,57.83 52.54,58.49L52.54,91.2C52.47,91.196 52.4,91.196 52.33,91.2C45.57,72.91 38.88,54.74 32.15,36.37C34.42,36.25 36.57,36.08 38.71,35.96C57.57,34.927 76.413,33.88 95.24,32.82L138.79,30.34C139.62,30.34 139.86,30.71 140.11,31.29C145.85,44.09 151.603,56.887 157.37,69.68C159.52,74.47 161.66,79.26 163.81,84C163.98,84.476 164.173,84.943 164.39,85.4L164.38,85.42ZM123.38,67.67C123.38,67.18 123.46,66.8 123.46,66.47L123.46,59.33C123.475,59.251 123.483,59.17 123.483,59.089C123.483,58.439 122.995,57.884 122.35,57.8C118.394,56.607 114.245,56.186 110.13,56.56C106.24,56.681 102.427,57.683 98.98,59.49C92.8,62.88 89.29,68 89.5,75.26C89.71,82.52 93.5,87.77 100.23,90.49C107.87,93.59 115.67,93.49 123.55,91.36C124.21,91.19 124.38,90.82 124.38,90.2L124.38,83.06C124.357,82.811 124.317,82.564 124.26,82.32C122.4,82.82 120.67,83.39 118.89,83.76C115.769,84.512 112.494,84.324 109.48,83.22C105.59,81.82 103.186,77.857 103.74,73.76C104.15,69.18 106.74,66.29 111.09,65.46C114.858,64.838 118.728,65.415 122.15,67.11C122.6,67.265 123.041,67.445 123.47,67.65L123.38,67.67ZM144.56,46.16C144.56,41.54 141.26,38.44 136.35,38.44C131.44,38.44 128.14,41.54 128.14,46.16C128.14,50.78 131.44,53.8 136.31,53.84C141.18,53.88 144.57,50.74 144.57,46.16L144.56,46.16Z" style="fill:rgb(0,109,105);fill-rule:nonzero;"/>
                <path d="M67.74,73.94L66.87,73.94C66.21,74.02 65.87,73.78 65.87,73.03L65.87,65.68C65.87,65.14 65.95,64.73 66.61,64.77C68.192,64.872 69.765,65.079 71.32,65.39C72.991,65.787 74.135,67.358 74,69.07C74.08,71.07 73.34,72.5 71.61,73.16C70.352,73.559 69.069,73.877 67.77,74.11C67.752,74.058 67.752,74.002 67.77,73.95L67.74,73.94Z" style="fill:rgb(0,109,105);fill-rule:nonzero;"/>
                <path d="M182.3,43.14L194.35,43.14C196.307,43.071 198.259,43.394 200.09,44.09C201.503,44.711 202.748,45.661 203.72,46.86C204.696,48.102 205.398,49.537 205.78,51.07C206.213,52.729 206.435,54.436 206.44,56.15C206.527,58.363 206.205,60.574 205.49,62.67C204.905,64.141 204.004,65.466 202.85,66.55C201.821,67.527 200.578,68.249 199.22,68.66C197.649,69.112 196.024,69.347 194.39,69.36L182.34,69.36L182.34,43.14L182.3,43.14ZM190.39,49.08L190.39,63.41L192.39,63.41C193.628,63.483 194.867,63.285 196.02,62.83C196.797,62.379 197.395,61.672 197.71,60.83C198.204,59.37 198.414,57.829 198.33,56.29C198.33,53.523 197.877,51.623 196.97,50.59C196.06,49.59 194.58,49.06 192.47,49.06L190.39,49.08Z" style="fill:rgb(0,113,109);fill-rule:nonzero;"/>
                <path d="M209.3,60.73L217.02,60.23C217.088,61.253 217.434,62.239 218.02,63.08C218.882,64.169 220.224,64.771 221.61,64.69C222.574,64.746 223.526,64.451 224.29,63.86C224.879,63.404 225.229,62.704 225.24,61.96C225.227,61.247 224.892,60.578 224.33,60.14C223.75,59.6 222.33,59.14 220.16,58.61C216.61,57.83 214.05,56.75 212.56,55.43C211.057,54.178 210.205,52.306 210.25,50.35C210.245,48.983 210.649,47.645 211.41,46.51C212.301,45.233 213.55,44.248 215,43.68C217.056,42.912 219.248,42.572 221.44,42.68C224.773,42.68 227.333,43.3 229.12,44.54C230.987,45.962 232.136,48.136 232.26,50.48L224.62,50.93C224.524,49.948 224.068,49.036 223.34,48.37C222.57,47.791 221.622,47.498 220.66,47.54C219.893,47.485 219.13,47.705 218.51,48.16C218.06,48.5 217.799,49.036 217.81,49.6C217.831,50.037 218.043,50.443 218.39,50.71C219.22,51.222 220.152,51.546 221.12,51.66C223.725,52.158 226.267,52.943 228.7,54C230.041,54.628 231.183,55.615 232,56.85C232.689,58.024 233.036,59.369 233,60.73C233.013,62.389 232.525,64.013 231.6,65.39C230.633,66.82 229.271,67.939 227.68,68.61C225.673,69.414 223.521,69.792 221.36,69.72C216.9,69.72 213.8,68.85 212.07,67.16C210.357,65.44 209.341,63.144 209.22,60.72L209.3,60.73Z" style="fill:rgb(0,113,109);fill-rule:nonzero;"/>
                <path d="M235.76,60.73L243.48,60.23C243.55,61.253 243.896,62.238 244.48,63.08C245.342,64.169 246.684,64.771 248.07,64.69C249.034,64.746 249.986,64.451 250.75,63.86C251.34,63.405 251.69,62.705 251.7,61.96C251.687,61.247 251.352,60.578 250.79,60.14C250.21,59.6 248.79,59.14 246.62,58.61C243.07,57.83 240.51,56.75 239.02,55.43C237.518,54.177 236.667,52.305 236.71,50.35C236.703,48.984 237.104,47.647 237.86,46.51C238.728,45.239 239.948,44.248 241.37,43.66C243.426,42.892 245.618,42.552 247.81,42.66C251.143,42.66 253.703,43.28 255.49,44.52C257.357,45.942 258.506,48.116 258.63,50.46L251,50.9C250.904,49.918 250.448,49.006 249.72,48.34C248.95,47.761 248.002,47.468 247.04,47.51C246.273,47.456 245.511,47.675 244.89,48.13C244.44,48.47 244.179,49.006 244.19,49.57C244.211,50.007 244.423,50.413 244.77,50.68C245.597,51.19 246.525,51.515 247.49,51.63C250.131,52.13 252.707,52.925 255.17,54C256.531,54.633 257.688,55.635 258.51,56.89C259.199,58.064 259.546,59.409 259.51,60.77C259.522,62.429 259.034,64.053 258.11,65.43C257.143,66.861 255.781,67.98 254.19,68.65C252.186,69.453 250.037,69.831 247.88,69.76C243.42,69.76 240.32,68.89 238.59,67.2C236.877,65.48 235.861,63.184 235.74,60.76L235.76,60.73Z" style="fill:rgb(0,113,109);fill-rule:nonzero;"/>
                <path d="M187.25,79.76L189.4,80.42C189.278,80.974 189.039,81.495 188.7,81.95C188.393,82.343 187.995,82.656 187.54,82.86C186.98,83.095 186.377,83.208 185.77,83.19C185.048,83.218 184.329,83.092 183.66,82.82C183.072,82.529 182.585,82.07 182.26,81.5C181.851,80.757 181.651,79.917 181.68,79.07C181.717,76.792 183.601,74.937 185.879,74.937C186.656,74.937 187.418,75.153 188.08,75.56C188.692,76.03 189.14,76.681 189.36,77.42L187.17,77.91C187.112,77.719 187.028,77.538 186.92,77.37C186.798,77.18 186.63,77.025 186.43,76.92C186.231,76.801 186.002,76.742 185.77,76.75C185.254,76.715 184.76,76.97 184.49,77.41C184.242,77.895 184.128,78.437 184.16,78.98C184.09,79.615 184.235,80.256 184.57,80.8C184.842,81.128 185.254,81.31 185.68,81.29C186.08,81.32 186.473,81.17 186.75,80.88C187.009,80.56 187.178,80.177 187.24,79.77L187.25,79.76Z" style="fill:rgb(0,113,109);fill-rule:nonzero;"/>
                <path d="M190.76,79C190.716,77.898 191.104,76.821 191.84,76C192.648,75.244 193.735,74.856 194.84,74.93C195.965,74.857 197.074,75.243 197.91,76C198.666,76.81 199.06,77.894 199,79C199.023,79.794 198.87,80.583 198.55,81.31C198.23,81.89 197.76,82.373 197.19,82.71C196.502,83.064 195.733,83.233 194.96,83.2C194.195,83.236 193.432,83.096 192.73,82.79C192.13,82.484 191.63,82.012 191.29,81.43C190.919,80.691 190.75,79.866 190.8,79.04L190.76,79ZM193.24,79C193.185,79.611 193.344,80.223 193.69,80.73C194.011,81.073 194.46,81.267 194.93,81.267C195.4,81.267 195.849,81.073 196.17,80.73C196.526,80.179 196.685,79.523 196.62,78.87C196.658,78.285 196.5,77.704 196.17,77.22C195.859,76.863 195.403,76.665 194.93,76.68C194.467,76.656 194.019,76.857 193.73,77.22C193.337,77.725 193.161,78.365 193.24,79Z" style="fill:rgb(0,113,109);fill-rule:nonzero;"/>
                <path d="M200.8,75.05L204.06,75.05L205.3,79.92L206.54,75.05L209.76,75.05L209.76,83.05L207.76,83.05L207.76,77L206.16,83L204.34,83L202.78,77L202.78,83L200.78,83L200.8,75.05Z" style="fill:rgb(0,113,109);fill-rule:nonzero;"/>
                <path d="M211.78,75.05L215.87,75.05C216.591,74.999 217.304,75.221 217.87,75.67C218.342,76.153 218.583,76.817 218.53,77.49C218.574,78.201 218.303,78.896 217.79,79.39C217.156,79.882 216.36,80.117 215.56,80.05L214.2,80.05L214.2,83.05L211.72,83.05L211.78,75.05ZM214.26,78.43L214.88,78.43C215.233,78.475 215.59,78.386 215.88,78.18C216.072,78.033 216.18,77.801 216.17,77.56C216.175,77.328 216.084,77.104 215.92,76.94C215.644,76.744 215.306,76.655 214.97,76.69L214.27,76.69L214.26,78.43Z" style="fill:rgb(0,113,109);fill-rule:nonzero;"/>
                <path d="M220.28,75.05L222.76,75.05L222.76,81.05L226.6,81.05L226.6,83.05L220.28,83.05L220.28,75.05Z" style="fill:rgb(0,113,109);fill-rule:nonzero;"/>
                <rect x="228.25" y="75.05" width="2.48" height="7.97" style="fill:rgb(0,113,109);"/>
                <path d="M237.83,81.7L235,81.7L234.65,83L232.13,83L235.13,75L237.81,75L240.81,83L238.21,83L237.83,81.7ZM237.33,80L236.46,77.15L235.6,80L237.33,80Z" style="fill:rgb(0,113,109);fill-rule:nonzero;"/>
                <path d="M242.08,75.05L244.39,75.05L247.39,79.47L247.39,75.05L249.7,75.05L249.7,83.05L247.4,83.05L244.4,78.67L244.4,83L242.09,83L242.08,75.05Z" style="fill:rgb(0,113,109);fill-rule:nonzero;"/>
                <path d="M251.2,75.05L258.71,75.05L258.71,77.05L256.2,77.05L256.2,83.05L253.72,83.05L253.72,77L251.2,77L251.2,75.05Z" style="fill:rgb(0,113,109);fill-rule:nonzero;"/>
                <path d="M135.69,110.19C133.614,110.224 131.559,109.772 129.69,108.87C128.82,108.33 124.69,103.34 117.47,94.01L117.22,93.68L117.14,93.27C116.869,91.422 117.43,89.546 118.67,88.15C119.927,86.603 121.763,85.634 123.75,85.47C124.13,85.457 124.509,85.511 124.87,85.63C127.14,86.33 132.22,90.87 135.02,93.56C137.21,90.38 142.33,82.99 147.69,75.56C162.2,55.32 164.14,54.45 165,54.08C168.513,52.576 172.28,51.752 176.1,51.65C176.433,51.63 176.767,51.63 177.1,51.65C177.829,51.679 178.476,52.134 178.75,52.81C179.29,54.13 178.46,55 175.49,58.18C169.63,64.5 155.88,79.28 143.16,106.61L143.08,106.77L143,107C141.39,109.15 138.83,110.22 135.69,110.22L135.69,110.19Z" style="fill:rgb(71,161,65);fill-rule:nonzero;"/>
                <path d="M176.11,53.38C176.413,53.359 176.717,53.359 177.02,53.38C179.7,53.59 159.68,67.38 141.72,106.02C140.219,107.743 138.001,108.675 135.72,108.54C133.955,108.571 132.205,108.205 130.6,107.47C129.53,106.81 118.83,93.02 118.83,93.02C118.29,89.68 121.89,87.16 123.83,87.16C124.026,87.164 124.22,87.191 124.41,87.24C126.85,87.86 135.35,96.12 135.35,96.12C135.35,96.12 161.86,57.36 165.69,55.66C168.996,54.235 172.542,53.451 176.14,53.35M176.14,50.05C172.086,50.153 168.09,51.036 164.37,52.65C163.09,53.23 161.15,54.05 146.37,74.65C141.75,81.09 137.37,87.45 134.77,91.12C134.19,90.58 133.57,90.05 132.95,89.47C128.41,85.47 126.59,84.47 125.39,84.15C124.871,83.979 124.327,83.895 123.78,83.9C121.292,84.059 118.982,85.257 117.42,87.2C115.858,88.954 115.16,91.319 115.52,93.64L115.64,94.47L116.13,95.13C127.19,109.37 128.23,110.03 128.76,110.36C130.889,111.411 133.236,111.949 135.61,111.93C138.915,112.101 142.115,110.706 144.24,108.17L144.49,107.88L144.66,107.51C157.25,80.43 170.87,65.77 176.66,59.51C177.66,58.44 178.48,57.57 179.05,56.87C179.62,56.17 181.05,54.44 180.25,52.37C179.739,51.111 178.555,50.245 177.2,50.14C176.814,50.119 176.426,50.119 176.04,50.14L176.14,50.05Z" style="fill:white;fill-rule:nonzero;"/>
            </g>
        </g>
    </g>
</svg>
