<?xml version="1.0" encoding="UTF-8" standalone="no"?>
<!DOCTYPE svg PUBLIC "-//W3C//DTD SVG 1.1//EN" "http://www.w3.org/Graphics/SVG/1.1/DTD/svg11.dtd">
<svg width="100%" height="100%" viewBox="0 0 512 512" version="1.1" xmlns="http://www.w3.org/2000/svg" xmlns:xlink="http://www.w3.org/1999/xlink" xml:space="preserve" xmlns:serif="http://www.serif.com/" style="fill-rule:evenodd;clip-rule:evenodd;stroke-linejoin:round;stroke-miterlimit:2;">
    <g>
        <g transform="matrix(1,0,0,1,13.6621,0)">
            <path d="M363.605,512L121.07,512C107.301,512 96.137,500.836 96.137,487.066L388.539,487.066C388.539,500.836 377.375,512 363.605,512Z" style="fill:url(#_Linear1);fill-rule:nonzero;"/>
        </g>
        <g transform="matrix(1,0,0,1,13.6621,0)">
            <path d="M380.621,499.848L104.051,499.848C81.109,499.848 61.477,483.391 57.465,460.801L13.637,213.926L471.039,213.926L427.211,460.801C423.199,483.391 403.563,499.848 380.621,499.848Z" style="fill:url(#_Linear2);fill-rule:nonzero;"/>
        </g>
        <g transform="matrix(1,0,0,1,13.6621,0)">
            <path d="M99.207,467.66L99.203,467.66C89.766,467.66 81.727,460.809 80.242,451.488C74.711,416.758 61.977,335.059 55.832,295.563C54.02,283.922 63.023,273.418 74.805,273.418L80.637,273.418C90.367,273.418 98.559,280.687 99.703,290.352C103.891,325.68 113.559,407.195 118.27,446.168C119.648,457.602 110.723,467.66 99.207,467.66Z" style="fill:url(#_Linear3);fill-rule:nonzero;"/>
        </g>
        <g transform="matrix(1,0,0,1,13.6621,0)">
            <path d="M428.848,295.563C422.699,335.059 409.965,416.758 404.434,451.488C402.949,460.809 394.91,467.664 385.473,467.664C373.957,467.664 365.031,457.602 366.414,446.168C371.121,407.195 380.789,325.68 384.977,290.352C386.121,280.691 394.312,273.422 404.043,273.422L409.875,273.422C421.656,273.418 430.66,283.922 428.848,295.563Z" style="fill:url(#_Linear4);fill-rule:nonzero;"/>
        </g>
        <g transform="matrix(1,0,0,1,13.6621,0)">
            <path d="M164.809,467.66L159.383,467.66C149.52,467.66 141.262,460.191 140.277,450.375C136.711,414.707 128.719,333.137 124.934,294.48C123.828,283.191 132.703,273.418 144.043,273.418L156.066,273.418C166.254,273.418 174.664,281.367 175.234,291.539C177.262,327.859 181.813,409.328 183.977,447.379C184.602,458.395 175.84,467.66 164.809,467.66Z" style="fill:url(#_Linear5);fill-rule:nonzero;"/>
        </g>
        <g transform="matrix(1,0,0,1,13.6621,0)">
            <path d="M359.746,294.48C355.961,333.137 347.969,414.707 344.398,450.375C343.418,460.188 335.16,467.66 325.297,467.66L319.859,467.66C308.828,467.66 300.066,458.395 300.691,447.379C302.855,409.328 307.406,327.859 309.434,291.539C310,281.367 318.414,273.418 328.605,273.418L340.637,273.418C351.977,273.418 360.848,283.191 359.746,294.48Z" style="fill:url(#_Linear6);fill-rule:nonzero;"/>
        </g>
        <g transform="matrix(1,0,0,1,13.6621,0)">
            <path d="M267.742,293.023C266.949,330.535 265.223,412.004 264.426,448.879C264.199,459.316 255.672,467.664 245.23,467.664L239.441,467.664C229,467.664 220.473,459.316 220.246,448.879C219.453,412.004 217.73,330.535 216.937,293.023C216.707,282.262 225.371,273.418 236.133,273.418L248.547,273.418C259.309,273.418 267.969,282.262 267.742,293.023Z" style="fill:url(#_Linear7);fill-rule:nonzero;"/>
        </g>
        <g transform="matrix(1,0,0,1,13.6621,0)">
            <path d="M268.781,499.848L380.625,499.848C403.566,499.848 423.199,483.391 427.211,460.801L471.039,213.926L13.637,213.926L20.277,251.344L268.781,499.848Z" style="fill:url(#_Linear8);fill-rule:nonzero;"/>
        </g>
        <g transform="matrix(1,0,0,1,13.6621,0)">
            <path d="M439.406,392.086L427.215,460.801C423.203,483.391 403.566,499.848 380.625,499.848L123.488,499.848L51.641,427.988L44.289,386.629L217,213.922L261.242,213.922L439.406,392.086Z" style="fill:url(#_Linear9);fill-rule:nonzero;"/>
        </g>
        <g transform="matrix(1,0,0,1,13.6621,0)">
            <path d="M445.352,256.262L39.324,256.262C17.605,256.262 0,238.656 0,216.938L0,209.672C0,187.953 17.605,170.348 39.324,170.348L445.352,170.348C467.07,170.348 484.676,187.953 484.676,209.672L484.676,216.938C484.676,238.656 467.07,256.262 445.352,256.262Z" style="fill:url(#_Linear10);fill-rule:nonzero;"/>
        </g>
        <g transform="matrix(1,0,0,1,13.6621,0)">
            <path d="M52.137,430.789L57.465,460.801C61.477,483.391 81.109,499.848 104.051,499.848L380.625,499.848C403.566,499.848 423.199,483.391 427.211,460.801L432.539,430.789L52.137,430.789Z" style="fill:url(#_Linear11);fill-rule:nonzero;"/>
        </g>
        <g transform="matrix(1,0,0,1,13.6621,0)">
            <path d="M266.898,213.305C266.898,227.297 255.555,238.641 241.563,238.641C227.57,238.641 216.227,227.297 216.227,213.305C216.227,199.313 227.57,187.969 241.563,187.969C255.555,187.969 266.898,199.313 266.898,213.305Z" style="fill:white;fill-rule:nonzero;"/>
        </g>
        <g transform="matrix(1,0,0,1,13.6621,0)">
            <path d="M303.582,256.262C273.789,226.469 251.34,204.02 251.066,203.742C244.469,197.148 233.773,197.148 227.18,203.742L174.66,256.262L303.582,256.262Z" style="fill:url(#_Linear12);fill-rule:nonzero;"/>
        </g>
        <g transform="matrix(1,0,0,1,13.6621,0)">
            <path d="M21.301,433.508C14.707,426.91 14.707,416.219 21.301,409.621L227.176,203.742C233.773,197.148 244.469,197.148 251.066,203.742C257.66,210.34 257.66,221.035 251.066,227.633L45.188,433.508C38.59,440.105 27.898,440.105 21.301,433.508Z" style="fill:url(#_Linear13);fill-rule:nonzero;"/>
        </g>
    </g>
    <defs>
        <linearGradient id="_Linear1" x1="0" y1="0" x2="1" y2="0" gradientUnits="userSpaceOnUse" gradientTransform="matrix(3.33674e-15,54.4931,-54.4931,3.33674e-15,242.338,480.267)"><stop offset="0" style="stop-color:rgb(59,57,95);stop-opacity:1"/><stop offset="0.06" style="stop-color:rgb(55,53,90);stop-opacity:1"/><stop offset="0.4" style="stop-color:rgb(35,37,67);stop-opacity:1"/><stop offset="0.72" style="stop-color:rgb(23,27,53);stop-opacity:1"/><stop offset="1" style="stop-color:rgb(19,24,48);stop-opacity:1"/></linearGradient>
        <linearGradient id="_Linear2" x1="0" y1="0" x2="1" y2="0" gradientUnits="userSpaceOnUse" gradientTransform="matrix(308.233,308.233,-308.233,308.233,161.877,241.018)"><stop offset="0" style="stop-color:rgb(255,110,58);stop-opacity:1"/><stop offset="0.16" style="stop-color:rgb(255,100,64);stop-opacity:1"/><stop offset="0.43" style="stop-color:rgb(255,75,82);stop-opacity:1"/><stop offset="0.77" style="stop-color:rgb(255,33,110);stop-opacity:1"/><stop offset="1" style="stop-color:rgb(255,0,132);stop-opacity:1"/></linearGradient>
        <linearGradient id="_Linear3" x1="0" y1="0" x2="1" y2="0" gradientUnits="userSpaceOnUse" gradientTransform="matrix(-75.4805,8.97316,-8.97316,-75.4805,109.265,367.894)"><stop offset="0" style="stop-color:rgb(255,110,58);stop-opacity:1"/><stop offset="0.16" style="stop-color:rgb(255,100,64);stop-opacity:1"/><stop offset="0.43" style="stop-color:rgb(255,75,82);stop-opacity:1"/><stop offset="0.77" style="stop-color:rgb(255,33,110);stop-opacity:1"/><stop offset="1" style="stop-color:rgb(255,0,132);stop-opacity:1"/></linearGradient>
        <linearGradient id="_Linear4" x1="0" y1="0" x2="1" y2="0" gradientUnits="userSpaceOnUse" gradientTransform="matrix(-81.2867,-11.6124,11.6124,-81.2867,427.064,374.739)"><stop offset="0" style="stop-color:rgb(255,110,58);stop-opacity:1"/><stop offset="0.16" style="stop-color:rgb(255,100,64);stop-opacity:1"/><stop offset="0.43" style="stop-color:rgb(255,75,82);stop-opacity:1"/><stop offset="0.77" style="stop-color:rgb(255,33,110);stop-opacity:1"/><stop offset="1" style="stop-color:rgb(255,0,132);stop-opacity:1"/></linearGradient>
        <linearGradient id="_Linear5" x1="0" y1="0" x2="1" y2="0" gradientUnits="userSpaceOnUse" gradientTransform="matrix(-90.7877,4.75046,-4.75046,-90.7877,190.762,368.639)"><stop offset="0" style="stop-color:rgb(255,110,58);stop-opacity:1"/><stop offset="0.16" style="stop-color:rgb(255,100,64);stop-opacity:1"/><stop offset="0.43" style="stop-color:rgb(255,75,82);stop-opacity:1"/><stop offset="0.77" style="stop-color:rgb(255,33,110);stop-opacity:1"/><stop offset="1" style="stop-color:rgb(255,0,132);stop-opacity:1"/></linearGradient>
        <linearGradient id="_Linear6" x1="0" y1="0" x2="1" y2="0" gradientUnits="userSpaceOnUse" gradientTransform="matrix(-92.3713,-5.80618,5.80618,-92.3713,360.827,372.462)"><stop offset="0" style="stop-color:rgb(255,110,58);stop-opacity:1"/><stop offset="0.16" style="stop-color:rgb(255,100,64);stop-opacity:1"/><stop offset="0.43" style="stop-color:rgb(255,75,82);stop-opacity:1"/><stop offset="0.77" style="stop-color:rgb(255,33,110);stop-opacity:1"/><stop offset="1" style="stop-color:rgb(255,0,132);stop-opacity:1"/></linearGradient>
        <linearGradient id="_Linear7" x1="0" y1="0" x2="1" y2="0" gradientUnits="userSpaceOnUse" gradientTransform="matrix(-77.1525,9.44846e-15,-9.44846e-15,-77.1525,265.317,370.54)"><stop offset="0" style="stop-color:rgb(255,110,58);stop-opacity:1"/><stop offset="0.16" style="stop-color:rgb(255,100,64);stop-opacity:1"/><stop offset="0.43" style="stop-color:rgb(255,75,82);stop-opacity:1"/><stop offset="0.77" style="stop-color:rgb(255,33,110);stop-opacity:1"/><stop offset="1" style="stop-color:rgb(255,0,132);stop-opacity:1"/></linearGradient>
        <linearGradient id="_Linear8" x1="0" y1="0" x2="1" y2="0" gradientUnits="userSpaceOnUse" gradientTransform="matrix(-71.8225,-433.253,433.253,-71.8225,270.234,382.206)"><stop offset="0" style="stop-color:rgb(228,0,61);stop-opacity:0"/><stop offset="0.58" style="stop-color:rgb(189,41,75);stop-opacity:0.58"/><stop offset="1" style="stop-color:rgb(166,65,83);stop-opacity:1"/></linearGradient>
        <linearGradient id="_Linear9" x1="0" y1="0" x2="1" y2="0" gradientUnits="userSpaceOnUse" gradientTransform="matrix(-135.128,-133.016,133.016,-135.128,223.832,387.861)"><stop offset="0" style="stop-color:rgb(228,0,61);stop-opacity:0"/><stop offset="0.58" style="stop-color:rgb(189,41,75);stop-opacity:0.58"/><stop offset="1" style="stop-color:rgb(166,65,83);stop-opacity:1"/></linearGradient>
        <linearGradient id="_Linear10" x1="0" y1="0" x2="1" y2="0" gradientUnits="userSpaceOnUse" gradientTransform="matrix(4.18074e-15,68.2766,-68.2766,4.18074e-15,242.338,193.317)"><stop offset="0" style="stop-color:rgb(59,57,95);stop-opacity:1"/><stop offset="0.06" style="stop-color:rgb(55,53,90);stop-opacity:1"/><stop offset="0.4" style="stop-color:rgb(35,37,67);stop-opacity:1"/><stop offset="0.72" style="stop-color:rgb(23,27,53);stop-opacity:1"/><stop offset="1" style="stop-color:rgb(19,24,48);stop-opacity:1"/></linearGradient>
        <linearGradient id="_Linear11" x1="0" y1="0" x2="1" y2="0" gradientUnits="userSpaceOnUse" gradientTransform="matrix(3.48717e-15,56.9499,-56.9499,3.48717e-15,242.338,467.179)"><stop offset="0" style="stop-color:rgb(228,0,61);stop-opacity:0"/><stop offset="0.58" style="stop-color:rgb(189,41,75);stop-opacity:0.58"/><stop offset="1" style="stop-color:rgb(166,65,83);stop-opacity:1"/></linearGradient>
        <linearGradient id="_Linear12" x1="0" y1="0" x2="1" y2="0" gradientUnits="userSpaceOnUse" gradientTransform="matrix(-148.603,-148.603,148.603,-148.603,316.66,333.801)"><stop offset="0" style="stop-color:rgb(59,57,95);stop-opacity:0"/><stop offset="0.06" style="stop-color:rgb(55,53,90);stop-opacity:0.06"/><stop offset="0.4" style="stop-color:rgb(35,37,67);stop-opacity:0.4"/><stop offset="0.72" style="stop-color:rgb(23,27,53);stop-opacity:0.72"/><stop offset="1" style="stop-color:rgb(19,24,48);stop-opacity:1"/></linearGradient>
        <linearGradient id="_Linear13" x1="0" y1="0" x2="1" y2="0" gradientUnits="userSpaceOnUse" gradientTransform="matrix(23.8869,23.8869,-23.8869,23.8869,124.24,306.678)"><stop offset="0" style="stop-color:rgb(255,212,89);stop-opacity:1"/><stop offset="0.23" style="stop-color:rgb(255,211,85);stop-opacity:1"/><stop offset="0.44" style="stop-color:rgb(255,207,74);stop-opacity:1"/><stop offset="0.63" style="stop-color:rgb(255,200,56);stop-opacity:1"/><stop offset="0.83" style="stop-color:rgb(255,191,31);stop-opacity:1"/><stop offset="1" style="stop-color:rgb(255,180,0);stop-opacity:1"/></linearGradient>
    </defs>
</svg>
