<?xml version="1.0" encoding="UTF-8" standalone="no"?>
<!DOCTYPE svg PUBLIC "-//W3C//DTD SVG 1.1//EN" "http://www.w3.org/Graphics/SVG/1.1/DTD/svg11.dtd">
<svg width="100%" height="100%" viewBox="0 0 512 512" version="1.1" xmlns="http://www.w3.org/2000/svg" xmlns:xlink="http://www.w3.org/1999/xlink" xml:space="preserve" xmlns:serif="http://www.serif.com/" style="fill-rule:evenodd;clip-rule:evenodd;stroke-linejoin:round;stroke-miterlimit:2;">
    <g>
        <path d="M427.336,512L56.285,512C39.02,512 25.023,498.004 25.023,480.738L25.023,31.262C25.023,13.996 39.02,0 56.285,0L427.336,0C444.602,0 458.598,13.996 458.598,31.262L458.598,480.738C458.598,498.004 444.602,512 427.336,512Z" style="fill:url(#_Linear1);fill-rule:nonzero;"/>
        <path d="M458.598,480.738L458.598,61.328L430.645,33.375C425.469,27.242 417.734,23.348 409.086,23.348L74.535,23.348C58.961,23.348 46.332,35.973 46.332,51.547L46.332,460.453C46.332,469.102 50.23,476.836 56.359,482.012L86.352,512L427.336,512C444.602,512 458.598,498.004 458.598,480.738Z" style="fill:url(#_Linear2);fill-rule:nonzero;"/>
        <path d="M25.023,402.289L25.023,480.738C25.023,498.004 39.02,512 56.285,512L427.336,512C444.602,512 458.598,498.004 458.598,480.738L458.598,402.289L25.023,402.289Z" style="fill:url(#_Linear3);fill-rule:nonzero;"/>
        <path d="M327.52,6.289C324.258,2.445 319.398,0 313.957,0L169.66,0C159.836,0 151.867,7.969 151.867,17.793L151.867,41.078C151.867,46.516 154.312,51.375 158.156,54.641L261.129,157.609C264.391,161.453 269.254,163.898 274.691,163.898L418.988,163.898C428.816,163.898 436.781,155.934 436.781,146.105L436.781,122.824C436.781,117.383 434.336,112.523 430.492,109.262L327.52,6.289Z" style="fill:url(#_Linear4);fill-rule:nonzero;"/>
        <path d="M409.086,488.652L74.535,488.652C58.961,488.652 46.332,476.027 46.332,460.453L46.332,51.547C46.332,35.973 58.961,23.348 74.535,23.348L409.086,23.348C424.66,23.348 437.289,35.973 437.289,51.547L437.289,460.453C437.289,476.027 424.66,488.652 409.086,488.652Z" style="fill:url(#_Linear5);fill-rule:nonzero;"/>
        <path d="M430.492,109.262L344.578,23.348L151.867,23.348L151.867,41.078C151.867,46.516 154.316,51.375 158.16,54.641L261.129,157.609C264.395,161.453 269.254,163.898 274.691,163.898L418.988,163.898C428.816,163.898 436.781,155.934 436.781,146.105L436.781,122.824C436.781,117.387 434.336,112.523 430.492,109.262Z" style="fill:url(#_Linear6);fill-rule:nonzero;"/>
        <path d="M74.535,488.652L409.086,488.652C424.66,488.652 437.289,476.027 437.289,460.453L437.289,431.297L383.625,377.637C378.465,371.961 371.023,368.398 362.75,368.398L46.332,368.398L46.332,460.449C46.332,476.027 58.961,488.652 74.535,488.652Z" style="fill:url(#_Linear7);fill-rule:nonzero;"/>
        <path d="M362.754,368.398L28.203,368.398C12.625,368.398 0,381.023 0,396.602L0,433.777C0,464.082 24.57,488.652 54.879,488.652L411.891,488.652C400.328,488.652 390.953,479.277 390.953,467.715L390.953,396.602C390.953,381.023 378.328,368.398 362.754,368.398Z" style="fill:url(#_Linear8);fill-rule:nonzero;"/>
        <g>
            <rect x="92.242" y="176.742" width="299.137" height="16.352" style="fill:rgb(161,181,216);fill-rule:nonzero;"/>
            <rect x="92.242" y="241.141" width="299.137" height="16.352" style="fill:rgb(161,181,216);fill-rule:nonzero;"/>
            <rect x="92.242" y="305.535" width="238.203" height="16.355" style="fill:rgb(161,181,216);fill-rule:nonzero;"/>
        </g>
        <path d="M320.855,45.578L304.5,45.578L304.5,61.379C304.5,72.203 295.695,81.012 284.867,81.012L213.219,81.012L179.121,45.578L162.766,45.578L162.766,61.379C162.766,71.695 167.137,81.004 174.109,87.57L251.605,165.066C258.172,172.043 267.48,176.41 277.797,176.41L363.914,176.41C383.758,176.41 399.898,160.266 399.898,140.426L399.898,124.621L320.855,45.578Z" style="fill:url(#_Linear9);fill-rule:nonzero;"/>
        <path d="M284.871,97.367L198.75,97.367C178.91,97.367 162.766,81.223 162.766,61.379L162.766,45.578L179.121,45.578L179.121,61.379C179.121,72.203 187.926,81.012 198.75,81.012L284.867,81.012C295.695,81.012 304.5,72.207 304.5,61.379L304.5,45.578L320.855,45.578L320.855,61.379C320.855,81.223 304.711,97.367 284.871,97.367Z" style="fill:url(#_Linear10);fill-rule:nonzero;"/>
        <path d="M313.957,58.871L169.66,58.871C159.836,58.871 151.867,50.906 151.867,41.078L151.867,17.793C151.867,7.969 159.836,0 169.66,0L313.957,0C323.785,0 331.754,7.969 331.754,17.793L331.754,41.078C331.754,50.906 323.785,58.871 313.957,58.871Z" style="fill:url(#_Linear11);fill-rule:nonzero;"/>
    </g>
    <defs>
        <linearGradient id="_Linear1" x1="0" y1="0" x2="1" y2="0" gradientUnits="userSpaceOnUse" gradientTransform="matrix(235.75,0,0,235.75,153.499,256)"><stop offset="0" style="stop-color:rgb(255,199,56);stop-opacity:1"/><stop offset="0.43" style="stop-color:rgb(255,187,35);stop-opacity:1"/><stop offset="1" style="stop-color:rgb(255,167,0);stop-opacity:1"/></linearGradient>
        <linearGradient id="_Linear2" x1="0" y1="0" x2="1" y2="0" gradientUnits="userSpaceOnUse" gradientTransform="matrix(-474.796,-474.796,474.796,-474.796,446.905,461.095)"><stop offset="0" style="stop-color:rgb(229,130,0);stop-opacity:0"/><stop offset="0.04" style="stop-color:rgb(226,127,4);stop-opacity:0.04"/><stop offset="0.47" style="stop-color:rgb(193,93,47);stop-opacity:0.47"/><stop offset="0.8" style="stop-color:rgb(173,73,73);stop-opacity:0.8"/><stop offset="1" style="stop-color:rgb(166,65,83);stop-opacity:1"/></linearGradient>
        <linearGradient id="_Linear3" x1="0" y1="0" x2="1" y2="0" gradientUnits="userSpaceOnUse" gradientTransform="matrix(4.61054e-15,75.2959,-75.2959,4.61054e-15,241.81,467.702)"><stop offset="0" style="stop-color:rgb(229,130,0);stop-opacity:0"/><stop offset="0.04" style="stop-color:rgb(226,127,4);stop-opacity:0.04"/><stop offset="0.47" style="stop-color:rgb(193,93,47);stop-opacity:0.47"/><stop offset="0.8" style="stop-color:rgb(173,73,73);stop-opacity:0.8"/><stop offset="1" style="stop-color:rgb(166,65,83);stop-opacity:1"/></linearGradient>
        <linearGradient id="_Linear4" x1="0" y1="0" x2="1" y2="0" gradientUnits="userSpaceOnUse" gradientTransform="matrix(-69.7771,-153.364,153.364,-69.7771,321.43,141.525)"><stop offset="0" style="stop-color:rgb(229,130,0);stop-opacity:0"/><stop offset="0.2" style="stop-color:rgb(221,122,11);stop-opacity:0.2"/><stop offset="0.56" style="stop-color:rgb(199,99,39);stop-opacity:0.56"/><stop offset="1" style="stop-color:rgb(166,65,83);stop-opacity:1"/></linearGradient>
        <linearGradient id="_Linear5" x1="0" y1="0" x2="1" y2="0" gradientUnits="userSpaceOnUse" gradientTransform="matrix(358.353,538.685,-538.685,358.353,113.927,63.763)"><stop offset="0" style="stop-color:rgb(255,252,248);stop-opacity:1"/><stop offset="0.19" style="stop-color:rgb(250,248,246);stop-opacity:1"/><stop offset="0.4" style="stop-color:rgb(236,238,242);stop-opacity:1"/><stop offset="0.64" style="stop-color:rgb(213,220,234);stop-opacity:1"/><stop offset="0.88" style="stop-color:rgb(181,196,223);stop-opacity:1"/><stop offset="1" style="stop-color:rgb(161,181,216);stop-opacity:1"/></linearGradient>
        <linearGradient id="_Linear6" x1="0" y1="0" x2="1" y2="0" gradientUnits="userSpaceOnUse" gradientTransform="matrix(-43.6108,-160.633,160.633,-43.6108,300.95,106.351)"><stop offset="0" style="stop-color:rgb(161,181,216);stop-opacity:0"/><stop offset="0.55" style="stop-color:rgb(137,154,178);stop-opacity:0.55"/><stop offset="1" style="stop-color:rgb(116,130,144);stop-opacity:1"/></linearGradient>
        <linearGradient id="_Linear7" x1="0" y1="0" x2="1" y2="0" gradientUnits="userSpaceOnUse" gradientTransform="matrix(-125.937,-125.937,125.937,-125.937,348.389,558.272)"><stop offset="0" style="stop-color:rgb(161,181,216);stop-opacity:0"/><stop offset="0.03" style="stop-color:rgb(159,179,213);stop-opacity:0.03"/><stop offset="0.45" style="stop-color:rgb(136,152,175);stop-opacity:0.45"/><stop offset="0.79" style="stop-color:rgb(121,136,152);stop-opacity:0.78"/><stop offset="1" style="stop-color:rgb(116,130,144);stop-opacity:1"/></linearGradient>
        <linearGradient id="_Linear8" x1="0" y1="0" x2="1" y2="0" gradientUnits="userSpaceOnUse" gradientTransform="matrix(5.07633e-15,82.9028,-82.9028,5.07633e-15,205.946,431.725)"><stop offset="0" style="stop-color:rgb(255,252,248);stop-opacity:1"/><stop offset="0.19" style="stop-color:rgb(250,248,246);stop-opacity:1"/><stop offset="0.4" style="stop-color:rgb(236,238,242);stop-opacity:1"/><stop offset="0.64" style="stop-color:rgb(213,220,234);stop-opacity:1"/><stop offset="0.88" style="stop-color:rgb(181,196,223);stop-opacity:1"/><stop offset="1" style="stop-color:rgb(161,181,216);stop-opacity:1"/></linearGradient>
        <linearGradient id="_Linear9" x1="0" y1="0" x2="1" y2="0" gradientUnits="userSpaceOnUse" gradientTransform="matrix(-83.4054,-183.71,183.71,-83.4054,299.777,137.513)"><stop offset="0" style="stop-color:rgb(161,181,216);stop-opacity:0"/><stop offset="0.55" style="stop-color:rgb(137,154,178);stop-opacity:0.55"/><stop offset="1" style="stop-color:rgb(116,130,144);stop-opacity:1"/></linearGradient>
        <linearGradient id="_Linear10" x1="0" y1="0" x2="1" y2="0" gradientUnits="userSpaceOnUse" gradientTransform="matrix(1.30224e-15,21.2672,-21.2672,1.30224e-15,241.81,82.1023)"><stop offset="0" style="stop-color:rgb(59,57,95);stop-opacity:1"/><stop offset="0.8" style="stop-color:rgb(27,31,58);stop-opacity:1"/><stop offset="1" style="stop-color:rgb(19,24,48);stop-opacity:1"/></linearGradient>
        <linearGradient id="_Linear11" x1="0" y1="0" x2="1" y2="0" gradientUnits="userSpaceOnUse" gradientTransform="matrix(3.3365e-15,54.4892,-54.4892,3.3365e-15,241.81,14.5053)"><stop offset="0" style="stop-color:rgb(255,73,116);stop-opacity:1"/><stop offset="0.21" style="stop-color:rgb(253,67,111);stop-opacity:1"/><stop offset="0.49" style="stop-color:rgb(246,49,98);stop-opacity:1"/><stop offset="0.81" style="stop-color:rgb(236,21,77);stop-opacity:1"/><stop offset="1" style="stop-color:rgb(228,0,61);stop-opacity:1"/></linearGradient>
    </defs>
</svg>
