<?xml version="1.0" encoding="UTF-8" standalone="no"?>
<!DOCTYPE svg PUBLIC "-//W3C//DTD SVG 1.1//EN" "http://www.w3.org/Graphics/SVG/1.1/DTD/svg11.dtd">
<svg width="100%" height="100%" viewBox="0 0 512 512" version="1.1" xmlns="http://www.w3.org/2000/svg" xmlns:xlink="http://www.w3.org/1999/xlink" xml:space="preserve" xmlns:serif="http://www.serif.com/" style="fill-rule:evenodd;clip-rule:evenodd;stroke-linejoin:round;stroke-miterlimit:2;">
    <g transform="matrix(1,0,0,1,-87.1504,-1.06999e-14)">
        <g>
            <path d="M398.595,512L113.405,512C98.905,512 87.151,500.246 87.151,485.746L87.151,26.254C87.151,11.754 98.906,0 113.405,0L398.594,0C413.094,0 424.848,11.754 424.848,26.254L424.848,485.746C424.849,500.246 413.094,512 398.595,512Z" style="fill:url(#_Linear1);fill-rule:nonzero;"/>
            <path d="M380.982,458.52L131.018,458.52C118.578,458.52 108.494,448.436 108.494,435.996L108.494,49.66C108.494,37.22 118.578,27.136 131.018,27.136L380.983,27.136C393.423,27.136 403.507,37.22 403.507,49.66L403.507,435.996C403.506,448.437 393.422,458.52 380.982,458.52Z" style="fill:url(#_Linear2);fill-rule:nonzero;"/>
            <path d="M424.849,183.247L221.115,183.247C224.975,216.481 240.569,246.13 263.64,267.961C265.469,269.901 275.692,280.039 276.062,280.422L272.441,309.875C271.659,316.237 274.948,321.666 279.799,324.403L424.849,469.454L424.849,183.247Z" style="fill:url(#_Linear3);fill-rule:nonzero;"/>
            <path d="M424.85,443.814L424.85,485.747C424.85,500.244 413.094,512 398.597,512L113.403,512C98.906,512 87.15,500.244 87.15,485.747L87.15,188.045C94.409,186.519 101.928,185.725 109.638,185.725L121.475,185.725C153.289,185.725 181.921,199.278 201.949,220.913L424.85,443.814Z" style="fill:url(#_Linear4);fill-rule:nonzero;"/>
            <path d="M87.151,393.537L87.151,485.746C87.151,500.246 98.905,512 113.405,512L398.594,512C413.094,512 424.848,500.246 424.848,485.746L424.848,393.537L87.151,393.537Z" style="fill:url(#_Linear5);fill-rule:nonzero;"/>
            <g transform="matrix(1,0,0,1,-3.13725e-05,-3.76679e-20)">
                <path d="M362.868,441.051L149.132,441.051C138.07,441.051 129.104,432.085 129.104,421.024L129.104,64.633C129.104,53.572 138.07,44.606 149.132,44.606L362.868,44.606C373.93,44.606 382.896,53.572 382.896,64.633L382.896,421.024C382.896,432.085 373.93,441.051 362.868,441.051Z" style="fill:url(#_Linear6);fill-rule:nonzero;"/>
            </g>
        </g>
    </g>
    <g>
        <path d="M373.74,26.575C296.048,25.388 232.636,86.537 231.132,164.224C230.911,175.63 232.052,186.732 234.401,197.381C238.379,215.412 240.742,233.761 240.742,252.225L240.742,287.916C240.742,293.384 245.174,297.817 250.643,297.817L286.334,297.817C304.798,297.817 323.148,300.181 341.178,304.158C351.827,306.507 362.929,307.647 374.334,307.426C452.019,305.922 513.168,242.512 511.984,164.821C510.826,88.989 449.571,27.732 373.74,26.575Z" style="fill:url(#_Linear7);fill-rule:nonzero;"/>
        <path d="M321.279,159.478C317.312,155.262 311.696,152.614 305.449,152.614C293.435,152.614 283.695,162.354 283.695,174.368C283.695,180.614 286.342,186.229 290.558,190.198L337.485,237.125C341.452,241.341 347.068,243.989 353.315,243.989C365.33,243.989 375.069,234.249 375.069,222.235C375.069,215.989 372.422,210.373 368.205,206.405L321.279,159.478Z" style="fill:url(#_Linear8);fill-rule:nonzero;"/>
        <circle cx="305.453" cy="174.371" r="21.754" style="fill:white;"/>
        <path d="M382.802,159.478C378.835,155.262 373.219,152.614 366.972,152.614C354.958,152.614 345.218,162.354 345.218,174.368C345.218,180.614 347.865,186.229 352.081,190.198L399.008,237.125C402.975,241.341 408.591,243.989 414.838,243.989C426.853,243.989 436.592,234.249 436.592,222.235C436.592,215.989 433.945,210.373 429.728,206.405L382.802,159.478Z" style="fill:url(#_Linear9);fill-rule:nonzero;"/>
        <circle cx="366.974" cy="174.371" r="21.754" style="fill:white;"/>
        <path d="M444.325,159.478C440.358,155.262 434.742,152.614 428.495,152.614C416.481,152.614 406.741,162.354 406.741,174.368C406.741,180.614 409.388,186.229 413.604,190.198L460.531,237.125C464.498,241.341 470.114,243.989 476.361,243.989C488.376,243.989 498.115,234.249 498.115,222.235C498.115,215.989 495.468,210.373 491.251,206.405L444.325,159.478Z" style="fill:url(#_Linear10);fill-rule:nonzero;"/>
        <circle cx="428.494" cy="174.371" r="21.754" style="fill:white;"/>
    </g>
    <defs>
        <linearGradient id="_Linear1" x1="0" y1="0" x2="1" y2="0" gradientUnits="userSpaceOnUse" gradientTransform="matrix(269.539,138.534,-138.534,269.539,147.09,200.023)"><stop offset="0" style="stop-color:rgb(122,109,121);stop-opacity:1"/><stop offset="1" style="stop-color:rgb(85,78,86);stop-opacity:1"/></linearGradient>
        <linearGradient id="_Linear2" x1="0" y1="0" x2="1" y2="0" gradientUnits="userSpaceOnUse" gradientTransform="matrix(-409.58,-200.272,200.272,-409.58,419.051,322.555)"><stop offset="0" style="stop-color:rgb(122,109,121);stop-opacity:1"/><stop offset="1" style="stop-color:rgb(85,78,86);stop-opacity:1"/></linearGradient>
        <linearGradient id="_Linear3" x1="0" y1="0" x2="1" y2="0" gradientUnits="userSpaceOnUse" gradientTransform="matrix(-66.2588,-171.671,171.671,-66.2588,414.217,425.73)"><stop offset="0" style="stop-color:rgb(85,78,86);stop-opacity:0"/><stop offset="1" style="stop-color:rgb(67,63,67);stop-opacity:1"/></linearGradient>
        <linearGradient id="_Linear4" x1="0" y1="0" x2="1" y2="0" gradientUnits="userSpaceOnUse" gradientTransform="matrix(-200.784,-137.203,137.203,-200.784,290.651,458.419)"><stop offset="0" style="stop-color:rgb(85,78,86);stop-opacity:0"/><stop offset="1" style="stop-color:rgb(67,63,67);stop-opacity:1"/></linearGradient>
        <linearGradient id="_Linear5" x1="0" y1="0" x2="1" y2="0" gradientUnits="userSpaceOnUse" gradientTransform="matrix(2.03234e-15,33.1907,-33.1907,2.03234e-15,256,459.796)"><stop offset="0" style="stop-color:rgb(85,78,86);stop-opacity:0"/><stop offset="1" style="stop-color:rgb(67,63,67);stop-opacity:1"/></linearGradient>
        <linearGradient id="_Linear6" x1="0" y1="0" x2="1" y2="0" gradientUnits="userSpaceOnUse" gradientTransform="matrix(199.759,199.759,-199.759,199.759,149.959,136.787)"><stop offset="0" style="stop-color:rgb(255,216,137);stop-opacity:1"/><stop offset="1" style="stop-color:rgb(245,169,63);stop-opacity:1"/></linearGradient>
        <linearGradient id="_Linear7" x1="0" y1="0" x2="1" y2="0" gradientUnits="userSpaceOnUse" gradientTransform="matrix(178.704,178.704,-178.704,178.704,320.234,144.302)"><stop offset="0" style="stop-color:rgb(98,225,251);stop-opacity:1"/><stop offset="1" style="stop-color:rgb(0,162,243);stop-opacity:1"/></linearGradient>
        <linearGradient id="_Linear8" x1="0" y1="0" x2="1" y2="0" gradientUnits="userSpaceOnUse" gradientTransform="matrix(-94.0855,-94.0855,94.0855,-94.0855,353.834,222.767)"><stop offset="0" style="stop-color:rgb(0,162,243);stop-opacity:0"/><stop offset="1" style="stop-color:rgb(0,117,205);stop-opacity:1"/></linearGradient>
        <linearGradient id="_Linear9" x1="0" y1="0" x2="1" y2="0" gradientUnits="userSpaceOnUse" gradientTransform="matrix(-94.0855,-94.0855,94.0855,-94.0855,415.354,222.766)"><stop offset="0" style="stop-color:rgb(0,162,243);stop-opacity:0"/><stop offset="1" style="stop-color:rgb(0,117,205);stop-opacity:1"/></linearGradient>
        <linearGradient id="_Linear10" x1="0" y1="0" x2="1" y2="0" gradientUnits="userSpaceOnUse" gradientTransform="matrix(-94.0855,-94.0855,94.0855,-94.0855,476.874,222.765)"><stop offset="0" style="stop-color:rgb(0,162,243);stop-opacity:0"/><stop offset="1" style="stop-color:rgb(0,117,205);stop-opacity:1"/></linearGradient>
    </defs>
</svg>
