<?xml version="1.0" encoding="UTF-8" standalone="no"?>
<!DOCTYPE svg PUBLIC "-//W3C//DTD SVG 1.1//EN" "http://www.w3.org/Graphics/SVG/1.1/DTD/svg11.dtd">
<svg width="100%" height="100%" viewBox="0 0 30 30" version="1.1" xmlns="http://www.w3.org/2000/svg" xmlns:xlink="http://www.w3.org/1999/xlink" xml:space="preserve" xmlns:serif="http://www.serif.com/" style="fill-rule:evenodd;clip-rule:evenodd;stroke-linejoin:round;stroke-miterlimit:2;">
    <g transform="matrix(1,0,0,1,-330,-107)">
        <g transform="matrix(1,0,0,1,285,-14)">
            <g id="gmail.svg" transform="matrix(0.0585938,0,0,0.0585938,60,136)">
                <g transform="matrix(1,0,0,1,-256,-256)">
                    <clipPath id="_clip1">
                        <rect x="0" y="0" width="512" height="512"/>
                    </clipPath>
                    <g clip-path="url(#_clip1)">
                        <g>
                            <path d="M464.206,461.083L47.794,461.083C31.379,461.083 18.071,447.775 18.071,431.359L-0,80.64C-0,64.224 13.308,50.917 29.723,50.917L482.276,50.917C498.692,50.917 511.999,64.225 511.999,80.64L493.928,431.359C493.929,447.775 480.621,461.083 464.206,461.083Z" style="fill:url(#_Linear2);fill-rule:nonzero;"/>
                            <path d="M482.277,461.083L29.723,461.083C13.308,461.083 -0,447.775 -0,431.359C-0,423.069 3.423,415.147 9.46,409.465L232.918,199.179C245.886,186.975 266.114,186.975 279.082,199.179L502.54,409.465C508.578,415.147 512,423.069 512,431.359C512,447.775 498.692,461.083 482.277,461.083Z" style="fill:url(#_Linear3);fill-rule:nonzero;"/>
                            <path d="M4.252,354.347L4.252,431.359C4.252,447.775 17.339,461.082 33.482,461.082L478.518,461.082C494.661,461.082 507.748,447.774 507.748,431.359L507.748,354.347L4.252,354.347Z" style="fill:url(#_Linear4);fill-rule:nonzero;"/>
                            <path d="M0,80.641L0,431.36C0,447.776 13.308,461.083 29.723,461.083L48.958,461.083L48.958,50.917L29.723,50.917C13.308,50.917 -0,64.225 -0,80.641Z" style="fill:url(#_Linear5);fill-rule:nonzero;"/>
                            <path d="M10.464,102.534L393.537,461.083L482.277,461.083C498.693,461.083 512,447.775 512,431.36L512,80.641C512,64.225 498.692,52.926 482.277,52.926L29.723,52.926C13.308,52.925 1.004,64.225 1.004,80.641C1.004,88.93 4.427,96.852 10.464,102.534Z" style="fill:url(#_Linear6);fill-rule:nonzero;"/>
                            <path d="M512,80.641L512,431.36C512,447.776 498.692,461.083 482.277,461.083L463.042,461.083L463.042,50.917L482.277,50.917C498.692,50.917 512,64.225 512,80.641Z" style="fill:url(#_Linear7);fill-rule:nonzero;"/>
                            <path d="M482.277,52.925L463.042,52.925L463.042,234.631L512,234.631L512,82.649C512,66.233 498.692,52.925 482.277,52.925Z" style="fill:url(#_Linear8);fill-rule:nonzero;"/>
                            <path d="M29.723,52.925L48.958,52.925L48.958,234.631L-0,234.631L-0,82.649C-0,66.233 13.308,52.925 29.723,52.925Z" style="fill:url(#_Linear9);fill-rule:nonzero;"/>
                            <path d="M482.277,50.917L29.723,50.917C13.308,50.917 -0,64.225 -0,80.641C-0,88.931 3.423,93.842 9.46,99.523L232.918,309.809C245.886,322.013 266.114,322.013 279.082,309.809L502.54,99.522C508.577,93.841 512,88.93 512,80.641C512,64.225 498.692,50.917 482.277,50.917Z" style="fill:url(#_Linear10);fill-rule:nonzero;"/>
                            <path d="M481.656,50.917C480.473,50.917 479.334,51.369 478.473,52.179L279.082,239.818C266.114,252.021 245.886,252.021 232.918,239.818L33.528,52.18C32.667,51.369 31.527,50.917 30.345,50.917C15.178,50.917 1.986,62.039 0.209,77.101C-0.917,86.641 2.569,96.048 9.461,102.534L232.919,312.82C245.887,325.024 266.115,325.024 279.083,312.82L502.541,102.534C509.433,96.047 512.919,86.641 511.793,77.101C510.015,62.039 496.823,50.917 481.656,50.917Z" style="fill:url(#_Linear11);fill-rule:nonzero;"/>
                        </g>
                    </g>
                </g>
            </g>
        </g>
    </g>
    <defs>
        <linearGradient id="_Linear2" x1="0" y1="0" x2="1" y2="0" gradientUnits="userSpaceOnUse" gradientTransform="matrix(161.93,347.63,-347.63,161.93,219.832,158.957)"><stop offset="0" style="stop-color:rgb(227,229,228);stop-opacity:1"/><stop offset="1" style="stop-color:rgb(203,208,228);stop-opacity:1"/></linearGradient>
        <linearGradient id="_Linear3" x1="0" y1="0" x2="1" y2="0" gradientUnits="userSpaceOnUse" gradientTransform="matrix(83.6367,83.6367,-83.6367,83.6367,207.855,383.144)"><stop offset="0" style="stop-color:rgb(235,239,240);stop-opacity:1"/><stop offset="1" style="stop-color:rgb(227,229,228);stop-opacity:1"/></linearGradient>
        <linearGradient id="_Linear4" x1="0" y1="0" x2="1" y2="0" gradientUnits="userSpaceOnUse" gradientTransform="matrix(5.25885e-15,85.8835,-85.8835,5.25885e-15,256,396.646)"><stop offset="0" style="stop-color:rgb(203,208,228);stop-opacity:0"/><stop offset="1" style="stop-color:rgb(106,125,131);stop-opacity:1"/></linearGradient>
        <linearGradient id="_Linear5" x1="0" y1="0" x2="1" y2="0" gradientUnits="userSpaceOnUse" gradientTransform="matrix(40.8486,0,0,40.8486,17.401,256)"><stop offset="0" style="stop-color:rgb(255,99,123);stop-opacity:1"/><stop offset="1" style="stop-color:rgb(249,2,23);stop-opacity:1"/></linearGradient>
        <linearGradient id="_Linear6" x1="0" y1="0" x2="1" y2="0" gradientUnits="userSpaceOnUse" gradientTransform="matrix(-62.9128,-66.2588,66.2588,-62.9128,421.606,255.048)"><stop offset="0" style="stop-color:rgb(203,208,228);stop-opacity:0"/><stop offset="1" style="stop-color:rgb(106,125,131);stop-opacity:1"/></linearGradient>
        <linearGradient id="_Linear7" x1="0" y1="0" x2="1" y2="0" gradientUnits="userSpaceOnUse" gradientTransform="matrix(31.4569,0,0,31.4569,485.228,256)"><stop offset="0" style="stop-color:rgb(255,99,123);stop-opacity:1"/><stop offset="1" style="stop-color:rgb(249,2,23);stop-opacity:1"/></linearGradient>
        <linearGradient id="_Linear8" x1="0" y1="0" x2="1" y2="0" gradientUnits="userSpaceOnUse" gradientTransform="matrix(-42.1647,-47.6863,47.6863,-42.1647,502.731,170.213)"><stop offset="0" style="stop-color:rgb(249,2,23);stop-opacity:0"/><stop offset="0.27" style="stop-color:rgb(231,1,15);stop-opacity:0.27"/><stop offset="0.72" style="stop-color:rgb(206,0,4);stop-opacity:0.72"/><stop offset="1" style="stop-color:rgb(197,0,0);stop-opacity:1"/></linearGradient>
        <linearGradient id="_Linear9" x1="0" y1="0" x2="1" y2="0" gradientUnits="userSpaceOnUse" gradientTransform="matrix(42.1647,-47.6863,47.6863,42.1647,9.26921,170.213)"><stop offset="0" style="stop-color:rgb(249,2,23);stop-opacity:0"/><stop offset="0.27" style="stop-color:rgb(231,1,15);stop-opacity:0.27"/><stop offset="0.72" style="stop-color:rgb(206,0,4);stop-opacity:0.72"/><stop offset="1" style="stop-color:rgb(197,0,0);stop-opacity:1"/></linearGradient>
        <linearGradient id="_Linear10" x1="0" y1="0" x2="1" y2="0" gradientUnits="userSpaceOnUse" gradientTransform="matrix(112.221,136.162,-136.162,112.221,235.325,54.273)"><stop offset="0" style="stop-color:rgb(235,239,240);stop-opacity:1"/><stop offset="1" style="stop-color:rgb(227,229,228);stop-opacity:1"/></linearGradient>
        <linearGradient id="_Linear11" x1="0" y1="0" x2="1" y2="0" gradientUnits="userSpaceOnUse" gradientTransform="matrix(129.841,218.855,-218.855,129.841,262.05,90.9292)"><stop offset="0" style="stop-color:rgb(255,99,123);stop-opacity:1"/><stop offset="1" style="stop-color:rgb(249,2,23);stop-opacity:1"/></linearGradient>
    </defs>
</svg>
