<?xml version="1.0" encoding="UTF-8" standalone="no"?>
<!DOCTYPE svg PUBLIC "-//W3C//DTD SVG 1.1//EN" "http://www.w3.org/Graphics/SVG/1.1/DTD/svg11.dtd">
<svg width="100%" height="100%" viewBox="0 0 60 60" version="1.1" xmlns="http://www.w3.org/2000/svg" xmlns:xlink="http://www.w3.org/1999/xlink" xml:space="preserve" xmlns:serif="http://www.serif.com/" style="fill-rule:evenodd;clip-rule:evenodd;stroke-linejoin:round;stroke-miterlimit:2;">
    <g transform="matrix(1,0,0,1,-30,-30.0007)">
        <g transform="matrix(1.33407,0,0,1.33407,-22.229,-110.035)">
            <path d="M61.638,104.969C84.125,104.969 84.125,104.969 84.125,127.456C84.125,149.944 84.125,149.944 61.638,149.944C39.15,149.944 39.15,149.944 39.15,127.456C39.15,104.969 39.15,104.969 61.638,104.969ZM61.638,106.468C68.26,106.468 72.896,106.454 76.141,107.051C77.98,107.388 79.316,107.902 80.254,108.84C81.193,109.778 81.706,111.114 82.044,112.953C82.64,116.198 82.626,120.834 82.626,127.456C82.626,134.079 82.64,138.715 82.044,141.96C81.706,143.799 81.193,145.135 80.254,146.073C79.316,147.011 77.98,147.525 76.141,147.862C72.896,148.458 68.26,148.445 61.638,148.445C55.015,148.445 50.379,148.458 47.134,147.862C45.295,147.525 43.959,147.011 43.021,146.073C42.083,145.135 41.57,143.799 41.232,141.96C40.636,138.715 40.649,134.079 40.649,127.456C40.649,120.834 40.636,116.198 41.232,112.953C41.57,111.114 42.083,109.778 43.021,108.84C43.959,107.902 45.295,107.388 47.134,107.051C50.379,106.454 55.015,106.468 61.638,106.468L61.638,106.468Z" style="fill:rgb(255,0,64);"/>
        </g>
    </g>
</svg>
