<?xml version="1.0" encoding="UTF-8" standalone="no"?>
<!DOCTYPE svg PUBLIC "-//W3C//DTD SVG 1.1//EN" "http://www.w3.org/Graphics/SVG/1.1/DTD/svg11.dtd">
<svg width="100%" height="100%" viewBox="0 0 34 43" version="1.1" xmlns="http://www.w3.org/2000/svg" xmlns:xlink="http://www.w3.org/1999/xlink" xml:space="preserve" xmlns:serif="http://www.serif.com/" style="fill-rule:evenodd;clip-rule:evenodd;stroke-linecap:round;stroke-linejoin:round;stroke-miterlimit:1.5;">
    <g transform="matrix(1,0,0,1,-483,-674)">
        <g>
            <g transform="matrix(1.76471,0,0,1.76471,-385,-532.824)">
                <circle cx="501.5" cy="693.5" r="8.5" style="fill:none;stroke:white;stroke-width:2.27px;"/>
            </g>
            <g transform="matrix(1,0,0,-1,10,1431)">
                <path d="M490,714C490,714 485,725.9 485,731C485,733.76 487.24,736 490,736C492.76,736 495,733.76 495,731C495,725.9 490,714 490,714Z" style="fill:white;"/>
            </g>
            <g transform="matrix(1.76471,0,0,1.76471,-385,-532.824)">
                <circle cx="501.5" cy="693.5" r="8.5" style="fill:rgb(255,0,64);"/>
                <path d="M501.5,685C506.191,685 510,688.809 510,693.5C510,698.191 506.191,702 501.5,702C496.809,702 493,698.191 493,693.5C493,688.809 496.809,685 501.5,685ZM501.5,686.133C505.566,686.133 508.867,689.434 508.867,693.5C508.867,697.566 505.566,700.867 501.5,700.867C497.434,700.867 494.133,697.566 494.133,693.5C494.133,689.434 497.434,686.133 501.5,686.133Z" style="fill:rgb(255,0,64);"/>
            </g>
            <g transform="matrix(0.4,0,0,0.4,425.126,675)">
                <path d="M173.119,52.4L169.1,50.081L169.1,33.838C169.1,30.967 170.632,28.313 173.119,26.878C176.11,25.151 180.175,22.804 183.167,21.077C185.653,19.641 188.717,19.641 191.204,21.077L204.37,28.678L190.686,36.735C188.012,38.316 186.301,41.311 186.281,44.403C186.271,49.602 186.281,54.801 186.281,60L181.258,57.099L181.258,40.464C181.263,37.955 182.651,35.558 184.798,34.3C189.788,31.406 195.44,28.156 195.44,28.156L193.632,27.112L183.919,32.719C181.209,34.292 179.468,37.321 179.449,40.426C179.436,46.685 179.446,50.321 179.449,56.055L174.928,53.445L174.928,36.738C174.933,34.228 176.349,31.815 178.469,30.574C183.437,27.691 189.048,24.466 189.048,24.466C189.048,24.466 188.596,24.205 188.144,23.944C187.584,23.621 186.895,23.621 186.336,23.944C183.936,25.329 177.589,28.993 177.589,28.993C174.875,30.568 173.139,33.595 173.119,36.699C173.107,42.419 173.116,46.976 173.119,52.4ZM193.113,57.099L188.09,60L188.09,44.441C188.095,41.957 189.467,39.568 191.579,38.308C196.137,35.611 200.706,32.933 205.27,30.247L205.27,50.081L201.251,52.401L201.251,38.407L199.443,39.504L199.443,53.445L194.922,56.055L194.922,42.146C194.922,42.146 194.353,42.482 193.854,42.777C193.395,43.048 193.113,43.542 193.113,44.075L193.113,57.099Z" style="fill:white;"/>
            </g>
        </g>
    </g>
</svg>
