<?xml version="1.0" encoding="UTF-8" standalone="no"?>
<!DOCTYPE svg PUBLIC "-//W3C//DTD SVG 1.1//EN" "http://www.w3.org/Graphics/SVG/1.1/DTD/svg11.dtd">
<svg width="100%" height="100%" viewBox="0 0 512 512" version="1.1" xmlns="http://www.w3.org/2000/svg" xmlns:xlink="http://www.w3.org/1999/xlink" xml:space="preserve" xmlns:serif="http://www.serif.com/" style="fill-rule:evenodd;clip-rule:evenodd;stroke-linejoin:round;stroke-miterlimit:2;">
    <g>
        <g>
            <circle cx="256" cy="256" r="218.334" style="fill:url(#_Linear1);"/>
            <g>
                <path d="M447.286,256C447.286,248.467 446.845,241.038 445.995,233.733C444.901,224.34 448.622,215.027 455.731,208.791L484.996,183.116C494.928,174.402 497.16,159.81 490.287,148.525L458.988,97.139C452.115,85.854 438.124,81.143 425.825,85.971L389.345,100.289C380.515,103.754 370.592,102.541 362.726,97.241C354.275,91.548 345.344,86.512 336.008,82.206C327.416,78.244 321.247,70.406 319.618,61.087L312.874,22.514C310.598,9.497 299.297,-0 286.084,-0L225.916,-0C212.703,-0 201.402,9.497 199.127,22.513L192.383,61.086C190.754,70.405 184.585,78.244 175.993,82.205C166.657,86.511 157.726,91.547 149.275,97.24C141.408,102.539 131.485,103.752 122.656,100.288L86.175,85.97C73.875,81.143 59.885,85.854 53.012,97.138L21.714,148.524C14.841,159.809 17.073,174.401 27.005,183.115L56.27,208.79C63.379,215.026 67.1,224.339 66.006,233.732C65.155,241.037 64.715,248.467 64.715,255.999C64.715,263.531 65.156,270.961 66.006,278.266C67.1,287.659 63.379,296.972 56.27,303.208L27.005,328.883C17.073,337.597 14.841,352.189 21.714,363.474L53.012,414.86C59.885,426.145 73.876,430.856 86.175,426.028L122.655,411.71C131.485,408.245 141.408,409.459 149.274,414.758C157.725,420.451 166.656,425.487 175.992,429.793C184.584,433.755 190.753,441.593 192.382,450.912L199.126,489.485C201.402,502.503 212.703,512 225.916,512L286.084,512C299.297,512 310.598,502.503 312.873,489.487L319.617,450.914C321.246,441.595 327.415,433.756 336.007,429.795C345.343,425.489 354.274,420.453 362.725,414.76C370.592,409.461 380.515,408.248 389.344,411.712L425.824,426.03C438.124,430.858 452.114,426.146 458.987,414.862L490.285,363.476C497.158,352.191 494.926,337.599 484.994,328.885L455.729,303.21C448.62,296.974 444.899,287.661 445.993,278.268C446.846,270.962 447.286,263.533 447.286,256Z" style="fill:url(#_Linear2);fill-rule:nonzero;"/>
                <circle cx="256" cy="256" r="156.362" style="fill:url(#_Linear3);"/>
            </g>
        </g>
        <path d="M312.873,489.487L319.617,450.914C321.246,441.595 327.415,433.756 336.007,429.795C345.343,425.489 354.274,420.453 362.725,414.76C370.592,409.461 380.515,408.247 389.344,411.712L425.824,426.03C438.124,430.858 452.114,426.146 458.987,414.862L490.285,363.475C497.158,352.19 494.926,337.598 484.994,328.884L455.729,303.209C448.62,296.973 444.899,287.66 445.993,278.267C446.844,270.962 447.284,263.532 447.284,256C447.284,248.467 446.843,241.038 445.993,233.733C444.899,224.34 448.62,215.027 455.729,208.791L460.758,204.379L381.151,124.771C365.514,107.267 342.785,98.284 317.474,98.284L242.761,98.284C223.4,98.284 205.538,104.742 191.215,115.616C183.327,111.292 174.264,108.835 164.635,108.835C149.321,108.835 135.968,114.532 126.443,124.057C116.918,133.57 111.221,146.924 111.221,162.238L111.221,211.478C111.221,228.441 118.844,243.617 130.848,253.787C121.184,257.708 114.381,267.187 114.381,278.257L114.381,301.689C114.381,310.742 116.872,318.722 123.814,323.473C125.647,326.159 141.687,342.2 144.374,344.045C144.536,344.276 146.761,344.518 146.934,344.749C153.714,359.382 161.245,372.436 172.938,383.253L298.606,508.922C305.926,505.113 311.372,498.078 312.873,489.487Z" style="fill:url(#_Linear4);fill-rule:nonzero;"/>
        <g>
            <g>
                <path d="M112.326,301.691L112.326,278.252C112.326,263.671 124.146,251.851 138.727,251.851C153.308,251.851 165.128,263.671 165.128,278.252L165.128,301.691C165.128,316.272 153.308,328.093 138.727,328.093C124.146,328.093 112.326,316.272 112.326,301.691Z" style="fill:url(#_Linear5);fill-rule:nonzero;"/>
                <path d="M346.871,301.691L346.871,278.252C346.871,263.671 358.691,251.851 373.272,251.851C387.853,251.851 399.673,263.671 399.673,278.252L399.673,301.691C399.673,316.272 387.853,328.093 373.272,328.093C358.691,328.093 346.871,316.272 346.871,301.691Z" style="fill:url(#_Linear6);fill-rule:nonzero;"/>
            </g>
            <path d="M256,415.761C188.372,415.761 133.549,360.938 133.549,293.31L133.549,245.551C133.549,177.923 188.372,123.1 256,123.1C323.628,123.1 378.451,177.923 378.451,245.551L378.451,293.31C378.451,360.938 323.628,415.761 256,415.761Z" style="fill:url(#_Linear7);fill-rule:nonzero;"/>
            <path d="M256,123.101C188.372,123.101 133.549,177.924 133.549,245.552L133.549,257.411L287.738,411.6C339.979,397.618 378.451,349.961 378.451,293.311L378.451,245.552C378.451,177.924 323.628,123.101 256,123.101Z" style="fill:url(#_Linear8);fill-rule:nonzero;"/>
            <g>
                <path d="M317.478,96.239L242.763,96.239C223.398,96.239 205.541,102.693 191.219,113.562C183.325,109.241 174.267,106.781 164.633,106.781C134.004,106.781 109.174,131.611 109.174,162.24L109.174,211.476C109.174,242.105 134.004,266.935 164.633,266.935C177.656,266.935 189.621,262.434 199.084,254.92C211.863,262.548 226.799,266.935 242.762,266.935L317.477,266.935C364.613,266.935 402.826,228.723 402.826,181.586C402.826,134.45 364.614,96.239 317.478,96.239Z" style="fill:url(#_Linear9);fill-rule:nonzero;"/>
                <path d="M157.414,181.586C157.414,153.816 170.681,129.146 191.218,113.561C183.324,109.24 174.266,106.78 164.632,106.78C134.003,106.78 109.173,131.61 109.173,162.239L109.173,211.475C109.173,242.104 134.003,266.934 164.632,266.934C177.655,266.934 189.62,262.433 199.083,254.919C174.13,240.025 157.414,212.76 157.414,181.586Z" style="fill:url(#_Linear10);fill-rule:nonzero;"/>
            </g>
            <g>
                <g>
                    <g>
                        <path d="M219.473,314.396C219.473,324.139 211.575,332.037 201.831,332.037C192.088,332.037 184.19,324.139 184.19,314.396C184.19,304.653 192.088,296.754 201.831,296.754C211.574,296.755 219.473,304.653 219.473,314.396Z" style="fill:url(#_Linear11);fill-rule:nonzero;"/>
                        <path d="M209.723,298.615C210.913,300.99 211.583,303.67 211.583,306.507C211.583,316.25 203.685,324.148 193.943,324.148C191.106,324.148 188.426,323.478 186.051,322.288C188.947,328.069 194.925,332.038 201.831,332.038C211.574,332.038 219.473,324.14 219.473,314.397C219.473,307.49 215.504,301.512 209.723,298.615Z" style="fill:url(#_Linear12);fill-rule:nonzero;"/>
                    </g>
                </g>
                <g>
                    <g>
                        <path d="M327.81,314.396C327.81,324.139 319.912,332.037 310.168,332.037C300.425,332.037 292.527,324.139 292.527,314.396C292.527,304.653 300.425,296.754 310.168,296.754C319.911,296.755 327.81,304.653 327.81,314.396Z" style="fill:url(#_Linear13);fill-rule:nonzero;"/>
                        <path d="M318.059,298.615C319.249,300.99 319.92,303.67 319.92,306.507C319.92,316.25 312.021,324.148 302.279,324.148C299.442,324.148 296.762,323.478 294.387,322.288C297.283,328.069 303.262,332.038 310.168,332.038C319.911,332.038 327.81,324.14 327.81,314.397C327.81,307.49 323.84,301.512 318.059,298.615Z" style="fill:url(#_Linear14);fill-rule:nonzero;"/>
                    </g>
                </g>
            </g>
            <ellipse cx="256" cy="337.042" rx="15.825" ry="13.627" style="fill:url(#_Linear15);"/>
        </g>
    </g>
    <defs>
        <linearGradient id="_Linear1" x1="0" y1="0" x2="1" y2="0" gradientUnits="userSpaceOnUse" gradientTransform="matrix(157.373,157.373,-157.373,157.373,151.22,151.22)"><stop offset="0" style="stop-color:rgb(47,115,160);stop-opacity:1"/><stop offset="1" style="stop-color:rgb(23,68,97);stop-opacity:1"/></linearGradient>
        <linearGradient id="_Linear2" x1="0" y1="0" x2="1" y2="0" gradientUnits="userSpaceOnUse" gradientTransform="matrix(270.159,270.159,-270.159,270.159,126.898,126.898)"><stop offset="0" style="stop-color:rgb(122,203,255);stop-opacity:1"/><stop offset="1" style="stop-color:rgb(69,162,224);stop-opacity:1"/></linearGradient>
        <linearGradient id="_Linear3" x1="0" y1="0" x2="1" y2="0" gradientUnits="userSpaceOnUse" gradientTransform="matrix(-367.097,-367.097,367.097,-367.097,432.484,432.484)"><stop offset="0" style="stop-color:rgb(122,203,255);stop-opacity:1"/><stop offset="1" style="stop-color:rgb(69,162,224);stop-opacity:1"/></linearGradient>
        <linearGradient id="_Linear4" x1="0" y1="0" x2="1" y2="0" gradientUnits="userSpaceOnUse" gradientTransform="matrix(-151.448,-83.7953,83.7953,-151.448,419.217,358.333)"><stop offset="0" style="stop-color:rgb(47,115,160);stop-opacity:0"/><stop offset="1" style="stop-color:rgb(47,115,160);stop-opacity:1"/></linearGradient>
        <linearGradient id="_Linear5" x1="0" y1="0" x2="1" y2="0" gradientUnits="userSpaceOnUse" gradientTransform="matrix(29.1007,65.2649,-65.2649,29.1007,130.881,272.376)"><stop offset="0" style="stop-color:rgb(255,222,207);stop-opacity:1"/><stop offset="1" style="stop-color:rgb(250,166,142);stop-opacity:1"/></linearGradient>
        <linearGradient id="_Linear6" x1="0" y1="0" x2="1" y2="0" gradientUnits="userSpaceOnUse" gradientTransform="matrix(29.1007,65.2649,-65.2649,29.1007,365.427,272.376)"><stop offset="0" style="stop-color:rgb(255,222,207);stop-opacity:1"/><stop offset="1" style="stop-color:rgb(250,166,142);stop-opacity:1"/></linearGradient>
        <linearGradient id="_Linear7" x1="0" y1="0" x2="1" y2="0" gradientUnits="userSpaceOnUse" gradientTransform="matrix(124.741,124.742,-124.742,124.741,248.343,261.774)"><stop offset="0" style="stop-color:rgb(255,222,207);stop-opacity:1"/><stop offset="1" style="stop-color:rgb(250,166,142);stop-opacity:1"/></linearGradient>
        <linearGradient id="_Linear8" x1="0" y1="0" x2="1" y2="0" gradientUnits="userSpaceOnUse" gradientTransform="matrix(-26.5457,-144.978,144.978,-26.5457,267.487,308.598)"><stop offset="0" style="stop-color:rgb(255,147,86);stop-opacity:0"/><stop offset="1" style="stop-color:rgb(255,65,129);stop-opacity:1"/></linearGradient>
        <linearGradient id="_Linear9" x1="0" y1="0" x2="1" y2="0" gradientUnits="userSpaceOnUse" gradientTransform="matrix(65.0862,176.117,-176.117,65.0862,237.548,143.916)"><stop offset="0" style="stop-color:rgb(90,117,135);stop-opacity:1"/><stop offset="1" style="stop-color:rgb(9,42,64);stop-opacity:1"/></linearGradient>
        <linearGradient id="_Linear10" x1="0" y1="0" x2="1" y2="0" gradientUnits="userSpaceOnUse" gradientTransform="matrix(79.6351,66.6182,-66.6182,79.6351,170.702,192.628)"><stop offset="0" style="stop-color:rgb(9,42,64);stop-opacity:0"/><stop offset="1" style="stop-color:rgb(9,42,64);stop-opacity:1"/></linearGradient>
        <linearGradient id="_Linear11" x1="0" y1="0" x2="1" y2="0" gradientUnits="userSpaceOnUse" gradientTransform="matrix(22.8483,22.8483,-22.8483,22.8483,195.232,307.795)"><stop offset="0" style="stop-color:rgb(90,117,135);stop-opacity:1"/><stop offset="1" style="stop-color:rgb(9,42,64);stop-opacity:1"/></linearGradient>
        <linearGradient id="_Linear12" x1="0" y1="0" x2="1" y2="0" gradientUnits="userSpaceOnUse" gradientTransform="matrix(24.2487,-45.1002,45.1002,24.2487,202.445,321.158)"><stop offset="0" style="stop-color:rgb(9,42,64);stop-opacity:0"/><stop offset="1" style="stop-color:rgb(9,42,64);stop-opacity:1"/></linearGradient>
        <linearGradient id="_Linear13" x1="0" y1="0" x2="1" y2="0" gradientUnits="userSpaceOnUse" gradientTransform="matrix(22.8483,22.8483,-22.8483,22.8483,303.568,307.795)"><stop offset="0" style="stop-color:rgb(90,117,135);stop-opacity:1"/><stop offset="1" style="stop-color:rgb(9,42,64);stop-opacity:1"/></linearGradient>
        <linearGradient id="_Linear14" x1="0" y1="0" x2="1" y2="0" gradientUnits="userSpaceOnUse" gradientTransform="matrix(24.2487,-45.1002,45.1002,24.2487,310.781,321.158)"><stop offset="0" style="stop-color:rgb(9,42,64);stop-opacity:0"/><stop offset="1" style="stop-color:rgb(9,42,64);stop-opacity:1"/></linearGradient>
        <linearGradient id="_Linear15" x1="0" y1="0" x2="1" y2="0" gradientUnits="userSpaceOnUse" gradientTransform="matrix(2.64965e-15,-43.272,43.272,2.64965e-15,256,342.562)"><stop offset="0" style="stop-color:rgb(255,147,86);stop-opacity:0"/><stop offset="1" style="stop-color:rgb(255,65,129);stop-opacity:1"/></linearGradient>
    </defs>
</svg>
