<?xml version="1.0" encoding="UTF-8" standalone="no"?>
<!DOCTYPE svg PUBLIC "-//W3C//DTD SVG 1.1//EN" "http://www.w3.org/Graphics/SVG/1.1/DTD/svg11.dtd">
<svg width="100%" height="100%" viewBox="0 0 131 20" version="1.1" xmlns="http://www.w3.org/2000/svg" xmlns:xlink="http://www.w3.org/1999/xlink" xml:space="preserve" xmlns:serif="http://www.serif.com/" style="fill-rule:evenodd;clip-rule:evenodd;stroke-linejoin:round;stroke-miterlimit:2;">
    <g transform="matrix(1,0,0,1,-84.7092,-47.5)">
        <g transform="matrix(0.239705,0,0,0.239705,208.687,58.7158)">
            <g id="Layer-1" serif:id="Layer 1">
                <path d="M0,-10.144L0,1.214L7.982,1.214L7.982,12.483C8.007,13.49 7.952,14.576 7.779,15.445C7.462,17.547 5.465,21.126 -0.201,21.126C-5.833,21.126 -7.794,17.547 -8.134,15.445C-8.277,14.576 -8.338,13.49 -8.338,12.483L-8.338,-23.11C-8.338,-24.369 -8.253,-25.747 -7.986,-26.79C-7.599,-28.687 -5.918,-32.428 -0.243,-32.428C5.714,-32.428 7.201,-28.484 7.542,-26.79C7.766,-25.668 7.779,-23.786 7.779,-23.786L7.779,-19.464L27.392,-19.464L27.392,-22.019C27.392,-22.019 27.481,-24.685 27.243,-27.173C25.769,-41.782 13.732,-46.404 -0.07,-46.404C-13.897,-46.404 -25.69,-41.739 -27.408,-27.173C-27.563,-25.841 -27.8,-23.445 -27.8,-22.019L-27.8,10.723C-27.8,12.149 -27.754,13.253 -27.49,15.859C-26.21,30.066 -13.897,35.102 -0.125,35.102C13.732,35.102 25.96,30.066 27.262,15.859C27.493,13.253 27.517,12.149 27.548,10.723L27.548,-10.144L0,-10.144ZM-135.235,-44.309L-154.931,-44.309L-154.931,13.304C-154.9,14.308 -154.931,15.436 -155.104,16.263C-155.515,18.197 -157.154,21.919 -162.588,21.919C-167.952,21.919 -169.634,18.197 -170.014,16.263C-170.211,15.436 -170.236,14.308 -170.211,13.304L-170.211,-44.309L-189.901,-44.309L-189.901,11.516C-189.926,12.955 -189.813,15.895 -189.728,16.665C-188.369,31.212 -176.904,35.935 -162.588,35.935C-148.244,35.935 -136.786,31.212 -135.402,16.665C-135.293,15.895 -135.15,12.955 -135.235,11.516L-135.235,-44.309ZM-316.205,-44.309L-326.03,16.567L-335.849,-44.309L-367.62,-44.309L-369.305,33.569L-349.841,33.569L-349.314,-38.525L-335.922,33.569L-316.174,33.569L-302.77,-38.525L-302.241,33.569L-282.728,33.569L-284.47,-44.309L-316.205,-44.309ZM-433.836,-44.309L-448.262,33.569L-427.225,33.569L-416.354,-38.525L-405.744,33.569L-384.853,33.569L-399.219,-44.309L-433.836,-44.309ZM-66.401,18.392L-84.741,-44.309L-113.641,-44.309L-113.641,32.757L-94.523,32.757L-95.633,-31.95L-75.937,32.757L-48.22,32.757L-48.22,-44.309L-67.463,-44.309L-66.401,18.392ZM-243.239,-24.041C-243.585,-25.579 -243.485,-27.213 -243.306,-28.067C-242.749,-30.56 -241.074,-33.279 -236.248,-33.279C-231.75,-33.279 -229.113,-30.475 -229.113,-26.267L-229.113,-21.505L-209.913,-21.505L-209.913,-26.933C-209.913,-43.713 -224.957,-46.349 -235.849,-46.349C-249.567,-46.349 -260.77,-41.827 -262.816,-29.201C-263.357,-25.765 -263.491,-22.715 -262.63,-18.823C-259.294,-3.08 -231.887,1.487 -227.909,11.443C-227.207,13.329 -227.408,15.734 -227.766,17.151C-228.362,19.742 -230.105,22.348 -235.272,22.348C-240.118,22.348 -243.035,19.562 -243.035,15.363L-243.041,7.889L-263.707,7.889L-263.707,13.83C-263.707,31.045 -250.223,36.239 -235.7,36.239C-221.791,36.239 -210.303,31.486 -208.46,18.602C-207.581,11.945 -208.244,7.609 -208.597,5.976C-211.817,-10.171 -241.028,-15.028 -243.239,-24.041M-496.512,-24.232C-496.889,-25.802 -496.801,-27.459 -496.591,-28.323C-496.059,-30.804 -494.374,-33.571 -489.463,-33.571C-484.908,-33.571 -482.226,-30.74 -482.226,-26.498L-482.226,-21.678L-462.801,-21.678L-462.801,-27.149C-462.801,-44.09 -478.075,-46.79 -489.086,-46.79C-502.919,-46.79 -514.222,-42.198 -516.29,-29.481C-516.856,-25.99 -516.953,-22.919 -516.135,-18.984C-512.763,-3.062 -485.085,1.542 -481.058,11.617C-480.304,13.49 -480.532,15.895 -480.906,17.367C-481.545,19.985 -483.302,22.628 -488.512,22.628C-493.377,22.628 -496.287,19.794 -496.287,15.537L-496.314,8.043L-517.212,8.043L-517.212,13.998C-517.212,31.41 -503.537,36.646 -488.901,36.646C-474.83,36.646 -463.275,31.851 -461.39,18.818C-460.453,12.1 -461.156,7.728 -461.472,6.07C-464.759,-10.275 -494.295,-15.116 -496.512,-24.232" style="fill:white;fill-rule:nonzero;"/>
            </g>
        </g>
    </g>
</svg>
