<svg aria-hidden="true" style="position: absolute; width: 0; height: 0; overflow: hidden;" version="1.1" xmlns="http://www.w3.org/2000/svg" xmlns:xlink="http://www.w3.org/1999/xlink">
<defs>
<symbol id="icon-menu-hide" viewBox="0 0 32 32">
<path fill="none" stroke="#fff" style="stroke: var(--color1, #fff)" stroke-linejoin="round" stroke-linecap="round" stroke-miterlimit="4" stroke-width="1.3333" d="M12 4h-5.333c-1.473 0-2.667 1.193-2.667 2.667 0 4.617 0 14.049 0 18.667 0 1.473 1.193 2.667 2.667 2.667 2.327 0 5.333 0 5.333 0M18.667 22.667l-6.667-6.667 6.667-6.667M13.6 16h14.4"></path>
</symbol>
<symbol id="icon-star2" viewBox="0 0 32 32">
<path fill="none" stroke="#fff" style="stroke: var(--color1, #fff)" stroke-linejoin="miter" stroke-linecap="round" stroke-miterlimit="11" stroke-width="1.3333" d="M16 3.94l2.993 9.213h9.688l-7.837 5.693 2.993 9.213-7.837-5.693-7.837 5.693 2.993-9.213-7.837-5.693h9.688l2.993-9.213z"></path>
</symbol>
<symbol id="icon-star-text" viewBox="0 0 32 32">
<path stroke-linejoin="round" stroke-linecap="round" stroke-miterlimit="4" stroke-width="1.3333" d="M14.667 4h-6.667c-2.195 0-4 1.805-4 4v12c0 2.195 1.805 4 4 4h2.676v3.257c0 0.407 0.335 0.741 0.741 0.741 0.168 0 0.332-0.057 0.463-0.163l4.796-3.836h7.324c2.195 0 4-1.805 4-4v-2.667"></path>
<path stroke-linejoin="round" stroke-linecap="round" stroke-miterlimit="4" stroke-width="1.3333" d="M22.804 3.411c0.224-0.455 0.689-0.744 1.196-0.744s0.972 0.289 1.196 0.744l0.679 1.375c0.193 0.393 0.569 0.667 1.004 0.729l1.517 0.221c0.652 0.095 1.141 0.66 1.141 1.319 0 0.36-0.145 0.704-0.403 0.955l-1.099 1.072c-0.313 0.305-0.457 0.748-0.383 1.18l0.259 1.511c0.013 0.075 0.020 0.149 0.020 0.225 0 0.731-0.603 1.333-1.333 1.333-0.217 0-0.429-0.053-0.621-0.153l-1.357-0.713c-0.388-0.204-0.852-0.204-1.24 0l-1.357 0.713c-0.192 0.1-0.405 0.153-0.621 0.153-0.731 0-1.333-0.603-1.333-1.333 0-0.076 0.007-0.151 0.020-0.225l0.259-1.511c0.075-0.432-0.069-0.875-0.383-1.18l-1.099-1.072c-0.257-0.251-0.403-0.595-0.403-0.955 0-0.659 0.489-1.224 1.141-1.319l1.519-0.221c0.433-0.063 0.809-0.336 1.003-0.729l0.679-1.375z"></path>
<path stroke-linejoin="round" stroke-linecap="round" stroke-miterlimit="4" stroke-width="1.3333" d="M14.667 12h-5.333"></path>
<path stroke-linejoin="round" stroke-linecap="round" stroke-miterlimit="4" stroke-width="1.3333" d="M9.333 17.333h10.667"></path>
</symbol>
<symbol id="icon-type" viewBox="0 0 32 32">
<path fill="none" stroke="#fff" style="stroke: var(--color1, #fff)" stroke-linejoin="round" stroke-linecap="round" stroke-miterlimit="4" stroke-width="1.0667" d="M5.333 9.333v-4h21.333v4"></path>
<path fill="none" stroke="#fff" style="stroke: var(--color1, #fff)" stroke-linejoin="round" stroke-linecap="round" stroke-miterlimit="4" stroke-width="1.0667" d="M12 26.667h8"></path>
<path fill="none" stroke="#fff" style="stroke: var(--color1, #fff)" stroke-linejoin="round" stroke-linecap="round" stroke-miterlimit="4" stroke-width="1.0667" d="M16 5.333v21.333"></path>
</symbol>
<symbol id="icon-check" viewBox="0 0 32 32">
<path fill="none" stroke="#fff" style="stroke: var(--color1, #fff)" stroke-linejoin="round" stroke-linecap="round" stroke-miterlimit="4" stroke-width="1.3333" d="M10.667 21.333h10.667"></path>
<path fill="none" stroke="#fff" style="stroke: var(--color1, #fff)" stroke-linejoin="round" stroke-linecap="round" stroke-miterlimit="4" stroke-width="1.3333" d="M20.667 10.933l-5.867 5.867-3.467-3.467"></path>
<path fill="none" stroke="#fff" style="stroke: var(--color1, #fff)" stroke-linejoin="round" stroke-linecap="round" stroke-miterlimit="4" stroke-width="1.3333" d="M22.667 28h-13.333c-2.933 0-5.333-2.4-5.333-5.333v-13.333c0-2.933 2.4-5.333 5.333-5.333h13.333c2.933 0 5.333 2.4 5.333 5.333v13.333c0 2.933-2.4 5.333-5.333 5.333z"></path>
</symbol>
<symbol id="icon-check2" viewBox="0 0 32 32">
<path fill="none" stroke="#fff" style="stroke: var(--color1, #fff)" stroke-linejoin="round" stroke-linecap="round" stroke-miterlimit="4" stroke-width="1.3333" d="M16 4c-6.583 0-12 5.417-12 12s5.417 12 12 12c6.583 0 12-5.417 12-12s-5.417-12-12-12z"></path>
<path fill="none" stroke="#fff" style="stroke: var(--color1, #fff)" stroke-linejoin="round" stroke-linecap="round" stroke-miterlimit="4" stroke-width="1.3333" d="M11.253 16.452l2.863 2.863 6.507-6.52"></path>
</symbol>
<symbol id="icon-image-picture-add" viewBox="0 0 32 32">
<path fill="none" stroke="#8592ad" style="stroke: var(--color2, #8592ad)" stroke-linejoin="round" stroke-linecap="round" stroke-miterlimit="4" stroke-width="1.3333" d="M28 17.333v5.333c0 2.925-2.408 5.333-5.333 5.333h-13.333c-2.925 0-5.333-2.408-5.333-5.333v-13.333c0-2.925 2.408-5.333 5.333-5.333h5.333"></path>
<path fill="none" stroke="#8592ad" style="stroke: var(--color2, #8592ad)" stroke-linejoin="round" stroke-linecap="round" stroke-miterlimit="4" stroke-width="1.3333" d="M29.333 8c0 2.946-2.388 5.333-5.333 5.333s-5.333-2.388-5.333-5.333c0-2.946 2.388-5.333 5.333-5.333s5.333 2.388 5.333 5.333z"></path>
<path fill="none" stroke="#8592ad" style="stroke: var(--color2, #8592ad)" stroke-linejoin="round" stroke-linecap="round" stroke-miterlimit="4" stroke-width="1.3333" d="M25.667 8h-3.333"></path>
<path fill="none" stroke="#8592ad" style="stroke: var(--color2, #8592ad)" stroke-linejoin="round" stroke-linecap="round" stroke-miterlimit="4" stroke-width="1.3333" d="M24 6.333v3.333"></path>
<path fill="none" stroke="#8592ad" style="stroke: var(--color2, #8592ad)" stroke-linejoin="round" stroke-linecap="round" stroke-miterlimit="4" stroke-width="1.3333" d="M4 17.335l1.727-1.727c0.603-0.603 1.421-0.941 2.273-0.941s1.671 0.339 2.273 0.941l5.727 5.727"></path>
<path fill="none" stroke="#8592ad" style="stroke: var(--color2, #8592ad)" stroke-linejoin="round" stroke-linecap="round" stroke-miterlimit="4" stroke-width="1.3333" d="M9.339 28l8.392-8.392c1.247-1.247 3.3-1.247 4.547 0l5.252 5.252"></path>
</symbol>
<symbol id="icon-info-doc" viewBox="0 0 32 32">
<path stroke-linejoin="round" stroke-linecap="round" stroke-miterlimit="4" stroke-width="1.3333" d="M10.667 17.333h10.667"></path>
<path stroke-linejoin="round" stroke-linecap="round" stroke-miterlimit="4" stroke-width="1.3333" d="M10.667 22.667h10.667"></path>
<path stroke-linejoin="round" stroke-linecap="round" stroke-miterlimit="4" stroke-width="1.3333" d="M8 4h12.229c0.707 0 1.385 0.281 1.885 0.781l3.771 3.771c0.5 0.5 0.781 1.179 0.781 1.885v14.896c0 1.473-1.193 2.667-2.667 2.667h-16c-1.473 0-2.667-1.193-2.667-2.667v-18.667c0-1.473 1.193-2.667 2.667-2.667z"></path>
<path stroke-linejoin="round" stroke-linecap="round" stroke-miterlimit="4" stroke-width="1.3333" d="M26.667 10.667h-5.333c-0.736 0-1.333-0.597-1.333-1.333v-5.333"></path>
<path stroke-linejoin="round" stroke-linecap="round" stroke-miterlimit="4" stroke-width="1.3333" d="M10.667 12h4"></path>
</symbol>
<symbol id="icon-info-doc2" viewBox="0 0 32 32">
<path stroke-linejoin="round" stroke-linecap="round" stroke-miterlimit="4" stroke-width="1.3333" d="M21.424 28.292c3.68 0 6.667-2.987 6.667-6.667v-10.667c0-3.679-2.987-6.667-6.667-6.667h-10.667c-3.679 0-6.667 2.988-6.667 6.667v10.667c0 3.68 2.988 6.667 6.667 6.667h10.667z"></path>
<path stroke-linejoin="round" stroke-linecap="round" stroke-miterlimit="4" stroke-width="1.3333" d="M22.667 13.333c0 1.473-1.194 2.667-2.667 2.667s-2.667-1.194-2.667-2.667c0-1.473 1.194-2.667 2.667-2.667s2.667 1.194 2.667 2.667z"></path>
<path stroke-linejoin="round" stroke-linecap="round" stroke-miterlimit="4" stroke-width="1.3333" d="M13.333 10.667h-4"></path>
<path stroke-linejoin="round" stroke-linecap="round" stroke-miterlimit="4" stroke-width="1.3333" d="M13.333 16h-4"></path>
<path stroke-linejoin="round" stroke-linecap="round" stroke-miterlimit="4" stroke-width="1.3333" d="M22.667 21.333h-13.333"></path>
</symbol>
<symbol id="icon-profile" viewBox="0 0 32 32">
<path fill="none" stroke="#fff" style="stroke: var(--color1, #fff)" stroke-linejoin="round" stroke-linecap="round" stroke-miterlimit="1.5" stroke-width="1.3333" d="M20.027 18.667c2.621 1.927 5.641 1.023 6.667 2.667 1.663 2.667 1.333 5.333 1.333 5.333s-5.044 2.667-12.013 2.667c-6.969 0-12.013-2.667-12.013-2.667s-0.329-2.667 1.333-5.333c1.025-1.644 4.045-0.74 6.667-2.667"></path>
<path fill="none" stroke="#fff" style="stroke: var(--color1, #fff)" stroke-linejoin="round" stroke-linecap="round" stroke-miterlimit="1.5" stroke-width="1.3333" d="M16 16.289c6.033 0 8.024-13.576 0.013-13.623-7.983 0-6.020 13.623-0.013 13.623z"></path>
</symbol>
<symbol id="icon-shopping-cart" viewBox="0 0 32 32">
<path fill="none" stroke="#fff" style="stroke: var(--color1, #fff)" stroke-linejoin="round" stroke-linecap="round" stroke-miterlimit="4" stroke-width="1.0667" d="M14.667 27.333c0 0.736-0.597 1.333-1.333 1.333s-1.333-0.597-1.333-1.333c0-0.736 0.597-1.333 1.333-1.333s1.333 0.597 1.333 1.333z"></path>
<path fill="none" stroke="#fff" style="stroke: var(--color1, #fff)" stroke-linejoin="round" stroke-linecap="round" stroke-miterlimit="4" stroke-width="1.0667" d="M25.333 27.333c0 0.736-0.597 1.333-1.333 1.333s-1.333-0.597-1.333-1.333c0-0.736 0.597-1.333 1.333-1.333s1.333 0.597 1.333 1.333z"></path>
<path fill="none" stroke="#fff" style="stroke: var(--color1, #fff)" stroke-linejoin="round" stroke-linecap="round" stroke-miterlimit="4" stroke-width="1.0667" d="M3.333 3.333h4l3.6 16.533c0.257 1.226 1.329 2.134 2.613 2.134 0.019 0 0.038-0 0.057-0.001l-0.003 0h10.267c0.016 0 0.035 0.001 0.054 0.001 1.284 0 2.356-0.908 2.61-2.117l0.003-0.017 2.133-11.2h-19.2"></path>
</symbol>
<symbol id="icon-sliders" viewBox="0 0 32 32">
<path fill="none" stroke="#fff" style="stroke: var(--color1, #fff)" stroke-linejoin="round" stroke-linecap="round" stroke-miterlimit="1.5" stroke-width="1.3333" d="M28 6.667c0-0.707-0.281-1.385-0.781-1.885s-1.179-0.781-1.885-0.781h-18.667c-0.707 0-1.385 0.281-1.885 0.781s-0.781 1.179-0.781 1.885v18.667c0 0.707 0.281 1.385 0.781 1.885s1.179 0.781 1.885 0.781h18.667c0.707 0 1.385-0.281 1.885-0.781s0.781-1.179 0.781-1.885v-18.667z"></path>
<path fill="none" stroke="#fff" style="stroke: var(--color1, #fff)" stroke-linejoin="round" stroke-linecap="round" stroke-miterlimit="1.5" stroke-width="1.3333" d="M16 10.667v4"></path>
<path fill="none" stroke="#fff" style="stroke: var(--color1, #fff)" stroke-linejoin="round" stroke-linecap="round" stroke-miterlimit="1.5" stroke-width="1.3333" d="M21.333 10.667v10.667"></path>
<path fill="none" stroke="#fff" style="stroke: var(--color1, #fff)" stroke-linejoin="round" stroke-linecap="round" stroke-miterlimit="1.5" stroke-width="1.3333" d="M10.667 10.667v6.667"></path>
</symbol>

<symbol id="icon-heart" viewBox="0 0 32 32">
<path fill="none" stroke="#fff" style="stroke: var(--color1, #fff)" stroke-linejoin="round" stroke-linecap="round" stroke-miterlimit="4" stroke-width="1.8182" d="M28.787 4.527c-1.5-1.501-3.536-2.345-5.658-2.345-2.122 0-4.159 0.844-5.659 2.345l-1.542 1.542-1.542-1.543c-1.5-1.5-3.536-2.344-5.658-2.344-4.39 0-8.002 3.613-8.002 8.002 0 2.121 0.844 4.158 2.344 5.659l12.858 12.858 12.858-12.859c1.501-1.499 2.345-3.536 2.345-5.658s-0.844-4.159-2.345-5.659z"></path>
</symbol>
<symbol id="icon-map-marker" viewBox="0 0 32 32">
<path fill="none" stroke="#fff" style="stroke: var(--color1, #fff)" stroke-linejoin="round" stroke-linecap="round" stroke-miterlimit="4" stroke-width="1.3333" d="M20 13.333c0 2.209-1.791 4-4 4s-4-1.791-4-4c0-2.209 1.791-4 4-4s4 1.791 4 4z"></path>
<path fill="none" stroke="#fff" style="stroke: var(--color1, #fff)" stroke-linejoin="round" stroke-linecap="round" stroke-miterlimit="4" stroke-width="1.3333" d="M16 28.933c7.067-6.267 10.667-11.6 10.667-15.6 0-5.852-4.815-10.667-10.667-10.667s-10.667 4.815-10.667 10.667c0 4 3.6 9.2 10.667 15.6z"></path>
</symbol>
<symbol id="icon-shopping-cart" viewBox="0 0 32 32">
<path fill="none" stroke="#fff" style="stroke: var(--color1, #fff)" stroke-linejoin="round" stroke-linecap="round" stroke-miterlimit="4" stroke-width="1.6667" d="M14.667 27.333c0 0.736-0.597 1.333-1.333 1.333s-1.333-0.597-1.333-1.333c0-0.736 0.597-1.333 1.333-1.333s1.333 0.597 1.333 1.333z"></path>
<path fill="none" stroke="#fff" style="stroke: var(--color1, #fff)" stroke-linejoin="round" stroke-linecap="round" stroke-miterlimit="4" stroke-width="1.6667" d="M25.333 27.333c0 0.736-0.597 1.333-1.333 1.333s-1.333-0.597-1.333-1.333c0-0.736 0.597-1.333 1.333-1.333s1.333 0.597 1.333 1.333z"></path>
<path fill="none" stroke="#fff" style="stroke: var(--color1, #fff)" stroke-linejoin="round" stroke-linecap="round" stroke-miterlimit="4" stroke-width="1.6667" d="M3.333 3.333h4l3.6 16.533c0.256 1.257 1.385 2.159 2.667 2.133h10.267c1.282 0.026 2.411-0.877 2.667-2.133l2.133-11.2h-19.2"></path>
</symbol>
<symbol id="icon-sliders1" viewBox="0 0 32 32">
<path fill="none" stroke="#fff" style="stroke: var(--color1, #fff)" stroke-linejoin="round" stroke-linecap="round" stroke-miterlimit="1.5" stroke-width="0.9333" d="M28 6.667c0-0.707-0.281-1.386-0.781-1.886-0.5-0.499-1.178-0.781-1.885-0.781h-18.668c-0.707 0-1.385 0.282-1.885 0.781-0.5 0.501-0.781 1.179-0.781 1.886v18.666c0 0.707 0.281 1.386 0.781 1.886 0.5 0.499 1.178 0.781 1.885 0.781h18.668c0.707 0 1.385-0.282 1.885-0.781 0.5-0.501 0.781-1.179 0.781-1.886v-18.666z"></path>
<path fill="none" stroke="#fff" style="stroke: var(--color1, #fff)" stroke-linejoin="round" stroke-linecap="round" stroke-miterlimit="1.5" stroke-width="1.5067" d="M16 10.667v4"></path>
<path fill="none" stroke="#fff" style="stroke: var(--color1, #fff)" stroke-linejoin="round" stroke-linecap="round" stroke-miterlimit="1.5" stroke-width="0.84" d="M21.333 10.667v10.667"></path>
<path fill="none" stroke="#fff" style="stroke: var(--color1, #fff)" stroke-linejoin="round" stroke-linecap="round" stroke-miterlimit="1.5" stroke-width="1.1733" d="M10.667 10.667v6.667"></path>
</symbol>
<symbol id="icon-star" viewBox="0 0 32 32">
<path fill="none" stroke="#fff" style="stroke: var(--color1, #fff)" stroke-linejoin="round" stroke-linecap="round" stroke-miterlimit="4" stroke-width="1.3333" d="M16 3.32l4.12 8.347 9.213 1.347-6.667 6.493 1.573 9.173-8.24-4.333-8.24 4.333 1.573-9.173-6.667-6.493 9.213-1.347 4.12-8.347z"></path>
</symbol>
<symbol id="icon-close" viewBox="0 0 32 32">
<path fill="none" stroke="#fff" style="stroke: var(--color1, #fff)" stroke-linejoin="round" stroke-linecap="round" stroke-miterlimit="4" stroke-width="1.3333" d="M24 8l-16 16"></path>
<path fill="none" stroke="#fff" style="stroke: var(--color1, #fff)" stroke-linejoin="round" stroke-linecap="round" stroke-miterlimit="4" stroke-width="1.3333" d="M8 8l16 16"></path>
</symbol>
<symbol id="icon-heart1" viewBox="0 0 32 32">
<path fill="none" stroke="#fff" style="stroke: var(--color1, #fff)" stroke-linejoin="round" stroke-linecap="round" stroke-miterlimit="4" stroke-width="1.6667" d="M27.787 6.147c-1.375-1.376-3.242-2.149-5.186-2.149-1.946 0-3.812 0.773-5.187 2.149l-1.413 1.413-1.413-1.414c-1.375-1.375-3.242-2.148-5.186-2.148-4.025 0-7.335 3.312-7.335 7.335 0 1.945 0.773 3.811 2.148 5.187l11.787 11.787 11.787-11.788c1.376-1.374 2.149-3.242 2.149-5.186s-0.773-3.812-2.149-5.187z"></path>
</symbol>
<symbol id="icon-map-marker1" viewBox="0 0 32 32">
<path fill="none" stroke="#fff" style="stroke: var(--color1, #fff)" stroke-linejoin="round" stroke-linecap="round" stroke-miterlimit="4" stroke-width="1.3333" d="M20 13.333c0 2.209-1.791 4-4 4s-4-1.791-4-4c0-2.209 1.791-4 4-4s4 1.791 4 4z"></path>
<path fill="none" stroke="#fff" style="stroke: var(--color1, #fff)" stroke-linejoin="round" stroke-linecap="round" stroke-miterlimit="4" stroke-width="1.3333" d="M16 28.933c7.067-6.267 10.667-11.6 10.667-15.6 0-5.852-4.815-10.667-10.667-10.667s-10.667 4.815-10.667 10.667c0 4 3.6 9.2 10.667 15.6z"></path>
</symbol>
<symbol id="icon-menu-show" viewBox="0 0 32 32">
<path fill="none" stroke="#fff" style="stroke: var(--color1, #fff)" stroke-linejoin="round" stroke-linecap="round" stroke-miterlimit="4" stroke-width="1.3333" d="M12 4h-5.333c-1.473 0-2.667 1.193-2.667 2.667 0 4.617 0 14.049 0 18.667 0 1.473 1.193 2.667 2.667 2.667 2.327 0 5.333 0 5.333 0M18.667 22.667l-6.667-6.667 6.667-6.667M13.6 16h14.4"></path>
</symbol>
<symbol id="icon-menu-show2" viewBox="0 0 32 32">
<path fill="none" stroke="#fff" style="stroke: var(--color1, #fff)" stroke-linejoin="round" stroke-linecap="round" stroke-miterlimit="4" stroke-width="1.3333" d="M6.667 16h18.667"></path>
<path fill="none" stroke="#fff" style="stroke: var(--color1, #fff)" stroke-linejoin="round" stroke-linecap="round" stroke-miterlimit="4" stroke-width="1.3333" d="M6.667 8h18.667"></path>
<path fill="none" stroke="#fff" style="stroke: var(--color1, #fff)" stroke-linejoin="round" stroke-linecap="round" stroke-miterlimit="4" stroke-width="1.3333" d="M6.667 24h18.667"></path>
</symbol>
</defs>
</svg>
