<svg aria-hidden="true" style="position: absolute; width: 0; height: 0; overflow: hidden;" version="1.1" xmlns="http://www.w3.org/2000/svg" xmlns:xlink="http://www.w3.org/1999/xlink">
<defs>
<symbol id="icon-shopping-cart" viewBox="0 0 32 32">
<path fill="none"  stroke-linejoin="round" stroke-linecap="round" stroke-miterlimit="4" stroke-width="1.3333" d="M14.667 27.333c0 0.736-0.597 1.333-1.333 1.333s-1.333-0.597-1.333-1.333c0-0.736 0.597-1.333 1.333-1.333s1.333 0.597 1.333 1.333z"></path>
<path fill="none"  stroke-linejoin="round" stroke-linecap="round" stroke-miterlimit="4" stroke-width="1.3333" d="M25.333 27.333c0 0.736-0.597 1.333-1.333 1.333s-1.333-0.597-1.333-1.333c0-0.736 0.597-1.333 1.333-1.333s1.333 0.597 1.333 1.333z"></path>
<path fill="none"  stroke-linejoin="round" stroke-linecap="round" stroke-miterlimit="4" stroke-width="1.3333" d="M3.333 3.333h4l3.6 16.533c0.256 1.256 1.384 2.159 2.667 2.133h10.267c1.283 0.025 2.411-0.877 2.667-2.133l2.133-11.2h-19.2"></path>
</symbol>
<symbol id="icon-sliders" viewBox="0 0 32 32">
<path fill="none" stroke-linejoin="round" stroke-linecap="round" stroke-miterlimit="1.5" stroke-width="1.3333" d="M28 6.667c0-0.707-0.281-1.385-0.781-1.885s-1.179-0.781-1.885-0.781h-18.667c-0.707 0-1.385 0.281-1.885 0.781s-0.781 1.179-0.781 1.885v18.667c0 0.707 0.281 1.385 0.781 1.885s1.179 0.781 1.885 0.781h18.667c0.707 0 1.385-0.281 1.885-0.781s0.781-1.179 0.781-1.885v-18.667z"></path>
<path fill="none" stroke-linejoin="round" stroke-linecap="round" stroke-miterlimit="1.5" stroke-width="1.3333" d="M16 10.667v4"></path>
<path fill="none" stroke-linejoin="round" stroke-linecap="round" stroke-miterlimit="1.5" stroke-width="1.3333" d="M21.333 10.667v10.667"></path>
<path fill="none" stroke-linejoin="round" stroke-linecap="round" stroke-miterlimit="1.5" stroke-width="1.3333" d="M10.667 10.667v6.667"></path>
</symbol>
<symbol id="icon-star" viewBox="0 0 32 32">
<path fill="none" stroke="#fff" style="stroke: var(--color1, #fff)" stroke-linejoin="miter" stroke-linecap="round" stroke-miterlimit="11" stroke-width="0.8667" d="M16 3.94l2.993 9.212h9.688l-7.838 5.694 2.995 9.214-7.838-5.694-7.838 5.694 2.995-9.214-7.838-5.694h9.688l2.993-9.212z"></path>
</symbol>
<symbol id="icon-close" viewBox="0 0 32 32">
<path fill="none" stroke-linejoin="round" stroke-linecap="round" stroke-miterlimit="4" stroke-width="1.3333" d="M24 8l-16 16"></path>
<path fill="none" stroke-linejoin="round" stroke-linecap="round" stroke-miterlimit="4" stroke-width="1.3333" d="M8 8l16 16"></path>
</symbol>
<symbol id="icon-heart" viewBox="0 0 32 32">
<path fill="none" stroke-linejoin="round" stroke-linecap="round" stroke-miterlimit="4" stroke-width="1.3333" d="M27.787 6.147c-1.375-1.376-3.241-2.149-5.187-2.149s-3.812 0.773-5.187 2.149l-1.413 1.413-1.413-1.413c-1.375-1.375-3.243-2.148-5.187-2.148-4.024 0-7.335 3.311-7.335 7.335 0 1.944 0.773 3.812 2.148 5.187l11.787 11.787 11.787-11.787c1.376-1.375 2.149-3.241 2.149-5.187s-0.773-3.812-2.149-5.187z"></path>
</symbol>

<symbol id="icon-map-marker-2" viewBox="0 0 32 32">
<path fill="none"  stroke-linejoin="round" stroke-linecap="round" stroke-miterlimit="4" stroke-width="1.3333" d="M20 13.333c0 2.209-1.791 4-4 4s-4-1.791-4-4c0-2.209 1.791-4 4-4s4 1.791 4 4z"></path>
<path fill="none"  stroke-linejoin="round" stroke-linecap="round" stroke-miterlimit="4" stroke-width="1.3333" d="M16 28.933c7.067-6.267 10.667-11.6 10.667-15.6 0-5.852-4.815-10.667-10.667-10.667s-10.667 4.815-10.667 10.667c0 4 3.6 9.2 10.667 15.6z"></path>
</symbol>
<symbol id="icon-menu-show" viewBox="0 0 32 32">
<path fill="none" stroke="#fff" style="stroke: var(--color1, #fff)" stroke-linejoin="round" stroke-linecap="round" stroke-miterlimit="4" stroke-width="1.3333" d="M12 4h-5.333c-1.473 0-2.667 1.193-2.667 2.667 0 4.617 0 14.049 0 18.667 0 1.473 1.193 2.667 2.667 2.667 2.327 0 5.333 0 5.333 0M18.667 22.667l-6.667-6.667 6.667-6.667M13.6 16h14.4"></path>
</symbol>
<symbol id="icon-menu-show2" viewBox="0 0 32 32">
<path fill="none" stroke="#fff" style="stroke: var(--color1, #fff)" stroke-linejoin="round" stroke-linecap="round" stroke-miterlimit="4" stroke-width="1.3333" d="M6.667 16h18.667"></path>
<path fill="none" stroke="#fff" style="stroke: var(--color1, #fff)" stroke-linejoin="round" stroke-linecap="round" stroke-miterlimit="4" stroke-width="1.3333" d="M6.667 8h18.667"></path>
<path fill="none" stroke="#fff" style="stroke: var(--color1, #fff)" stroke-linejoin="round" stroke-linecap="round" stroke-miterlimit="4" stroke-width="1.3333" d="M6.667 24h18.667"></path>
</symbol>
<symbol id="icon-profile" viewBox="0 0 32 32">
<path fill="none"  stroke-linejoin="round" stroke-linecap="round" stroke-miterlimit="1.5" stroke-width="1.3333" d="M20.027 18.667c2.621 1.927 5.641 1.023 6.667 2.667 1.663 2.667 1.333 5.333 1.333 5.333s-5.044 2.667-12.013 2.667c-6.969 0-12.013-2.667-12.013-2.667s-0.329-2.667 1.333-5.333c1.025-1.644 4.045-0.74 6.667-2.667"></path>
<path fill="none"  stroke-linejoin="round" stroke-linecap="round" stroke-miterlimit="1.5" stroke-width="1.3333" d="M16 16.289c6.033 0 8.024-13.576 0.013-13.623-7.983 0-6.020 13.623-0.013 13.623z"></path>
</symbol>
<symbol id="icon-review" viewBox="0 0 30 30"  style="stroke:none">
    <g transform="matrix(1,0,0,1,-30,-30)">
        <g id="chat-message-star-text.svg" transform="matrix(1.25,0,0,1.25,45,45)">
            <g transform="matrix(1,0,0,1,-12,-12)">
                <rect x="0" y="0" width="24" height="24" style="fill:none;fill-rule:nonzero;"/>
                <path d="M11,3L6,3C4.354,3 3,4.354 3,6L3,15C3,16.646 4.354,18 6,18L8.007,18L8.007,20.443C8.007,20.748 8.258,20.999 8.563,20.999C8.689,20.999 8.812,20.956 8.91,20.877L12.507,18L18,18C19.646,18 21,16.646 21,15L21,13" style="fill:none;fill-rule:nonzero;stroke:rgb(20,24,31);stroke-width:1px;"/>
                <path d="M17.103,2.558C17.271,2.217 17.62,2 18,2C18.38,2 18.729,2.217 18.897,2.558L19.406,3.589C19.551,3.884 19.833,4.089 20.159,4.136L21.297,4.302C21.786,4.373 22.153,4.797 22.153,5.291C22.153,5.561 22.044,5.819 21.851,6.007L21.027,6.811C20.792,7.04 20.684,7.372 20.74,7.696L20.934,8.829C20.944,8.885 20.949,8.941 20.949,8.998C20.949,9.546 20.497,9.998 19.949,9.998C19.786,9.998 19.627,9.958 19.483,9.883L18.465,9.348C18.174,9.195 17.826,9.195 17.535,9.348L16.517,9.883C16.373,9.958 16.213,9.998 16.051,9.998C15.503,9.998 15.051,9.546 15.051,8.998C15.051,8.941 15.056,8.885 15.066,8.829L15.26,7.696C15.316,7.372 15.208,7.04 14.973,6.811L14.149,6.007C13.956,5.819 13.847,5.561 13.847,5.291C13.847,4.797 14.214,4.373 14.703,4.302L15.842,4.136C16.167,4.089 16.449,3.884 16.594,3.589L17.103,2.558Z" style="fill:none;fill-rule:nonzero;stroke:rgb(20,24,31);stroke-width:1px;"/>
                <path d="M11,9L7,9" style="fill:none;fill-rule:nonzero;stroke:rgb(20,24,31);stroke-width:1px;"/>
                <path d="M7,13L15,13" style="fill:none;fill-rule:nonzero;stroke:rgb(20,24,31);stroke-width:1px;"/>
            </g>
        </g>
    </g>
</symbol>
<symbol id="icon-map-marker" viewBox="0 0 32 32">
<path fill="none" stroke-linejoin="round" stroke-linecap="round" stroke-miterlimit="4" stroke-width="1.3333" d="M20 13.333c0 2.209-1.791 4-4 4s-4-1.791-4-4c0-2.209 1.791-4 4-4s4 1.791 4 4z"></path>
<path fill="none" stroke-linejoin="round" stroke-linecap="round" stroke-miterlimit="4" stroke-width="1.3333" d="M16 28.933c7.067-6.267 10.667-11.6 10.667-15.6 0-5.852-4.815-10.667-10.667-10.667s-10.667 4.815-10.667 10.667c0 4 3.6 9.2 10.667 15.6z"></path>
</symbol>
<symbol id="icon-lightning" viewBox="0 0 32 32">
<path fill="none" stroke="#ff0040" style="stroke: var(--color1, #ff0040)" stroke-linejoin="round" stroke-linecap="round" stroke-miterlimit="4" stroke-width="1.3333" d="M25.097 15.433l-8.015 11.577c-0.735 1.060-2.397 0.541-2.397-0.749v-7.631h-6.7c-1.061 0-1.687-1.192-1.081-2.065l8.015-11.577c0.735-1.060 2.397-0.541 2.397 0.749v7.631h6.7c1.060 0 1.685 1.192 1.081 2.065z"></path>
</symbol>
<symbol id="icon-logout" viewBox="0 0 32 32">
<path stroke-linejoin="round" stroke-linecap="round" stroke-miterlimit="4" stroke-width="1.3333" d="M8 4h16c1.473 0 2.667 1.193 2.667 2.667v18.667c0 1.473-1.193 2.667-2.667 2.667h-16c-1.473 0-2.667-1.193-2.667-2.667v-18.667c0-1.473 1.193-2.667 2.667-2.667z"></path>
<path stroke-linejoin="round" stroke-linecap="round" stroke-miterlimit="4" stroke-width="1.3333" d="M12 14.667v2.667"></path>
<path stroke-linejoin="round" stroke-linecap="round" stroke-miterlimit="4" stroke-width="1.3333" d="M5.333 25.331c0 1.983 2.087 3.272 3.859 2.385l5.333-2.667c0.904-0.453 1.475-1.376 1.475-2.387v-18.663"></path>
</symbol>
<symbol id="icon-review-star-cursor" viewBox="0 0 32 32">
<path fill="none"  stroke-linejoin="round" stroke-linecap="round" stroke-miterlimit="4" stroke-width="1.3333" d="M29.333 16v-8c0-2.925-2.408-5.333-5.333-5.333h-16c-2.925 0-5.333 2.408-5.333 5.333v9.333c0 2.925 2.408 5.333 5.333 5.333h2.667"></path>
<path fill="none"  stroke-linejoin="round" stroke-linecap="round" stroke-miterlimit="4" stroke-width="1.3333" d="M28.913 28l0.399-3.2c0.177-1.413-0.809-2.732-2.216-2.961l-3.096-0.505v-3.333c0-1.097-0.903-2-2-2s-2 0.903-2 2v6l-0.78-0.781c-0.355-0.353-0.835-0.552-1.335-0.552s-0.98 0.199-1.333 0.552c-0.633 0.633-0.732 1.635-0.235 2.38l1.6 2.401"></path>
<path fill="none"  stroke-linejoin="round" stroke-linecap="round" stroke-miterlimit="4" stroke-width="1.3333" d="M11.62 8.651c0.196-0.397 0.603-0.651 1.047-0.651s0.851 0.253 1.047 0.651l0.593 1.203c0.169 0.344 0.499 0.584 0.879 0.639l1.328 0.193c0.571 0.083 0.999 0.577 0.999 1.155 0 0.315-0.128 0.616-0.352 0.835l-0.961 0.937c-0.275 0.268-0.4 0.655-0.336 1.033l0.227 1.321c0.012 0.065 0.017 0.131 0.017 0.197 0 0.64-0.527 1.167-1.167 1.167-0.189 0-0.375-0.045-0.543-0.133l-1.188-0.625c-0.34-0.177-0.745-0.177-1.085 0l-1.188 0.625c-0.168 0.088-0.353 0.133-0.543 0.133-0.64 0-1.167-0.527-1.167-1.167 0-0.067 0.005-0.132 0.017-0.197l0.227-1.321c0.064-0.379-0.061-0.765-0.336-1.033l-0.961-0.937c-0.224-0.219-0.352-0.52-0.352-0.835 0-0.577 0.428-1.072 0.999-1.155l1.328-0.193c0.38-0.055 0.709-0.295 0.879-0.639l0.593-1.203z"></path>
</symbol>
<symbol id="icon-search-lk" viewBox="0 0 32 32">
<path fill="none" stroke-linejoin="round" stroke-linecap="round" stroke-miterlimit="4" stroke-width="1.3333" d="M15.289 19.289c-1.903 0-3.444-1.543-3.444-3.444v-1.112c0-1.903 1.543-3.444 3.444-3.444 1.903 0 3.444 1.543 3.444 3.444v1.111c0 1.903-1.541 3.445-3.444 3.445z"></path>
<path fill="none" stroke-linejoin="round" stroke-linecap="round" stroke-miterlimit="4" stroke-width="1.3333" d="M25.245 15.289c0 5.499-4.457 9.956-9.956 9.956s-9.956-4.457-9.956-9.956c0-5.499 4.457-9.956 9.956-9.956s9.956 4.457 9.956 9.956"></path>
<path fill="none" stroke-linejoin="round" stroke-linecap="round" stroke-miterlimit="4" stroke-width="1.3333" d="M20.667 19.333l-0.933-1.377-1.063-0.731"></path>
<path fill="none" stroke-linejoin="round" stroke-linecap="round" stroke-miterlimit="4" stroke-width="1.3333" d="M8.627 15.293h13.333"></path>
<path fill="none" stroke-linejoin="round" stroke-linecap="round" stroke-miterlimit="4" stroke-width="1.3333" d="M9.912 19.333l0.933-1.377 1.063-0.731"></path>
<path fill="none" stroke-linejoin="round" stroke-linecap="round" stroke-miterlimit="4" stroke-width="1.3333" d="M9.912 11.245l0.933 1.377 1.063 0.731"></path>
<path fill="none" stroke-linejoin="round" stroke-linecap="round" stroke-miterlimit="4" stroke-width="1.3333" d="M20.667 11.245l-0.933 1.377-1.063 0.731"></path>
<path fill="none" stroke-linejoin="round" stroke-linecap="round" stroke-miterlimit="4" stroke-width="1.3333" d="M26.667 26.667l-4.333-4.333"></path>
</symbol>
<symbol id="icon-settings" viewBox="0 0 32 32">
<path stroke-linejoin="round" stroke-linecap="round" stroke-miterlimit="4" stroke-width="1.3333" d="M9.333 19.333h-0.667"></path>
<path stroke-linejoin="round" stroke-linecap="round" stroke-miterlimit="4" stroke-width="1.3333" d="M16.667 19.333h-0.667"></path>
<path stroke-linejoin="round" stroke-linecap="round" stroke-miterlimit="4" stroke-width="1.3333" d="M15.493 22.16l-0.467-0.467"></path>
<path stroke-linejoin="round" stroke-linecap="round" stroke-miterlimit="4" stroke-width="1.3333" d="M9.84 16.507l0.467 0.467"></path>
<path stroke-linejoin="round" stroke-linecap="round" stroke-miterlimit="4" stroke-width="1.3333" d="M12.667 15.333v0.667"></path>
<path stroke-linejoin="round" stroke-linecap="round" stroke-miterlimit="4" stroke-width="1.3333" d="M12.667 23.333v-0.667"></path>
<path stroke-linejoin="round" stroke-linecap="round" stroke-miterlimit="4" stroke-width="1.3333" d="M9.84 22.16l0.467-0.467"></path>
<path stroke-linejoin="round" stroke-linecap="round" stroke-miterlimit="4" stroke-width="1.3333" d="M15.493 16.507l-0.467 0.467"></path>
<path stroke-linejoin="round" stroke-linecap="round" stroke-miterlimit="4" stroke-width="1.3333" d="M14.951 17.049c1.263 1.261 1.263 3.307 0 4.568-1.261 1.263-3.307 1.263-4.568 0-1.263-1.261-1.263-3.307 0-4.568 1.261-1.263 3.307-1.263 4.568 0"></path>
<path stroke-linejoin="round" stroke-linecap="round" stroke-miterlimit="4" stroke-width="1.3333" d="M21.16 14.493l0.4 0.84"></path>
<path stroke-linejoin="round" stroke-linecap="round" stroke-miterlimit="4" stroke-width="1.3333" d="M18.44 8.667l0.4 0.84"></path>
<path stroke-linejoin="round" stroke-linecap="round" stroke-miterlimit="4" stroke-width="1.3333" d="M21.56 8.667l-0.4 0.84"></path>
<path stroke-linejoin="round" stroke-linecap="round" stroke-miterlimit="4" stroke-width="1.3333" d="M18.84 14.493l-0.4 0.84"></path>
<path stroke-linejoin="round" stroke-linecap="round" stroke-miterlimit="4" stroke-width="1.3333" d="M23.333 10.44l-0.84 0.4"></path>
<path stroke-linejoin="round" stroke-linecap="round" stroke-miterlimit="4" stroke-width="1.3333" d="M16.667 13.56l0.84-0.4"></path>
<path stroke-linejoin="round" stroke-linecap="round" stroke-miterlimit="4" stroke-width="1.3333" d="M23.333 13.56l-0.84-0.4"></path>
<path stroke-linejoin="round" stroke-linecap="round" stroke-miterlimit="4" stroke-width="1.3333" d="M17.507 10.84l-0.84-0.4"></path>
<path stroke-linejoin="round" stroke-linecap="round" stroke-miterlimit="4" stroke-width="1.3333" d="M21.951 10.049c1.077 1.077 1.077 2.824 0 3.901s-2.824 1.077-3.901 0c-1.077-1.077-1.077-2.824 0-3.901s2.824-1.077 3.901 0"></path>
<path stroke-linejoin="round" stroke-linecap="round" stroke-miterlimit="4" stroke-width="1.3333" d="M20.441 27.981h-8.883c-4.175 0-7.559-3.384-7.559-7.559v-8.883c0-4.175 3.384-7.559 7.559-7.559h8.881c4.176 0 7.56 3.384 7.56 7.559v8.881c0 4.176-3.384 7.56-7.559 7.56z"></path>
</symbol>
<symbol id="icon-shop-cart-3" viewBox="0 0 32 32">
<path stroke-linejoin="round" stroke-linecap="round" stroke-miterlimit="4" stroke-width="1.3333" d="M24.667 28h-16c-1.473 0-2.667-1.193-2.667-2.667v-14c0-1.104 0.896-2 2-2h17.333c1.104 0 2 0.896 2 2v14c0 1.473-1.193 2.667-2.667 2.667z"></path>
<path stroke-linejoin="round" stroke-linecap="round" stroke-miterlimit="4" stroke-width="1.3333" d="M21.999 13.733c-0.184 0-0.333 0.149-0.332 0.333 0 0.184 0.149 0.333 0.333 0.333s0.333-0.149 0.333-0.333c0-0.184-0.149-0.333-0.335-0.333"></path>
<path stroke-linejoin="round" stroke-linecap="round" stroke-miterlimit="4" stroke-width="1.3333" d="M11.332 13.733c-0.184 0-0.333 0.149-0.332 0.333 0 0.184 0.149 0.333 0.333 0.333s0.333-0.149 0.333-0.333c0-0.184-0.149-0.333-0.335-0.333"></path>
<path stroke-linejoin="round" stroke-linecap="round" stroke-miterlimit="4" stroke-width="1.3333" d="M11.333 9.333v-0.333c0-2.761 2.239-5 5-5h0.667c2.761 0 5 2.239 5 5v0.333"></path>
</symbol>
<symbol id="icon-shop-cart-4" viewBox="0 0 32 32">
<path fill="none" stroke-linejoin="round" stroke-linecap="round" stroke-miterlimit="4" stroke-width="1.3333" d="M10.667 4l-2.813 5.036"></path>
<path fill="none" stroke-linejoin="round" stroke-linecap="round" stroke-miterlimit="4" stroke-width="1.3333" d="M20 4l3.067 5.036"></path>
<path fill="none" stroke-linejoin="round" stroke-linecap="round" stroke-miterlimit="4" stroke-width="1.3333" d="M21.333 28c-3.681 0-6.667-2.985-6.667-6.667s2.985-6.667 6.667-6.667c3.683 0 6.667 2.985 6.667 6.667s-2.984 6.667-6.667 6.667"></path>
<path fill="none" stroke-linejoin="round" stroke-linecap="round" stroke-miterlimit="4" stroke-width="1.3333" d="M24.296 19.852l-3.704 3.704-2.221-2.223"></path>
<path fill="none" stroke-linejoin="round" stroke-linecap="round" stroke-miterlimit="4" stroke-width="1.3333" d="M25.921 16.5l0.937-4.328c0.349-1.612-0.876-3.136-2.528-3.136h-17.744c-1.648 0-2.876 1.524-2.528 3.136l1.961 9.056c0.256 1.191 1.309 2.039 2.528 2.039h6.405"></path>
</symbol>
<symbol id="icon-text-item-list" viewBox="0 0 32 32">
<path fill="none"  stroke-linejoin="round" stroke-linecap="round" stroke-miterlimit="4" stroke-width="1.3333" d="M13.333 4.667h-6.667c-1.473 0-2.667 1.193-2.667 2.667v6.667c0 1.473 1.193 2.667 2.667 2.667h6.667c1.473 0 2.667-1.193 2.667-2.667v-6.668c0-1.472-1.193-2.665-2.667-2.665z"></path>
<path fill="none"  stroke-linejoin="round" stroke-linecap="round" stroke-miterlimit="4" stroke-width="1.3333" d="M8 8.827h4"></path>
<path fill="none"  stroke-linejoin="round" stroke-linecap="round" stroke-miterlimit="4" stroke-width="1.3333" d="M10 8.827v3.68"></path>
<path fill="none"  stroke-linejoin="round" stroke-linecap="round" stroke-miterlimit="4" stroke-width="1.3333" d="M28 16h-8"></path>
<path fill="none"  stroke-linejoin="round" stroke-linecap="round" stroke-miterlimit="4" stroke-width="1.3333" d="M28 10.667h-8"></path>
<path fill="none"  stroke-linejoin="round" stroke-linecap="round" stroke-miterlimit="4" stroke-width="1.3333" d="M28 5.333h-8"></path>
<path fill="none"  stroke-linejoin="round" stroke-linecap="round" stroke-miterlimit="4" stroke-width="1.3333" d="M28 26.667h-24"></path>
<path fill="none"  stroke-linejoin="round" stroke-linecap="round" stroke-miterlimit="4" stroke-width="1.3333" d="M28 21.333h-24"></path>
</symbol>
<symbol id="icon-tickets" viewBox="0 0 32 32">
<path stroke-linejoin="round" stroke-linecap="round" stroke-miterlimit="4" stroke-width="1.3333" d="M18.667 24l5.333 4v-4h1.333c1.473 0 2.667-1.193 2.667-2.667v-8c0-1.473-1.193-2.667-2.667-2.667h-10.667c-1.473 0-2.667 1.193-2.667 2.667v8c0 1.473 1.193 2.667 2.667 2.667h4z"></path>
<path stroke-linejoin="round" stroke-linecap="round" stroke-miterlimit="4" stroke-width="1.3333" d="M12 20l-4 2.667v-4h-1.333c-1.473 0-2.667-1.193-2.667-2.667v-8c0-1.473 1.193-2.667 2.667-2.667h12c1.473 0 2.667 1.193 2.667 2.667v2.667"></path>
<path stroke-linejoin="round" stroke-linecap="round" stroke-miterlimit="4" stroke-width="1.3333" d="M16.573 17.287c0.027 0.025 0.027 0.068 0 0.093-0.025 0.027-0.068 0.027-0.093 0-0.027-0.025-0.027-0.068 0-0.093 0.025-0.027 0.068-0.027 0.093 0"></path>
<path stroke-linejoin="round" stroke-linecap="round" stroke-miterlimit="4" stroke-width="1.3333" d="M20.047 17.287c0.027 0.025 0.027 0.068 0 0.093-0.025 0.027-0.068 0.027-0.093 0-0.027-0.025-0.027-0.068 0-0.093 0.025-0.027 0.068-0.027 0.093 0"></path>
<path stroke-linejoin="round" stroke-linecap="round" stroke-miterlimit="4" stroke-width="1.3333" d="M23.52 17.287c0.027 0.025 0.027 0.068 0 0.093-0.025 0.027-0.068 0.027-0.093 0-0.027-0.025-0.027-0.068 0-0.093 0.025-0.027 0.068-0.027 0.093 0"></path>
</symbol>
<symbol id="icon-bonus" viewBox="0 0 32 32">
<path stroke-linejoin="round" stroke-linecap="round" stroke-miterlimit="4" stroke-width="1.3333" d="M16.505 21.079c1.255-1.676 2.689-3.208 4.28-4.569l0.027-0.023c0.269-0.231 0.301-0.636 0.071-0.905-0.021-0.025-0.045-0.049-0.071-0.071l-0.027-0.023c-1.591-1.36-3.025-2.893-4.28-4.569-0.209-0.279-0.604-0.336-0.883-0.128-0.049 0.037-0.092 0.080-0.128 0.128-1.255 1.676-2.689 3.209-4.28 4.569l-0.027 0.023c-0.269 0.231-0.301 0.636-0.071 0.905 0.021 0.025 0.045 0.049 0.071 0.071l0.027 0.023c1.591 1.361 3.025 2.893 4.28 4.569 0.209 0.28 0.604 0.336 0.884 0.128 0.048-0.036 0.091-0.079 0.127-0.128v0z"></path>
<path stroke-linejoin="round" stroke-linecap="round" stroke-miterlimit="4" stroke-width="1.3333" d="M24.485 7.515c4.687 4.687 4.687 12.284 0 16.971s-12.284 4.687-16.971 0c-4.687-4.687-4.687-12.284 0-16.971 0 0 0 0 0 0 4.687-4.687 12.284-4.687 16.971 0"></path>
</symbol>
<symbol id="icon-chat2" viewBox="0 0 32 32">
<path stroke-linejoin="round" stroke-linecap="round" stroke-miterlimit="4" stroke-width="1.3333" d="M14.667 4h-6.667c-2.195 0-4 1.805-4 4v12c0 2.195 1.805 4 4 4h2.676v3.257c0 0.407 0.335 0.741 0.741 0.741 0.168 0 0.332-0.057 0.463-0.163l4.796-3.836h7.324c2.195 0 4-1.805 4-4v-2.667"></path>
<path stroke-linejoin="round" stroke-linecap="round" stroke-miterlimit="4" stroke-width="1.3333" d="M22.804 3.411c0.224-0.455 0.689-0.744 1.196-0.744s0.972 0.289 1.196 0.744l0.679 1.375c0.193 0.393 0.569 0.667 1.004 0.729l1.517 0.221c0.652 0.095 1.141 0.66 1.141 1.319 0 0.36-0.145 0.704-0.403 0.955l-1.099 1.072c-0.313 0.305-0.457 0.748-0.383 1.18l0.259 1.511c0.013 0.075 0.020 0.149 0.020 0.225 0 0.731-0.603 1.333-1.333 1.333-0.217 0-0.429-0.053-0.621-0.153l-1.357-0.713c-0.388-0.204-0.852-0.204-1.24 0l-1.357 0.713c-0.192 0.1-0.405 0.153-0.621 0.153-0.731 0-1.333-0.603-1.333-1.333 0-0.076 0.007-0.151 0.020-0.225l0.259-1.511c0.075-0.432-0.069-0.875-0.383-1.18l-1.099-1.072c-0.257-0.251-0.403-0.595-0.403-0.955 0-0.659 0.489-1.224 1.141-1.319l1.519-0.221c0.433-0.063 0.809-0.336 1.003-0.729l0.679-1.375z"></path>
<path stroke-linejoin="round" stroke-linecap="round" stroke-miterlimit="4" stroke-width="1.3333" d="M14.667 12h-5.333"></path>
<path stroke-linejoin="round" stroke-linecap="round" stroke-miterlimit="4" stroke-width="1.3333" d="M9.333 17.333h10.667"></path>
</symbol>
<symbol id="icon-camera" viewBox="0 0 32 32">
<path fill="none"  stroke-linejoin="round" stroke-linecap="round" stroke-miterlimit="4" stroke-width="1.3333" d="M25.333 9.333l-1.875-2.812c-0.495-0.741-1.328-1.188-2.219-1.188h-5.147c-0.891 0-1.724 0.447-2.219 1.188l-1.875 2.812h-6.667c-1.463 0-2.667 1.204-2.667 2.667v13.333c0 1.463 1.204 2.667 2.667 2.667h21.333c1.463 0 2.667-1.204 2.667-2.667v-13.333c0-1.463-1.204-2.667-2.667-2.667h-1.333z"></path>
<path fill="none"  stroke-linejoin="round" stroke-linecap="round" stroke-miterlimit="4" stroke-width="1.3333" d="M2.667 14.667h4c0.732 0 1.333 0.601 1.333 1.333v6.667c0 0.732-0.601 1.333-1.333 1.333h-4v-9.333z"></path>
<path fill="none"  stroke-linejoin="round" stroke-linecap="round" stroke-miterlimit="4" stroke-width="1.3333" d="M24 18.667c0 2.946-2.388 5.333-5.333 5.333s-5.333-2.388-5.333-5.333c0-2.946 2.388-5.333 5.333-5.333s5.333 2.388 5.333 5.333z"></path>
<path fill="none"  stroke-linejoin="round" stroke-linecap="round" stroke-miterlimit="4" stroke-width="1.3333" d="M17.333 9.333h2.667"></path>
</symbol>
  <symbol version="1.1" xmlns="http://www.w3.org/2000/svg" xmlns:xlink="http://www.w3.org/1999/xlink" xml:space="preserve" xmlnsSerif="http://www.serif.com/" viewBox="0 0 24 24" id="shield">
    <g>
      <path d="M20,11.182c0,4.541 -3.413,8.787 -8,9.818c-4.587,-1.031 -8,-5.277 -8,-9.818l0,-3.567c0,-0.812 0.491,-1.544 1.243,-1.851l5,-2.046c1.126,-0.461 2.388,-0.461 3.514,0l5,2.046c0.752,0.308 1.243,1.039 1.243,1.851l-0,3.567Z"></path>
      <path d="M15.25,10.125l-3.75,3.75l-2.25,-2.25"></path>
    </g>
  </symbol>
  <symbol version="1.1" xmlns="http://www.w3.org/2000/svg" xmlns:xlink="http://www.w3.org/1999/xlink" xml:space="preserve" xmlnsSerif="http://www.serif.com/" viewBox="0 0 24 24" id="truck-2">
    <g>
      <g>
        <path d="M16,18.5l-7.83,0"></path>
        <path d="M18.996,18.5l2,0l-0.01,0c0.55,0 1,-0.45 1,-1l0,-6.12c0,-0.26 -0.05,-0.51 -0.15,-0.75l-1.36,-3.39c-0.31,-0.76 -1.04,-1.26 -1.86,-1.26l-3.65,0"></path>
        <path d="M22,13l-3.51,0c-0.28,-0.01 -0.5,-0.23 -0.5,-0.51l0,-3.501l3.2,0"></path>
        <path d="M18.55,17.44c0.58,0.58 0.58,1.53 0,2.12c-0.59,0.58 -1.54,0.58 -2.13,0c-0.59,-0.59 -0.59,-1.54 -0.01,-2.13l0,-0.02l-0.01,-0c0.58,-0.59 1.53,-0.59 2.12,-0.01"></path>
        <path d="M7.55,17.44c0.58,0.58 0.58,1.53 0,2.12c-0.59,0.58 -1.54,0.58 -2.13,0c-0.59,-0.59 -0.59,-1.54 -0.01,-2.13l0,-0.02l-0.01,-0c0.58,-0.59 1.53,-0.59 2.12,-0"></path>
        <path d="M5,18.5l-2.01,0c-0.56,-0.01 -1,-0.45 -1,-1.01l0,-12.51c-0.01,-0.56 0.44,-1.01 0.99,-1.01l11,0l-0.01,0c0.55,-0.01 1,0.44 1,0.99l0,9"></path>
        <path d="M15,14l-13,0"></path>
      </g>
    </g>
  </symbol>


  <symbol viewBox="0 0 46 50" version="1.1" xmlns="http://www.w3.org/2000/svg" xmlns:xlink="http://www.w3.org/1999/xlink" xml:space="preserve" xmlns:serif="http://www.serif.com/" id="lit-logo">
    <g transform="matrix(1,0,0,1,-60,-557)">
        <g transform="matrix(3.68865,0,0,4.31977,-861.505,-13946.4)">
            <rect x="233.556" y="3228.51"  style="fill:transparent;"/>
        </g>
        <g>
            <g transform="matrix(0.416278,0,0,0.416278,-149.129,357.21)">
                <path d="M514.445,577.237L502.379,570.27L502.379,521.499C502.379,512.876 506.979,504.908 514.447,500.596C523.427,495.411 535.635,488.363 544.617,483.178C552.084,478.866 561.285,478.866 568.753,483.178L608.288,506.004L567.196,530.195C559.166,534.945 554.028,543.937 553.97,553.221C553.938,568.833 553.968,584.444 553.969,600.056L538.885,591.347L538.885,541.394C538.9,533.859 543.068,526.663 549.517,522.885C564.499,514.194 581.473,504.436 581.473,504.436L576.042,501.3L546.877,518.139C538.739,522.86 533.512,531.955 533.454,541.279C533.415,560.075 533.446,570.992 533.453,588.211L519.878,580.373L519.878,530.204C519.893,522.669 524.146,515.423 530.51,511.696C545.43,503.041 562.279,493.354 562.279,493.354C562.279,493.354 560.921,492.57 559.564,491.786C557.883,490.816 555.813,490.816 554.133,491.786C546.928,495.947 527.87,506.949 527.87,506.949C519.719,511.678 514.505,520.768 514.447,530.089C514.411,547.265 514.438,560.949 514.445,577.237Z" style="fill:rgb(255,0,64);"/>
            </g>
            <g transform="matrix(0.416278,0,0,0.416278,-149.129,357.21)">
                <path d="M574.485,591.347L559.4,600.056L559.4,553.335C559.415,545.876 563.535,538.705 569.877,534.919C583.564,526.822 597.285,518.781 610.99,510.714L610.99,570.27L598.922,577.238L598.922,535.217L593.492,538.512L593.492,580.373L579.915,588.211L579.915,546.445C579.915,546.445 578.208,547.453 576.708,548.339C575.33,549.154 574.485,550.635 574.485,552.236L574.485,591.347Z"/>
            </g>
        </g>
    </g>
</symbol>

<symbol id="icon-info" viewBox="0 0 24 24" version="1.1" xmlns="http://www.w3.org/2000/svg" xmlns:xlink="http://www.w3.org/1999/xlink" xml:space="preserve" xmlns:serif="http://www.serif.com/" style="fill-rule:evenodd;clip-rule:evenodd;stroke-linecap:round;stroke-linejoin:round;">
    <circle cx="12" cy="12" r="10" style="fill:none;stroke-width:1px;"/>
    <path d="M12,16L12,12" style="fill:none;fill-rule:nonzero;stroke-width:1px;"/>
    <path d="M12,8L12.01,8" style="fill:none;fill-rule:nonzero;stroke-width:1px;"/>
</symbol>

<symbol id="icon-clock" viewBox="0 0 24 24" version="1.1" xmlns="http://www.w3.org/2000/svg" xmlns:xlink="http://www.w3.org/1999/xlink" xml:space="preserve" xmlns:serif="http://www.serif.com/" style="fill-rule:evenodd;clip-rule:evenodd;stroke-linecap:round;stroke-linejoin:round;">
    <g>
        <path d="M20.932,13.432L20.932,13.432C20.106,18.331 15.466,21.633 10.567,20.807C5.668,19.981 2.366,15.341 3.192,10.442C3.829,6.664 6.789,3.704 10.567,3.067" style="fill:none;fill-rule:nonzero;stroke-width:1px;"/>
        <path d="M20.496,8.799C20.693,9.329 20.839,9.876 20.933,10.433" style="fill:none;fill-rule:nonzero;stroke-width:1px;"/>
        <path d="M19.002,6.197C18.641,5.76 18.24,5.359 17.803,4.998" style="fill:none;fill-rule:nonzero;stroke-width:1px;"/>
        <path d="M15.201,3.505C14.671,3.307 14.124,3.161 13.567,3.067" style="fill:none;fill-rule:nonzero;stroke-width:1px;"/>
        <path d="M16,12.391L11.609,12.391L11.609,7" style="fill:none;fill-rule:nonzero;stroke-width:1px;"/>
    </g>
    <rect x="0" y="0" width="24" height="24" style="fill:none;stroke:none; fill-rule:nonzero;"/>
</symbol>
<symbol id="icon-garanty" viewBox="0 0 32 32">
<path stroke-linejoin="round" stroke-linecap="round" stroke-miterlimit="4" stroke-width="1.3333" d="M26.667 14.909c0 6.055-4.551 11.716-10.667 13.091-6.116-1.375-10.667-7.036-10.667-13.091v-4.756c0-1.083 0.655-2.059 1.657-2.468l6.667-2.728c1.501-0.615 3.184-0.615 4.685 0l6.667 2.728c1.003 0.411 1.657 1.385 1.657 2.468v4.756z"></path>
<path stroke-linejoin="round" stroke-linecap="round" stroke-miterlimit="4" stroke-width="1.3333" d="M19.5 18.332h-7l2.333 2.335"></path>
<path stroke-linejoin="round" stroke-linecap="round" stroke-miterlimit="4" stroke-width="1.3333" d="M17.167 11.333l2.333 2.335h-7"></path>
</symbol>
<symbol id="icon-delivery" viewBox="0 0 32 32">
<path stroke-linejoin="round" stroke-linecap="round" stroke-miterlimit="4" stroke-width="1.3333" d="M24.939 24.395c0.825 0.825 0.825 2.163 0 2.987-0.825 0.825-2.163 0.825-2.987 0-0.825-0.825-0.825-2.163 0-2.987 0.825-0.825 2.163-0.825 2.987 0"></path>
<path stroke-linejoin="round" stroke-linecap="round" stroke-miterlimit="4" stroke-width="1.3333" d="M10.272 24.395c0.825 0.825 0.825 2.163 0 2.987-0.825 0.825-2.163 0.825-2.987 0s-0.825-2.163 0-2.987c0.825-0.824 2.161-0.825 2.987 0"></path>
<path stroke-linejoin="round" stroke-linecap="round" stroke-miterlimit="4" stroke-width="1.3333" d="M13.333 5.333h5.333c0.736 0 1.333 0.597 1.333 1.333v13.333h-17.333"></path>
<path stroke-linejoin="round" stroke-linecap="round" stroke-miterlimit="4" stroke-width="1.3333" d="M6.667 25.888h-2.667c-0.736 0-1.333-0.597-1.333-1.333v-7.221"></path>
<path stroke-linejoin="round" stroke-linecap="round" stroke-miterlimit="4" stroke-width="1.3333" d="M20 9.333h5.764c0.545 0 1.036 0.332 1.237 0.839l2.141 5.352c0.125 0.315 0.191 0.651 0.191 0.989v7.931c0 0.736-0.597 1.333-1.333 1.333h-2.441"></path>
<path stroke-linejoin="round" stroke-linecap="round" stroke-miterlimit="4" stroke-width="1.3333" d="M21.333 25.893h-10.44"></path>
<path stroke-linejoin="round" stroke-linecap="round" stroke-miterlimit="4" stroke-width="1.3333" d="M29.333 18.667h-5.333v-5.333h4.267"></path>
<path stroke-linejoin="round" stroke-linecap="round" stroke-miterlimit="4" stroke-width="1.3333" d="M2.667 5.333h6.667"></path>
<path stroke-linejoin="round" stroke-linecap="round" stroke-miterlimit="4" stroke-width="1.3333" d="M2.667 9.333h4"></path>
<path stroke-linejoin="round" stroke-linecap="round" stroke-miterlimit="4" stroke-width="1.3333" d="M4 13.333h-1.333"></path>
</symbol>
<symbol id="icon-logo-lit" viewBox="0 0 32 32">
<path fill="none"  stroke-linejoin="round" stroke-linecap="round" stroke-miterlimit="4" stroke-width="1.3333" d="M5.333 22.208v-10.115c0-1.424 0.757-2.741 1.988-3.457 2.739-1.595 7.337-4.271 7.337-4.271 0.829-0.483 1.853-0.483 2.683 0l9.325 5.428v12.415l-10.664 6.207-10.669-6.207z"></path>
<path fill="none"  stroke-linejoin="round" stroke-linecap="round" stroke-miterlimit="1.5" stroke-width="1.3333" d="M20 17.54v8.548"></path>
<path fill="none"  stroke-linejoin="round" stroke-linecap="round" stroke-miterlimit="4" stroke-width="1.3333" d="M16 28.413v-10.103c0-1.429 0.763-2.751 2.001-3.465 3.089-1.781 8.665-4.997 8.665-4.997"></path>
<path fill="none"  stroke-linejoin="round" stroke-linecap="round" stroke-miterlimit="1.5" stroke-width="1.3333" d="M23.333 15.616v8.532"></path>
<path fill="none"  stroke-linejoin="round" stroke-linecap="round" stroke-miterlimit="1.5" stroke-width="1.3333" d="M19.335 9.459c0 0-3.163 1.825-5.335 3.080-1.237 0.715-2 2.035-2 3.464 0 3.585 0 10.085 0 10.085"></path>
<path fill="none"  stroke-linejoin="round" stroke-linecap="round" stroke-miterlimit="1.5" stroke-width="1.3333" d="M16.003 7.535c0 0-3.164 1.827-5.336 3.081-1.237 0.715-2 2.035-2 3.464 0 3.581 0 10.068 0 10.068"></path>
</symbol>
<symbol id="icon-favirites" viewBox="0 0 32 32">
<path stroke-linejoin="round" stroke-linecap="round" stroke-miterlimit="4" stroke-width="1.3333" d="M25.333 28h-18.667c-1.473 0-2.667-1.193-2.667-2.667v-18.667c0-1.473 1.193-2.667 2.667-2.667h18.667c1.473 0 2.667 1.193 2.667 2.667v18.667c0 1.473-1.193 2.667-2.667 2.667z"></path>
<path stroke-linejoin="round" stroke-linecap="round" stroke-miterlimit="4" stroke-width="1.3333" d="M15.999 20.567l3.2 1.668c0.623 0.325 1.351-0.2 1.232-0.888l-0.611-3.535 2.589-2.503c0.504-0.488 0.227-1.337-0.471-1.437l-3.577-0.516-1.6-3.219c-0.312-0.627-1.212-0.627-1.523 0l-1.6 3.219-3.577 0.516c-0.696 0.1-0.975 0.951-0.471 1.437l2.589 2.503-0.611 3.535c-0.119 0.688 0.609 1.213 1.232 0.888l3.2-1.668"></path>
</symbol>
<symbol id="icon-news" viewBox="0 0 32 32">
<path stroke-linejoin="round" stroke-linecap="round" stroke-miterlimit="4" stroke-width="1.3333" d="M22.667 10.667l2.673 0.007c1.46 0.003 2.66 1.205 2.66 2.667v11.993c0 1.463-1.204 2.667-2.667 2.667s-2.667-1.204-2.667-2.667v-17.333c0-1.463-1.204-2.667-2.667-2.667h-13.333c-1.463 0-2.667 1.204-2.667 2.667v17.333c0 1.463 1.204 2.667 2.667 2.667h18.667"></path>
<path stroke-linejoin="round" stroke-linecap="round" stroke-miterlimit="4" stroke-width="1.3333" d="M18 22.667h-9.333"></path>
<path stroke-linejoin="round" stroke-linecap="round" stroke-miterlimit="4" stroke-width="1.3333" d="M18 18.667h-9.333"></path>
<path stroke-linejoin="round" stroke-linecap="round" stroke-miterlimit="4" stroke-width="1.3333" d="M18 11.333c0-0.368-0.299-0.667-0.667-0.667h-8c-0.368 0-0.667 0.299-0.667 0.667v2.667c0 0.368 0.299 0.667 0.667 0.667h8c0.368 0 0.667-0.299 0.667-0.667v-2.667z"></path>
</symbol>
<symbol id="icon-inform" viewBox="0 0 32 32">
<path stroke-linejoin="round" stroke-linecap="round" stroke-miterlimit="4" stroke-width="1.3333" d="M10.667 4v17.333"></path>
<path stroke-linejoin="round" stroke-linecap="round" stroke-miterlimit="4" stroke-width="1.3333" d="M25.333 21.333v5.333"></path>
<path stroke-linejoin="round" stroke-linecap="round" stroke-miterlimit="4" stroke-width="1.3333" d="M25.333 4c0.736 0 1.333 0.597 1.333 1.333v14.667c0 0.736-0.597 1.333-1.333 1.333h-17.333c-1.473 0-2.667 1.193-2.667 2.667s1.193 2.667 2.667 2.667"></path>
<path stroke-linejoin="round" stroke-linecap="round" stroke-miterlimit="4" stroke-width="1.3333" d="M8 26.667h8"></path>
<path stroke-linejoin="round" stroke-linecap="round" stroke-miterlimit="4" stroke-width="1.3333" d="M21.333 26.667h5.333"></path>
<path stroke-linejoin="round" stroke-linecap="round" stroke-miterlimit="4" stroke-width="1.3333" d="M16 24.667h5.333v5.333l-2.667-1.333-2.667 1.333v-5.333z"></path>
<path stroke-linejoin="round" stroke-linecap="round" stroke-miterlimit="4" stroke-width="1.3333" d="M5.333 24v-17.333c0-1.473 1.193-2.667 2.667-2.667h17.333"></path>
</symbol>
<symbol id="icon-program" viewBox="0 0 32 32">
<path stroke-linejoin="round" stroke-linecap="round" stroke-miterlimit="4" stroke-width="1.3333" d="M11.599 22.992l4.8-4.8"></path>
<path stroke-linejoin="round" stroke-linecap="round" stroke-miterlimit="4" stroke-width="1.3333" d="M16.616 22.824c0.108 0.108 0.108 0.281 0 0.388-0.108 0.108-0.281 0.108-0.388 0-0.108-0.108-0.108-0.281 0-0.388 0.107-0.107 0.281-0.107 0.388 0"></path>
<path stroke-linejoin="round" stroke-linecap="round" stroke-miterlimit="4" stroke-width="1.3333" d="M11.771 17.973c0.108 0.108 0.108 0.281 0 0.388-0.108 0.108-0.281 0.108-0.388 0s-0.108-0.281 0-0.388c0.108-0.107 0.281-0.108 0.388 0"></path>
<path stroke-linejoin="round" stroke-linecap="round" stroke-miterlimit="4" stroke-width="1.3333" d="M21.333 28h-14.667c-1.473 0-2.667-1.193-2.667-2.667v-9.333c0-1.473 1.193-2.667 2.667-2.667h14.667c1.473 0 2.667 1.193 2.667 2.667v9.333c0 1.473-1.193 2.667-2.667 2.667z"></path>
<path stroke-linejoin="round" stroke-linecap="round" stroke-miterlimit="4" stroke-width="1.3333" d="M8 13.333v-5.333c0-1.473 1.193-2.667 2.667-2.667h14.667c1.473 0 2.667 1.193 2.667 2.667v9.333c0 1.473-1.193 2.667-2.667 2.667h-1.333"></path>
</symbol>
<symbol id="icon-burger-round" viewBox="0 0 24 24" version="1.1"  style="fill-rule:evenodd;clip-rule:evenodd;stroke-linecap:round;stroke-linejoin:round;">
    <g>
        <path d="M8.585,8.965C8.605,8.985 8.605,9.016 8.585,9.036C8.565,9.056 8.534,9.056 8.514,9.036C8.494,9.016 8.494,8.985 8.514,8.965C8.534,8.945 8.566,8.945 8.585,8.965" style="fill:none;fill-rule:nonzero;stroke:rgb(255,0,64);stroke-width:1px;"/>
        <path d="M8.585,11.965C8.605,11.985 8.605,12.016 8.585,12.036C8.565,12.056 8.534,12.056 8.514,12.036C8.494,12.016 8.494,11.985 8.514,11.965C8.534,11.945 8.566,11.945 8.585,11.965" style="fill:none;fill-rule:nonzero;stroke:rgb(255,0,64);stroke-width:1px;"/>
        <path d="M11,12L15.5,12" style="fill:none;fill-rule:nonzero;stroke:rgb(255,0,64);stroke-width:1px;"/>
        <path d="M8.585,14.965C8.605,14.985 8.605,15.016 8.585,15.036C8.565,15.056 8.534,15.056 8.514,15.036C8.494,15.016 8.494,14.985 8.514,14.965C8.534,14.945 8.566,14.945 8.585,14.965" style="fill:none;fill-rule:nonzero;stroke:rgb(255,0,64);stroke-width:1px;"/>
        <path d="M11,15L15.5,15" style="fill:none;fill-rule:nonzero;stroke:rgb(255,0,64);stroke-width:1px;"/>
        <path d="M18.364,5.636C21.879,9.151 21.879,14.849 18.364,18.364C14.849,21.879 9.151,21.879 5.636,18.364C2.121,14.849 2.121,9.151 5.636,5.636C9.151,2.121 14.849,2.121 18.364,5.636" style="fill:none;fill-rule:nonzero;stroke:rgb(255,0,64);stroke-width:1px;"/>
        <path d="M11,9L15.5,9" style="fill:none;fill-rule:nonzero;stroke:rgb(255,0,64);stroke-width:1px;"/>
    </g>
</symbol>
<symbol  id="icon-question" viewBox="0 0 24 24" version="1.1" xmlns="http://www.w3.org/2000/svg" xmlns:xlink="http://www.w3.org/1999/xlink"  style="fill-rule:evenodd;clip-rule:evenodd;stroke-linecap:round;stroke-linejoin:round;">
    <g>
        <path d="M3,11.291C3,13.974 4.42,16.336 6.599,17.825C6.598,18.68 6.6,19.832 6.6,21.041L10.131,19.294C10.735,19.41 11.359,19.473 12,19.473C16.952,19.473 21,15.83 21,11.291C21,6.752 16.952,3.109 12,3.109C7.048,3.109 3,6.752 3,11.291Z" style="fill:none;fill-rule:nonzero;stroke-width:1px;"/>
        <path d="M11.899,12.328L11.899,12.121C11.899,11.443 12.318,11.076 12.738,10.794C13.148,10.518 13.559,10.158 13.559,9.494C13.559,8.577 12.816,7.835 11.9,7.835C10.984,7.835 10.24,8.576 10.24,9.493" style="fill:none;fill-rule:nonzero;stroke-width:1px;"/>
        <path d="M11.898,14.667C11.815,14.667 11.748,14.734 11.749,14.817C11.749,14.9 11.816,14.967 11.899,14.967C11.982,14.967 12.049,14.9 12.049,14.817C12.049,14.734 11.983,14.667 11.898,14.667" style="fill:none;fill-rule:nonzero;stroke-width:1px;"/>
    </g>
</symbol>
<symbol id="icon-avia" viewBox="0 0 24 24" version="1.1" xmlns="http://www.w3.org/2000/svg" xmlns:xlink="http://www.w3.org/1999/xlink" xml:space="preserve" xmlns:serif="http://www.serif.com/" style="fill-rule:evenodd;clip-rule:evenodd;stroke-linecap:round;stroke-linejoin:round;">
    <g>
        <path d="M7,21L12,21" style="fill:none;fill-rule:nonzero;stroke-width:1px;"/>
        <path d="M10,8L14,8" style="fill:none;fill-rule:nonzero;stroke-width:1px;"/>
        <path d="M7,15L12,15" style="fill:none;fill-rule:nonzero;stroke-width:1px;"/>
        <path d="M7,18L12,18" style="fill:none;fill-rule:nonzero;stroke-width:1px;"/>
        <path d="M17,12L7,12L7,21" style="fill:none;fill-rule:nonzero;stroke-width:1px;"/>
        <path d="M12,21L3,21L3,7.889L3,7.889C3,7.163 3.394,6.494 4.029,6.141L11.029,2.252C11.633,1.916 12.367,1.916 12.972,2.252L19.972,6.141C20.606,6.494 21,7.163 21,7.889L21,12" style="fill:none;fill-rule:nonzero;stroke-width:1px;"/>
        <path d="M16,15C16,15 21,15 21,15C21.552,15 22,15.448 22,16L22,21C22,21.552 21.552,22 21,22L16,22C15.448,22 15,21.552 15,21L15,16C15,15.448 15.448,15 16,15Z" style="fill:none;fill-rule:nonzero;stroke-width:1px;"/>
        <path d="M19.691,17.756L18.2,19.243L17.306,18.351" style="fill:none;fill-rule:nonzero;stroke-width:1px;"/>
    </g>
    <rect x="0" y="0" width="24" height="24" style="fill:none;stroke:none;fill-rule:nonzero;"/>
</symbol>
<symbol id="icon-wallet"  viewBox="0 0 24 24" version="1.1" xmlns="http://www.w3.org/2000/svg" xmlns:xlink="http://www.w3.org/1999/xlink" xml:space="preserve" xmlns:serif="http://www.serif.com/" style="fill-rule:evenodd;clip-rule:evenodd;stroke-linecap:round;stroke-linejoin:round;">
    <g>
        <path d="M13.499,13.48C13.361,13.481 13.25,13.593 13.25,13.731C13.25,13.869 13.362,13.981 13.5,13.98C13.638,13.98 13.75,13.868 13.75,13.73C13.75,13.592 13.638,13.48 13.499,13.48" style="fill:none;stroke:rgb(20,24,31);fill-rule:nonzero;stroke-width:1px;"/>
        <path d="M3,6.283L3,6C3,4.343 4.343,3 6,3L18,3C19.657,3 21,4.343 21,6L21,15C21,16.657 19.657,18 18,18L17,18" style="fill:none;fill-rule:nonzero;stroke-width:1px;stroke:rgb(20,24,31);"/>
        <path d="M21,9L17,9" style="fill:none;fill-rule:nonzero;stroke:rgb(20,24,31);stroke-width:1px;"/>
        <path d="M13.325,20.922C15.205,21.356 17,19.928 17,17.999L17,9.387C17,7.99 16.036,6.778 14.675,6.464L5.45,4.335C4.196,4.045 3,4.997 3,6.283L3,16.152C3,17.549 3.964,18.761 5.325,19.075L13.325,20.922Z" style="fill:none;stroke:rgb(20,24,31);fill-rule:nonzero;stroke-width:1px;"/>
    </g>
</symbol>
<symbol id="icon-profile2" viewBox="0 0 24 24" version="1.1" xmlns="http://www.w3.org/2000/svg" xmlns:xlink="http://www.w3.org/1999/xlink" xml:space="preserve" xmlns:serif="http://www.serif.com/" style="fill-rule:evenodd;clip-rule:evenodd;stroke-linecap:round;stroke-linejoin:round;">
    <g>
        <path d="M5,20C5,17.544 6.991,15.553 9.447,15.553L14.553,15.553C17.009,15.553 19,17.544 19,20" style="fill:none;fill-rule:nonzero;stroke:rgb(20,24,31);stroke-width:1px;"/>
        <path d="M15.005,5.245C16.665,6.905 16.665,9.595 15.005,11.255C13.345,12.915 10.655,12.915 8.995,11.255C7.335,9.595 7.335,6.905 8.995,5.245C10.655,3.585 13.345,3.585 15.005,5.245" style="fill:none;fill-rule:nonzero;stroke:rgb(20,24,31);stroke-width:1px;"/>
    </g>
    <rect x="0" y="0" width="24" height="24" style="fill:none;fill-rule:nonzero;"/>
</symbol>

<symbol id="icon-phone2"  viewBox="0 0 24 24" version="1.1" xmlns="http://www.w3.org/2000/svg" xmlns:xlink="http://www.w3.org/1999/xlink" xml:space="preserve" xmlns:serif="http://www.serif.com/" style="fill-rule:evenodd;clip-rule:evenodd;stroke-linecap:round;stroke-linejoin:round;stroke:transparent">
    <path d="M10.856,13.144C9.686,11.974 8.804,10.664 8.218,9.335C8.094,9.054 8.167,8.725 8.384,8.508L9.203,7.69C9.874,7.019 9.874,6.07 9.288,5.484L8.114,4.31C7.333,3.529 6.067,3.529 5.286,4.31L4.634,4.962C3.893,5.703 3.584,6.772 3.784,7.832C4.278,10.445 5.796,13.306 8.245,15.755C10.694,18.204 13.555,19.722 16.168,20.216C17.228,20.416 18.297,20.107 19.038,19.366L19.689,18.715C20.47,17.934 20.47,16.668 19.689,15.887L18.516,14.714C17.93,14.128 16.98,14.128 16.395,14.714L15.492,15.618C15.275,15.835 14.946,15.908 14.665,15.784C13.336,15.197 12.026,14.314 10.856,13.144Z" style="fill:none;fill-rule:nonzero;stroke:rgb(20,24,31);stroke-width:1px;"/>
    <rect x="0" y="0" width="24" height="24" style="fill:none;fill-rule:nonzero;"/>
</symbol>
<symbol id="icon-email" viewBox="0 0 24 24" version="1.1" xmlns="http://www.w3.org/2000/svg" xmlns:xlink="http://www.w3.org/1999/xlink" xml:space="preserve" xmlns:serif="http://www.serif.com/" style="fill-rule:evenodd;clip-rule:evenodd;stroke-linecap:round;stroke-linejoin:round;stroke:transparent">
    <path d="M16,12C16,14.209 14.209,16 12,16C9.791,16 8,14.209 8,12C8,9.791 9.791,8 12,8C14.209,8 16,9.791 16,12L16,13.5C16,14.881 17.119,16 18.5,16C19.881,16 21,14.881 21,13.5L21,12C21,7.029 16.971,3 12,3C7.029,3 3,7.029 3,12C3,16.971 7.029,21 12,21C13.149,21 14.317,20.782 15.444,20.315C16.052,20.063 16.614,19.747 17.133,19.386" style="fill:none;fill-rule:nonzero;stroke:rgb(20,24,31);stroke-width:1px;"/>
    <rect x="0" y="0" width="24" height="24" style="fill:none;fill-rule:nonzero;"/>
</symbol>
<symbol id="icon-done"  viewBox="0 0 24 24" version="1.1" xmlns="http://www.w3.org/2000/svg" xmlns:xlink="http://www.w3.org/1999/xlink" xml:space="preserve" xmlns:serif="http://www.serif.com/" style="fill-rule:evenodd;clip-rule:evenodd;stroke-linecap:round;stroke-linejoin:round;">
    <g>
        <rect x="0" y="0" width="24" height="24" style="fill:none;fill-rule:nonzero;"/>
        <path d="M12,21C7.029,21 3,16.971 3,12C3,7.029 7.029,3 12,3C16.971,3 21,7.029 21,12C21,16.971 16.971,21 12,21Z" style="fill:none;fill-rule:nonzero;stroke:white;stroke-width:1px;"/>
        <path d="M16,10L11,15L8,12" style="fill:none;fill-rule:nonzero;stroke:white;stroke-width:1px;"/>
    </g>
</symbol>

</defs>
</svg>
