<svg aria-hidden="true" style="position: absolute; width: 0; height: 0; overflow: hidden;" version="1.1" xmlns="http://www.w3.org/2000/svg" xmlns:xlink="http://www.w3.org/1999/xlink">
<defs>
<symbol id="icon-shopping-cart" viewBox="0 0 32 32">
<path fill="none"  stroke-linejoin="round" stroke-linecap="round" stroke-miterlimit="4" stroke-width="1.6667" d="M14.667 27.333c0 0.736-0.597 1.333-1.333 1.333s-1.333-0.597-1.333-1.333c0-0.736 0.597-1.333 1.333-1.333s1.333 0.597 1.333 1.333z"></path>
<path fill="none"  stroke-linejoin="round" stroke-linecap="round" stroke-miterlimit="4" stroke-width="1.6667" d="M25.333 27.333c0 0.736-0.597 1.333-1.333 1.333s-1.333-0.597-1.333-1.333c0-0.736 0.597-1.333 1.333-1.333s1.333 0.597 1.333 1.333z"></path>
<path fill="none"  stroke-linejoin="round" stroke-linecap="round" stroke-miterlimit="4" stroke-width="1.6667" d="M3.333 3.333h4l3.6 16.533c0.256 1.257 1.385 2.159 2.667 2.133h10.267c1.282 0.026 2.411-0.877 2.667-2.133l2.133-11.2h-19.2"></path>
</symbol>
<symbol id="icon-sliders" viewBox="0 0 32 32">
<path fill="none" stroke="#fff" style="stroke: var(--color1, #fff)" stroke-linejoin="round" stroke-linecap="round" stroke-miterlimit="1.5" stroke-width="0.9333" d="M28 6.667c0-0.707-0.281-1.386-0.781-1.886-0.5-0.499-1.178-0.781-1.885-0.781h-18.668c-0.707 0-1.385 0.282-1.885 0.781-0.5 0.501-0.781 1.179-0.781 1.886v18.666c0 0.707 0.281 1.386 0.781 1.886 0.5 0.499 1.178 0.781 1.885 0.781h18.668c0.707 0 1.385-0.282 1.885-0.781 0.5-0.501 0.781-1.179 0.781-1.886v-18.666z"></path>
<path fill="none" stroke="#fff" style="stroke: var(--color1, #fff)" stroke-linejoin="round" stroke-linecap="round" stroke-miterlimit="1.5" stroke-width="1.5067" d="M16 10.667v4"></path>
<path fill="none" stroke="#fff" style="stroke: var(--color1, #fff)" stroke-linejoin="round" stroke-linecap="round" stroke-miterlimit="1.5" stroke-width="0.84" d="M21.333 10.667v10.667"></path>
<path fill="none" stroke="#fff" style="stroke: var(--color1, #fff)" stroke-linejoin="round" stroke-linecap="round" stroke-miterlimit="1.5" stroke-width="1.1733" d="M10.667 10.667v6.667"></path>
</symbol>
<symbol id="icon-star" viewBox="0 0 32 32">
<path fill="none" stroke="#fff" style="stroke: var(--color1, #fff)" stroke-linejoin="miter" stroke-linecap="round" stroke-miterlimit="11" stroke-width="0.8667" d="M16 3.94l2.993 9.212h9.688l-7.838 5.694 2.995 9.214-7.838-5.694-7.838 5.694 2.995-9.214-7.838-5.694h9.688l2.993-9.212z"></path>
</symbol>
<symbol id="icon-close" viewBox="0 0 32 32">
<path fill="none" stroke-linejoin="round" stroke-linecap="round" stroke-miterlimit="4" stroke-width="1.3333" d="M24 8l-16 16"></path>
<path fill="none" stroke-linejoin="round" stroke-linecap="round" stroke-miterlimit="4" stroke-width="1.3333" d="M8 8l16 16"></path>
</symbol>
<symbol id="icon-heart" viewBox="0 0 32 32">
<path fill="none" stroke="#fff" style="stroke: var(--color1, #fff)" stroke-linejoin="round" stroke-linecap="round" stroke-miterlimit="4" stroke-width="1.6667" d="M27.787 6.147c-1.375-1.376-3.242-2.149-5.186-2.149-1.946 0-3.812 0.773-5.187 2.149l-1.413 1.413-1.413-1.414c-1.375-1.375-3.242-2.148-5.186-2.148-4.025 0-7.335 3.312-7.335 7.335 0 1.945 0.773 3.811 2.148 5.187l11.787 11.787 11.787-11.788c1.376-1.374 2.149-3.242 2.149-5.186s-0.773-3.812-2.149-5.187z"></path>
</symbol>
<symbol id="icon-map-marker" viewBox="0 0 32 32">
<path fill="none" stroke="#fff" style="stroke: var(--color1, #fff)" stroke-linejoin="round" stroke-linecap="round" stroke-miterlimit="4" stroke-width="1.3333" d="M20 13.333c0 2.209-1.791 4-4 4s-4-1.791-4-4c0-2.209 1.791-4 4-4s4 1.791 4 4z"></path>
<path fill="none" stroke="#fff" style="stroke: var(--color1, #fff)" stroke-linejoin="round" stroke-linecap="round" stroke-miterlimit="4" stroke-width="1.3333" d="M16 28.933c7.067-6.267 10.667-11.6 10.667-15.6 0-5.852-4.815-10.667-10.667-10.667s-10.667 4.815-10.667 10.667c0 4 3.6 9.2 10.667 15.6z"></path>
</symbol>
<symbol id="icon-menu-show" viewBox="0 0 32 32">
<path fill="none" stroke="#fff" style="stroke: var(--color1, #fff)" stroke-linejoin="round" stroke-linecap="round" stroke-miterlimit="4" stroke-width="1.3333" d="M12 4h-5.333c-1.473 0-2.667 1.193-2.667 2.667 0 4.617 0 14.049 0 18.667 0 1.473 1.193 2.667 2.667 2.667 2.327 0 5.333 0 5.333 0M18.667 22.667l-6.667-6.667 6.667-6.667M13.6 16h14.4"></path>
</symbol>
<symbol id="icon-menu-show2" viewBox="0 0 32 32">
<path fill="none" stroke="#fff" style="stroke: var(--color1, #fff)" stroke-linejoin="round" stroke-linecap="round" stroke-miterlimit="4" stroke-width="1.3333" d="M6.667 16h18.667"></path>
<path fill="none" stroke="#fff" style="stroke: var(--color1, #fff)" stroke-linejoin="round" stroke-linecap="round" stroke-miterlimit="4" stroke-width="1.3333" d="M6.667 8h18.667"></path>
<path fill="none" stroke="#fff" style="stroke: var(--color1, #fff)" stroke-linejoin="round" stroke-linecap="round" stroke-miterlimit="4" stroke-width="1.3333" d="M6.667 24h18.667"></path>
</symbol>
<symbol id="icon-profile" viewBox="0 0 32 32">
<path fill="none" stroke="#fff" style="stroke: var(--color1, #fff)" stroke-linejoin="round" stroke-linecap="round" stroke-miterlimit="1.5" stroke-width="1.3333" d="M20.027 18.667c2.621 1.927 5.641 1.023 6.667 2.667 1.663 2.667 1.333 5.333 1.333 5.333s-5.044 2.667-12.013 2.667c-6.969 0-12.013-2.667-12.013-2.667s-0.329-2.667 1.333-5.333c1.025-1.644 4.045-0.74 6.667-2.667"></path>
<path fill="none" stroke="#fff" style="stroke: var(--color1, #fff)" stroke-linejoin="round" stroke-linecap="round" stroke-miterlimit="1.5" stroke-width="1.3333" d="M16 16.289c6.033 0 8.024-13.576 0.013-13.623-7.983 0-6.020 13.623-0.013 13.623z"></path>
</symbol>
</defs>
</svg>
