<?xml version="1.0" encoding="UTF-8" standalone="no"?>
<!DOCTYPE svg PUBLIC "-//W3C//DTD SVG 1.1//EN" "http://www.w3.org/Graphics/SVG/1.1/DTD/svg11.dtd">
<svg width="100%" height="100%" viewBox="0 0 24 24" version="1.1" xmlns="http://www.w3.org/2000/svg" xmlns:xlink="http://www.w3.org/1999/xlink" xml:space="preserve" xmlns:serif="http://www.serif.com/" style="fill-rule:evenodd;clip-rule:evenodd;stroke-linecap:round;stroke-linejoin:round;">
    <path d="M16,12C16,14.209 14.209,16 12,16C9.791,16 8,14.209 8,12C8,9.791 9.791,8 12,8C14.209,8 16,9.791 16,12L16,13.5C16,14.881 17.119,16 18.5,16C19.881,16 21,14.881 21,13.5L21,12C21,7.029 16.971,3 12,3C7.029,3 3,7.029 3,12C3,16.971 7.029,21 12,21C13.149,21 14.317,20.782 15.444,20.315C16.052,20.063 16.614,19.747 17.133,19.386" style="fill:none;fill-rule:nonzero;stroke:rgb(20,24,31);stroke-width:1px;"/>
    <rect x="0" y="0" width="24" height="24" style="fill:none;fill-rule:nonzero;"/>
</svg>
