<?xml version="1.0" encoding="UTF-8" standalone="no"?>
<!DOCTYPE svg PUBLIC "-//W3C//DTD SVG 1.1//EN" "http://www.w3.org/Graphics/SVG/1.1/DTD/svg11.dtd">
<svg width="100%" height="100%" viewBox="0 0 24 24" version="1.1" xmlns="http://www.w3.org/2000/svg" xmlns:xlink="http://www.w3.org/1999/xlink" xml:space="preserve" xmlns:serif="http://www.serif.com/" style="fill-rule:evenodd;clip-rule:evenodd;stroke-linecap:round;stroke-linejoin:round;">
    <g>
        <path d="M19,21L5,21C3.895,21 3,20.105 3,19L3,5C3,3.895 3.895,3 5,3L19,3C20.105,3 21,3.895 21,5L21,19C21,20.105 20.105,21 19,21Z" style="fill:none;fill-rule:nonzero;stroke:rgb(20,24,31);stroke-width:1px;"/>
        <path d="M11.999,15.425L14.399,16.676C14.866,16.92 15.412,16.526 15.323,16.01L14.865,13.359L16.807,11.482C17.185,11.116 16.977,10.479 16.454,10.404L13.771,10.017L12.571,7.603C12.337,7.133 11.662,7.133 11.429,7.603L10.229,10.017L7.546,10.404C7.024,10.479 6.815,11.117 7.193,11.482L9.135,13.359L8.677,16.01C8.588,16.526 9.134,16.92 9.601,16.676L12.001,15.425" style="fill:none;fill-rule:nonzero;stroke:rgb(20,24,31);stroke-width:1px;"/>
    </g>
    <rect x="0" y="0" width="24" height="24" style="fill:none;fill-rule:nonzero;"/>
</svg>
