<?xml version="1.0" encoding="UTF-8" standalone="no"?>
<!DOCTYPE svg PUBLIC "-//W3C//DTD SVG 1.1//EN" "http://www.w3.org/Graphics/SVG/1.1/DTD/svg11.dtd">
<svg width="100%" height="100%" viewBox="0 0 24 24" version="1.1" xmlns="http://www.w3.org/2000/svg" xmlns:xlink="http://www.w3.org/1999/xlink" xml:space="preserve" xmlns:serif="http://www.serif.com/" style="fill-rule:evenodd;clip-rule:evenodd;stroke-linecap:round;stroke-linejoin:round;">
    <g>
        <path d="M8,3L8,16" style="fill:none;fill-rule:nonzero;stroke:rgb(20,24,31);stroke-width:1px;"/>
        <path d="M19,16L19,20" style="fill:none;fill-rule:nonzero;stroke:rgb(20,24,31);stroke-width:1px;"/>
        <path d="M19,3C19.552,3 20,3.448 20,4L20,15C20,15.552 19.552,16 19,16L6,16C4.895,16 4,16.895 4,18C4,19.105 4.895,20 6,20" style="fill:none;fill-rule:nonzero;stroke:rgb(20,24,31);stroke-width:1px;"/>
        <path d="M6,20L12,20" style="fill:none;fill-rule:nonzero;stroke:rgb(20,24,31);stroke-width:1px;"/>
        <path d="M16,20L20,20" style="fill:none;fill-rule:nonzero;stroke:rgb(20,24,31);stroke-width:1px;"/>
        <path d="M12,18.5L16,18.5L16,22.5L14,21.5L12,22.5L12,18.5Z" style="fill:none;fill-rule:nonzero;stroke:rgb(20,24,31);stroke-width:1px;"/>
        <path d="M4,18L4,5C4,3.895 4.895,3 6,3L19,3" style="fill:none;fill-rule:nonzero;stroke:rgb(20,24,31);stroke-width:1px;"/>
    </g>
</svg>
