<?xml version="1.0" encoding="UTF-8" standalone="no"?>
<!DOCTYPE svg PUBLIC "-//W3C//DTD SVG 1.1//EN" "http://www.w3.org/Graphics/SVG/1.1/DTD/svg11.dtd">
<svg width="100%" height="100%" viewBox="0 0 24 24" version="1.1" xmlns="http://www.w3.org/2000/svg" xmlns:xlink="http://www.w3.org/1999/xlink" xml:space="preserve" xmlns:serif="http://www.serif.com/" style="fill-rule:evenodd;clip-rule:evenodd;stroke-linecap:round;stroke-linejoin:round;">
    <g>
        <path d="M8.585,8.965C8.605,8.985 8.605,9.016 8.585,9.036C8.565,9.056 8.534,9.056 8.514,9.036C8.494,9.016 8.494,8.985 8.514,8.965C8.534,8.945 8.566,8.945 8.585,8.965" style="fill:none;fill-rule:nonzero;stroke:rgb(255,0,64);stroke-width:1px;"/>
        <path d="M8.585,11.965C8.605,11.985 8.605,12.016 8.585,12.036C8.565,12.056 8.534,12.056 8.514,12.036C8.494,12.016 8.494,11.985 8.514,11.965C8.534,11.945 8.566,11.945 8.585,11.965" style="fill:none;fill-rule:nonzero;stroke:rgb(255,0,64);stroke-width:1px;"/>
        <path d="M11,12L15.5,12" style="fill:none;fill-rule:nonzero;stroke:rgb(255,0,64);stroke-width:1px;"/>
        <path d="M8.585,14.965C8.605,14.985 8.605,15.016 8.585,15.036C8.565,15.056 8.534,15.056 8.514,15.036C8.494,15.016 8.494,14.985 8.514,14.965C8.534,14.945 8.566,14.945 8.585,14.965" style="fill:none;fill-rule:nonzero;stroke:rgb(255,0,64);stroke-width:1px;"/>
        <path d="M11,15L15.5,15" style="fill:none;fill-rule:nonzero;stroke:rgb(255,0,64);stroke-width:1px;"/>
        <path d="M18.364,5.636C21.879,9.151 21.879,14.849 18.364,18.364C14.849,21.879 9.151,21.879 5.636,18.364C2.121,14.849 2.121,9.151 5.636,5.636C9.151,2.121 14.849,2.121 18.364,5.636" style="fill:none;fill-rule:nonzero;stroke:rgb(255,0,64);stroke-width:1px;"/>
        <path d="M11,9L15.5,9" style="fill:none;fill-rule:nonzero;stroke:rgb(255,0,64);stroke-width:1px;"/>
    </g>
</svg>
