<?xml version="1.0" encoding="UTF-8" standalone="no"?>
<!DOCTYPE svg PUBLIC "-//W3C//DTD SVG 1.1//EN" "http://www.w3.org/Graphics/SVG/1.1/DTD/svg11.dtd">
<svg width="100%" height="100%" viewBox="0 0 24 24" version="1.1" xmlns="http://www.w3.org/2000/svg" xmlns:xlink="http://www.w3.org/1999/xlink" xml:space="preserve" xmlns:serif="http://www.serif.com/" style="fill-rule:evenodd;clip-rule:evenodd;stroke-linecap:round;stroke-linejoin:round;">
    <path d="M17,8L19.005,8.005C20.1,8.007 21,8.909 21,10.005L21,19C21,20.097 20.097,21 19,21C17.903,21 17,20.097 17,19L17,6C17,4.903 16.097,4 15,4L5,4C3.903,4 3,4.903 3,6L3,19C3,20.097 3.903,21 5,21L19,21" style="fill:none;fill-rule:nonzero;stroke:rgb(20,24,31);stroke-width:1px;"/>
    <path d="M13.5,17L6.5,17" style="fill:none;fill-rule:nonzero;stroke:rgb(20,24,31);stroke-width:1px;"/>
    <path d="M13.5,14L6.5,14" style="fill:none;fill-rule:nonzero;stroke:rgb(20,24,31);stroke-width:1px;"/>
    <path d="M13.5,8.5C13.5,8.224 13.276,8 13,8L7,8C6.724,8 6.5,8.224 6.5,8.5L6.5,10.5C6.5,10.776 6.724,11 7,11L13,11C13.276,11 13.5,10.776 13.5,10.5L13.5,8.5Z" style="fill:none;stroke:rgb(20,24,31);stroke-width:1px;"/>
    <rect x="0" y="0" width="24" height="24" style="fill:none;"/>
</svg>
