<?xml version="1.0" encoding="UTF-8" standalone="no"?><!DOCTYPE svg PUBLIC "-//W3C//DTD SVG 1.1//EN" "http://www.w3.org/Graphics/SVG/1.1/DTD/svg11.dtd"><svg width="100%" height="100%" viewBox="0 0 24 24" version="1.1" xmlns="http://www.w3.org/2000/svg" xmlns:xlink="http://www.w3.org/1999/xlink" xml:space="preserve" xmlns:serif="http://www.serif.com/" style="fill-rule:evenodd;clip-rule:evenodd;stroke-linecap:round;stroke-linejoin:round;"><g><g><path d="M16,18.5l-7.83,0" style="fill:none;fill-rule:nonzero;stroke:#14181f;stroke-width:1px;"/><path d="M18.996,18.5l2,0l-0.01,0c0.55,0 1,-0.45 1,-1l0,-6.12c0,-0.26 -0.05,-0.51 -0.15,-0.75l-1.36,-3.39c-0.31,-0.76 -1.04,-1.26 -1.86,-1.26l-3.65,0" style="fill:none;fill-rule:nonzero;stroke:#14181f;stroke-width:1px;"/><path d="M22,13l-3.51,0c-0.28,-0.01 -0.5,-0.23 -0.5,-0.51l0,-3.501l3.2,0" style="fill:none;fill-rule:nonzero;stroke:#14181f;stroke-width:1px;"/><path d="M18.55,17.44c0.58,0.58 0.58,1.53 0,2.12c-0.59,0.58 -1.54,0.58 -2.13,0c-0.59,-0.59 -0.59,-1.54 -0.01,-2.13l0,-0.02l-0.01,-0c0.58,-0.59 1.53,-0.59 2.12,-0.01" style="fill:none;fill-rule:nonzero;stroke:#14181f;stroke-width:1px;"/><path d="M7.55,17.44c0.58,0.58 0.58,1.53 0,2.12c-0.59,0.58 -1.54,0.58 -2.13,0c-0.59,-0.59 -0.59,-1.54 -0.01,-2.13l0,-0.02l-0.01,-0c0.58,-0.59 1.53,-0.59 2.12,-0" style="fill:none;fill-rule:nonzero;stroke:#14181f;stroke-width:1px;"/><path d="M5,18.5l-2.01,0c-0.56,-0.01 -1,-0.45 -1,-1.01l0,-12.51c-0.01,-0.56 0.44,-1.01 0.99,-1.01l11,0l-0.01,0c0.55,-0.01 1,0.44 1,0.99l0,9" style="fill:none;fill-rule:nonzero;stroke:#14181f;stroke-width:1px;"/><path d="M15,14l-13,0" style="fill:none;fill-rule:nonzero;stroke:#14181f;stroke-width:1px;"/></g></g></svg>