<?xml version="1.0" encoding="UTF-8" standalone="no"?>
<!DOCTYPE svg PUBLIC "-//W3C//DTD SVG 1.1//EN" "http://www.w3.org/Graphics/SVG/1.1/DTD/svg11.dtd">
<svg width="100%" height="100%" viewBox="0 0 24 24" version="1.1" xmlns="http://www.w3.org/2000/svg" xmlns:xlink="http://www.w3.org/1999/xlink" xml:space="preserve" xmlns:serif="http://www.serif.com/" style="fill-rule:evenodd;clip-rule:evenodd;stroke-linecap:round;stroke-linejoin:round;">
    <g>
        <path d="M13.499,13.48C13.361,13.481 13.25,13.593 13.25,13.731C13.25,13.869 13.362,13.981 13.5,13.98C13.638,13.98 13.75,13.868 13.75,13.73C13.75,13.592 13.638,13.48 13.499,13.48" style="fill:none;fill-rule:nonzero;stroke:rgb(20,24,31);stroke-width:1px;"/>
        <path d="M3,6.283L3,6C3,4.343 4.343,3 6,3L18,3C19.657,3 21,4.343 21,6L21,15C21,16.657 19.657,18 18,18L17,18" style="fill:none;fill-rule:nonzero;stroke:rgb(20,24,31);stroke-width:1px;"/>
        <path d="M21,9L17,9" style="fill:none;fill-rule:nonzero;stroke:rgb(20,24,31);stroke-width:1px;"/>
        <path d="M13.325,20.922C15.205,21.356 17,19.928 17,17.999L17,9.387C17,7.99 16.036,6.778 14.675,6.464L5.45,4.335C4.196,4.045 3,4.997 3,6.283L3,16.152C3,17.549 3.964,18.761 5.325,19.075L13.325,20.922Z" style="fill:none;fill-rule:nonzero;stroke:rgb(20,24,31);stroke-width:1px;"/>
    </g>
</svg>
