<?xml version="1.0" encoding="UTF-8" standalone="no"?><!DOCTYPE svg PUBLIC "-//W3C//DTD SVG 1.1//EN" "http://www.w3.org/Graphics/SVG/1.1/DTD/svg11.dtd"><svg width="100%" height="100%" viewBox="0 0 24 24" version="1.1" xmlns="http://www.w3.org/2000/svg" xmlns:xlink="http://www.w3.org/1999/xlink" xml:space="preserve" xmlns:serif="http://www.serif.com/" style="fill-rule:evenodd;clip-rule:evenodd;stroke-linecap:round;stroke-linejoin:round;"><g><path d="M12.379,15.809c0.941,-1.257 2.017,-2.406 3.21,-3.427l0.02,-0.017c0.202,-0.173 0.226,-0.477 0.053,-0.679c-0.016,-0.019 -0.034,-0.037 -0.053,-0.053l-0.02,-0.017c-1.193,-1.02 -2.269,-2.17 -3.21,-3.427c-0.157,-0.209 -0.453,-0.252 -0.662,-0.096c-0.037,0.028 -0.069,0.06 -0.096,0.096c-0.941,1.257 -2.017,2.407 -3.21,3.427l-0.02,0.017c-0.202,0.173 -0.226,0.477 -0.053,0.679c0.016,0.019 0.034,0.037 0.053,0.053l0.02,0.017c1.193,1.021 2.269,2.17 3.21,3.427c0.157,0.21 0.453,0.252 0.663,0.096c0.036,-0.027 0.068,-0.059 0.095,-0.096l0,0Z" style="fill:none;fill-rule:nonzero;stroke:#14181f;stroke-width:1px;"/><path id="a" d="M18.364,5.636c3.515,3.515 3.515,9.213 0,12.728c-3.515,3.515 -9.213,3.515 -12.728,-0c-3.515,-3.515 -3.515,-9.213 0,-12.728c0,0 0,0 0,0c3.515,-3.515 9.213,-3.515 12.728,0" style="fill:none;fill-rule:nonzero;stroke:#14181f;stroke-width:1px;"/><path id="a1" serif:id="a" d="M18.364,5.636c3.515,3.515 3.515,9.213 0,12.728c-3.515,3.515 -9.213,3.515 -12.728,-0c-3.515,-3.515 -3.515,-9.213 0,-12.728c0,0 0,0 0,0c3.515,-3.515 9.213,-3.515 12.728,0" style="fill:none;fill-rule:nonzero;stroke:#14181f;stroke-width:1px;"/></g><rect x="0" y="0" width="24" height="24" style="fill:none;"/></svg>