<?xml version="1.0" encoding="UTF-8" standalone="no"?><!DOCTYPE svg PUBLIC "-//W3C//DTD SVG 1.1//EN" "http://www.w3.org/Graphics/SVG/1.1/DTD/svg11.dtd"><svg width="100%" height="100%" viewBox="0 0 24 24" version="1.1" xmlns="http://www.w3.org/2000/svg" xmlns:xlink="http://www.w3.org/1999/xlink" xml:space="preserve" xmlns:serif="http://www.serif.com/" style="fill-rule:evenodd;clip-rule:evenodd;stroke-linecap:round;stroke-linejoin:round;"><rect x="0" y="0" width="24" height="24" style="fill:none;"/><path d="M19,7l-1.406,-2.109c-0.371,-0.556 -0.996,-0.891 -1.664,-0.891l-3.86,0c-0.668,0 -1.293,0.335 -1.664,0.891l-1.406,2.109l-5,0c-1.097,0 -2,0.903 -2,2l-0,10c-0,1.097 0.903,2 2,2l16,0c1.097,0 2,-0.903 2,-2l0,-10c0,-1.097 -0.903,-2 -2,-2l-1,0Z" style="fill:none;fill-rule:nonzero;stroke:#8592ad;stroke-width:1px;"/><path d="M2,11l3,0c0.549,0 1,0.451 1,1l0,5c0,0.549 -0.451,1 -1,1l-3,0l0,-7Z" style="fill:none;fill-rule:nonzero;stroke:#8592ad;stroke-width:1px;"/><circle cx="14" cy="14" r="4" style="fill:none;stroke:#8592ad;stroke-width:1px;"/><path d="M13,7l2,0" style="fill:none;fill-rule:nonzero;stroke:#8592ad;stroke-width:1px;"/></svg>