<?xml version="1.0" encoding="UTF-8" standalone="no"?><!DOCTYPE svg PUBLIC "-//W3C//DTD SVG 1.1//EN" "http://www.w3.org/Graphics/SVG/1.1/DTD/svg11.dtd"><svg width="100%" height="100%" viewBox="0 0 24 24" version="1.1" xmlns="http://www.w3.org/2000/svg" xmlns:xlink="http://www.w3.org/1999/xlink" xml:space="preserve" xmlns:serif="http://www.serif.com/" style="fill-rule:evenodd;clip-rule:evenodd;stroke-linecap:round;stroke-linejoin:round;"><rect x="0" y="0" width="24" height="24" style="fill:none;fill-rule:nonzero;"/><path d="M11,3l-5,0c-1.646,0 -3,1.354 -3,3l0,9c0,1.646 1.354,3 3,3l2.007,0l0,2.443c0,0.305 0.251,0.556 0.556,0.556c0.126,-0 0.249,-0.043 0.347,-0.122l3.597,-2.877l5.493,-0c1.646,-0 3,-1.354 3,-3l0,-2" style="fill:none;fill-rule:nonzero;stroke:#14181f;stroke-width:1px;"/><path d="M17.103,2.558c0.168,-0.341 0.517,-0.558 0.897,-0.558c0.38,0 0.729,0.217 0.897,0.558l0.509,1.031c0.145,0.295 0.427,0.5 0.753,0.547l1.138,0.166c0.489,0.071 0.856,0.495 0.856,0.989c-0,0.27 -0.109,0.528 -0.302,0.716l-0.824,0.804c-0.235,0.229 -0.343,0.561 -0.287,0.885l0.194,1.133c0.01,0.056 0.015,0.112 0.015,0.169c-0,0.548 -0.452,1 -1,1c-0.163,-0 -0.322,-0.04 -0.466,-0.115l-1.018,-0.535c-0.291,-0.153 -0.639,-0.153 -0.93,-0l-1.018,0.535c-0.144,0.075 -0.304,0.115 -0.466,0.115c-0.548,-0 -1,-0.452 -1,-1c0,-0.057 0.005,-0.113 0.015,-0.169l0.194,-1.133c0.056,-0.324 -0.052,-0.656 -0.287,-0.885l-0.824,-0.804c-0.193,-0.188 -0.302,-0.446 -0.302,-0.716c0,-0.494 0.367,-0.918 0.856,-0.989l1.139,-0.166c0.325,-0.047 0.607,-0.252 0.752,-0.547l0.509,-1.031Z" style="fill:none;fill-rule:nonzero;stroke:#14181f;stroke-width:1px;"/><path d="M11,9l-4,0" style="fill:none;fill-rule:nonzero;stroke:#14181f;stroke-width:1px;"/><path d="M7,13l8,0" style="fill:none;fill-rule:nonzero;stroke:#14181f;stroke-width:1px;"/></svg>