<?xml version="1.0" encoding="UTF-8" standalone="no"?><!DOCTYPE svg PUBLIC "-//W3C//DTD SVG 1.1//EN" "http://www.w3.org/Graphics/SVG/1.1/DTD/svg11.dtd"><svg width="100%" height="100%" viewBox="0 0 24 24" version="1.1" xmlns="http://www.w3.org/2000/svg" xmlns:xlink="http://www.w3.org/1999/xlink" xml:space="preserve" xmlns:serif="http://www.serif.com/" style="fill-rule:evenodd;clip-rule:evenodd;stroke-linecap:round;stroke-linejoin:round;"><g><path d="M11.467,14.467c-1.427,0 -2.583,-1.157 -2.583,-2.583l0,-0.834c0,-1.427 1.157,-2.583 2.583,-2.583c1.427,0 2.583,1.157 2.583,2.583l0,0.833c0,1.427 -1.156,2.584 -2.583,2.584Z" style="fill:none;fill-rule:nonzero;stroke:#8592ad;stroke-width:1px;"/><path d="M18.934,11.467c0,4.124 -3.343,7.467 -7.467,7.467c-4.124,0 -7.467,-3.343 -7.467,-7.467c0,-4.124 3.343,-7.467 7.467,-7.467c4.124,0 7.467,3.343 7.467,7.467" style="fill:none;fill-rule:nonzero;stroke:#8592ad;stroke-width:1px;"/><path d="M15.5,14.5l-0.7,-1.033l-0.797,-0.548" style="fill:none;fill-rule:nonzero;stroke:#8592ad;stroke-width:1px;"/><path d="M6.47,11.47l10,0" style="fill:none;fill-rule:nonzero;stroke:#8592ad;stroke-width:1px;"/><path d="M7.434,14.5l0.7,-1.033l0.797,-0.548" style="fill:none;fill-rule:nonzero;stroke:#8592ad;stroke-width:1px;"/><path d="M7.434,8.434l0.7,1.033l0.797,0.548" style="fill:none;fill-rule:nonzero;stroke:#8592ad;stroke-width:1px;"/><path d="M15.5,8.434l-0.7,1.033l-0.797,0.548" style="fill:none;fill-rule:nonzero;stroke:#8592ad;stroke-width:1px;"/><path d="M20,20l-3.25,-3.25" style="fill:none;fill-rule:nonzero;stroke:#8592ad;stroke-width:1px;"/></g></svg>