<?xml version="1.0" encoding="UTF-8" standalone="no"?><!DOCTYPE svg PUBLIC "-//W3C//DTD SVG 1.1//EN" "http://www.w3.org/Graphics/SVG/1.1/DTD/svg11.dtd"><svg width="100%" height="100%" viewBox="0 0 24 24" version="1.1" xmlns="http://www.w3.org/2000/svg" xmlns:xlink="http://www.w3.org/1999/xlink" xml:space="preserve" xmlns:serif="http://www.serif.com/" style="fill-rule:evenodd;clip-rule:evenodd;stroke-linecap:round;stroke-linejoin:round;"><g><path d="M7,14.5l-0.5,0" style="fill:none;fill-rule:nonzero;stroke:#14181f;stroke-width:1px;"/><path d="M12.5,14.5l-0.5,0" style="fill:none;fill-rule:nonzero;stroke:#14181f;stroke-width:1px;"/><path d="M11.62,16.62l-0.35,-0.35" style="fill:none;fill-rule:nonzero;stroke:#14181f;stroke-width:1px;"/><path d="M7.38,12.38l0.35,0.35" style="fill:none;fill-rule:nonzero;stroke:#14181f;stroke-width:1px;"/><path d="M9.5,11.5l0,0.5" style="fill:none;fill-rule:nonzero;stroke:#14181f;stroke-width:1px;"/><path d="M9.5,17.5l0,-0.5" style="fill:none;fill-rule:nonzero;stroke:#14181f;stroke-width:1px;"/><path d="M7.38,16.62l0.35,-0.35" style="fill:none;fill-rule:nonzero;stroke:#14181f;stroke-width:1px;"/><path d="M11.62,12.38l-0.35,0.35" style="fill:none;fill-rule:nonzero;stroke:#14181f;stroke-width:1px;"/><path d="M11.213,12.787c0.947,0.946 0.947,2.48 0,3.426c-0.946,0.947 -2.48,0.947 -3.426,0c-0.947,-0.946 -0.947,-2.48 -0,-3.426c0.946,-0.947 2.48,-0.947 3.426,-0" style="fill:none;fill-rule:nonzero;stroke:#14181f;stroke-width:1px;"/><path d="M15.87,10.87l0.3,0.63" style="fill:none;fill-rule:nonzero;stroke:#14181f;stroke-width:1px;"/><path d="M13.83,6.5l0.3,0.63" style="fill:none;fill-rule:nonzero;stroke:#14181f;stroke-width:1px;"/><path d="M16.17,6.5l-0.3,0.63" style="fill:none;fill-rule:nonzero;stroke:#14181f;stroke-width:1px;"/><path d="M14.13,10.87l-0.3,0.63" style="fill:none;fill-rule:nonzero;stroke:#14181f;stroke-width:1px;"/><path d="M17.5,7.83l-0.63,0.3" style="fill:none;fill-rule:nonzero;stroke:#14181f;stroke-width:1px;"/><path d="M12.5,10.17l0.63,-0.3" style="fill:none;fill-rule:nonzero;stroke:#14181f;stroke-width:1px;"/><path d="M17.5,10.17l-0.63,-0.3" style="fill:none;fill-rule:nonzero;stroke:#14181f;stroke-width:1px;"/><path d="M13.13,8.13l-0.63,-0.3" style="fill:none;fill-rule:nonzero;stroke:#14181f;stroke-width:1px;"/><path d="M16.463,7.537c0.808,0.808 0.808,2.118 0,2.926c-0.808,0.808 -2.118,0.808 -2.926,0c-0.808,-0.808 -0.808,-2.118 -0,-2.926c0.808,-0.808 2.118,-0.808 2.926,-0" style="fill:none;fill-rule:nonzero;stroke:#14181f;stroke-width:1px;"/><path d="M15.331,20.986l-6.662,0c-3.131,0 -5.669,-2.538 -5.669,-5.669l0,-6.662c0,-3.131 2.538,-5.669 5.669,-5.669l6.661,0c3.132,0 5.67,2.538 5.67,5.669l0,6.661c0,3.132 -2.538,5.67 -5.669,5.67Z" style="fill:none;fill-rule:nonzero;stroke:#14181f;stroke-width:1px;"/></g><rect x="0" y="0" width="24" height="24" style="fill:none;fill-rule:nonzero;"/></svg>