<?xml version="1.0" encoding="UTF-8" standalone="no"?><!DOCTYPE svg PUBLIC "-//W3C//DTD SVG 1.1//EN" "http://www.w3.org/Graphics/SVG/1.1/DTD/svg11.dtd"><svg width="100%" height="100%" viewBox="0 0 24 24" version="1.1" xmlns="http://www.w3.org/2000/svg" xmlns:xlink="http://www.w3.org/1999/xlink" xml:space="preserve" xmlns:serif="http://www.serif.com/" style="fill-rule:evenodd;clip-rule:evenodd;stroke-linecap:round;stroke-linejoin:round;"><g><path d="M18.5,21l-12,0c-1.105,0 -2,-0.895 -2,-2l0,-10.5c0,-0.828 0.672,-1.5 1.5,-1.5l13,0c0.828,0 1.5,0.672 1.5,1.5l0,10.5c0,1.105 -0.895,2 -2,2Z" style="fill:none;fill-rule:nonzero;stroke:#14181f;stroke-width:1px;"/><path d="M16.499,10.3c-0.138,0 -0.25,0.112 -0.249,0.25c0,0.138 0.112,0.25 0.25,0.25c0.138,0 0.25,-0.112 0.25,-0.25c0,-0.138 -0.112,-0.25 -0.251,-0.25" style="fill:none;fill-rule:nonzero;stroke:#14181f;stroke-width:1px;"/><path d="M8.499,10.3c-0.138,0 -0.25,0.112 -0.249,0.25c0,0.138 0.112,0.25 0.25,0.25c0.138,0 0.25,-0.112 0.25,-0.25c0,-0.138 -0.112,-0.25 -0.251,-0.25" style="fill:none;fill-rule:nonzero;stroke:#14181f;stroke-width:1px;"/><path d="M8.5,7l0,-0.25c0,-2.071 1.679,-3.75 3.75,-3.75l0.5,0c2.071,0 3.75,1.679 3.75,3.75l0,0.25" style="fill:none;fill-rule:nonzero;stroke:#14181f;stroke-width:1px;"/></g><rect x="0.5" y="0" width="24" height="24" style="fill:none;fill-rule:nonzero;"/></svg>