<?xml version="1.0" encoding="UTF-8" standalone="no"?><!DOCTYPE svg PUBLIC "-//W3C//DTD SVG 1.1//EN" "http://www.w3.org/Graphics/SVG/1.1/DTD/svg11.dtd"><svg width="100%" height="100%" viewBox="0 0 24 24" version="1.1" xmlns="http://www.w3.org/2000/svg" xmlns:xlink="http://www.w3.org/1999/xlink" xml:space="preserve" xmlns:serif="http://www.serif.com/" style="fill-rule:evenodd;clip-rule:evenodd;stroke-linecap:round;stroke-linejoin:round;"><g><path d="M8,3l-2.11,3.777" style="fill:none;fill-rule:nonzero;stroke:#8592ad;stroke-width:1px;"/><path d="M15,3l2.3,3.777" style="fill:none;fill-rule:nonzero;stroke:#8592ad;stroke-width:1px;"/><path d="M16,21c-2.761,0 -5,-2.239 -5,-5c0,-2.761 2.239,-5 5,-5c2.762,0 5,2.239 5,5c0,2.761 -2.238,5 -5,5" style="fill:none;fill-rule:nonzero;stroke:#8592ad;stroke-width:1px;"/><path d="M18.222,14.889l-2.778,2.778l-1.666,-1.667" style="fill:none;fill-rule:nonzero;stroke:#8592ad;stroke-width:1px;"/><path d="M19.441,12.375l0.703,-3.246c0.262,-1.209 -0.657,-2.352 -1.896,-2.352l-13.308,0c-1.236,0 -2.157,1.143 -1.896,2.352l1.471,6.792c0.192,0.893 0.982,1.529 1.896,1.529l4.804,0" style="fill:none;fill-rule:nonzero;stroke:#8592ad;stroke-width:1px;"/></g><rect x="0" y="0" width="24" height="24" style="fill:none;fill-rule:nonzero;"/></svg>