<svg aria-hidden="true" style="position: absolute; width: 0; height: 0; overflow: hidden;" version="1.1" xmlns="http://www.w3.org/2000/svg" xmlns:xlink="http://www.w3.org/1999/xlink">
<defs>
<symbol id="icon-lightning" viewBox="0 0 32 32">
<path fill="none" stroke="#ff0040" style="stroke: var(--color1, #ff0040)" stroke-linejoin="round" stroke-linecap="round" stroke-miterlimit="4" stroke-width="1.3333" d="M25.097 15.433l-8.015 11.577c-0.735 1.060-2.397 0.541-2.397-0.749v-7.631h-6.7c-1.061 0-1.687-1.192-1.081-2.065l8.015-11.577c0.735-1.060 2.397-0.541 2.397 0.749v7.631h6.7c1.060 0 1.685 1.192 1.081 2.065z"></path>
</symbol>
<symbol id="icon-logout" viewBox="0 0 32 32">
<path stroke-linejoin="round" stroke-linecap="round" stroke-miterlimit="4" stroke-width="1.3333" d="M8 4h16c1.473 0 2.667 1.193 2.667 2.667v18.667c0 1.473-1.193 2.667-2.667 2.667h-16c-1.473 0-2.667-1.193-2.667-2.667v-18.667c0-1.473 1.193-2.667 2.667-2.667z"></path>
<path stroke-linejoin="round" stroke-linecap="round" stroke-miterlimit="4" stroke-width="1.3333" d="M12 14.667v2.667"></path>
<path stroke-linejoin="round" stroke-linecap="round" stroke-miterlimit="4" stroke-width="1.3333" d="M5.333 25.331c0 1.983 2.087 3.272 3.859 2.385l5.333-2.667c0.904-0.453 1.475-1.376 1.475-2.387v-18.663"></path>
</symbol>
<symbol id="icon-review-star-cursor" viewBox="0 0 32 32">
<path fill="none" stroke="#8592ad" style="stroke: var(--color2, #8592ad)" stroke-linejoin="round" stroke-linecap="round" stroke-miterlimit="4" stroke-width="1.3333" d="M29.333 16v-8c0-2.925-2.408-5.333-5.333-5.333h-16c-2.925 0-5.333 2.408-5.333 5.333v9.333c0 2.925 2.408 5.333 5.333 5.333h2.667"></path>
<path fill="none" stroke="#8592ad" style="stroke: var(--color2, #8592ad)" stroke-linejoin="round" stroke-linecap="round" stroke-miterlimit="4" stroke-width="1.3333" d="M28.913 28l0.399-3.2c0.177-1.413-0.809-2.732-2.216-2.961l-3.096-0.505v-3.333c0-1.097-0.903-2-2-2s-2 0.903-2 2v6l-0.78-0.781c-0.355-0.353-0.835-0.552-1.335-0.552s-0.98 0.199-1.333 0.552c-0.633 0.633-0.732 1.635-0.235 2.38l1.6 2.401"></path>
<path fill="none" stroke="#8592ad" style="stroke: var(--color2, #8592ad)" stroke-linejoin="round" stroke-linecap="round" stroke-miterlimit="4" stroke-width="1.3333" d="M11.62 8.651c0.196-0.397 0.603-0.651 1.047-0.651s0.851 0.253 1.047 0.651l0.593 1.203c0.169 0.344 0.499 0.584 0.879 0.639l1.328 0.193c0.571 0.083 0.999 0.577 0.999 1.155 0 0.315-0.128 0.616-0.352 0.835l-0.961 0.937c-0.275 0.268-0.4 0.655-0.336 1.033l0.227 1.321c0.012 0.065 0.017 0.131 0.017 0.197 0 0.64-0.527 1.167-1.167 1.167-0.189 0-0.375-0.045-0.543-0.133l-1.188-0.625c-0.34-0.177-0.745-0.177-1.085 0l-1.188 0.625c-0.168 0.088-0.353 0.133-0.543 0.133-0.64 0-1.167-0.527-1.167-1.167 0-0.067 0.005-0.132 0.017-0.197l0.227-1.321c0.064-0.379-0.061-0.765-0.336-1.033l-0.961-0.937c-0.224-0.219-0.352-0.52-0.352-0.835 0-0.577 0.428-1.072 0.999-1.155l1.328-0.193c0.38-0.055 0.709-0.295 0.879-0.639l0.593-1.203z"></path>
</symbol>
<symbol id="icon-search-lk" viewBox="0 0 32 32">
<path fill="none" stroke="#8592ad" style="stroke: var(--color2, #8592ad)" stroke-linejoin="round" stroke-linecap="round" stroke-miterlimit="4" stroke-width="1.3333" d="M15.289 19.289c-1.903 0-3.444-1.543-3.444-3.444v-1.112c0-1.903 1.543-3.444 3.444-3.444 1.903 0 3.444 1.543 3.444 3.444v1.111c0 1.903-1.541 3.445-3.444 3.445z"></path>
<path fill="none" stroke="#8592ad" style="stroke: var(--color2, #8592ad)" stroke-linejoin="round" stroke-linecap="round" stroke-miterlimit="4" stroke-width="1.3333" d="M25.245 15.289c0 5.499-4.457 9.956-9.956 9.956s-9.956-4.457-9.956-9.956c0-5.499 4.457-9.956 9.956-9.956s9.956 4.457 9.956 9.956"></path>
<path fill="none" stroke="#8592ad" style="stroke: var(--color2, #8592ad)" stroke-linejoin="round" stroke-linecap="round" stroke-miterlimit="4" stroke-width="1.3333" d="M20.667 19.333l-0.933-1.377-1.063-0.731"></path>
<path fill="none" stroke="#8592ad" style="stroke: var(--color2, #8592ad)" stroke-linejoin="round" stroke-linecap="round" stroke-miterlimit="4" stroke-width="1.3333" d="M8.627 15.293h13.333"></path>
<path fill="none" stroke="#8592ad" style="stroke: var(--color2, #8592ad)" stroke-linejoin="round" stroke-linecap="round" stroke-miterlimit="4" stroke-width="1.3333" d="M9.912 19.333l0.933-1.377 1.063-0.731"></path>
<path fill="none" stroke="#8592ad" style="stroke: var(--color2, #8592ad)" stroke-linejoin="round" stroke-linecap="round" stroke-miterlimit="4" stroke-width="1.3333" d="M9.912 11.245l0.933 1.377 1.063 0.731"></path>
<path fill="none" stroke="#8592ad" style="stroke: var(--color2, #8592ad)" stroke-linejoin="round" stroke-linecap="round" stroke-miterlimit="4" stroke-width="1.3333" d="M20.667 11.245l-0.933 1.377-1.063 0.731"></path>
<path fill="none" stroke="#8592ad" style="stroke: var(--color2, #8592ad)" stroke-linejoin="round" stroke-linecap="round" stroke-miterlimit="4" stroke-width="1.3333" d="M26.667 26.667l-4.333-4.333"></path>
</symbol>
<symbol id="icon-settings" viewBox="0 0 32 32">
<path stroke-linejoin="round" stroke-linecap="round" stroke-miterlimit="4" stroke-width="1.3333" d="M9.333 19.333h-0.667"></path>
<path stroke-linejoin="round" stroke-linecap="round" stroke-miterlimit="4" stroke-width="1.3333" d="M16.667 19.333h-0.667"></path>
<path stroke-linejoin="round" stroke-linecap="round" stroke-miterlimit="4" stroke-width="1.3333" d="M15.493 22.16l-0.467-0.467"></path>
<path stroke-linejoin="round" stroke-linecap="round" stroke-miterlimit="4" stroke-width="1.3333" d="M9.84 16.507l0.467 0.467"></path>
<path stroke-linejoin="round" stroke-linecap="round" stroke-miterlimit="4" stroke-width="1.3333" d="M12.667 15.333v0.667"></path>
<path stroke-linejoin="round" stroke-linecap="round" stroke-miterlimit="4" stroke-width="1.3333" d="M12.667 23.333v-0.667"></path>
<path stroke-linejoin="round" stroke-linecap="round" stroke-miterlimit="4" stroke-width="1.3333" d="M9.84 22.16l0.467-0.467"></path>
<path stroke-linejoin="round" stroke-linecap="round" stroke-miterlimit="4" stroke-width="1.3333" d="M15.493 16.507l-0.467 0.467"></path>
<path stroke-linejoin="round" stroke-linecap="round" stroke-miterlimit="4" stroke-width="1.3333" d="M14.951 17.049c1.263 1.261 1.263 3.307 0 4.568-1.261 1.263-3.307 1.263-4.568 0-1.263-1.261-1.263-3.307 0-4.568 1.261-1.263 3.307-1.263 4.568 0"></path>
<path stroke-linejoin="round" stroke-linecap="round" stroke-miterlimit="4" stroke-width="1.3333" d="M21.16 14.493l0.4 0.84"></path>
<path stroke-linejoin="round" stroke-linecap="round" stroke-miterlimit="4" stroke-width="1.3333" d="M18.44 8.667l0.4 0.84"></path>
<path stroke-linejoin="round" stroke-linecap="round" stroke-miterlimit="4" stroke-width="1.3333" d="M21.56 8.667l-0.4 0.84"></path>
<path stroke-linejoin="round" stroke-linecap="round" stroke-miterlimit="4" stroke-width="1.3333" d="M18.84 14.493l-0.4 0.84"></path>
<path stroke-linejoin="round" stroke-linecap="round" stroke-miterlimit="4" stroke-width="1.3333" d="M23.333 10.44l-0.84 0.4"></path>
<path stroke-linejoin="round" stroke-linecap="round" stroke-miterlimit="4" stroke-width="1.3333" d="M16.667 13.56l0.84-0.4"></path>
<path stroke-linejoin="round" stroke-linecap="round" stroke-miterlimit="4" stroke-width="1.3333" d="M23.333 13.56l-0.84-0.4"></path>
<path stroke-linejoin="round" stroke-linecap="round" stroke-miterlimit="4" stroke-width="1.3333" d="M17.507 10.84l-0.84-0.4"></path>
<path stroke-linejoin="round" stroke-linecap="round" stroke-miterlimit="4" stroke-width="1.3333" d="M21.951 10.049c1.077 1.077 1.077 2.824 0 3.901s-2.824 1.077-3.901 0c-1.077-1.077-1.077-2.824 0-3.901s2.824-1.077 3.901 0"></path>
<path stroke-linejoin="round" stroke-linecap="round" stroke-miterlimit="4" stroke-width="1.3333" d="M20.441 27.981h-8.883c-4.175 0-7.559-3.384-7.559-7.559v-8.883c0-4.175 3.384-7.559 7.559-7.559h8.881c4.176 0 7.56 3.384 7.56 7.559v8.881c0 4.176-3.384 7.56-7.559 7.56z"></path>
</symbol>
<symbol id="icon-shop-cart-3" viewBox="0 0 32 32">
<path stroke-linejoin="round" stroke-linecap="round" stroke-miterlimit="4" stroke-width="1.3333" d="M24.667 28h-16c-1.473 0-2.667-1.193-2.667-2.667v-14c0-1.104 0.896-2 2-2h17.333c1.104 0 2 0.896 2 2v14c0 1.473-1.193 2.667-2.667 2.667z"></path>
<path stroke-linejoin="round" stroke-linecap="round" stroke-miterlimit="4" stroke-width="1.3333" d="M21.999 13.733c-0.184 0-0.333 0.149-0.332 0.333 0 0.184 0.149 0.333 0.333 0.333s0.333-0.149 0.333-0.333c0-0.184-0.149-0.333-0.335-0.333"></path>
<path stroke-linejoin="round" stroke-linecap="round" stroke-miterlimit="4" stroke-width="1.3333" d="M11.332 13.733c-0.184 0-0.333 0.149-0.332 0.333 0 0.184 0.149 0.333 0.333 0.333s0.333-0.149 0.333-0.333c0-0.184-0.149-0.333-0.335-0.333"></path>
<path stroke-linejoin="round" stroke-linecap="round" stroke-miterlimit="4" stroke-width="1.3333" d="M11.333 9.333v-0.333c0-2.761 2.239-5 5-5h0.667c2.761 0 5 2.239 5 5v0.333"></path>
</symbol>
<symbol id="icon-shop-cart-4" viewBox="0 0 32 32">
<path fill="none" stroke="#8592ad" style="stroke: var(--color2, #8592ad)" stroke-linejoin="round" stroke-linecap="round" stroke-miterlimit="4" stroke-width="1.3333" d="M10.667 4l-2.813 5.036"></path>
<path fill="none" stroke="#8592ad" style="stroke: var(--color2, #8592ad)" stroke-linejoin="round" stroke-linecap="round" stroke-miterlimit="4" stroke-width="1.3333" d="M20 4l3.067 5.036"></path>
<path fill="none" stroke="#8592ad" style="stroke: var(--color2, #8592ad)" stroke-linejoin="round" stroke-linecap="round" stroke-miterlimit="4" stroke-width="1.3333" d="M21.333 28c-3.681 0-6.667-2.985-6.667-6.667s2.985-6.667 6.667-6.667c3.683 0 6.667 2.985 6.667 6.667s-2.984 6.667-6.667 6.667"></path>
<path fill="none" stroke="#8592ad" style="stroke: var(--color2, #8592ad)" stroke-linejoin="round" stroke-linecap="round" stroke-miterlimit="4" stroke-width="1.3333" d="M24.296 19.852l-3.704 3.704-2.221-2.223"></path>
<path fill="none" stroke="#8592ad" style="stroke: var(--color2, #8592ad)" stroke-linejoin="round" stroke-linecap="round" stroke-miterlimit="4" stroke-width="1.3333" d="M25.921 16.5l0.937-4.328c0.349-1.612-0.876-3.136-2.528-3.136h-17.744c-1.648 0-2.876 1.524-2.528 3.136l1.961 9.056c0.256 1.191 1.309 2.039 2.528 2.039h6.405"></path>
</symbol>
<symbol id="icon-text-item-list" viewBox="0 0 32 32">
<path fill="none" stroke="#8592ad" style="stroke: var(--color2, #8592ad)" stroke-linejoin="round" stroke-linecap="round" stroke-miterlimit="4" stroke-width="1.3333" d="M13.333 4.667h-6.667c-1.473 0-2.667 1.193-2.667 2.667v6.667c0 1.473 1.193 2.667 2.667 2.667h6.667c1.473 0 2.667-1.193 2.667-2.667v-6.668c0-1.472-1.193-2.665-2.667-2.665z"></path>
<path fill="none" stroke="#8592ad" style="stroke: var(--color2, #8592ad)" stroke-linejoin="round" stroke-linecap="round" stroke-miterlimit="4" stroke-width="1.3333" d="M8 8.827h4"></path>
<path fill="none" stroke="#8592ad" style="stroke: var(--color2, #8592ad)" stroke-linejoin="round" stroke-linecap="round" stroke-miterlimit="4" stroke-width="1.3333" d="M10 8.827v3.68"></path>
<path fill="none" stroke="#8592ad" style="stroke: var(--color2, #8592ad)" stroke-linejoin="round" stroke-linecap="round" stroke-miterlimit="4" stroke-width="1.3333" d="M28 16h-8"></path>
<path fill="none" stroke="#8592ad" style="stroke: var(--color2, #8592ad)" stroke-linejoin="round" stroke-linecap="round" stroke-miterlimit="4" stroke-width="1.3333" d="M28 10.667h-8"></path>
<path fill="none" stroke="#8592ad" style="stroke: var(--color2, #8592ad)" stroke-linejoin="round" stroke-linecap="round" stroke-miterlimit="4" stroke-width="1.3333" d="M28 5.333h-8"></path>
<path fill="none" stroke="#8592ad" style="stroke: var(--color2, #8592ad)" stroke-linejoin="round" stroke-linecap="round" stroke-miterlimit="4" stroke-width="1.3333" d="M28 26.667h-24"></path>
<path fill="none" stroke="#8592ad" style="stroke: var(--color2, #8592ad)" stroke-linejoin="round" stroke-linecap="round" stroke-miterlimit="4" stroke-width="1.3333" d="M28 21.333h-24"></path>
</symbol>
<symbol id="icon-tickets" viewBox="0 0 32 32">
<path stroke-linejoin="round" stroke-linecap="round" stroke-miterlimit="4" stroke-width="1.3333" d="M18.667 24l5.333 4v-4h1.333c1.473 0 2.667-1.193 2.667-2.667v-8c0-1.473-1.193-2.667-2.667-2.667h-10.667c-1.473 0-2.667 1.193-2.667 2.667v8c0 1.473 1.193 2.667 2.667 2.667h4z"></path>
<path stroke-linejoin="round" stroke-linecap="round" stroke-miterlimit="4" stroke-width="1.3333" d="M12 20l-4 2.667v-4h-1.333c-1.473 0-2.667-1.193-2.667-2.667v-8c0-1.473 1.193-2.667 2.667-2.667h12c1.473 0 2.667 1.193 2.667 2.667v2.667"></path>
<path stroke-linejoin="round" stroke-linecap="round" stroke-miterlimit="4" stroke-width="1.3333" d="M16.573 17.287c0.027 0.025 0.027 0.068 0 0.093-0.025 0.027-0.068 0.027-0.093 0-0.027-0.025-0.027-0.068 0-0.093 0.025-0.027 0.068-0.027 0.093 0"></path>
<path stroke-linejoin="round" stroke-linecap="round" stroke-miterlimit="4" stroke-width="1.3333" d="M20.047 17.287c0.027 0.025 0.027 0.068 0 0.093-0.025 0.027-0.068 0.027-0.093 0-0.027-0.025-0.027-0.068 0-0.093 0.025-0.027 0.068-0.027 0.093 0"></path>
<path stroke-linejoin="round" stroke-linecap="round" stroke-miterlimit="4" stroke-width="1.3333" d="M23.52 17.287c0.027 0.025 0.027 0.068 0 0.093-0.025 0.027-0.068 0.027-0.093 0-0.027-0.025-0.027-0.068 0-0.093 0.025-0.027 0.068-0.027 0.093 0"></path>
</symbol>
<symbol id="icon-bonus" viewBox="0 0 32 32">
<path stroke-linejoin="round" stroke-linecap="round" stroke-miterlimit="4" stroke-width="1.3333" d="M16.505 21.079c1.255-1.676 2.689-3.208 4.28-4.569l0.027-0.023c0.269-0.231 0.301-0.636 0.071-0.905-0.021-0.025-0.045-0.049-0.071-0.071l-0.027-0.023c-1.591-1.36-3.025-2.893-4.28-4.569-0.209-0.279-0.604-0.336-0.883-0.128-0.049 0.037-0.092 0.080-0.128 0.128-1.255 1.676-2.689 3.209-4.28 4.569l-0.027 0.023c-0.269 0.231-0.301 0.636-0.071 0.905 0.021 0.025 0.045 0.049 0.071 0.071l0.027 0.023c1.591 1.361 3.025 2.893 4.28 4.569 0.209 0.28 0.604 0.336 0.884 0.128 0.048-0.036 0.091-0.079 0.127-0.128v0z"></path>
<path stroke-linejoin="round" stroke-linecap="round" stroke-miterlimit="4" stroke-width="1.3333" d="M24.485 7.515c4.687 4.687 4.687 12.284 0 16.971s-12.284 4.687-16.971 0c-4.687-4.687-4.687-12.284 0-16.971 0 0 0 0 0 0 4.687-4.687 12.284-4.687 16.971 0"></path>
</symbol>
<symbol id="icon-chat2" viewBox="0 0 32 32">
<path stroke-linejoin="round" stroke-linecap="round" stroke-miterlimit="4" stroke-width="1.3333" d="M14.667 4h-6.667c-2.195 0-4 1.805-4 4v12c0 2.195 1.805 4 4 4h2.676v3.257c0 0.407 0.335 0.741 0.741 0.741 0.168 0 0.332-0.057 0.463-0.163l4.796-3.836h7.324c2.195 0 4-1.805 4-4v-2.667"></path>
<path stroke-linejoin="round" stroke-linecap="round" stroke-miterlimit="4" stroke-width="1.3333" d="M22.804 3.411c0.224-0.455 0.689-0.744 1.196-0.744s0.972 0.289 1.196 0.744l0.679 1.375c0.193 0.393 0.569 0.667 1.004 0.729l1.517 0.221c0.652 0.095 1.141 0.66 1.141 1.319 0 0.36-0.145 0.704-0.403 0.955l-1.099 1.072c-0.313 0.305-0.457 0.748-0.383 1.18l0.259 1.511c0.013 0.075 0.020 0.149 0.020 0.225 0 0.731-0.603 1.333-1.333 1.333-0.217 0-0.429-0.053-0.621-0.153l-1.357-0.713c-0.388-0.204-0.852-0.204-1.24 0l-1.357 0.713c-0.192 0.1-0.405 0.153-0.621 0.153-0.731 0-1.333-0.603-1.333-1.333 0-0.076 0.007-0.151 0.020-0.225l0.259-1.511c0.075-0.432-0.069-0.875-0.383-1.18l-1.099-1.072c-0.257-0.251-0.403-0.595-0.403-0.955 0-0.659 0.489-1.224 1.141-1.319l1.519-0.221c0.433-0.063 0.809-0.336 1.003-0.729l0.679-1.375z"></path>
<path stroke-linejoin="round" stroke-linecap="round" stroke-miterlimit="4" stroke-width="1.3333" d="M14.667 12h-5.333"></path>
<path stroke-linejoin="round" stroke-linecap="round" stroke-miterlimit="4" stroke-width="1.3333" d="M9.333 17.333h10.667"></path>
</symbol>
<symbol id="icon-camera" viewBox="0 0 32 32">
<path fill="none" stroke="#8592ad" style="stroke: var(--color2, #8592ad)" stroke-linejoin="round" stroke-linecap="round" stroke-miterlimit="4" stroke-width="1.3333" d="M25.333 9.333l-1.875-2.812c-0.495-0.741-1.328-1.188-2.219-1.188h-5.147c-0.891 0-1.724 0.447-2.219 1.188l-1.875 2.812h-6.667c-1.463 0-2.667 1.204-2.667 2.667v13.333c0 1.463 1.204 2.667 2.667 2.667h21.333c1.463 0 2.667-1.204 2.667-2.667v-13.333c0-1.463-1.204-2.667-2.667-2.667h-1.333z"></path>
<path fill="none" stroke="#8592ad" style="stroke: var(--color2, #8592ad)" stroke-linejoin="round" stroke-linecap="round" stroke-miterlimit="4" stroke-width="1.3333" d="M2.667 14.667h4c0.732 0 1.333 0.601 1.333 1.333v6.667c0 0.732-0.601 1.333-1.333 1.333h-4v-9.333z"></path>
<path fill="none" stroke="#8592ad" style="stroke: var(--color2, #8592ad)" stroke-linejoin="round" stroke-linecap="round" stroke-miterlimit="4" stroke-width="1.3333" d="M24 18.667c0 2.946-2.388 5.333-5.333 5.333s-5.333-2.388-5.333-5.333c0-2.946 2.388-5.333 5.333-5.333s5.333 2.388 5.333 5.333z"></path>
<path fill="none" stroke="#8592ad" style="stroke: var(--color2, #8592ad)" stroke-linejoin="round" stroke-linecap="round" stroke-miterlimit="4" stroke-width="1.3333" d="M17.333 9.333h2.667"></path>
</symbol>
</defs>
</svg>
