<?xml version="1.0" encoding="UTF-8" standalone="no"?><!DOCTYPE svg PUBLIC "-//W3C//DTD SVG 1.1//EN" "http://www.w3.org/Graphics/SVG/1.1/DTD/svg11.dtd"><svg width="100%" height="100%" viewBox="0 0 24 24" version="1.1" xmlns="http://www.w3.org/2000/svg" xmlns:xlink="http://www.w3.org/1999/xlink" xml:space="preserve" xmlns:serif="http://www.serif.com/" style="fill-rule:evenodd;clip-rule:evenodd;stroke-linecap:round;stroke-linejoin:round;"><g><path d="M10,3.5l-5,0c-1.105,0 -2,0.895 -2,2l0,5c0,1.105 0.895,2 2,2l5,0c1.105,0 2,-0.895 2,-2l0,-5.001c0,-1.104 -0.895,-1.999 -2,-1.999Z" style="fill:none;fill-rule:nonzero;stroke:#8592ad;stroke-width:1px;"/><path d="M6,6.62l3,0" style="fill:none;fill-rule:nonzero;stroke:#8592ad;stroke-width:1px;"/><path d="M7.5,6.62l0,2.76" style="fill:none;fill-rule:nonzero;stroke:#8592ad;stroke-width:1px;"/><path d="M21,12l-6,0" style="fill:none;fill-rule:nonzero;stroke:#8592ad;stroke-width:1px;"/><path d="M21,8l-6,0" style="fill:none;fill-rule:nonzero;stroke:#8592ad;stroke-width:1px;"/><path d="M21,4l-6,0" style="fill:none;fill-rule:nonzero;stroke:#8592ad;stroke-width:1px;"/><path d="M21,20l-18,0" style="fill:none;fill-rule:nonzero;stroke:#8592ad;stroke-width:1px;"/><path d="M21,16l-18,0" style="fill:none;fill-rule:nonzero;stroke:#8592ad;stroke-width:1px;"/></g></svg>