<?xml version="1.0" encoding="UTF-8" standalone="no"?><!DOCTYPE svg PUBLIC "-//W3C//DTD SVG 1.1//EN" "http://www.w3.org/Graphics/SVG/1.1/DTD/svg11.dtd"><svg width="100%" height="100%" viewBox="0 0 24 24" version="1.1" xmlns="http://www.w3.org/2000/svg" xmlns:xlink="http://www.w3.org/1999/xlink" xml:space="preserve" xmlns:serif="http://www.serif.com/" style="fill-rule:evenodd;clip-rule:evenodd;stroke-linecap:round;stroke-linejoin:round;"><g><path d="M14,18l4,3l0,-3l1,0c1.105,0 2,-0.895 2,-2l0,-6c0,-1.105 -0.895,-2 -2,-2l-8,0c-1.105,0 -2,0.895 -2,2l0,6c0,1.105 0.895,2 2,2l3,0Z" style="fill:none;fill-rule:nonzero;stroke:#14181f;stroke-width:1px;"/><path d="M9,15l-3,2l0,-3l-1,0c-1.105,0 -2,-0.895 -2,-2l0,-6c0,-1.105 0.895,-2 2,-2l9,0c1.105,0 2,0.895 2,2l0,2" style="fill:none;fill-rule:nonzero;stroke:#14181f;stroke-width:1px;"/><path d="M12.43,12.965c0.02,0.019 0.02,0.051 0,0.07c-0.019,0.02 -0.051,0.02 -0.07,0c-0.02,-0.019 -0.02,-0.051 -0,-0.07c0.019,-0.02 0.051,-0.02 0.07,-0" style="fill:none;fill-rule:nonzero;stroke:#14181f;stroke-width:1px;"/><path d="M15.035,12.965c0.02,0.019 0.02,0.051 0,0.07c-0.019,0.02 -0.051,0.02 -0.07,0c-0.02,-0.019 -0.02,-0.051 -0,-0.07c0.019,-0.02 0.051,-0.02 0.07,-0" style="fill:none;fill-rule:nonzero;stroke:#14181f;stroke-width:1px;"/><path d="M17.64,12.965c0.02,0.019 0.02,0.051 0,0.07c-0.019,0.02 -0.051,0.02 -0.07,0c-0.02,-0.019 -0.02,-0.051 -0,-0.07c0.019,-0.02 0.051,-0.02 0.07,-0" style="fill:none;fill-rule:nonzero;stroke:#14181f;stroke-width:1px;"/></g></svg>